<svg id="Layer_1" data-name="Layer 1" xmlns="http://www.w3.org/2000/svg" xmlns:xlink="http://www.w3.org/1999/xlink" viewBox="0 0 3203.19 2370.53"><defs><style>.cls-1,.cls-3{fill:none;}.cls-2{clip-path:url(#clip-path);}.cls-3{stroke:#636466;stroke-miterlimit:10;stroke-width:0.25px;}</style><clipPath id="clip-path" transform="translate(886.27 373.51)"><rect class="cls-1" x="19.85" y="17.59" width="1920" height="1224"/></clipPath></defs><g class="cls-2"><path class="cls-3" d="M640.94,1117.53c-1.43.38-2.86.75-4.3,1.1A257.94,257.94,0,0,1,324.33,930.86a222.36,222.36,0,0,1,158.84-268.5l3-.77A192.46,192.46,0,0,1,629.39,681.5a201.67,201.67,0,0,0-17.8-12A196.37,196.37,0,0,0,462,647.08l-58.22,14.51L365.08,506.33l58.22-14.5A357.66,357.66,0,0,1,856.81,752.41a302.11,302.11,0,0,1-215.87,365.12Z" transform="translate(886.27 373.51)"/><path class="cls-3" d="M635.83,1098.19c-1.33.36-2.66.7-4,1A238,238,0,0,1,343.74,926,202.37,202.37,0,0,1,488.28,681.69L491,681A173.74,173.74,0,0,1,701.6,807.56c15.41,61.85-10.34,125-59.77,160A162.34,162.34,0,0,0,721,786.26,217.66,217.66,0,0,0,457.14,627.68l-38.81,9.67-29-116.44,38.81-9.67a337.66,337.66,0,0,1,409.28,246,282.14,282.14,0,0,1-201.58,340.94Z" transform="translate(886.27 373.51)"/><path class="cls-3" d="M630.72,1078.86l-3.7,1c-116.48,29-234.85-42.14-263.88-158.62A182.35,182.35,0,0,1,493.39,701l2.46-.63a153.74,153.74,0,0,1,186.35,112c17.21,69.09-24.78,140.1-93.61,158.3l-1.83.47A112.91,112.91,0,0,1,450.06,889a98.32,98.32,0,0,1,18.79-85.1,102.53,102.53,0,0,0-28.08,98c18.36,73.68,93.23,118.69,166.91,100.33l2.64-.68a182.12,182.12,0,0,0,130-220.08A237.66,237.66,0,0,0,452.31,608.27l-19.41,4.84-19.34-77.63L433,530.64A317.66,317.66,0,0,1,818,762.08a262.14,262.14,0,0,1-187.28,316.78Zm-90-231.24a18.3,18.3,0,0,0-13,22,32.67,32.67,0,0,0,12.38,18.46l-8.52-34.19,16.17-4.07a6.75,6.75,0,0,0-1.77-1.54,6.52,6.52,0,0,0-5-.76Z" transform="translate(886.27 373.51)"/><path class="cls-3" d="M625.61,1059.52l-3.43.88c-105.78,26.35-213.27-38.26-239.63-144C360.93,829.6,413.9,741.47,500.7,719.8a133.74,133.74,0,0,1,162.09,97.43,111.12,111.12,0,0,1-79.31,134.13l-1.55.4a92.9,92.9,0,0,1-112.47-67.6,78.32,78.32,0,0,1,57-94.83,66.67,66.67,0,0,1,80.71,48.52,57.33,57.33,0,0,1-40.93,69.2l-.8.21-9.67-38.82.24-.06a17.28,17.28,0,0,0,12.34-20.87,26.6,26.6,0,0,0-32.22-19.36l-.53.13a38.29,38.29,0,0,0-27.32,46.21,52.84,52.84,0,0,0,64,38.45l1-.25A71.07,71.07,0,0,0,624,826.91a93.72,93.72,0,0,0-113.61-68.29l-1.71.43a122.32,122.32,0,0,0-87.3,147.64c21,84.37,106.78,135.92,191.15,114.9a202.12,202.12,0,0,0,147.27-245A257.65,257.65,0,0,0,447.47,588.86l-9.67-38.81A297.65,297.65,0,0,1,798.59,766.92a242.12,242.12,0,0,1-173,292.6Z" transform="translate(886.27 373.51)"/><path class="cls-3" d="M442.64,569.46c148.8-37.08,299.47,53.5,336.55,202.29,29.66,119-42.8,239.59-161.84,269.24A177.7,177.7,0,0,1,402,911.52,142.16,142.16,0,0,1,505.53,739.21a113.72,113.72,0,0,1,137.85,82.86A91,91,0,0,1,577.1,932.35a72.79,72.79,0,0,1-88.23-53,58.23,58.23,0,0,1,42.43-70.58,46.59,46.59,0,0,1,56.46,33.94,37.26,37.26,0,0,1-27.15,45.17" transform="translate(886.27 373.51)"/><path class="cls-3" d="M593.06,1315.23,560.63,1166a298.39,298.39,0,0,1-275.11-225.5,263,263,0,0,1,81.58-260.6L316.59,477.19l97-24.17c103.07-25.68,210-9.69,301,45C786.88,541.48,842,604.47,874.8,680.93l146.57-31.85,118.92,547.23Z" transform="translate(886.27 373.51)"/><path class="cls-3" d="M862.58,704.06c-29.91-78.75-84.94-144.79-158.25-188.86a375.19,375.19,0,0,0-285.87-42.78l-77.63,19.34,48.36,194.07,3.18-.79A242.9,242.9,0,0,0,304.92,935.7a278.29,278.29,0,0,0,271.9,210.63l31.53,145.11L1116.49,1181,1006.07,672.88Z" transform="translate(886.27 373.51)"/><rect class="cls-3" x="567.21" y="742.16" width="480" height="480" transform="translate(2481.82 358.3) rotate(77.74)"/><rect class="cls-3" x="587.21" y="762.16" width="440" height="440" transform="translate(2481.82 358.3) rotate(77.74)"/><rect class="cls-3" x="607.21" y="782.16" width="400" height="400" transform="translate(2481.82 358.3) rotate(77.74)"/><rect class="cls-3" x="627.21" y="802.16" width="360" height="360" transform="translate(2481.82 358.3) rotate(77.74)"/><rect class="cls-3" x="647.21" y="822.16" width="320" height="320" transform="translate(2481.82 358.3) rotate(77.74)"/><rect class="cls-3" x="667.21" y="842.16" width="280" height="280" transform="translate(2481.82 358.3) rotate(77.74)"/><rect class="cls-3" x="687.21" y="862.16" width="240" height="240" transform="translate(2481.82 358.3) rotate(77.74)"/><rect class="cls-3" x="707.21" y="882.16" width="200" height="200" transform="translate(696.11 567.32) rotate(-12.26)"/><rect class="cls-3" x="727.21" y="902.16" width="160" height="160" transform="translate(696.11 567.33) rotate(-12.26)"/><path class="cls-3" d="M1265,1333l-794.3,172.59-44.35-204.08a469.07,469.07,0,0,1-87.69-40.71c-104.84-63-178.85-163-208.38-281.54-27-108.36-10.49-221,46.48-317.16,4.73-8,9.8-15.94,15.12-23.7L151,474.21-539.31,256.46l11.48-104.28L1521.6-25l7.14,404.68-12.69,10.14L1684.36,1497Z" transform="translate(886.27 373.51)"/><path class="cls-3" d="M1266.64,1312.13,486,1481.76l-42.53-195.69a448.91,448.91,0,0,1-94.51-42.45c-100.26-60.27-171-155.89-199.27-269.24-25.72-103.22-10-210.52,44.27-302.13,6-10.18,12.58-20.19,19.53-29.88L167.66,458.5-517.63,242.33l7.89-71.64L1502-3.26l6.59,373.43-14,11.21L1659.38,1465.7Z" transform="translate(886.27 373.51)"/><path class="cls-3" d="M1268.3,1291.3,501.28,1458,460.5,1270.33a427.8,427.8,0,0,1-101.25-43.85C263.56,1169,196,1077.72,169.08,969.55a379.8,379.8,0,0,1,42.07-287.1,388.61,388.61,0,0,1,24-35.8L184.35,442.8l-680.3-214.6,4.29-39,1974-170.69,6,342.18L1473,373,1634.4,1434.46Z" transform="translate(886.27 373.51)"/><path class="cls-3" d="M1462.74,40.28-489.94,209.12l684.68,216,5.48-1.36L256.9,651.23a366.16,366.16,0,0,0-28.54,41.41,359.93,359.93,0,0,0-39.88,272.07c25.66,103,90,189.86,181.07,244.63a406.74,406.74,0,0,0,107.91,44.87l39.11,180,742.67-161.38-1.54-7.12,351.72,137.54L1451.53,364.56l16.7-13.35Z" transform="translate(886.27 373.51)"/><path class="cls-3" d="M936,544.83l177.11-38.49,14.36,66.08,300.38-240.17L1423.5,83.82-285.68,231.61l481.7,152,188.59-47C518.79,303.15,658,324,776.45,395.21A521.51,521.51,0,0,1,936,544.83Z" transform="translate(886.27 373.51)"/><path class="cls-3" d="M1114.81,608.18l-17-78L927.2,567.21l-7.61-11A502.54,502.54,0,0,0,766.15,412.35c-113.93-68.49-247.71-88.5-376.7-56.37L195.38,404.33l-583.19-184L1443.12,62.05l4.94,279.68Z" transform="translate(886.27 373.51)"/><path class="cls-3" d="M944.69,522.48l183.76-39.94,11.76,54.12,267.51-213.89-3.84-217.17L-183.56,242.86,196.66,362.79l183.12-45.62c139.36-34.72,283.89-13.09,407,60.9A543.4,543.4,0,0,1,944.69,522.48Z" transform="translate(886.27 373.51)"/><path class="cls-3" d="M953,500.21l190.75-41.46,9.15,42.15,234.65-187.61-3.29-185.92L-81.43,254.1,197.3,342l177.64-44.26c144.55-36,294.46-13.58,422.12,63.16A565.38,565.38,0,0,1,953,500.21Z" transform="translate(886.27 373.51)"/><path class="cls-3" d="M961,478l198-43,6.56,30.18,201.78-161.33-2.74-154.67L20.7,265.34l177.23,55.91,172.18-42.9c149.73-37.3,305-14.06,437.26,65.43A587.16,587.16,0,0,1,961,478Z" transform="translate(886.27 373.51)"/><path class="cls-3" d="M968.68,455.86l205.66-44.69,4,18.21,168.91-135L1345,170.91,530.75,241.32c100.27,3.37,198.57,32.21,286.92,85.32A608.57,608.57,0,0,1,968.68,455.86Z" transform="translate(886.27 373.51)"/><path class="cls-3" d="M976.1,433.79l213.54-46.41,1.35,6.25,136-108.78-1.63-92.17-636.28,55A621.8,621.8,0,0,1,828,309.5,630.3,630.3,0,0,1,976.1,433.79Z" transform="translate(886.27 373.51)"/><path class="cls-3" d="M983.26,411.76l210.14-45.67,113.47-90.72-1.08-60.92L777.51,260.13a640.53,640.53,0,0,1,60.77,32.23A651.8,651.8,0,0,1,983.26,411.76Z" transform="translate(886.27 373.51)"/><path class="cls-3" d="M990.19,389.79l194.38-42.24,102.13-81.66-.53-29.67-439.28,38,1.69,1A672.85,672.85,0,0,1,990.19,389.79Z" transform="translate(886.27 373.51)"/><path class="cls-3" d="M996.89,367.87,1175.75,329l88.56-70.82-358.43,31A701.88,701.88,0,0,1,996.89,367.87Z" transform="translate(886.27 373.51)"/><path class="cls-3" d="M198.57,300.48,365.27,259Q377,256,388.69,253.6l-265.87,23Z" transform="translate(886.27 373.51)"/><path class="cls-3" d="M1230.23,1233.47l5.22,24L531.87,1410.39l-37.54-172.73a384.45,384.45,0,0,1-114.47-45.47c-86.53-52-147.6-134.51-172-232.31a340,340,0,0,1,37.68-257,346.42,346.42,0,0,1,33.16-46.71L219.62,418.91l174.67-43.52c123.8-30.85,252.21-11.63,361.56,54.1A478.14,478.14,0,0,1,917.56,589.77l165-35.85,19.56,90,331.37-265,151,993Z" transform="translate(886.27 373.51)"/><path class="cls-3" d="M1202.76,1201.25l8.9,41L547.17,1386.6l-36.07-166a362.75,362.75,0,0,1-120.94-45.59c-82-49.25-139.79-127.39-162.86-220a320.18,320.18,0,0,1,35.47-242,325.74,325.74,0,0,1,37.88-51.63L243.87,433.48,399.12,394.8c118.62-29.56,241.65-11.15,346.42,51.83A456.36,456.36,0,0,1,907.67,612.39l159.59-34.68,22.16,102,329.51-263.46,140.53,924.49Z" transform="translate(886.27 373.51)"/><path class="cls-3" d="M1175.29,1169l12.58,57.87-625.41,135.9-34.71-159.72a341.19,341.19,0,0,1-127.29-45.18A335.44,335.44,0,0,1,246.7,950.2a300.27,300.27,0,0,1,33.28-227,304.86,304.86,0,0,1,42.7-56.14l-54.57-219L404,414.2c113.44-28.26,231.09-10.66,331.28,49.57,69.33,41.68,125.09,100.7,162,171.35L1052,601.5l24.76,114,327.64-262,130.13,856Z" transform="translate(886.27 373.51)"/><path class="cls-3" d="M1389.79,490.74,1064,751.21l-27.37-125.92L886.35,658c-35.07-73.5-90.6-134.48-161.41-177-95.62-57.47-207.89-74.27-316.15-47.3l-116.44,29,52.48,210.61a283.13,283.13,0,0,0-78.72,272.14,315.56,315.56,0,0,0,144.66,195.4,319,319,0,0,0,133.5,44.14L577.76,1339l586.32-127.41-16.25-74.79,361.68,141.43Z" transform="translate(886.27 373.51)"/><polygon class="cls-3" points="1693.48 1355.66 2261.5 901.5 2370.8 1620.51 1693.48 1355.66"/><polygon class="cls-3" points="1733.03 1349.65 2246.93 938.76 2345.82 1589.27 1733.03 1349.65"/><polygon class="cls-3" points="1772.57 1343.64 2232.36 976.01 2320.84 1558.03 1772.57 1343.64"/><polygon class="cls-3" points="1812.12 1337.63 2217.8 1013.26 2295.86 1526.79 1812.12 1337.63"/><polygon class="cls-3" points="1851.66 1331.62 2203.23 1050.52 2270.88 1495.54 1851.66 1331.62"/><polygon class="cls-3" points="1891.21 1325.61 2188.67 1087.77 2245.91 1464.3 1891.21 1325.61"/><polygon class="cls-3" points="1930.75 1319.6 2174.1 1125.03 2220.93 1433.06 1930.75 1319.6"/><polygon class="cls-3" points="1970.3 1313.59 2159.53 1162.28 2195.95 1401.82 1970.3 1313.59"/><polygon class="cls-3" points="2009.84 1307.57 2144.97 1199.53 2170.97 1370.58 2009.84 1307.57"/><polygon class="cls-3" points="2145.99 1339.34 2049.39 1301.56 2130.4 1236.79 2145.99 1339.34"/><path class="cls-3" d="M1238.48,1666.19l-1012.55,220-80.14-368.8c-163.08-107.52-278.71-270.86-326-460.83-28-112.52-28.46-236.68-1.46-351.76l-704.42-222.2,69-626.61L1835.51-373.37,1842-7.1c73.21,19.37,145.26,52.37,204.4,93.77A634.36,634.36,0,0,1,2295.6,443.86c42.51,160.83,20.62,329.27-61.64,474.28a639.4,639.4,0,0,1-274.73,257.77L2084,1996.82Z" transform="translate(886.27 373.51)"/><path class="cls-3" d="M1240.13,1645.36l-998.9,217.05-77.64-357.29C1.05,1400.41-114,1239.72-160.84,1051.74c-28.89-116-27.71-243.14,3.07-360.34L-864.46,468.47l65.38-594,2615-226.11,6.35,360.16c76.13,18.15,151.1,51.4,212.67,94.49A614.42,614.42,0,0,1,2276.26,449c41.17,155.75,20,318.87-59.69,459.3-63.68,112.25-162.48,202.62-279.36,255.9L2059,1965.58Z" transform="translate(886.27 373.51)"/><path class="cls-3" d="M1241.79,1624.53,256.52,1838.62l-75.16-345.89c-162-101.87-276.47-259.88-322.79-445.83-29.76-119.42-26.8-249.57,8.1-368.77L-842.78,454.34-781-107,1796.27-329.83l6.25,354.46c79,16.65,156.92,50,220.91,94.81a594.34,594.34,0,0,1,233.5,334.64c39.82,150.67,19.31,308.46-57.76,444.32a595.33,595.33,0,0,1-284,253.64l118.92,782.3Z" transform="translate(886.27 373.51)"/><path class="cls-3" d="M1243.45,1603.71,271.82,1814.83l-72.71-334.62C37.7,1381.24-76.23,1225.89-122,1042.07c-30.62-122.93-25.69-256,13.67-377L-821.1,440.21l58.19-528.68L1776.65-308.06l6.16,349.2C1864.73,56,1945.52,89.31,2012,135.82a574.28,574.28,0,0,1,225.63,323.37c38.48,145.58,18.66,298.06-55.82,429.34a573.44,573.44,0,0,1-288.77,251l116.08,763.62Z" transform="translate(886.27 373.51)"/><path class="cls-3" d="M1245.1,1582.88,287.12,1791l-70.3-323.49-1.82-1.09c-159.8-96-272.59-248.48-317.62-429.22C-134.13,910.77-127,774.87-82.8,652.13L-799.43,426.07l54.6-496L1757-286.29l6.07,344.43c84.8,12.75,168.48,45.83,237.39,94.07A554.31,554.31,0,0,1,2218.26,464.3c37.13,140.5,18,287.65-53.88,414.36-65.64,115.71-169.45,203.18-293.59,247.81l113.31,745.38Z" transform="translate(886.27 373.51)"/><path class="cls-3" d="M1246.76,1562.06,302.42,1767.25,234.5,1454.74c-3.13-1.81-6.21-3.62-9.2-5.42C70.09,1356-39.48,1208-83.21,1032.4a645.33,645.33,0,0,1,26.61-393L-777.75,411.94l51-463.39L1737.41-264.51l6,340.19C1831.05,86,1917.64,118.62,1989,168.59a534.28,534.28,0,0,1,209.89,300.82c35.79,135.42,17.35,277.25-51.94,399.38-66.26,116.81-171.8,203-298.47,244.17l110.61,727.65Z" transform="translate(886.27 373.51)"/><path class="cls-3" d="M1248.42,1541.23,317.71,1743.46l-65.56-301.7c-5.69-3.18-11.23-6.39-16.55-9.58C85,1341.63-21.36,1197.94-63.81,1027.57A622.81,622.81,0,0,1-29.69,626.94L-756.07,397.8l47.41-430.74,2426.45-209.8,5.94,336.56c90.46,7.4,179.94,39.43,253.83,91.15a514.27,514.27,0,0,1,202,289.55c71.31,269.78-86.82,547.17-353.44,624.39l108,710.46Z" transform="translate(886.27 373.51)"/><path class="cls-3" d="M1250.07,1520.4,333,1719.67l-63.25-291.06c-8.3-4.48-16.3-9-23.86-13.58-146-87.79-249.15-227.11-290.3-392.3A601.56,601.56,0,0,1-2,614.7l-732.39-231,43.81-398.09L1698.17-221l5.89,333.59c93.26,4.08,185.62,35.25,262,88.74a494.26,494.26,0,0,1,194.16,278.27c69.53,263.08-87.93,533.68-351,603.21l-5.55,1.43,105.47,693.86Z" transform="translate(886.27 373.51)"/><path class="cls-3" d="M1251.73,1499.58,348.31,1695.87l-61-280.58c-10.84-5.65-21.46-11.59-31.12-17.4-141.47-85-241.34-220-281.2-380A580.87,580.87,0,0,1,20.82,613.71l-3.45-13.87-730.09-230.3L-672.49,4.09l2351-203.29,5.85,331.36a473.52,473.52,0,0,1,456.51,352.58c66.72,252.42-84.36,512.05-336.78,578.76q-11.37,3-23,5.47l103,677.92Z" transform="translate(886.27 373.51)"/><path class="cls-3" d="M1253.39,1478.75,363.6,1672.08l-58.73-270.27c-13.37-6.73-26.48-13.92-38.36-21.06C129.62,1298.47,33,1167.89-5.59,1013.06A560.26,560.26,0,0,1,42.05,616.19l-8-32.05L-691,355.4l36.63-332.8,2313.34-200,5.82,330a453.52,453.52,0,0,1,456.83,337.31c63.89,241.76-80.81,490.42-322.56,554.32-13.34,3.52-26.91,6.46-40.55,8.77l100.74,662.7Z" transform="translate(886.27 373.51)"/><path class="cls-3" d="M1255,1457.92,378.9,1648.29l-56.53-260.15c-15.89-7.68-31.48-16.07-45.55-24.53-132.32-79.53-225.72-205.74-263-355.38a539.68,539.68,0,0,1,49.5-389.41L50.77,568.43-669.37,341.27l33-300.16L1639.31-155.66l5.82,329.52C1854,155.19,2048,289.91,2102.24,495c61.08,231.09-77.24,468.78-308.33,529.86a438.51,438.51,0,0,1-58.24,11.24l98.56,648.33Z" transform="translate(886.27 373.51)"/><path class="cls-3" d="M1256.7,1437.09,394.2,1624.5l-54.38-250.23a563.78,563.78,0,0,1-52.7-27.8c-127.74-76.78-217.9-198.62-253.89-343.08a519.07,519.07,0,0,1,51.4-381.78L67.46,552.73l-715.15-225.6,29.45-267.51L1619.69-133.89l5.83,330.14c205.65-29.15,403.65,100.51,457.38,303.83,58.26,220.42-73.67,447.15-294.1,505.41a416.13,416.13,0,0,1-76.07,12.74l96.52,634.93Z" transform="translate(886.27 373.51)"/><path class="cls-3" d="M1258.36,1416.27,409.49,1600.71,357.23,1360.2a545.09,545.09,0,0,1-59.81-30.88c-123.15-74-210.09-191.49-244.78-330.76C20.83,870.89,39.78,738.23,106,624.57L84.16,537-626,313l25.85-234.87L1600.07-112.12l5.86,332c202.2-40.61,404.25,83.3,457.64,285.3,55.44,209.76-70.11,425.53-279.88,481a393.47,393.47,0,0,1-94.07,13.08l94.65,622.68Z" transform="translate(886.27 373.51)"/><path class="cls-3" d="M1260,1395.44,424.79,1576.92l-50.2-231a526.89,526.89,0,0,1-66.86-33.72C189.15,1240.91,105.45,1127.81,72,993.72,41.21,870,60.05,741.31,125.11,631.48c.74-1.25,1.5-2.51,2.26-3.77L100.86,521.32l-705.2-222.45,22.26-202.23,2162.53-187L1586.37,245l1.34-.36c199.1-52.62,403.9,66.55,456.52,265.66s-66.55,403.9-265.65,456.52a371,371,0,0,1-112.29,12.08l93,611.77Z" transform="translate(886.27 373.51)"/><path class="cls-3" d="M1261.67,1374.61,440.09,1553.13l-48.2-221.77A509.75,509.75,0,0,1,318,1295c-114-68.52-194.47-177.25-226.58-306.15C61.89,870.26,80,747,142.32,641.67c2.09-3.53,4.27-7.08,6.49-10.62L117.56,505.62-582.66,284.73-564,115.15,1560.84-68.57l6,340.5c8.57-3,17.25-5.64,26-7.95,188.44-49.81,382.27,63,432.08,251.43s-63,382.27-251.43,432.08a349.5,349.5,0,0,1-130.75,9.43l91.59,602.51Z" transform="translate(886.27 373.51)"/><path class="cls-3" d="M1597.93,283.31a334.58,334.58,0,0,0-50.57,17.82L1541.22-46.8-545.91,133.66-561,270.6,134.26,489.91l36.05,144.68c-3.75,5.71-7.36,11.49-10.78,17.28C99.86,752.59,82.58,870.56,110.86,984.05c30.82,123.72,108.06,228.08,217.48,293.85a489.87,489.87,0,0,0,80.8,38.66l46.24,212.78,807.95-175.56,446,174.41-90.5-595.27a331.49,331.49,0,0,0,149.52-4.77c177.78-47,284.19-229.85,237.2-407.63S1775.71,236.33,1597.93,283.31Z" transform="translate(886.27 373.51)"/><circle class="cls-3" cx="1683.14" cy="605.73" r="313.49" transform="translate(950.93 1741.08) rotate(-45)"/><circle class="cls-3" cx="1683.14" cy="605.73" r="293.49" transform="translate(950.93 1741.08) rotate(-45)"/><circle class="cls-3" cx="1683.14" cy="605.73" r="273.49" transform="translate(950.93 1741.08) rotate(-45)"/><circle class="cls-3" cx="1683.14" cy="605.73" r="253.49" transform="translate(950.93 1741.08) rotate(-45)"/><circle class="cls-3" cx="1683.14" cy="605.73" r="233.49" transform="translate(950.93 1741.08) rotate(-45)"/><circle class="cls-3" cx="1683.14" cy="605.73" r="213.49" transform="translate(950.93 1741.08) rotate(-45)"/><circle class="cls-3" cx="1683.14" cy="605.73" r="193.49" transform="translate(950.93 1741.08) rotate(-45)"/><circle class="cls-3" cx="2569.41" cy="979.24" r="173.49"/><circle class="cls-3" cx="2569.41" cy="979.24" r="153.49"/><circle class="cls-3" cx="2569.41" cy="979.24" r="133.49"/><circle class="cls-3" cx="2569.41" cy="979.24" r="113.49"/><circle class="cls-3" cx="2569.41" cy="979.24" r="93.49"/><circle class="cls-3" cx="2569.41" cy="979.24" r="73.49"/><circle class="cls-3" cx="2569.41" cy="979.24" r="53.49"/><circle class="cls-3" cx="2569.41" cy="979.24" r="33.49"/><line class="cls-3" x1="906.11" y1="391.1" x2="906.11" y2="1615.1"/><line class="cls-3" x1="926.11" y1="391.1" x2="926.11" y2="1615.1"/><line class="cls-3" x1="946.11" y1="391.1" x2="946.11" y2="1615.1"/><line class="cls-3" x1="966.11" y1="391.1" x2="966.11" y2="1615.1"/><line class="cls-3" x1="986.11" y1="391.1" x2="986.11" y2="1615.1"/><line class="cls-3" x1="1006.11" y1="391.1" x2="1006.11" y2="1615.1"/><line class="cls-3" x1="1026.11" y1="391.1" x2="1026.11" y2="1615.1"/><line class="cls-3" x1="1046.11" y1="391.1" x2="1046.11" y2="1615.1"/><line class="cls-3" x1="1066.11" y1="391.1" x2="1066.11" y2="1615.1"/><line class="cls-3" x1="1086.11" y1="391.1" x2="1086.11" y2="1615.1"/><line class="cls-3" x1="1106.11" y1="391.1" x2="1106.11" y2="1615.1"/><line class="cls-3" x1="1126.11" y1="391.1" x2="1126.11" y2="1615.1"/><line class="cls-3" x1="1146.11" y1="391.1" x2="1146.11" y2="1615.1"/><line class="cls-3" x1="1166.11" y1="391.1" x2="1166.11" y2="1615.1"/><line class="cls-3" x1="1186.11" y1="391.1" x2="1186.11" y2="1615.1"/><line class="cls-3" x1="1206.11" y1="391.1" x2="1206.11" y2="1615.1"/><line class="cls-3" x1="1226.11" y1="391.1" x2="1226.11" y2="1615.1"/><line class="cls-3" x1="1246.11" y1="391.1" x2="1246.11" y2="1615.1"/><line class="cls-3" x1="1266.11" y1="391.1" x2="1266.11" y2="1615.1"/><line class="cls-3" x1="1286.11" y1="391.1" x2="1286.11" y2="1615.1"/><line class="cls-3" x1="1306.11" y1="391.1" x2="1306.11" y2="1615.1"/><line class="cls-3" x1="1326.11" y1="391.1" x2="1326.11" y2="1615.1"/><line class="cls-3" x1="1346.11" y1="391.1" x2="1346.11" y2="1615.1"/><line class="cls-3" x1="1366.11" y1="391.1" x2="1366.11" y2="1615.1"/><line class="cls-3" x1="1386.11" y1="391.1" x2="1386.11" y2="1615.1"/><line class="cls-3" x1="1406.11" y1="391.1" x2="1406.11" y2="1615.1"/><line class="cls-3" x1="1426.11" y1="391.1" x2="1426.11" y2="1615.1"/><line class="cls-3" x1="1446.11" y1="391.1" x2="1446.11" y2="1615.1"/><line class="cls-3" x1="1466.11" y1="391.1" x2="1466.11" y2="1615.1"/><line class="cls-3" x1="1486.11" y1="391.1" x2="1486.11" y2="1615.1"/><line class="cls-3" x1="1506.11" y1="391.1" x2="1506.11" y2="1615.1"/><line class="cls-3" x1="1526.11" y1="391.1" x2="1526.11" y2="1615.1"/><line class="cls-3" x1="1546.11" y1="391.1" x2="1546.11" y2="1615.1"/><line class="cls-3" x1="1566.11" y1="391.1" x2="1566.11" y2="1615.1"/><line class="cls-3" x1="1586.11" y1="391.1" x2="1586.11" y2="1615.1"/><line class="cls-3" x1="1606.11" y1="391.1" x2="1606.11" y2="1615.1"/><line class="cls-3" x1="1626.11" y1="391.1" x2="1626.11" y2="1615.1"/><line class="cls-3" x1="1646.11" y1="391.1" x2="1646.11" y2="1615.1"/><line class="cls-3" x1="1666.11" y1="391.1" x2="1666.11" y2="1615.1"/><line class="cls-3" x1="1686.11" y1="391.1" x2="1686.11" y2="1615.1"/><line class="cls-3" x1="1706.11" y1="391.1" x2="1706.11" y2="1615.1"/><line class="cls-3" x1="1726.11" y1="391.1" x2="1726.11" y2="1615.1"/><line class="cls-3" x1="1746.11" y1="391.1" x2="1746.11" y2="1615.1"/><line class="cls-3" x1="1766.11" y1="391.1" x2="1766.11" y2="1615.1"/><line class="cls-3" x1="1786.11" y1="391.1" x2="1786.11" y2="1615.1"/><line class="cls-3" x1="1806.11" y1="391.1" x2="1806.11" y2="1615.1"/><line class="cls-3" x1="1826.11" y1="391.1" x2="1826.11" y2="1615.1"/><line class="cls-3" x1="1846.11" y1="391.1" x2="1846.11" y2="1615.1"/><line class="cls-3" x1="1866.11" y1="391.1" x2="1866.11" y2="1615.1"/><line class="cls-3" x1="1886.11" y1="391.1" x2="1886.11" y2="1615.1"/><line class="cls-3" x1="1906.11" y1="391.1" x2="1906.11" y2="1615.1"/><line class="cls-3" x1="1926.11" y1="391.1" x2="1926.11" y2="1615.1"/><line class="cls-3" x1="1946.11" y1="391.1" x2="1946.11" y2="1615.1"/><line class="cls-3" x1="1966.11" y1="391.1" x2="1966.11" y2="1615.1"/><line class="cls-3" x1="1986.11" y1="391.1" x2="1986.11" y2="1615.1"/><line class="cls-3" x1="2006.11" y1="391.1" x2="2006.11" y2="1615.1"/><line class="cls-3" x1="2026.11" y1="391.1" x2="2026.11" y2="1615.1"/><line class="cls-3" x1="2046.11" y1="391.1" x2="2046.11" y2="1615.1"/><line class="cls-3" x1="2066.11" y1="391.1" x2="2066.11" y2="1615.1"/><line class="cls-3" x1="2086.11" y1="391.1" x2="2086.11" y2="1615.1"/><line class="cls-3" x1="2106.11" y1="391.1" x2="2106.11" y2="1615.1"/><line class="cls-3" x1="2126.11" y1="391.1" x2="2126.11" y2="1615.1"/><line class="cls-3" x1="2146.11" y1="391.1" x2="2146.11" y2="1615.1"/><line class="cls-3" x1="2166.11" y1="391.1" x2="2166.11" y2="1615.1"/><line class="cls-3" x1="2186.11" y1="391.1" x2="2186.11" y2="1615.1"/><line class="cls-3" x1="2206.11" y1="391.1" x2="2206.11" y2="1615.1"/><line class="cls-3" x1="2226.11" y1="391.1" x2="2226.11" y2="1615.1"/><line class="cls-3" x1="2246.11" y1="391.1" x2="2246.11" y2="1615.1"/><line class="cls-3" x1="2266.11" y1="391.1" x2="2266.11" y2="1615.1"/><line class="cls-3" x1="2286.11" y1="391.1" x2="2286.11" y2="1615.1"/><line class="cls-3" x1="2306.11" y1="391.1" x2="2306.11" y2="1615.1"/><line class="cls-3" x1="2326.11" y1="391.1" x2="2326.11" y2="1615.1"/><line class="cls-3" x1="2346.11" y1="391.1" x2="2346.11" y2="1615.1"/><line class="cls-3" x1="2366.11" y1="391.1" x2="2366.11" y2="1615.1"/><line class="cls-3" x1="2386.11" y1="391.1" x2="2386.11" y2="1615.1"/><line class="cls-3" x1="2406.11" y1="391.1" x2="2406.11" y2="1615.1"/><line class="cls-3" x1="2426.11" y1="391.1" x2="2426.11" y2="1615.1"/><line class="cls-3" x1="2446.11" y1="391.1" x2="2446.11" y2="1615.1"/><line class="cls-3" x1="2466.11" y1="391.1" x2="2466.11" y2="1615.1"/><line class="cls-3" x1="2486.11" y1="391.1" x2="2486.11" y2="1615.1"/><line class="cls-3" x1="2506.11" y1="391.1" x2="2506.11" y2="1615.1"/><line class="cls-3" x1="2526.11" y1="391.1" x2="2526.11" y2="1615.1"/><line class="cls-3" x1="2546.11" y1="391.1" x2="2546.11" y2="1615.1"/><line class="cls-3" x1="2566.11" y1="391.1" x2="2566.11" y2="1615.1"/><line class="cls-3" x1="2586.11" y1="391.1" x2="2586.11" y2="1615.1"/><line class="cls-3" x1="2606.11" y1="391.1" x2="2606.11" y2="1615.1"/><line class="cls-3" x1="2626.11" y1="391.1" x2="2626.11" y2="1615.1"/><line class="cls-3" x1="2646.11" y1="391.1" x2="2646.11" y2="1615.1"/><line class="cls-3" x1="2666.11" y1="391.1" x2="2666.11" y2="1615.1"/><line class="cls-3" x1="2686.11" y1="391.1" x2="2686.11" y2="1615.1"/><line class="cls-3" x1="2706.11" y1="391.1" x2="2706.11" y2="1615.1"/><line class="cls-3" x1="2726.11" y1="391.1" x2="2726.11" y2="1615.1"/><line class="cls-3" x1="2746.11" y1="391.1" x2="2746.11" y2="1615.1"/><line class="cls-3" x1="2766.11" y1="391.1" x2="2766.11" y2="1615.1"/><line class="cls-3" x1="2786.11" y1="391.1" x2="2786.11" y2="1615.1"/><line class="cls-3" x1="2806.11" y1="391.1" x2="2806.11" y2="1615.1"/></g></svg>