<svg id="Layer_1" data-name="Layer 1" xmlns="http://www.w3.org/2000/svg" viewBox="0 0 960.25 553.66"><defs><style>.cls-1{fill:none;stroke:#6fc067;stroke-miterlimit:10;stroke-width:0.25px;}</style></defs><line class="cls-1" x1="951.09" y1="553.37" x2="951.09" y2="0.14"/><line class="cls-1" x1="942.05" y1="553.37" x2="942.05" y2="0.14"/><line class="cls-1" x1="933.01" y1="553.37" x2="933.01" y2="0.14"/><line class="cls-1" x1="923.97" y1="553.37" x2="923.97" y2="0.14"/><line class="cls-1" x1="914.93" y1="553.37" x2="914.93" y2="0.14"/><line class="cls-1" x1="905.89" y1="553.37" x2="905.89" y2="0.14"/><line class="cls-1" x1="896.85" y1="553.37" x2="896.85" y2="0.14"/><line class="cls-1" x1="887.81" y1="553.37" x2="887.81" y2="0.14"/><line class="cls-1" x1="878.77" y1="553.37" x2="878.77" y2="0.14"/><line class="cls-1" x1="869.73" y1="553.37" x2="869.73" y2="0.14"/><line class="cls-1" x1="860.69" y1="553.37" x2="860.69" y2="0.14"/><line class="cls-1" x1="851.65" y1="553.37" x2="851.65" y2="0.14"/><line class="cls-1" x1="842.61" y1="553.37" x2="842.61" y2="0.14"/><line class="cls-1" x1="833.57" y1="553.37" x2="833.57" y2="0.14"/><line class="cls-1" x1="824.53" y1="553.37" x2="824.53" y2="0.14"/><line class="cls-1" x1="815.49" y1="553.37" x2="815.49" y2="0.14"/><line class="cls-1" x1="806.45" y1="553.37" x2="806.45" y2="0.14"/><line class="cls-1" x1="797.41" y1="553.37" x2="797.41" y2="0.14"/><line class="cls-1" x1="788.37" y1="553.37" x2="788.37" y2="0.14"/><line class="cls-1" x1="779.33" y1="553.37" x2="779.33" y2="0.14"/><line class="cls-1" x1="770.29" y1="553.37" x2="770.29" y2="0.14"/><line class="cls-1" x1="761.25" y1="553.37" x2="761.25" y2="0.14"/><line class="cls-1" x1="752.21" y1="553.37" x2="752.21" y2="0.14"/><line class="cls-1" x1="743.17" y1="553.37" x2="743.17" y2="0.14"/><line class="cls-1" x1="734.13" y1="553.37" x2="734.13" y2="0.14"/><line class="cls-1" x1="725.09" y1="553.37" x2="725.09" y2="0.14"/><line class="cls-1" x1="716.05" y1="553.37" x2="716.05" y2="0.14"/><line class="cls-1" x1="707.01" y1="553.37" x2="707.01" y2="0.14"/><line class="cls-1" x1="697.97" y1="553.37" x2="697.97" y2="0.14"/><line class="cls-1" x1="688.93" y1="553.37" x2="688.93" y2="0.14"/><line class="cls-1" x1="679.89" y1="553.37" x2="679.89" y2="0.14"/><line class="cls-1" x1="670.85" y1="553.37" x2="670.85" y2="0.14"/><line class="cls-1" x1="661.81" y1="553.37" x2="661.81" y2="0.14"/><line class="cls-1" x1="652.77" y1="553.37" x2="652.77" y2="0.14"/><line class="cls-1" x1="643.73" y1="553.37" x2="643.73" y2="0.14"/><line class="cls-1" x1="634.69" y1="553.37" x2="634.69" y2="0.14"/><line class="cls-1" x1="625.65" y1="553.37" x2="625.65" y2="0.14"/><line class="cls-1" x1="616.61" y1="553.37" x2="616.61" y2="0.14"/><line class="cls-1" x1="607.57" y1="553.37" x2="607.57" y2="0.14"/><line class="cls-1" x1="598.53" y1="553.37" x2="598.53" y2="0.14"/><line class="cls-1" x1="589.49" y1="553.37" x2="589.49" y2="0.14"/><line class="cls-1" x1="580.45" y1="553.37" x2="580.45" y2="0.14"/><line class="cls-1" x1="571.41" y1="553.37" x2="571.41" y2="0.14"/><line class="cls-1" x1="562.37" y1="553.37" x2="562.37" y2="0.14"/><line class="cls-1" x1="553.33" y1="553.37" x2="553.33" y2="0.14"/><line class="cls-1" x1="544.29" y1="553.37" x2="544.29" y2="0.14"/><line class="cls-1" x1="535.26" y1="553.37" x2="535.26" y2="0.14"/><line class="cls-1" x1="526.22" y1="553.37" x2="526.22" y2="0.14"/><line class="cls-1" x1="517.18" y1="553.37" x2="517.18" y2="0.14"/><line class="cls-1" x1="508.14" y1="553.37" x2="508.14" y2="0.14"/><line class="cls-1" x1="499.1" y1="553.37" x2="499.1" y2="0.14"/><line class="cls-1" x1="490.06" y1="553.37" x2="490.06" y2="0.14"/><line class="cls-1" x1="481.02" y1="553.37" x2="481.02" y2="0.14"/><line class="cls-1" x1="471.98" y1="553.37" x2="471.98" y2="0.14"/><line class="cls-1" x1="462.94" y1="553.37" x2="462.94" y2="0.14"/><line class="cls-1" x1="453.9" y1="553.37" x2="453.9" y2="0.14"/><line class="cls-1" x1="444.86" y1="553.37" x2="444.86" y2="0.14"/><line class="cls-1" x1="435.82" y1="553.37" x2="435.82" y2="0.14"/><line class="cls-1" x1="426.78" y1="553.37" x2="426.78" y2="0.14"/><line class="cls-1" x1="417.74" y1="553.37" x2="417.74" y2="0.14"/><line class="cls-1" x1="408.7" y1="553.37" x2="408.7" y2="0.14"/><line class="cls-1" x1="399.66" y1="553.37" x2="399.66" y2="0.14"/><line class="cls-1" x1="390.62" y1="553.37" x2="390.62" y2="0.14"/><line class="cls-1" x1="381.58" y1="553.37" x2="381.58" y2="0.14"/><line class="cls-1" x1="372.54" y1="553.37" x2="372.54" y2="0.14"/><line class="cls-1" x1="363.5" y1="553.37" x2="363.5" y2="0.14"/><line class="cls-1" x1="354.46" y1="553.37" x2="354.46" y2="0.14"/><line class="cls-1" x1="345.42" y1="553.37" x2="345.42" y2="0.14"/><line class="cls-1" x1="336.38" y1="553.37" x2="336.38" y2="0.14"/><line class="cls-1" x1="327.34" y1="553.37" x2="327.34" y2="0.14"/><line class="cls-1" x1="318.3" y1="553.37" x2="318.3" y2="0.14"/><line class="cls-1" x1="309.26" y1="553.37" x2="309.26" y2="0.14"/><line class="cls-1" x1="300.22" y1="553.37" x2="300.22" y2="0.14"/><line class="cls-1" x1="291.18" y1="553.37" x2="291.18" y2="0.14"/><line class="cls-1" x1="282.14" y1="553.37" x2="282.14" y2="0.14"/><line class="cls-1" x1="273.1" y1="553.37" x2="273.1" y2="0.14"/><line class="cls-1" x1="264.06" y1="553.37" x2="264.06" y2="0.14"/><line class="cls-1" x1="255.02" y1="553.37" x2="255.02" y2="0.14"/><line class="cls-1" x1="245.98" y1="553.37" x2="245.98" y2="0.14"/><line class="cls-1" x1="236.94" y1="553.37" x2="236.94" y2="0.14"/><line class="cls-1" x1="227.9" y1="553.37" x2="227.9" y2="0.14"/><line class="cls-1" x1="218.86" y1="553.37" x2="218.86" y2="0.14"/><line class="cls-1" x1="209.82" y1="553.37" x2="209.82" y2="0.14"/><line class="cls-1" x1="200.78" y1="553.37" x2="200.78" y2="0.14"/><line class="cls-1" x1="191.74" y1="553.37" x2="191.74" y2="0.14"/><line class="cls-1" x1="182.7" y1="553.37" x2="182.7" y2="0.14"/><line class="cls-1" x1="173.66" y1="553.37" x2="173.66" y2="0.14"/><line class="cls-1" x1="164.62" y1="553.37" x2="164.62" y2="0.14"/><line class="cls-1" x1="155.58" y1="553.37" x2="155.58" y2="0.14"/><line class="cls-1" x1="146.54" y1="553.37" x2="146.54" y2="0.14"/><line class="cls-1" x1="137.5" y1="553.37" x2="137.5" y2="0.14"/><line class="cls-1" x1="128.46" y1="553.37" x2="128.46" y2="0.14"/><line class="cls-1" x1="119.43" y1="553.37" x2="119.43" y2="0.14"/><line class="cls-1" x1="110.39" y1="553.37" x2="110.39" y2="0.14"/><line class="cls-1" x1="100.36" y1="553.37" x2="100.36" y2="0.14"/><line class="cls-1" x1="90.34" y1="553.37" x2="90.34" y2="0.14"/><line class="cls-1" x1="80.31" y1="553.37" x2="80.31" y2="0.14"/><line class="cls-1" x1="70.29" y1="553.37" x2="70.29" y2="0.14"/><line class="cls-1" x1="60.27" y1="553.37" x2="60.27" y2="0.14"/><line class="cls-1" x1="50.24" y1="553.37" x2="50.24" y2="0.14"/><line class="cls-1" x1="40.22" y1="553.37" x2="40.22" y2="0.14"/><line class="cls-1" x1="30.2" y1="553.37" x2="30.2" y2="0.14"/><line class="cls-1" x1="20.17" y1="553.37" x2="20.17" y2="0.14"/><line class="cls-1" x1="10.15" y1="553.37" x2="10.15" y2="0.14"/><path class="cls-1" d="M960,235.75c-1,4.39-2,8.77-3.14,13.11l3.14,1" transform="translate(0.12 0.12)"/><path class="cls-1" d="M960,59.4A351.41,351.41,0,0,0,934.35,0" transform="translate(0.12 0.12)"/><path class="cls-1" d="M924,0a343.76,343.76,0,0,1,34.23,86c.62,2.48,1.19,5,1.75,7.48" transform="translate(0.12 0.12)"/><path class="cls-1" d="M0,545q9.42,4.5,19.21,8.38H46.75A293.77,293.77,0,0,1,0,535" transform="translate(0.12 0.12)"/><path class="cls-1" d="M0,40q4.92-2.49,10-4.78L4.6,0" transform="translate(0.12 0.12)"/><path class="cls-1" d="M4.6,0,10,35.17" transform="translate(0.12 0.12)"/><path class="cls-1" d="M0,50.12Q9.75,45,19.93,40.65L13.75,0" transform="translate(0.12 0.12)"/><path class="cls-1" d="M0,535a293.77,293.77,0,0,0,46.75,18.42H70.89l-.06-3.18A281.18,281.18,0,0,1,0,524.89" transform="translate(0.12 0.12)"/><path class="cls-1" d="M960,93.47c-.56-2.51-1.13-5-1.75-7.48A343.76,343.76,0,0,0,924,0" transform="translate(0.12 0.12)"/><path class="cls-1" d="M960,249.85l-3.14-1c1.14-4.34,2.18-8.72,3.14-13.11" transform="translate(0.12 0.12)"/><path class="cls-1" d="M913.63,0a334.33,334.33,0,0,1,35.85,88.17c13.44,54,12.1,112.8-3.67,166.68L960,259.33" transform="translate(0.12 0.12)"/><path class="cls-1" d="M13.75,0l6.18,40.65Q9.75,45,0,50.12" transform="translate(0.12 0.12)"/><path class="cls-1" d="M0,60.37a255.87,255.87,0,0,1,29.93-14L22.89,0" transform="translate(0.12 0.12)"/><path class="cls-1" d="M0,524.89a281.18,281.18,0,0,0,70.83,25.34l.06,3.18h9l-.19-10.64A269.78,269.78,0,0,1,0,514.68" transform="translate(0.12 0.12)"/><path class="cls-1" d="M960,259.33l-14.19-4.48c15.77-53.88,17.11-112.7,3.67-166.68A334.33,334.33,0,0,0,913.63,0" transform="translate(0.12 0.12)"/><path class="cls-1" d="M903.1,0a325,325,0,0,1,37.6,90.36,312.18,312.18,0,0,1-6.17,170.41l25.47,8" transform="translate(0.12 0.12)"/><path class="cls-1" d="M960,268.81l-25.47-8A312.18,312.18,0,0,0,940.7,90.36,325,325,0,0,0,903.1,0" transform="translate(0.12 0.12)"/><path class="cls-1" d="M892.49,0a315.67,315.67,0,0,1,39.44,92.54,301.88,301.88,0,0,1-9,174.06l37,11.68" transform="translate(0.12 0.12)"/><path class="cls-1" d="M22.89,0l7,46.33A255.87,255.87,0,0,0,0,60.37" transform="translate(0.12 0.12)"/><path class="cls-1" d="M0,70.72A248.92,248.92,0,0,1,40,52.21L32,0" transform="translate(0.12 0.12)"/><path class="cls-1" d="M0,514.68a269.78,269.78,0,0,0,79.74,28.09l.19,10.64h9l-.33-18.33A258.23,258.23,0,0,1,0,504.35" transform="translate(0.12 0.12)"/><path class="cls-1" d="M32,0,40,52.21A248.92,248.92,0,0,0,0,70.72" transform="translate(0.12 0.12)"/><path class="cls-1" d="M0,81.18A240.29,240.29,0,0,1,50,58.32L41.18,0" transform="translate(0.12 0.12)"/><path class="cls-1" d="M0,504.35a258.23,258.23,0,0,0,88.64,30.73L89,553.41h9l-.46-26.26A247.16,247.16,0,0,1,0,493.89" transform="translate(0.12 0.12)"/><path class="cls-1" d="M960,278.28,923,266.6a301.88,301.88,0,0,0,9-174.06A315.67,315.67,0,0,0,892.49,0" transform="translate(0.12 0.12)"/><path class="cls-1" d="M881.71,0a306.23,306.23,0,0,1,41.45,94.73,291.7,291.7,0,0,1-12,177.62L960,287.76" transform="translate(0.12 0.12)"/><path class="cls-1" d="M0,493.89a247.16,247.16,0,0,0,97.55,33.26L98,553.41h9L106.44,519A236.11,236.11,0,0,1,0,483.27" transform="translate(0.12 0.12)"/><path class="cls-1" d="M41.18,0,50,58.32A240.29,240.29,0,0,0,0,81.18" transform="translate(0.12 0.12)"/><path class="cls-1" d="M0,91.88A230.84,230.84,0,0,1,60.15,64.67L50.32,0" transform="translate(0.12 0.12)"/><path class="cls-1" d="M960,287.76l-48.87-15.41a291.7,291.7,0,0,0,12-177.62A306.23,306.23,0,0,0,881.71,0" transform="translate(0.12 0.12)"/><path class="cls-1" d="M870.79,0a296.89,296.89,0,0,1,43.6,96.91A281.56,281.56,0,0,1,899,278l61,19.25" transform="translate(0.12 0.12)"/><path class="cls-1" d="M960,297.24,899,278A281.56,281.56,0,0,0,914.39,96.91,296.89,296.89,0,0,0,870.79,0" transform="translate(0.12 0.12)"/><path class="cls-1" d="M859.72,0a287.71,287.71,0,0,1,45.9,99.1,271.93,271.93,0,0,1-19.17,184.42L960,306.72" transform="translate(0.12 0.12)"/><path class="cls-1" d="M50.32,0l9.83,64.67A230.84,230.84,0,0,0,0,91.88" transform="translate(0.12 0.12)"/><path class="cls-1" d="M0,102.7A222.06,222.06,0,0,1,67.79,71.93l2.51-.65L59.47,0" transform="translate(0.12 0.12)"/><path class="cls-1" d="M0,483.27A236.11,236.11,0,0,0,106.44,519l.61,34.46h9l-.76-42.95A225.48,225.48,0,0,1,0,472.48" transform="translate(0.12 0.12)"/><path class="cls-1" d="M0,472.48a225.48,225.48,0,0,0,115.33,38l.76,42.95h9l-.91-51.79A215.07,215.07,0,0,1,2.08,462.94c-.7-.49-1.39-1-2.08-1.49" transform="translate(0.12 0.12)"/><path class="cls-1" d="M59.47,0,70.3,71.28l-2.51.65A222.06,222.06,0,0,0,0,102.7" transform="translate(0.12 0.12)"/><path class="cls-1" d="M0,113.72a213.1,213.1,0,0,1,70.1-33q5.15-1.36,10.4-2.47L68.61,0" transform="translate(0.12 0.12)"/><path class="cls-1" d="M960,306.72l-73.55-23.2A271.93,271.93,0,0,0,905.62,99.1,287.71,287.71,0,0,0,859.72,0" transform="translate(0.12 0.12)"/><path class="cls-1" d="M848.47,0a278.19,278.19,0,0,1,48.37,101.28A262.54,262.54,0,0,1,876.14,284l1.56,6.27,82.3,26" transform="translate(0.12 0.12)"/><path class="cls-1" d="M0,461.45c.69.5,1.38,1,2.08,1.49a215.07,215.07,0,0,0,122.14,38.68l.91,51.79h9l-1.07-61A204.92,204.92,0,0,1,7.27,455.54q-3.7-2.6-7.27-5.33" transform="translate(0.12 0.12)"/><path class="cls-1" d="M68.61,0,80.5,78.2q-5.25,1.11-10.4,2.47A213.1,213.1,0,0,0,0,113.72" transform="translate(0.12 0.12)"/><path class="cls-1" d="M0,125A204,204,0,0,1,72.41,89.41c6-1.59,12.16-2.92,18.33-4L77.75,0" transform="translate(0.12 0.12)"/><path class="cls-1" d="M960,316.2l-82.3-26L876.14,284a262.54,262.54,0,0,0,20.7-182.69A278.19,278.19,0,0,0,848.47,0" transform="translate(0.12 0.12)"/><path class="cls-1" d="M837,0a269,269,0,0,1,51.07,103.47,253.18,253.18,0,0,1-21.53,179.38l3.61,14.49L960,325.68" transform="translate(0.12 0.12)"/><path class="cls-1" d="M960,325.68l-89.85-28.34-3.61-14.49a253.18,253.18,0,0,0,21.53-179.38A269,269,0,0,0,837,0" transform="translate(0.12 0.12)"/><path class="cls-1" d="M825.28,0a259.74,259.74,0,0,1,54,105.65,243.92,243.92,0,0,1-22.37,176l5.67,22.77L960,335.16" transform="translate(0.12 0.12)"/><path class="cls-1" d="M77.75,0l13,85.44c-6.17,1-12.3,2.38-18.33,4A204,204,0,0,0,0,125" transform="translate(0.12 0.12)"/><path class="cls-1" d="M0,136.55a194.77,194.77,0,0,1,74.72-38.4A197.17,197.17,0,0,1,101,93.07L86.9,0" transform="translate(0.12 0.12)"/><path class="cls-1" d="M0,450.21q3.57,2.73,7.27,5.33A204.92,204.92,0,0,0,133.1,492.41l1.07,61h9.05L142,482.78A195.46,195.46,0,0,1,0,438.65" transform="translate(0.12 0.12)"/><polygon class="cls-1" points="960.13 553.53 960.13 552.26 945.44 553.53 960.13 553.53"/><path class="cls-1" d="M0,438.65a195.46,195.46,0,0,0,142,44.13l1.25,70.63h9l-1.43-80.75A186.83,186.83,0,0,1,0,426.62" transform="translate(0.12 0.12)"/><path class="cls-1" d="M86.9,0,101,93.07a197.17,197.17,0,0,0-26.32,5.08A194.77,194.77,0,0,0,0,136.55v11.93a185.67,185.67,0,0,1,77-41.59,187.92,187.92,0,0,1,34.38-5.76L96,0" transform="translate(0.12 0.12)"/><path class="cls-1" d="M960,335.16l-97.4-30.73-5.67-22.77a243.92,243.92,0,0,0,22.37-176A259.74,259.74,0,0,0,825.28,0" transform="translate(0.12 0.12)"/><path class="cls-1" d="M813.28,0a250.54,250.54,0,0,1,57.25,107.84A234.64,234.64,0,0,1,847.3,280.4l7.76,31.13L960,344.64" transform="translate(0.12 0.12)"/><polyline class="cls-1" points="960.13 543.19 840.5 553.53 945.44 553.53 960.13 552.26"/><path class="cls-1" d="M960,344.64,855.06,311.53,847.3,280.4a234.64,234.64,0,0,0,23.23-172.56A250.54,250.54,0,0,0,813.28,0" transform="translate(0.12 0.12)"/><path class="cls-1" d="M800.88,0a241.53,241.53,0,0,1,60.88,110,225.56,225.56,0,0,1-24.11,169l9.86,39.57L960,354.12" transform="translate(0.12 0.12)"/><path class="cls-1" d="M96,0l15.37,101.13A187.92,187.92,0,0,0,77,106.89,185.67,185.67,0,0,0,0,148.48" transform="translate(0.12 0.12)"/><path class="cls-1" d="M0,160.9a178.1,178.1,0,0,1,121.86-51.19L105.18,0" transform="translate(0.12 0.12)"/><path class="cls-1" d="M0,426.62a186.83,186.83,0,0,0,150.83,46l1.43,80.75h9L159.68,462A178,178,0,0,1,0,414.23" transform="translate(0.12 0.12)"/><polyline class="cls-1" points="960.13 534.11 735.56 553.53 840.5 553.53 960.13 543.19"/><path class="cls-1" d="M0,414.23A178,178,0,0,0,159.68,462l1.62,91.44h9l-1.81-102.79-.61.16A169,169,0,0,1,0,401.22" transform="translate(0.12 0.12)"/><path class="cls-1" d="M105.18,0l16.68,109.71A178.1,178.1,0,0,0,0,160.9" transform="translate(0.12 0.12)"/><path class="cls-1" d="M0,174a168.81,168.81,0,0,1,132.4-55.05L114.33,0" transform="translate(0.12 0.12)"/><path class="cls-1" d="M960,354.12,847.51,318.63l-9.86-39.57a225.56,225.56,0,0,0,24.11-169A241.53,241.53,0,0,0,800.88,0" transform="translate(0.12 0.12)"/><path class="cls-1" d="M788.07,0A232.31,232.31,0,0,1,853,112.21a216.63,216.63,0,0,1-24,163.73l-1,1.7,12,48.09L960,363.6" transform="translate(0.12 0.12)"/><polyline class="cls-1" points="960.13 525.04 630.63 553.53 735.56 553.53 960.13 534.11"/><path class="cls-1" d="M114.33,0,132.4,118.91A168.81,168.81,0,0,0,0,174" transform="translate(0.12 0.12)"/><path class="cls-1" d="M0,187.9a159.65,159.65,0,0,1,143.06-59.06L123.47,0" transform="translate(0.12 0.12)"/><path class="cls-1" d="M0,401.22a169,169,0,0,0,167.92,49.56l.61-.16,1.81,102.79h9l-2-115q-5.81,2-11.74,3.59c-63,16.65-127.27-6.89-165.61-54.71" transform="translate(0.12 0.12)"/><path class="cls-1" d="M960,363.6,840,325.73l-12-48.09,1-1.7a216.63,216.63,0,0,0,24-163.73A232.31,232.31,0,0,0,788.07,0" transform="translate(0.12 0.12)"/><path class="cls-1" d="M774.66,0a223.14,223.14,0,0,1,69.55,114.39,207.61,207.61,0,0,1-23,156.94c-.94,1.6-1.93,3.2-2.93,4.8l14.12,56.7L960,373.07" transform="translate(0.12 0.12)"/><polyline class="cls-1" points="960.13 515.97 525.69 553.53 630.63 553.53 960.13 525.04"/><path class="cls-1" d="M960,373.07,832.41,332.83l-14.12-56.7c1-1.6,2-3.2,2.93-4.8a207.61,207.61,0,0,0,23-156.94A223.14,223.14,0,0,0,774.66,0" transform="translate(0.12 0.12)"/><path class="cls-1" d="M760.56,0a214.11,214.11,0,0,1,74.88,116.58,198.61,198.61,0,0,1-22,150.14c-1.54,2.62-3.18,5.23-4.87,7.81l16.3,65.4L960,382.55" transform="translate(0.12 0.12)"/><path class="cls-1" d="M123.47,0l19.59,128.84A159.65,159.65,0,0,0,0,187.9" transform="translate(0.12 0.12)"/><path class="cls-1" d="M0,203.16a150.49,150.49,0,0,1,153.85-63.47L132.61,0" transform="translate(0.12 0.12)"/><path class="cls-1" d="M0,387.33C38.34,435.15,102.64,458.69,165.61,442q5.92-1.56,11.74-3.59l2,115h9l-2.26-128.16a152.23,152.23,0,0,1-22.86,8.06C99.83,450.08,34.94,423.59,0,372.13" transform="translate(0.12 0.12)"/><polyline class="cls-1" points="960.13 506.89 420.75 553.53 525.69 553.53 960.13 515.97"/><path class="cls-1" d="M960,382.55,824.87,339.93l-16.3-65.4c1.69-2.58,3.33-5.19,4.87-7.81a198.61,198.61,0,0,0,22-150.14A214.11,214.11,0,0,0,760.56,0" transform="translate(0.12 0.12)"/><path class="cls-1" d="M745.5,0a205.27,205.27,0,0,1,81.17,118.77,189.7,189.7,0,0,1-21,143.35c-2.15,3.61-4.44,7.2-6.84,10.71L817.32,347,960,392" transform="translate(0.12 0.12)"/><path class="cls-1" d="M0,372.13c34.94,51.46,99.83,77.95,163.3,61.18a152.23,152.23,0,0,0,22.86-8.06l2.26,128.16h9L195,410.69a141.76,141.76,0,0,1-34,13.88C96.45,441.63,30.33,411.09,0,354.71" transform="translate(0.12 0.12)"/><path class="cls-1" d="M132.61,0l21.24,139.69A150.49,150.49,0,0,0,0,203.16" transform="translate(0.12 0.12)"/><path class="cls-1" d="M0,220.61a141.48,141.48,0,0,1,164.82-68.92L141.76,0" transform="translate(0.12 0.12)"/><polyline class="cls-1" points="960.13 497.82 315.81 553.53 420.75 553.53 960.13 506.89"/><path class="cls-1" d="M141.76,0l23.06,151.69q4.88,1.44,9.63,3.23L150.9,0" transform="translate(0.12 0.12)"/><path class="cls-1" d="M960,392,817.32,347l-18.49-74.19c2.4-3.51,4.69-7.1,6.84-10.71a189.7,189.7,0,0,0,21-143.35A205.27,205.27,0,0,0,745.5,0" transform="translate(0.12 0.12)"/><path class="cls-1" d="M729,0A196.47,196.47,0,0,1,817.9,121a180.67,180.67,0,0,1-20,136.56c-2.73,4.6-5.69,9.13-8.83,13.51l20.71,83.1L960,401.51" transform="translate(0.12 0.12)"/><path class="cls-1" d="M195,410.69l2.51,142.72h9l-2.62-148.27Q199.54,408.06,195,410.69Z" transform="translate(0.12 0.12)"/><path class="cls-1" d="M960,401.51,809.77,354.12,789.06,271c3.14-4.38,6.1-8.91,8.83-13.51A180.67,180.67,0,0,0,817.9,121,196.47,196.47,0,0,0,729,0" transform="translate(0.12 0.12)"/><path class="cls-1" d="M710.33,0c4.4,2.19,8.7,4.52,12.84,7a187.49,187.49,0,0,1,86,116.13,171.68,171.68,0,0,1-19,129.76,176.83,176.83,0,0,1-10.84,16.18l23,92.14L960,411" transform="translate(0.12 0.12)"/><path class="cls-1" d="M150.9,0l23.55,154.92q5,1.88,9.77,4.1L160,0" transform="translate(0.12 0.12)"/><path class="cls-1" d="M960,488.62,215.54,553l-2.73-154.4q-4.31,3.44-8.92,6.55l2.62,148.27H315.69L960,497.7" transform="translate(0.12 0.12)"/><path class="cls-1" d="M219.75,392.78v-.07c-.24.23-.49.45-.74.67Z" transform="translate(0.12 0.12)"/><path class="cls-1" d="M960,411,802.22,361.22l-23-92.14a176.83,176.83,0,0,0,10.84-16.18,171.68,171.68,0,0,0,19-129.76A187.49,187.49,0,0,0,723.17,7c-4.14-2.49-8.44-4.82-12.84-7" transform="translate(0.12 0.12)"/><path class="cls-1" d="M687.54,0a182.05,182.05,0,0,1,31,14.75,178.62,178.62,0,0,1,81.84,110.57,162.71,162.71,0,0,1-18,123A164.49,164.49,0,0,1,769.43,267l25.62,102.82,2.48-.61L960,420.47" transform="translate(0.12 0.12)"/><path class="cls-1" d="M160,0l24.18,159q5.06,2.34,9.91,5.08L169.19,0" transform="translate(0.12 0.12)"/><path class="cls-1" d="M960,479.55l-735.59,63.6-2.48-140.53,7.54-6-1.77-11.67q-3.82,4.05-8,7.8v.07l-.75.6c-2,1.79-4.07,3.53-6.19,5.21L215.54,553,960,488.62" transform="translate(0.12 0.12)"/><polyline class="cls-1" points="319.78 0.12 329.62 3.97 328.79 0.12"/><path class="cls-1" d="M169.19,0l24.94,164.1q5.18,2.9,10.09,6.23L178.33,0" transform="translate(0.12 0.12)"/><path class="cls-1" d="M960,420.47,797.53,369.22l-2.48.61L769.43,267a164.49,164.49,0,0,0,12.9-18.72,162.71,162.71,0,0,0,18-123A178.62,178.62,0,0,0,718.52,14.75,182.05,182.05,0,0,0,687.54,0" transform="translate(0.12 0.12)"/><path class="cls-1" d="M960,470.48,233.27,533.31,231,406.9,381.67,286.47l7.66,35.28L466.46,305l3.45,5a226.92,226.92,0,0,0,69.35,65,223.4,223.4,0,0,0,170.26,25.48l87.72-21.85L960,430" transform="translate(0.12 0.12)"/><path class="cls-1" d="M661.69,0l.43,2A174,174,0,0,1,713.86,22.5a169.55,169.55,0,0,1,77.72,105,153.69,153.69,0,0,1-17,116.18,157.44,157.44,0,0,1-15,21.11L786.28,372l-78.94,19.67a216.18,216.18,0,0,1-236.52-96.9L396.25,311l-8.85-40.69L237.63,390.06l-2.15-14.12q-3.69,4.63-7.78,9l1.77,11.67-7.54,6,2.48,140.53L960,479.55" transform="translate(0.12 0.12)"/><path class="cls-1" d="M960,461.4,242.14,523.47l-2-112.28L375.93,302.63l6.49,29.87,80.05-17.4a235.72,235.72,0,0,0,72.13,67.63,232.43,232.43,0,0,0,177.11,26.5L797,388l163,51.44" transform="translate(0.12 0.12)"/><path class="cls-1" d="M960,430,797.24,378.61l-87.72,21.85A223.4,223.4,0,0,1,539.26,375a226.92,226.92,0,0,1-69.35-65l-3.45-5-77.13,16.76-7.66-35.28L231,406.9l2.23,126.41L960,470.48" transform="translate(0.12 0.12)"/><path class="cls-1" d="M960,452.33l-709,61.3-1.73-98.16L370.19,318.8l5.31,24.46,83.06-18.05a245.6,245.6,0,0,0,71.38,65.27A241.4,241.4,0,0,0,713.89,418l82.77-20.62L960,448.91" transform="translate(0.12 0.12)"/><path class="cls-1" d="M960,439.43,797,388l-85.24,21.24a232.43,232.43,0,0,1-177.11-26.5,235.72,235.72,0,0,1-72.13-67.63l-80.05,17.4-6.49-29.87L240.16,411.19l2,112.28L960,461.4" transform="translate(0.12 0.12)"/><path class="cls-1" d="M960,448.91,796.66,397.38,713.89,418a241.4,241.4,0,0,1-183.95-27.52,245.6,245.6,0,0,1-71.38-65.27L375.5,343.26l-5.31-24.46L249.28,415.47,251,513.63l709-61.3M259.88,503.79l-1.49-84L364.45,335,368.59,354l86.21-18.74a255.4,255.4,0,0,0,70.49,63,250.45,250.45,0,0,0,190.79,28.55l80.29-20,126,39.74Z" transform="translate(0.12 0.12)"/><path class="cls-1" d="M716.08,426.78a250.45,250.45,0,0,1-190.79-28.55,255.4,255.4,0,0,1-70.49-63L368.59,354,364.45,335l-106.06,84.8,1.49,84,662.47-57.28-126-39.74ZM268.74,494,267.51,424l91.2-72.92,3,13.64,89.52-19.45A265.47,265.47,0,0,0,520.63,406a259.38,259.38,0,0,0,197.63,29.58l77.83-19.39,80.1,25.27Z" transform="translate(0.12 0.12)"/><path class="cls-1" d="M718.26,435.55A259.38,259.38,0,0,1,520.63,406a265.47,265.47,0,0,1-69.44-60.66l-89.52,19.45-3-13.64L267.51,424,268.74,494l607.45-52.52-80.1-25.27ZM277.61,484.11l-1-55.78L353,367.28l1.79,8.24,93-20.21A274.82,274.82,0,0,0,516,413.72a268.67,268.67,0,0,0,129.69,38.57Zm432.26-37.37q5.29-1.11,10.58-2.42l75.35-18.77L830,436.35Z" transform="translate(0.12 0.12)"/><path class="cls-1" d="M447.72,355.31l-93,20.21L353,367.28l-76.34,61.05,1,55.78,368-31.82A268.67,268.67,0,0,1,516,413.72,274.82,274.82,0,0,1,447.72,355.31Zm-161.24,119-.74-41.66,61.49-49.16.61,2.82,96.52-21a284.76,284.76,0,0,0,66.95,56.18,281.4,281.4,0,0,0,62.76,27.93Z" transform="translate(0.12 0.12)"/><path class="cls-1" d="M444.36,365.29l-96.52,21-.61-2.82-61.49,49.16.74,41.66L574.07,449.4a281.4,281.4,0,0,1-62.76-27.93A284.76,284.76,0,0,1,444.36,365.29Zm-149,99.14-.49-27.53,51.28-41,95-20.64a294.82,294.82,0,0,0,65.54,54,291.78,291.78,0,0,0,27.46,14.57Z" transform="translate(0.12 0.12)"/><path class="cls-1" d="M441.12,375.25l-95,20.64-51.28,41,.49,27.53,238.77-20.64a291.78,291.78,0,0,1-27.46-14.57A294.82,294.82,0,0,1,441.12,375.25ZM304.21,454.59,304,441.18l46.15-36.91L438,385.18A304.31,304.31,0,0,0,502,437l.76.45Z" transform="translate(0.12 0.12)"/><path class="cls-1" d="M438,385.18l-87.86,19.09L304,441.18l.23,13.41,198.55-17.17L502,437A304.31,304.31,0,0,1,438,385.18Zm-123.9,59.48,40-32L435,395.09a318.24,318.24,0,0,0,41.14,35.56Z" transform="translate(0.12 0.12)"/><path class="cls-1" d="M435,395.09l-80.84,17.57-40,32,162-14A318.24,318.24,0,0,1,435,395.09Z" transform="translate(0.12 0.12)"/><path class="cls-1" d="M720.45,444.32q-5.28,1.32-10.58,2.42L830,436.35l-34.23-10.8Z" transform="translate(0.12 0.12)"/><path class="cls-1" d="M178.33,0l25.89,170.33q5.33,3.6,10.31,7.68L187.47,0" transform="translate(0.12 0.12)"/><path class="cls-1" d="M652.44,0l2.1,9.64A164.08,164.08,0,0,1,709.2,30.25a160.58,160.58,0,0,1,73.61,99.44,144.72,144.72,0,0,1-16,109.39,147.56,147.56,0,0,1-17.12,23.34l25.66,103-70.17,17.49a207.13,207.13,0,0,1-229.86-98.35l-72.13,15.67-10-46.09L244.21,373.23,243,365.51c-2.36,3.58-4.88,7.07-7.56,10.43l2.15,14.12L387.4,270.31,396.25,311l74.57-16.21a216.18,216.18,0,0,0,236.52,96.9L786.28,372,759.57,264.8a157.44,157.44,0,0,0,15-21.11,153.69,153.69,0,0,0,17-116.18,169.55,169.55,0,0,0-77.72-105A174,174,0,0,0,662.12,2L661.69,0" transform="translate(0.12 0.12)"/><polyline class="cls-1" points="328.79 0.12 329.62 3.97 319.78 0.12"/><polyline class="cls-1" points="294.96 0.12 342.04 18.53 338.04 0.12"/><polyline class="cls-1" points="338.04 0.12 342.04 18.53 294.96 0.12"/><polyline class="cls-1" points="270.14 0.12 354.45 33.09 348.77 6.93 380.11 0.12"/><path class="cls-1" d="M643.19,0,647,17.58A154.2,154.2,0,0,1,704.54,38,151.59,151.59,0,0,1,774,131.88a137,137,0,0,1-34.34,128l24.67,99L703,374.15A198,198,0,0,1,480,274.3l-69.92,15.19L398.88,238,250.79,356.39l-.49-3.22Q247,359.52,243,365.51l1.17,7.72L393.14,254.15l10,46.09,72.13-15.67a207.13,207.13,0,0,0,229.86,98.35l70.17-17.49-25.66-103a147.56,147.56,0,0,0,17.12-23.34,144.72,144.72,0,0,0,16-109.39A160.58,160.58,0,0,0,709.2,30.25,164.08,164.08,0,0,0,654.54,9.64L652.44,0" transform="translate(0.12 0.12)"/><path class="cls-1" d="M187.47,0l27.06,178a139.23,139.23,0,0,1,10.6,9.58L196.62,0" transform="translate(0.12 0.12)"/><path class="cls-1" d="M633.94,0l5.6,25.79a144.3,144.3,0,0,1,60.35,20,142.61,142.61,0,0,1,65.38,88.31,126.75,126.75,0,0,1-14,95.8,128.09,128.09,0,0,1-21.53,27.21l23.72,95.19-52.63,13.11A188.94,188.94,0,0,1,484.93,264L417,278.73l-12.37-56.91L257.38,339.55l-.24-1.55a141.49,141.49,0,0,1-6.84,15.17l.49,3.22L398.88,238l11.19,51.51L480,274.3a198,198,0,0,0,223,99.85l61.41-15.3-24.67-99a137,137,0,0,0,34.34-128A151.59,151.59,0,0,0,704.54,38,154.2,154.2,0,0,0,647,17.58L643.19,0" transform="translate(0.12 0.12)"/><path class="cls-1" d="M196.62,0l28.51,187.59a140,140,0,0,1,11,12.41L205.76,0" transform="translate(0.12 0.12)"/><polyline class="cls-1" points="380.11 0.12 348.77 6.93 354.45 33.09 270.14 0.12"/><polyline class="cls-1" points="245.32 0.12 366.87 47.65 359.52 13.85 422.69 0.12"/><path class="cls-1" d="M205.76,0l30.4,200A139.83,139.83,0,0,1,248,217.55L214.9,0" transform="translate(0.12 0.12)"/><polyline class="cls-1" points="422.69 0.12 359.52 13.85 366.87 47.65 245.32 0.12"/><polyline class="cls-1" points="220.49 0.12 379.28 62.21 370.28 20.76 465.26 0.12"/><path class="cls-1" d="M624.69,0l7.46,34.33A134.86,134.86,0,0,1,756.5,136.25,118.85,118.85,0,0,1,719.62,254l22.83,91.64L698.59,356.6a179.8,179.8,0,0,1-208.44-103L423.9,268l-13.54-62.32L264,322.71l-.75-4.94A142,142,0,0,1,257.14,338l.24,1.55L404.62,221.82,417,278.73,484.93,264a188.94,188.94,0,0,0,215.85,101.4l52.63-13.11-23.72-95.19a128.09,128.09,0,0,0,21.53-27.21,126.75,126.75,0,0,0,14-95.8,142.61,142.61,0,0,0-65.38-88.31,144.3,144.3,0,0,0-60.35-20L633.94,0" transform="translate(0.12 0.12)"/><polyline class="cls-1" points="465.26 0.12 370.28 20.76 379.28 62.21 389.39 66.17 381.03 27.68 507.83 0.12"/><path class="cls-1" d="M615.44,0l9.39,43.23a125.81,125.81,0,0,1,122.9,95.2,109.79,109.79,0,0,1-39.53,113.3l1.44-.36,21.86,87.72-35.09,8.74a170.73,170.73,0,0,1-200.74-104.7l-64.85,14.1-12.58-57.87-7.88,6.3L423.9,268l66.25-14.39a179.8,179.8,0,0,0,208.44,103l43.86-10.92L719.62,254A118.85,118.85,0,0,0,756.5,136.25,134.86,134.86,0,0,0,632.15,34.33L624.69,0" transform="translate(0.12 0.12)"/><path class="cls-1" d="M606.19,0l11.42,52.57A116.71,116.71,0,0,1,739,140.62,100.5,100.5,0,0,1,667.16,262l-1.35.35a87,87,0,0,1-64.74-9,91.32,91.32,0,0,0,8,5.44,88.78,88.78,0,0,0,67.63,10.12l26.31-6.56,17.49,70.17-26.32,6.56A161.67,161.67,0,0,1,501.54,232.61l-63.81,13.86-11.61-53.41-7.88,6.3,12.58,57.87,64.85-14.1a170.73,170.73,0,0,0,200.74,104.7l35.09-8.74-21.86-87.72-1.44.36a109.79,109.79,0,0,0,39.53-113.3,125.81,125.81,0,0,0-122.9-95.2L615.44,0" transform="translate(0.12 0.12)"/><polyline class="cls-1" points="507.83 0.12 381.03 27.68 389.39 66.17 399.5 70.12 391.78 34.59 550.4 0.12"/><path class="cls-1" d="M681.26,76.74a106.67,106.67,0,0,1,48.92,66.07,91.45,91.45,0,0,1-65.33,110.43l-1.23.32a78.54,78.54,0,0,1-87.18-37.23l-12.51,2.72a98.36,98.36,0,0,0,115,58.61l17.55-4.37,13.11,52.63L692,330.29a152.64,152.64,0,0,1-181.62-99.61l-8.88,1.93A161.67,161.67,0,0,0,694.22,339.06l26.32-6.56-17.49-70.17-26.31,6.56a88.78,88.78,0,0,1-67.63-10.12,91.32,91.32,0,0,1-8-5.44,87,87,0,0,0,64.74,9l1.35-.35A100.5,100.5,0,0,0,739,140.62,116.71,116.71,0,0,0,617.61,52.57l1.94,8.94A106.77,106.77,0,0,1,681.26,76.74Z" transform="translate(0.12 0.12)"/><path class="cls-1" d="M599.8,274.26a106.67,106.67,0,0,0,81.31,12.17l8.77-2.19,8.74,35.09-8.77,2.19a143.59,143.59,0,0,1-170.53-92.77l-8.9,1.93A152.64,152.64,0,0,0,692,330.29l17.54-4.37-13.11-52.63-17.55,4.37a98.36,98.36,0,0,1-115-58.61L555,221A106.62,106.62,0,0,0,599.8,274.26Z" transform="translate(0.12 0.12)"/><path class="cls-1" d="M721.41,145a82.4,82.4,0,0,1-58.87,99.51l-1.11.29a69.54,69.54,0,0,1-75.67-30.48l-9.32,2a78.54,78.54,0,0,0,87.18,37.23l1.23-.32a91.45,91.45,0,0,0,65.33-110.43,107.65,107.65,0,0,0-110.63-81.3l2,9A98.57,98.57,0,0,1,721.41,145Z" transform="translate(0.12 0.12)"/><path class="cls-1" d="M647,168.29a14.83,14.83,0,0,0-5.59-8.35l3.85,15.46-.95.24.17.78A8.27,8.27,0,0,0,647,168.29Z" transform="translate(0.12 0.12)"/><path class="cls-1" d="M682.13,159.55a44.42,44.42,0,0,1-8.5,38.46,46.34,46.34,0,0,0,12.7-44.28,62.37,62.37,0,0,0-57-47.1l3.1,14.27A51.07,51.07,0,0,1,682.13,159.55Z" transform="translate(0.12 0.12)"/><path class="cls-1" d="M686.33,153.73A46.34,46.34,0,0,1,673.63,198a44.42,44.42,0,0,0,8.5-38.46,51.07,51.07,0,0,0-49.67-38.65l2,9.08a42,42,0,0,1,38.93,31.75,35.4,35.4,0,0,1-25.77,42.86,29.85,29.85,0,0,1-15.66-.32l-16.68,3.63a43,43,0,0,0,7.55,5.78,42.07,42.07,0,0,0,32.07,4.79l.77-.19a55.3,55.3,0,0,0,39.46-66.73,71.41,71.41,0,0,0-67.72-54l2,9.11A62.37,62.37,0,0,1,686.33,153.73Z" transform="translate(0.12 0.12)"/><path class="cls-1" d="M645.3,175.4l-3.85-15.46a14.83,14.83,0,0,1,5.59,8.35,8.27,8.27,0,0,1-2.52,8.13l2.05,9.41a17.3,17.3,0,0,0,9.24-19.73,23.87,23.87,0,0,0-17.3-17.35l5.84,26.89Z" transform="translate(0.12 0.12)"/><path class="cls-1" d="M712.64,147.18A73.38,73.38,0,0,1,659.24,236a60.55,60.55,0,0,1-64-23.77l-9.48,2.06a69.54,69.54,0,0,0,75.67,30.48l1.11-.29A82.4,82.4,0,0,0,721.41,145,98.57,98.57,0,0,0,621.5,70.47l2,9A89.52,89.52,0,0,1,712.64,147.18Z" transform="translate(0.12 0.12)"/><path class="cls-1" d="M595.14,282A115.69,115.69,0,0,0,683.3,295.2l2.18,8.77h0l2.19,8.77a134.54,134.54,0,0,1-159.46-85.93l-8.89,1.94a143.59,143.59,0,0,0,170.53,92.77l8.77-2.19-8.74-35.09-8.77,2.19A107.46,107.46,0,0,1,555,221L546,222.94A115.57,115.57,0,0,0,595.14,282Z" transform="translate(0.12 0.12)"/><path class="cls-1" d="M695.1,151.55a55.3,55.3,0,0,1-39.46,66.73l-.77.19a42.07,42.07,0,0,1-32.07-4.79,43,43,0,0,1-7.55-5.78L605,210.13a51.41,51.41,0,0,0,52,17.12,64.26,64.26,0,0,0,46.82-77.89,80.35,80.35,0,0,0-78.46-60.9l2,9.06A71.41,71.41,0,0,1,695.1,151.55Z" transform="translate(0.12 0.12)"/><path class="cls-1" d="M703.87,149.36a64.26,64.26,0,0,1-46.82,77.89,51.41,51.41,0,0,1-52-17.12l-9.76,2.12a60.55,60.55,0,0,0,64,23.77,73.38,73.38,0,0,0,53.4-88.84,89.52,89.52,0,0,0-89.19-67.73l2,9A80.35,80.35,0,0,1,703.87,149.36Z" transform="translate(0.12 0.12)"/><path class="cls-1" d="M664.58,163.92a26.32,26.32,0,0,1-16.06,30.91l1.22,5.57-17.81,3.87a29.85,29.85,0,0,0,15.66.32,35.4,35.4,0,0,0,25.77-42.86A42,42,0,0,0,634.43,130l2,9.21A32.88,32.88,0,0,1,664.58,163.92Z" transform="translate(0.12 0.12)"/><path class="cls-1" d="M655.81,166.1a17.3,17.3,0,0,1-9.24,19.73l1.95,9a26.32,26.32,0,0,0,16.06-30.91,32.88,32.88,0,0,0-28.15-24.73l2.08,9.56A23.87,23.87,0,0,1,655.81,166.1Z" transform="translate(0.12 0.12)"/><path class="cls-1" d="M685.48,304l-2.18-8.77A116.48,116.48,0,0,1,546,222.94l-8.92,1.94A125.51,125.51,0,0,0,685.48,304Z" transform="translate(0.12 0.12)"/><path class="cls-1" d="M537.11,224.88l-8.9,1.93a134.54,134.54,0,0,0,159.46,85.93L685.48,304A125.51,125.51,0,0,1,537.11,224.88Z" transform="translate(0.12 0.12)"/><path class="cls-1" d="M444.64,235.72l-10.64-49-7.88,6.31,11.61,53.41,63.81-13.86c-.94-2.86-1.79-5.76-2.57-8.69Z" transform="translate(0.12 0.12)"/><path class="cls-1" d="M596.94,0l11.64,53.59c3-.45,6-.8,9-1L606.19,0" transform="translate(0.12 0.12)"/><polyline class="cls-1" points="550.4 0.12 391.78 34.59 399.5 70.12 409.61 74.07 402.54 41.5 592.97 0.12"/><path class="cls-1" d="M619.55,61.51l-1.94-8.94c-3,.22-6,.57-9,1l1.93,8.85C613.52,62,616.54,61.7,619.55,61.51Z" transform="translate(0.12 0.12)"/><path class="cls-1" d="M507.81,222,499,223.92c.78,2.93,1.63,5.83,2.57,8.69l8.88-1.93C509.47,227.82,508.6,224.93,507.81,222Z" transform="translate(0.12 0.12)"/><path class="cls-1" d="M560.91,210.46c.88,2.92,1.89,5.79,3,8.59l12.51-2.72a76.19,76.19,0,0,1-4.13-8.35Z" transform="translate(0.12 0.12)"/><path class="cls-1" d="M632.46,120.9l-3.1-14.27a61.72,61.72,0,0,0-9.21.18l3.24,14.94A51,51,0,0,1,632.46,120.9Z" transform="translate(0.12 0.12)"/><path class="cls-1" d="M638,177.24a3.08,3.08,0,0,0,.8.69,3,3,0,0,0,2.25.35l.12,0a8.21,8.21,0,0,0,3.36-1.83l-.17-.78Z" transform="translate(0.12 0.12)"/><path class="cls-1" d="M621.5,70.47l-2-9c-3,.19-6,.49-9,.93l1.92,8.87C615.46,70.89,618.49,70.61,621.5,70.47Z" transform="translate(0.12 0.12)"/><path class="cls-1" d="M516.65,220.07,507.81,222c.79,2.94,1.66,5.83,2.61,8.69l8.9-1.93Q517.85,224.46,516.65,220.07Z" transform="translate(0.12 0.12)"/><path class="cls-1" d="M552.06,212.38c.85,2.93,1.81,5.8,2.9,8.62l9-1.95c-1.13-2.8-2.14-5.67-3-8.59Z" transform="translate(0.12 0.12)"/><path class="cls-1" d="M581.32,206l-9,2a76.19,76.19,0,0,0,4.13,8.35l9.32-2A70.06,70.06,0,0,1,581.32,206Z" transform="translate(0.12 0.12)"/><path class="cls-1" d="M623.45,79.45l-2-9c-3,.14-6,.42-9.07.84l1.93,8.86Q618.92,79.59,623.45,79.45Z" transform="translate(0.12 0.12)"/><path class="cls-1" d="M630,151.29l4.38,17.54-.11,0c-.2,0-.38.12-.57.18l3.92,18a12,12,0,0,0,5.63,0l.25-.07a17.15,17.15,0,0,0,3.1-1.15l-2.05-9.41a8.21,8.21,0,0,1-3.36,1.83l-.12,0a3,3,0,0,1-2.25-.35,3.08,3.08,0,0,1-.8-.69l6.36-1.6-5.84-26.89a23.63,23.63,0,0,0-9.35-.48l.66,3.06Z" transform="translate(0.12 0.12)"/><path class="cls-1" d="M625.31,130.59a41.45,41.45,0,0,1,9.12-.61l-2-9.08a51,51,0,0,0-9.07.85Z" transform="translate(0.12 0.12)"/><path class="cls-1" d="M620,197.61,608.83,200a41.72,41.72,0,0,0,6.42,7.86l16.68-3.63A30.24,30.24,0,0,1,620,197.61Z" transform="translate(0.12 0.12)"/><path class="cls-1" d="M629.36,106.63l-2-9.11a72.33,72.33,0,0,0-9.16.41l1.93,8.88A61.72,61.72,0,0,1,629.36,106.63Z" transform="translate(0.12 0.12)"/><path class="cls-1" d="M590.38,204.05l-9.06,2a70.06,70.06,0,0,0,4.44,8.29l9.48-2.06A60.79,60.79,0,0,1,590.38,204.05Z" transform="translate(0.12 0.12)"/><path class="cls-1" d="M546,222.94,555,221c-1.09-2.82-2.05-5.69-2.9-8.62l-8.86,1.92Q544.46,218.7,546,222.94Z" transform="translate(0.12 0.12)"/><path class="cls-1" d="M525.5,218.15l-8.85,1.92q1.2,4.4,2.67,8.68l8.89-1.94C527.22,224,526.31,221.08,525.5,218.15Z" transform="translate(0.12 0.12)"/><path class="cls-1" d="M537.11,224.88l8.92-1.94q-1.57-4.24-2.83-8.64l-8.85,1.93C535.17,219.16,536.09,222.05,537.11,224.88Z" transform="translate(0.12 0.12)"/><path class="cls-1" d="M627.38,97.52l-2-9.06a80.24,80.24,0,0,0-9.12.6l1.93,8.87A72.33,72.33,0,0,1,627.38,97.52Z" transform="translate(0.12 0.12)"/><path class="cls-1" d="M638.51,148.75l-2.08-9.56a32.65,32.65,0,0,0-9.19.24l1.92,8.84A23.63,23.63,0,0,1,638.51,148.75Z" transform="translate(0.12 0.12)"/><path class="cls-1" d="M634.35,168.83,630,151.29l-.15,0,1.93,8.86.41-.13-.41.13,1.92,8.85c.19-.06.37-.13.57-.18Z" transform="translate(0.12 0.12)"/><path class="cls-1" d="M648.52,194.83a28.19,28.19,0,0,1-3.11,1,20.92,20.92,0,0,1-12.94-.92L620,197.61a30.24,30.24,0,0,0,11.89,6.66l17.81-3.87Z" transform="translate(0.12 0.12)"/><path class="cls-1" d="M534.35,216.23l-8.85,1.92c.81,2.93,1.72,5.82,2.71,8.66l8.9-1.93C536.09,222.05,535.17,219.16,534.35,216.23Z" transform="translate(0.12 0.12)"/><path class="cls-1" d="M643.47,187l-.25.07a12,12,0,0,1-5.63,0l1.39,6.41-6.51,1.41a20.92,20.92,0,0,0,12.94.92,28.19,28.19,0,0,0,3.11-1l-1.95-9A17.15,17.15,0,0,1,643.47,187Z" transform="translate(0.12 0.12)"/><path class="cls-1" d="M625.31,130.59l1.93,8.84a32.65,32.65,0,0,1,9.19-.24l-2-9.21A41.45,41.45,0,0,0,625.31,130.59Z" transform="translate(0.12 0.12)"/><path class="cls-1" d="M599.53,202.06l-9.15,2a60.79,60.79,0,0,0,4.86,8.2l9.76-2.12A51.07,51.07,0,0,1,599.53,202.06Z" transform="translate(0.12 0.12)"/><path class="cls-1" d="M625.41,88.46l-2-9q-4.53.14-9.09.72l1.93,8.89A80.24,80.24,0,0,1,625.41,88.46Z" transform="translate(0.12 0.12)"/><path class="cls-1" d="M608.83,200l-9.3,2a51.07,51.07,0,0,0,5.47,8.07l10.25-2.23A41.72,41.72,0,0,1,608.83,200Z" transform="translate(0.12 0.12)"/><path class="cls-1" d="M496.89,215.12,451.56,225l-9.68-44.52-7.88,6.3,10.64,49L499,223.92c-.23-.88-.47-1.76-.69-2.64C497.77,219.23,497.31,217.17,496.89,215.12Z" transform="translate(0.12 0.12)"/><path class="cls-1" d="M592.84,0,402.41,41.38,409.49,74l10.11,4-6.44-29.6L589.84,9.9l9.86,45.4c2.95-.68,5.92-1.25,8.88-1.71L596.94,0" transform="translate(0.12 0.12)"/><path class="cls-1" d="M505.73,213.2l-8.84,1.92c.42,2,.88,4.11,1.39,6.16.22.88.46,1.76.69,2.64l8.84-1.93c-.26-1-.52-1.93-.76-2.9Q506.32,216.15,505.73,213.2Z" transform="translate(0.12 0.12)"/><path class="cls-1" d="M610.51,62.44l-1.93-8.85c-3,.46-5.93,1-8.88,1.71l1.92,8.83C604.57,63.45,607.54,62.88,610.51,62.44Z" transform="translate(0.12 0.12)"/><path class="cls-1" d="M558.75,201.67c.27,1.44.57,2.88.93,4.31s.79,3,1.23,4.48l11.4-2.48a78.76,78.76,0,0,1-3-8.59Z" transform="translate(0.12 0.12)"/><path class="cls-1" d="M619.51,122.62l.83-.22c1-.25,2-.46,3-.65l-3.24-14.94a63.31,63.31,0,0,0-8.93,1.5l3.44,15.83C616.25,123.57,617.86,123.05,619.51,122.62Z" transform="translate(0.12 0.12)"/><path class="cls-1" d="M515.82,216.91c-.47-1.88-.88-3.75-1.26-5.63l-8.83,1.92q.58,3,1.32,5.89c.24,1,.5,1.94.76,2.9l8.84-1.92C516.36,219,516.09,218,515.82,216.91Z" transform="translate(0.12 0.12)"/><path class="cls-1" d="M612.43,71.31l-1.92-8.87c-3,.44-5.94,1-8.89,1.69L603.54,73C606.51,72.28,609.47,71.72,612.43,71.31Z" transform="translate(0.12 0.12)"/><path class="cls-1" d="M558.75,201.67l-8.83,1.92c.29,1.53.61,3.06,1,4.58s.74,2.82,1.15,4.21l8.85-1.92c-.44-1.48-.85-3-1.23-4.48S559,203.11,558.75,201.67Z" transform="translate(0.12 0.12)"/><path class="cls-1" d="M569.27,199.39a78.76,78.76,0,0,0,3,8.59l9-2a71.19,71.19,0,0,1-3.21-8.55Z" transform="translate(0.12 0.12)"/><path class="cls-1" d="M628.66,178.29a12,12,0,0,0,8.93,8.79l-3.92-18A7.81,7.81,0,0,0,628.66,178.29Z" transform="translate(0.12 0.12)"/><path class="cls-1" d="M549.92,203.59l-8.84,1.93c.31,1.61.66,3.22,1.06,4.83.33,1.33.69,2.64,1.06,4l8.86-1.92c-.41-1.39-.8-2.8-1.15-4.21S550.21,205.12,549.92,203.59Z" transform="translate(0.12 0.12)"/><path class="cls-1" d="M524.59,214.72q-.66-2.67-1.19-5.36l-8.84,1.92c.38,1.88.79,3.75,1.26,5.63.27,1.06.54,2.11.83,3.16l8.85-1.92C525.18,217,524.88,215.87,524.59,214.72Z" transform="translate(0.12 0.12)"/><path class="cls-1" d="M629.82,151.33l-.66-3.06c-.76.12-1.51.26-2.27.45l-.45.11a32.61,32.61,0,0,0-5.93,2.22l.9,4.14a25.79,25.79,0,0,1,8.2-3.81Z" transform="translate(0.12 0.12)"/><path class="cls-1" d="M621.82,131.36l.7-.18c.93-.24,1.86-.42,2.79-.59l-1.92-8.84c-1,.19-2,.4-3,.65l-.83.22c-1.65.43-3.26.95-4.85,1.52l1.94,8.91A49.7,49.7,0,0,1,621.82,131.36Z" transform="translate(0.12 0.12)"/><path class="cls-1" d="M613.84,189.7l-9.09,2a42,42,0,0,0,4.08,8.36L620,197.61A30.05,30.05,0,0,1,613.84,189.7Z" transform="translate(0.12 0.12)"/><path class="cls-1" d="M614.36,80.17l-1.93-8.86c-3,.41-5.92,1-8.89,1.66l1.92,8.83C608.43,81.11,611.4,80.56,614.36,80.17Z" transform="translate(0.12 0.12)"/><path class="cls-1" d="M620.15,106.81l-1.93-8.88a73.38,73.38,0,0,0-8.92,1.55l1.92,8.83A63.31,63.31,0,0,1,620.15,106.81Z" transform="translate(0.12 0.12)"/><path class="cls-1" d="M587,195.54l-8.88,1.93a71.19,71.19,0,0,0,3.21,8.55l9.06-2A61.08,61.08,0,0,1,587,195.54Z" transform="translate(0.12 0.12)"/><path class="cls-1" d="M533.36,212.54q-.63-2.55-1.13-5.1l-8.83,1.92q.52,2.69,1.19,5.36c.29,1.15.59,2.29.91,3.43l8.85-1.92C534,215,533.67,213.78,533.36,212.54Z" transform="translate(0.12 0.12)"/><path class="cls-1" d="M637.59,187.08a12,12,0,0,1-8.93-8.79,7.81,7.81,0,0,1,5-9.25l-1.92-8.85a16.7,16.7,0,0,0-8.15,5.08l4.63,21.31-5,1.08a21,21,0,0,0,9.24,7.24l6.51-1.41Z" transform="translate(0.12 0.12)"/><path class="cls-1" d="M631.75,160.19l-1.93-8.86-.21,0a25.79,25.79,0,0,0-8.2,3.81l2.19,10.08A16.7,16.7,0,0,1,631.75,160.19Z" transform="translate(0.12 0.12)"/><path class="cls-1" d="M618.22,97.93l-1.93-8.87a80.12,80.12,0,0,0-8.91,1.59l1.92,8.83A73.38,73.38,0,0,1,618.22,97.93Z" transform="translate(0.12 0.12)"/><path class="cls-1" d="M623.23,187.66l-9.39,2a30.05,30.05,0,0,0,6.2,7.91l12.43-2.71A21,21,0,0,1,623.23,187.66Z" transform="translate(0.12 0.12)"/><path class="cls-1" d="M595.87,193.61,587,195.54a61.08,61.08,0,0,0,3.39,8.51l9.15-2A51.44,51.44,0,0,1,595.87,193.61Z" transform="translate(0.12 0.12)"/><path class="cls-1" d="M618.55,142l2,9a32.61,32.61,0,0,1,5.93-2.22l.45-.11c.76-.19,1.51-.33,2.27-.45l-1.92-8.84c-.85.14-1.69.31-2.53.52A41.23,41.23,0,0,0,618.55,142Z" transform="translate(0.12 0.12)"/><path class="cls-1" d="M621.82,131.36a49.7,49.7,0,0,0-5.22,1.69l1.95,9a41.23,41.23,0,0,1,6.16-2.06c.84-.21,1.68-.38,2.53-.52l-1.93-8.84c-.93.17-1.86.35-2.79.59Z" transform="translate(0.12 0.12)"/><path class="cls-1" d="M616.29,89.06l-1.93-8.89c-3,.39-5.93.94-8.9,1.63l1.92,8.85A80.12,80.12,0,0,1,616.29,89.06Z" transform="translate(0.12 0.12)"/><path class="cls-1" d="M604.75,191.68l-8.88,1.93a51.44,51.44,0,0,0,3.66,8.45l9.3-2A42,42,0,0,1,604.75,191.68Z" transform="translate(0.12 0.12)"/><path class="cls-1" d="M533.36,212.54c.31,1.24.65,2.47,1,3.69l8.85-1.93c-.37-1.31-.73-2.62-1.06-4-.4-1.61-.75-3.22-1.06-4.83l-8.85,1.92Q532.72,210,533.36,212.54Z" transform="translate(0.12 0.12)"/><path class="cls-1" d="M458.47,214.21l-8.7-40.06-7.89,6.3L451.56,225l45.33-9.85q-.88-4.45-1.49-8.93Z" transform="translate(0.12 0.12)"/><path class="cls-1" d="M423.92,55.21l159-34.55,8,37c1.62-.49,3.25-1,4.89-1.4l1.94-.5,1.91-.45L589.84,9.9,413.16,48.3l6.44,29.6,10.11,4Z" transform="translate(0.12 0.12)"/><path class="cls-1" d="M567.26,190.57l-9.62,2.1a72.52,72.52,0,0,0,1.11,9l10.52-2.28c-.3-1-.58-2-.84-3C568,194.43,567.57,192.5,567.26,190.57Z" transform="translate(0.12 0.12)"/><path class="cls-1" d="M495.4,206.19q.6,4.47,1.49,8.93l8.84-1.92c-.6-3-1.08-5.95-1.47-8.94Z" transform="translate(0.12 0.12)"/><path class="cls-1" d="M595.85,56.25c-1.64.43-3.27.91-4.89,1.4l1.93,8.86q2.61-.81,5.27-1.52l1.81-.46,1.65-.4L599.7,55.3l-1.91.45Z" transform="translate(0.12 0.12)"/><path class="cls-1" d="M600.47,73.73l1.67-.43,1.4-.33-1.92-8.84-1.65.4-1.81.46q-2.65.7-5.27,1.52l1.92,8.86Q597.62,74.49,600.47,73.73Z" transform="translate(0.12 0.12)"/><path class="cls-1" d="M504.26,204.26c.39,3,.87,6,1.47,8.94l8.83-1.92q-.88-4.47-1.43-8.94Z" transform="translate(0.12 0.12)"/><path class="cls-1" d="M548.71,194.6a81.14,81.14,0,0,0,1.21,9l8.83-1.92a72.52,72.52,0,0,1-1.11-9Z" transform="translate(0.12 0.12)"/><path class="cls-1" d="M576.11,188.65l-8.85,1.92c.31,1.93.69,3.86,1.17,5.78.26,1,.54,2,.84,3l8.84-1.92c-.33-1.09-.63-2.19-.91-3.31Q576.53,191.42,576.11,188.65Z" transform="translate(0.12 0.12)"/><path class="cls-1" d="M614.66,124.14l-3.44-15.83-.34.08-1.19.3c-2.43.64-4.81,1.4-7.15,2.25l3.7,17A58.72,58.72,0,0,1,614.66,124.14Z" transform="translate(0.12 0.12)"/><path class="cls-1" d="M616.6,133.05l-1.94-8.91a58.72,58.72,0,0,0-8.42,3.79l2,9.27A50,50,0,0,1,616.6,133.05Z" transform="translate(0.12 0.12)"/><path class="cls-1" d="M621.41,155.19l-.9-4.14a31.7,31.7,0,0,0-8,5.63l1.44,6.63A25.92,25.92,0,0,1,621.41,155.19Z" transform="translate(0.12 0.12)"/><path class="cls-1" d="M611.12,182.66c-.13-.51-.24-1-.34-1.54l-8.07,1.75a31.32,31.32,0,0,0,.81,4.74,40.61,40.61,0,0,0,1.23,4.07l9.09-2A30,30,0,0,1,611.12,182.66Z" transform="translate(0.12 0.12)"/><path class="cls-1" d="M609.69,108.69l1.19-.3.34-.08-1.92-8.83-.6.13c-2.75.69-5.45,1.51-8.09,2.43l1.93,8.9C604.88,110.09,607.26,109.33,609.69,108.69Z" transform="translate(0.12 0.12)"/><path class="cls-1" d="M585,186.73l-8.85,1.92q.42,2.76,1.09,5.51c.28,1.12.58,2.22.91,3.31l8.88-1.93c-.37-1.17-.72-2.36-1-3.56C585.54,190.23,585.21,188.48,585,186.73Z" transform="translate(0.12 0.12)"/><path class="cls-1" d="M539.79,196.54q.42,4.5,1.29,9l8.84-1.93a81.14,81.14,0,0,1-1.21-9Z" transform="translate(0.12 0.12)"/><path class="cls-1" d="M602.78,82.47l1.55-.4,1.13-.27L603.54,73l-1.4.33-1.67.43q-2.85.75-5.66,1.64l1.93,8.88C598.73,83.61,600.74,83,602.78,82.47Z" transform="translate(0.12 0.12)"/><path class="cls-1" d="M522,200.41l-8.88,1.93q.54,4.47,1.43,8.94l8.84-1.92C522.81,206.38,522.35,203.39,522,200.41Z" transform="translate(0.12 0.12)"/><path class="cls-1" d="M618.55,142a40.88,40.88,0,0,0-8.24,4.69l2.17,10a31.7,31.7,0,0,1,8-5.63Z" transform="translate(0.12 0.12)"/><path class="cls-1" d="M603.52,187.61a31.32,31.32,0,0,1-.81-4.74l-8.88,1.93a41.59,41.59,0,0,0,.92,5c.32,1.3.7,2.57,1.12,3.82l8.88-1.93A40.61,40.61,0,0,1,603.52,187.61Z" transform="translate(0.12 0.12)"/><path class="cls-1" d="M608.25,137.2l2.06,9.5a40.88,40.88,0,0,1,8.24-4.69l-1.95-9A50,50,0,0,0,608.25,137.2Z" transform="translate(0.12 0.12)"/><path class="cls-1" d="M606.51,90.84l.87-.19-1.92-8.85-1.13.27-1.55.4c-2,.54-4,1.14-6,1.78l1.93,8.89C601.23,92.28,603.85,91.51,606.51,90.84Z" transform="translate(0.12 0.12)"/><path class="cls-1" d="M594.75,189.79a41.59,41.59,0,0,1-.92-5L585,186.73c.25,1.75.58,3.5,1,5.25.3,1.2.65,2.39,1,3.56l8.88-1.93C595.45,192.36,595.07,191.09,594.75,189.79Z" transform="translate(0.12 0.12)"/><path class="cls-1" d="M619.89,180.48a16.82,16.82,0,0,1,3.71-15.21l-2.19-10.08a25.92,25.92,0,0,0-7.49,8.12l3.56,16.35-6.7,1.46c.1.51.21,1,.34,1.54a30,30,0,0,0,2.72,7l9.39-2A20.68,20.68,0,0,1,619.89,180.48Z" transform="translate(0.12 0.12)"/><path class="cls-1" d="M608.7,99.61l.6-.13-1.92-8.83-.87.19c-2.66.67-5.28,1.44-7.84,2.3l1.94,8.9C603.25,101.12,606,100.3,608.7,99.61Z" transform="translate(0.12 0.12)"/><path class="cls-1" d="M623.6,165.27a16.82,16.82,0,0,0-3.71,15.21,20.68,20.68,0,0,0,3.34,7.18l5-1.08Z" transform="translate(0.12 0.12)"/><path class="cls-1" d="M530.9,198.48,522,200.41c.34,3,.8,6,1.39,9l8.83-1.92Q531.36,203,530.9,198.48Z" transform="translate(0.12 0.12)"/><path class="cls-1" d="M530.9,198.48q.47,4.47,1.33,9l8.85-1.92q-.87-4.49-1.29-9Z" transform="translate(0.12 0.12)"/><path class="cls-1" d="M434.67,62.12,576,31.41l6.34,29.17c2.82-1.07,5.7-2,8.61-2.93l-8-37-159,34.55,5.79,26.65,10.11,4Z" transform="translate(0.12 0.12)"/><path class="cls-1" d="M465.39,203.46l-7.74-35.61-7.88,6.3,8.7,40.06,36.93-8c-.4-3-.71-6-.91-9.05Z" transform="translate(0.12 0.12)"/><path class="cls-1" d="M584.29,69.51c2.82-1.09,5.69-2.1,8.6-3L591,57.65c-2.91.88-5.79,1.86-8.61,2.93Z" transform="translate(0.12 0.12)"/><path class="cls-1" d="M494.49,197.14c.2,3,.51,6,.91,9.05l8.86-1.93q-.57-4.53-.83-9.06Z" transform="translate(0.12 0.12)"/><path class="cls-1" d="M557.65,183.41a71.53,71.53,0,0,0,0,9.26l9.62-2.1a66.43,66.43,0,0,1-.81-9.07Z" transform="translate(0.12 0.12)"/><path class="cls-1" d="M557.65,183.41l-9.15,2a83.16,83.16,0,0,0,.21,9.2l8.93-1.93A71.53,71.53,0,0,1,557.65,183.41Z" transform="translate(0.12 0.12)"/><path class="cls-1" d="M606.24,127.93l-3.7-17a81.25,81.25,0,0,0-8.46,3.63l4.07,18.73A59.44,59.44,0,0,1,606.24,127.93Z" transform="translate(0.12 0.12)"/><path class="cls-1" d="M586.23,78.47q4.21-1.71,8.58-3.1l-1.92-8.86c-2.91.9-5.78,1.91-8.6,3Z" transform="translate(0.12 0.12)"/><path class="cls-1" d="M503.43,195.2q.26,4.53.83,9.06l8.87-1.92q-.55-4.54-.75-9.09Z" transform="translate(0.12 0.12)"/><path class="cls-1" d="M566.45,181.5a66.43,66.43,0,0,0,.81,9.07l8.85-1.92a59.67,59.67,0,0,1-.65-9.11Z" transform="translate(0.12 0.12)"/><path class="cls-1" d="M512.38,193.25q.2,4.55.75,9.09l8.88-1.93q-.51-4.56-.65-9.11Z" transform="translate(0.12 0.12)"/><path class="cls-1" d="M596.74,84.25l-1.93-8.88q-4.37,1.39-8.58,3.1l1.95,9Q592.38,85.67,596.74,84.25Z" transform="translate(0.12 0.12)"/><path class="cls-1" d="M584.54,177.57l-9.08,2a59.67,59.67,0,0,0,.65,9.11l8.85-1.92A50.45,50.45,0,0,1,584.54,177.57Z" transform="translate(0.12 0.12)"/><path class="cls-1" d="M602.54,110.94l-1.93-8.9c-2.91,1-5.74,2.15-8.51,3.43l2,9.1A81.25,81.25,0,0,1,602.54,110.94Z" transform="translate(0.12 0.12)"/><path class="cls-1" d="M613.92,163.31l-1.44-6.63a32.28,32.28,0,0,0-7.07,10l1.31,6.05-3.52.76a31.78,31.78,0,0,0-.49,9.36l8.07-1.75A25.83,25.83,0,0,1,613.92,163.31Z" transform="translate(0.12 0.12)"/><path class="cls-1" d="M548.5,185.4l-9.09,2a90.63,90.63,0,0,0,.38,9.16l8.92-1.94A83.16,83.16,0,0,1,548.5,185.4Z" transform="translate(0.12 0.12)"/><path class="cls-1" d="M606.24,127.93a59.44,59.44,0,0,0-8.09,5.37l2.17,10a50.27,50.27,0,0,1,7.93-6.09Z" transform="translate(0.12 0.12)"/><path class="cls-1" d="M598.67,93.14l-1.93-8.89q-4.37,1.43-8.56,3.19l2,9C592.91,95.22,595.76,94.12,598.67,93.14Z" transform="translate(0.12 0.12)"/><path class="cls-1" d="M600.61,102l-1.94-8.9c-2.91,1-5.76,2.08-8.53,3.31l2,9C594.87,104.19,597.7,103.05,600.61,102Z" transform="translate(0.12 0.12)"/><path class="cls-1" d="M613.92,163.31a25.83,25.83,0,0,0-3.14,17.81l6.7-1.46Z" transform="translate(0.12 0.12)"/><path class="cls-1" d="M530.37,189.34l-9,2q.14,4.55.65,9.11l8.89-1.93Q530.44,193.89,530.37,189.34Z" transform="translate(0.12 0.12)"/><path class="cls-1" d="M593.74,175.57l-9.2,2a50.45,50.45,0,0,0,.42,9.16l8.87-1.93A40.75,40.75,0,0,1,593.74,175.57Z" transform="translate(0.12 0.12)"/><path class="cls-1" d="M530.37,189.34q.06,4.54.53,9.14l8.89-1.94a90.63,90.63,0,0,1-.38-9.16Z" transform="translate(0.12 0.12)"/><path class="cls-1" d="M603.2,173.51l-9.46,2.06a40.75,40.75,0,0,0,.09,9.23l8.88-1.93A31.78,31.78,0,0,1,603.2,173.51Z" transform="translate(0.12 0.12)"/><path class="cls-1" d="M602.65,154l2.76,12.68a32.28,32.28,0,0,1,7.07-10l-2.17-10A40.92,40.92,0,0,0,602.65,154Z" transform="translate(0.12 0.12)"/><path class="cls-1" d="M610.31,146.7l-2.06-9.5a50.27,50.27,0,0,0-7.93,6.09L602.65,154A40.92,40.92,0,0,1,610.31,146.7Z" transform="translate(0.12 0.12)"/><path class="cls-1" d="M445.42,69,569.1,42.16l4.76,21.94q4.17-1.9,8.49-3.52L576,31.41,434.67,62.12l5.15,23.69,10.11,4Z" transform="translate(0.12 0.12)"/><path class="cls-1" d="M472.3,192.71l-6.77-31.16-7.88,6.3,7.74,35.61,29.1-6.32q-.32-4.6-.32-9.18Z" transform="translate(0.12 0.12)"/><path class="cls-1" d="M575.83,73.17q4.15-2,8.46-3.66l-1.94-8.93Q578,62.2,573.86,64.1Z" transform="translate(0.12 0.12)"/><path class="cls-1" d="M595.45,124a73.46,73.46,0,0,0-7.53,4.76l.26,1.19A69.53,69.53,0,0,1,595.45,124Z" transform="translate(0.12 0.12)"/><path class="cls-1" d="M566.89,172.15l-8,1.74a72.5,72.5,0,0,0-1.24,9.52l8.8-1.91A67.56,67.56,0,0,1,566.89,172.15Z" transform="translate(0.12 0.12)"/><path class="cls-1" d="M494.17,188q0,4.57.32,9.18l8.94-1.94q-.27-4.62-.19-9.22Z" transform="translate(0.12 0.12)"/><path class="cls-1" d="M549.35,176a82.58,82.58,0,0,0-.85,9.43l9.15-2a72.5,72.5,0,0,1,1.24-9.52Z" transform="translate(0.12 0.12)"/><path class="cls-1" d="M512.34,184l-9.1,2q-.08,4.61.19,9.22l8.95-1.95Q512.17,188.62,512.34,184Z" transform="translate(0.12 0.12)"/><path class="cls-1" d="M566.89,172.15a67.56,67.56,0,0,0-.44,9.35l9-2a57.9,57.9,0,0,1,.85-9.43Z" transform="translate(0.12 0.12)"/><path class="cls-1" d="M577.81,82.26q4.13-2.06,8.42-3.79l-1.94-9q-4.31,1.68-8.46,3.66Z" transform="translate(0.12 0.12)"/><path class="cls-1" d="M595.45,124a69.53,69.53,0,0,0-7.27,5.95l2.3,10.58a58.6,58.6,0,0,1,7.67-7.26l-4.07-18.73a82.46,82.46,0,0,0-8.23,4.7l2.07,9.52A73.46,73.46,0,0,1,595.45,124Z" transform="translate(0.12 0.12)"/><path class="cls-1" d="M540,178a88.94,88.94,0,0,0-.57,9.38l9.09-2a82.58,82.58,0,0,1,.85-9.43Z" transform="translate(0.12 0.12)"/><path class="cls-1" d="M605.41,166.7a32.08,32.08,0,0,0-2.21,6.81l3.52-.76Z" transform="translate(0.12 0.12)"/><path class="cls-1" d="M521.48,182l-9.14,2q-.17,4.61,0,9.24l9-1.95C521.26,188.2,521.31,185.1,521.48,182Z" transform="translate(0.12 0.12)"/><path class="cls-1" d="M579.79,91.39q4.1-2.15,8.39-4l-1.95-9q-4.29,1.73-8.42,3.79Z" transform="translate(0.12 0.12)"/><path class="cls-1" d="M594.08,114.57l-2-9.1a93.72,93.72,0,0,0-8.3,4.38l2.05,9.42A82.46,82.46,0,0,1,594.08,114.57Z" transform="translate(0.12 0.12)"/><path class="cls-1" d="M590.48,140.56,593,152a50.92,50.92,0,0,1,7.36-8.71l-2.17-10A58.6,58.6,0,0,0,590.48,140.56Z" transform="translate(0.12 0.12)"/><path class="cls-1" d="M576.31,170.11a57.9,57.9,0,0,0-.85,9.43l9.08-2a49.76,49.76,0,0,1,1.38-9.55Z" transform="translate(0.12 0.12)"/><path class="cls-1" d="M602.65,154a41.19,41.19,0,0,0-8.91,21.55l9.46-2.06a32.08,32.08,0,0,1,2.21-6.81Z" transform="translate(0.12 0.12)"/><path class="cls-1" d="M590.14,96.45l-2-9q-4.29,1.8-8.39,4l2,9.22C584.49,99.1,587.28,97.71,590.14,96.45Z" transform="translate(0.12 0.12)"/><path class="cls-1" d="M540,178l-9.28,2c-.26,3.08-.36,6.19-.33,9.32l9-2A88.94,88.94,0,0,1,540,178Z" transform="translate(0.12 0.12)"/><path class="cls-1" d="M600.32,143.29A50.92,50.92,0,0,0,593,152l3,13.83L585.92,168a49.76,49.76,0,0,0-1.38,9.55l9.2-2A41.19,41.19,0,0,1,602.65,154Z" transform="translate(0.12 0.12)"/><path class="cls-1" d="M521.48,182c-.17,3.08-.22,6.18-.12,9.28l9-2c0-3.13.07-6.24.33-9.32Z" transform="translate(0.12 0.12)"/><path class="cls-1" d="M592.1,105.47l-2-9c-2.86,1.26-5.65,2.65-8.34,4.16l2,9.24A93.72,93.72,0,0,1,592.1,105.47Z" transform="translate(0.12 0.12)"/><path class="cls-1" d="M479.21,182l-5.8-26.71-7.88,6.3,6.77,31.16L494.17,188c0-3.12.12-6.23.34-9.33Z" transform="translate(0.12 0.12)"/><path class="cls-1" d="M456.18,76l106-23,3.34,15.34c2.72-1.47,5.51-2.86,8.34-4.16L569.1,42.16,445.42,69l4.51,20.72,10.11,4Z" transform="translate(0.12 0.12)"/><path class="cls-1" d="M588.18,130l-.26-1.19a70.75,70.75,0,0,0-7.83,6.53l.63,2.89A69.12,69.12,0,0,1,588.18,130Z" transform="translate(0.12 0.12)"/><path class="cls-1" d="M561.61,164.05a72.52,72.52,0,0,0-2.72,9.84l8-1.74a68.18,68.18,0,0,1,1.84-9.65Z" transform="translate(0.12 0.12)"/><path class="cls-1" d="M494.51,178.63c-.22,3.1-.34,6.21-.34,9.33l9.07-2c.05-3.12.22-6.25.5-9.35Z" transform="translate(0.12 0.12)"/><path class="cls-1" d="M567.52,77.5q4.07-2.32,8.31-4.33l-2-9.07c-2.83,1.3-5.62,2.69-8.34,4.16Z" transform="translate(0.12 0.12)"/><path class="cls-1" d="M580.72,138.21l2.66,12.26a59.1,59.1,0,0,1,7.1-9.91L588.18,130A69.12,69.12,0,0,0,580.72,138.21Z" transform="translate(0.12 0.12)"/><path class="cls-1" d="M568.73,162.5a68.18,68.18,0,0,0-1.84,9.65l9.42-2a58.67,58.67,0,0,1,2.55-9.81Z" transform="translate(0.12 0.12)"/><path class="cls-1" d="M569.54,86.79q4-2.43,8.27-4.53l-2-9.09q-4.25,2-8.31,4.33Z" transform="translate(0.12 0.12)"/><path class="cls-1" d="M587.92,128.79l-2.07-9.52a80.31,80.31,0,0,0-8,5.89l2.21,10.16A70.75,70.75,0,0,1,587.92,128.79Z" transform="translate(0.12 0.12)"/><path class="cls-1" d="M503.74,176.63c-.28,3.1-.45,6.23-.5,9.35l9.1-2q.17-4.72.7-9.41Z" transform="translate(0.12 0.12)"/><path class="cls-1" d="M551.45,166.26a80.73,80.73,0,0,0-2.1,9.71l9.54-2.08a72.52,72.52,0,0,1,2.72-9.84Z" transform="translate(0.12 0.12)"/><path class="cls-1" d="M513,174.6q-.54,4.68-.7,9.41l9.14-2c.17-3.17.49-6.32.94-9.45Z" transform="translate(0.12 0.12)"/><path class="cls-1" d="M571.58,96.16q4-2.56,8.21-4.77l-2-9.13q-4.23,2.1-8.27,4.53Z" transform="translate(0.12 0.12)"/><path class="cls-1" d="M551.45,166.26l-9.86,2.14A89,89,0,0,0,540,178l9.37-2A80.73,80.73,0,0,1,551.45,166.26Z" transform="translate(0.12 0.12)"/><path class="cls-1" d="M583.38,150.47l1.84,8.45-6.36,1.38a58.67,58.67,0,0,0-2.55,9.81l9.61-2.09a50.65,50.65,0,0,1,7-16l-2.48-11.44A59.1,59.1,0,0,0,583.38,150.47Z" transform="translate(0.12 0.12)"/><path class="cls-1" d="M585.85,119.27l-2.05-9.42a91.8,91.8,0,0,0-8.06,5.45l2.14,9.86A80.31,80.31,0,0,1,585.85,119.27Z" transform="translate(0.12 0.12)"/><path class="cls-1" d="M583.8,109.85l-2-9.24q-4.23,2.36-8.15,5.07l2.09,9.62A91.8,91.8,0,0,1,583.8,109.85Z" transform="translate(0.12 0.12)"/><path class="cls-1" d="M532,170.5c-.57,3.13-1,6.31-1.25,9.52l9.28-2a89,89,0,0,1,1.61-9.6Z" transform="translate(0.12 0.12)"/><path class="cls-1" d="M596,165.83,593,152a50.65,50.65,0,0,0-7,16Z" transform="translate(0.12 0.12)"/><path class="cls-1" d="M573.65,105.68q3.93-2.72,8.15-5.07l-2-9.22q-4.21,2.2-8.21,4.77Z" transform="translate(0.12 0.12)"/><path class="cls-1" d="M522.42,172.57c-.45,3.13-.77,6.28-.94,9.45l9.22-2c.26-3.21.68-6.39,1.25-9.52Z" transform="translate(0.12 0.12)"/><path class="cls-1" d="M466.93,82.87l88.34-19.2,2.05,9.42q4-2.55,8.2-4.83l-3.34-15.34-106,23L460,93.72l10.11,4Z" transform="translate(0.12 0.12)"/><path class="cls-1" d="M486.13,171.2l-4.84-22.26-7.88,6.31,5.8,26.71,15.3-3.33c.22-3.17.55-6.32,1-9.47Z" transform="translate(0.12 0.12)"/><path class="cls-1" d="M580.72,138.21l-.63-2.89a72.13,72.13,0,0,0-7.44,8.34l1.19,5.48A69.26,69.26,0,0,1,580.72,138.21Z" transform="translate(0.12 0.12)"/><path class="cls-1" d="M495.5,169.16c-.44,3.15-.77,6.3-1,9.47l9.23-2c.29-3.19.7-6.37,1.23-9.52Z" transform="translate(0.12 0.12)"/><path class="cls-1" d="M559.37,82.55q4-2.67,8.15-5l-2-9.24q-4.2,2.28-8.2,4.83Z" transform="translate(0.12 0.12)"/><path class="cls-1" d="M568.73,162.5a68.7,68.7,0,0,1,3.53-10l-6.15,1.33a72.91,72.91,0,0,0-4.5,10.23Z" transform="translate(0.12 0.12)"/><path class="cls-1" d="M580.09,135.32l-2.21-10.16a82.78,82.78,0,0,0-7.66,7.33l2.43,11.17A72.13,72.13,0,0,1,580.09,135.32Z" transform="translate(0.12 0.12)"/><path class="cls-1" d="M561.45,92.13q3.93-2.84,8.09-5.34l-2-9.29q-4.17,2.37-8.15,5Z" transform="translate(0.12 0.12)"/><path class="cls-1" d="M566.11,153.82l-11.17,2.43a81.83,81.83,0,0,0-3.49,10l10.16-2.21A72.91,72.91,0,0,1,566.11,153.82Z" transform="translate(0.12 0.12)"/><path class="cls-1" d="M505,167.11c-.53,3.15-.94,6.33-1.23,9.52l9.3-2q.56-4.82,1.5-9.57Z" transform="translate(0.12 0.12)"/><path class="cls-1" d="M573.84,149.14l.62,2.87-2.2.48a68.7,68.7,0,0,0-3.53,10l10.13-2.2a59.88,59.88,0,0,1,4.52-9.83l-2.66-12.26A69.26,69.26,0,0,0,573.84,149.14Z" transform="translate(0.12 0.12)"/><path class="cls-1" d="M577.88,125.16l-2.14-9.86a89.78,89.78,0,0,0-7.81,6.64l2.29,10.55A82.78,82.78,0,0,1,577.88,125.16Z" transform="translate(0.12 0.12)"/><path class="cls-1" d="M563.56,101.84q3.88-3,8-5.68l-2-9.37q-4.15,2.5-8.09,5.34Z" transform="translate(0.12 0.12)"/><path class="cls-1" d="M544.39,158.54a89.84,89.84,0,0,0-2.8,9.86l9.86-2.14a81.83,81.83,0,0,1,3.49-10Z" transform="translate(0.12 0.12)"/><path class="cls-1" d="M585.22,158.92l-1.84-8.45a59.88,59.88,0,0,0-4.52,9.83Z" transform="translate(0.12 0.12)"/><path class="cls-1" d="M514.54,165q-.94,4.75-1.5,9.57l9.38-2q.71-4.87,1.86-9.66Z" transform="translate(0.12 0.12)"/><path class="cls-1" d="M565.72,111.78q3.79-3.23,7.93-6.1l-2.07-9.52q-4.14,2.66-8,5.68Z" transform="translate(0.12 0.12)"/><path class="cls-1" d="M534.21,160.75A99.94,99.94,0,0,0,532,170.5l9.64-2.1a89.84,89.84,0,0,1,2.8-9.86Z" transform="translate(0.12 0.12)"/><path class="cls-1" d="M567.93,121.94a89.78,89.78,0,0,1,7.81-6.64l-2.09-9.62q-4.14,2.86-7.93,6.1Z" transform="translate(0.12 0.12)"/><path class="cls-1" d="M524.28,162.91q-1.15,4.78-1.86,9.66L532,170.5a99.94,99.94,0,0,1,2.26-9.75Z" transform="translate(0.12 0.12)"/><path class="cls-1" d="M495.5,169.16q.69-4.83,1.72-9.62l-4.18.91-3.87-17.81-7.88,6.3,4.84,22.26Z" transform="translate(0.12 0.12)"/><path class="cls-1" d="M477.68,89.78l70.67-15.36.92,4.22q3.91-2.92,8.05-5.55l-2.05-9.42-88.34,19.2,3.22,14.8,10.11,4Z" transform="translate(0.12 0.12)"/><path class="cls-1" d="M573.84,149.14l-1.19-5.48a72.42,72.42,0,0,0-4.67,6.85c-.66,1.09-1.28,2.2-1.87,3.31l6.15-1.33C572.76,151.35,573.28,150.24,573.84,149.14Z" transform="translate(0.12 0.12)"/><path class="cls-1" d="M505,167.11q.82-4.89,2-9.69l-9.77,2.12q-1,4.78-1.72,9.62Z" transform="translate(0.12 0.12)"/><path class="cls-1" d="M551.39,88.41c2.58-2.06,5.25-4,8-5.86l-2-9.46q-4.12,2.63-8.05,5.55Z" transform="translate(0.12 0.12)"/><path class="cls-1" d="M560.24,145.85h0a84.74,84.74,0,0,0-5.29,10.4l11.17-2.43c.59-1.11,1.21-2.22,1.87-3.31a72.42,72.42,0,0,1,4.67-6.85l-2.43-11.17a84.05,84.05,0,0,0-7.26,9.15l.75,3.45Z" transform="translate(0.12 0.12)"/><path class="cls-1" d="M514.54,165q1-4.93,2.42-9.78l-10,2.17q-1.2,4.8-2,9.69Z" transform="translate(0.12 0.12)"/><path class="cls-1" d="M553.55,98.36q3.83-3.28,7.9-6.23l-2.08-9.58c-2.73,1.85-5.4,3.8-8,5.86Z" transform="translate(0.12 0.12)"/><path class="cls-1" d="M573.84,149.14c-.56,1.1-1.08,2.21-1.58,3.35l2.2-.48Z" transform="translate(0.12 0.12)"/><path class="cls-1" d="M524.28,162.91c.79-3.32,1.75-6.62,2.86-9.87L517,155.25q-1.43,4.84-2.42,9.78Z" transform="translate(0.12 0.12)"/><path class="cls-1" d="M554.94,156.25a84.74,84.74,0,0,1,5.29-10.4h0l-11.63,2.52a91.27,91.27,0,0,0-4.22,10.17Z" transform="translate(0.12 0.12)"/><path class="cls-1" d="M555.76,108.53q3.75-3.54,7.8-6.69l-2.11-9.71q-4.08,2.94-7.9,6.23Z" transform="translate(0.12 0.12)"/><path class="cls-1" d="M560.42,130,563,141.64a84.05,84.05,0,0,1,7.26-9.15l-2.29-10.55A90.73,90.73,0,0,0,560.42,130Z" transform="translate(0.12 0.12)"/><path class="cls-1" d="M558.05,119a101.33,101.33,0,0,1,7.67-7.26l-2.16-9.94q-4,3.15-7.8,6.69Z" transform="translate(0.12 0.12)"/><path class="cls-1" d="M534.21,160.75a100,100,0,0,1,3.45-10L527.14,153c-1.11,3.25-2.07,6.55-2.86,9.87Z" transform="translate(0.12 0.12)"/><path class="cls-1" d="M544.39,158.54a91.27,91.27,0,0,1,4.22-10.17l-11,2.38a100,100,0,0,0-3.45,10Z" transform="translate(0.12 0.12)"/><path class="cls-1" d="M560.42,130a90.73,90.73,0,0,1,7.51-8l-2.21-10.16a101.33,101.33,0,0,0-7.67,7.26Z" transform="translate(0.12 0.12)"/><path class="cls-1" d="M497.22,159.54A136.32,136.32,0,0,1,508.73,127l-19.56,15.64L493,160.45Z" transform="translate(0.12 0.12)"/><path class="cls-1" d="M549.27,78.64l-.92-4.22L477.68,89.78l2.58,11.84,35.07,13.72A136.32,136.32,0,0,1,549.27,78.64Z" transform="translate(0.12 0.12)"/><path class="cls-1" d="M515.33,115.34l5.37,2.1-12,9.56a136.32,136.32,0,0,0-11.51,32.54l9.77-2.12a128.6,128.6,0,0,1,44.4-69l-2.12-9.77A136.32,136.32,0,0,0,515.33,115.34Z" transform="translate(0.12 0.12)"/><path class="cls-1" d="M563.71,145.09l-.75-3.45c-.94,1.37-1.86,2.77-2.72,4.21Z" transform="translate(0.12 0.12)"/><path class="cls-1" d="M521.49,122.57A128.14,128.14,0,0,0,507,157.42l10-2.17a119.55,119.55,0,0,1,36.59-56.89l-2.16-10A127.55,127.55,0,0,0,521.49,122.57Z" transform="translate(0.12 0.12)"/><path class="cls-1" d="M548.61,148.37l11.63-2.52c.86-1.44,1.78-2.84,2.72-4.21L560.42,130a92.9,92.9,0,0,0-7.94,11.23C551.07,143.54,549.79,145.94,548.61,148.37Z" transform="translate(0.12 0.12)"/><path class="cls-1" d="M529.24,127.23a119,119,0,0,0-12.28,28L527.14,153a110.67,110.67,0,0,1,28.62-44.51l-2.21-10.17A118.76,118.76,0,0,0,529.24,127.23Z" transform="translate(0.12 0.12)"/><path class="cls-1" d="M548.61,148.37c1.18-2.43,2.46-4.83,3.87-7.17A92.9,92.9,0,0,1,560.42,130L558.05,119a100.81,100.81,0,0,0-20.39,31.71Z" transform="translate(0.12 0.12)"/><path class="cls-1" d="M537,131.88A110.56,110.56,0,0,0,527.14,153l10.52-2.29A100.81,100.81,0,0,1,558.05,119l-2.29-10.51A110.07,110.07,0,0,0,537,131.88Z" transform="translate(0.12 0.12)"/><path class="cls-1" d="M270.54,305.87,266,276.24a140.68,140.68,0,0,1-2.83,41.53l.75,4.94,146.4-117-2.14-9.86Z" transform="translate(0.12 0.12)"/><path class="cls-1" d="M214.9,0,248,217.55a141.31,141.31,0,0,1,13.81,33.82c.47,1.8.9,3.59,1.3,5.39L225.85,11.85,381.46,72.7l-2.3-10.61L220.37,0" transform="translate(0.12 0.12)"/><polygon class="cls-1" points="408.34 195.92 410.48 205.78 418.37 199.48 416.22 189.62 408.34 195.92"/><polygon class="cls-1" points="389.39 66.17 379.28 62.21 381.59 72.82 391.7 76.77 389.39 66.17"/><polygon class="cls-1" points="401.81 80.73 399.5 70.12 389.39 66.17 391.7 76.77 401.81 80.73"/><polygon class="cls-1" points="416.22 189.62 418.37 199.48 426.25 193.18 424.1 183.32 416.22 189.62"/><polygon class="cls-1" points="411.92 84.68 409.61 74.07 399.5 70.12 401.81 80.73 411.92 84.68"/><polygon class="cls-1" points="431.98 177.01 424.1 183.32 426.25 193.18 434.13 186.88 431.98 177.01"/><polygon class="cls-1" points="439.87 170.71 431.98 177.01 434.13 186.88 442.01 180.57 439.87 170.71"/><polygon class="cls-1" points="422.03 88.63 419.72 78.03 409.61 74.07 411.92 84.68 422.03 88.63"/><polygon class="cls-1" points="447.75 164.41 439.87 170.71 442.01 180.57 449.89 174.27 447.75 164.41"/><polygon class="cls-1" points="432.14 92.59 429.83 81.98 419.72 78.03 422.03 88.63 432.14 92.59"/><polygon class="cls-1" points="439.94 85.93 429.83 81.98 432.14 92.59 442.25 96.54 439.94 85.93"/><polygon class="cls-1" points="455.63 158.11 447.75 164.41 449.89 174.27 457.77 167.97 455.63 158.11"/><polygon class="cls-1" points="450.05 89.89 439.94 85.93 442.25 96.54 452.36 100.49 450.05 89.89"/><polygon class="cls-1" points="463.51 151.81 455.63 158.11 457.77 167.97 465.65 161.67 463.51 151.81"/><polygon class="cls-1" points="471.39 145.51 463.51 151.81 465.65 161.67 473.53 155.37 471.39 145.51"/><polygon class="cls-1" points="460.16 93.84 450.05 89.89 452.36 100.49 462.47 104.45 460.16 93.84"/><polygon class="cls-1" points="481.42 149.07 479.27 139.21 471.39 145.51 473.53 155.37 481.42 149.07"/><polygon class="cls-1" points="470.27 97.79 460.16 93.84 462.47 104.45 472.58 108.4 470.27 97.79"/><polygon class="cls-1" points="480.38 101.75 470.27 97.79 472.58 108.4 482.69 112.35 480.38 101.75"/><polygon class="cls-1" points="489.3 142.76 487.15 132.9 479.27 139.21 481.42 149.07 489.3 142.76"/><path class="cls-1" d="M508.73,127c1.55-3.07,3.22-6.11,5-9.09.52-.86,1.06-1.72,1.59-2.57l-35.07-13.72,2.3,10.61,20.26,7.92L487,132.78l2.14,9.86Z" transform="translate(0.12 0.12)"/><path class="cls-1" d="M515.33,115.34c-.53.85-1.07,1.71-1.59,2.57-1.79,3-3.46,6-5,9.09l12-9.56Z" transform="translate(0.12 0.12)"/><path class="cls-1" d="M270.54,305.87,408.22,195.8l-2.15-9.86L277.13,289,237.14,26,383.77,83.31,381.46,72.7,225.85,11.85l37.23,244.91a141.61,141.61,0,0,1,3,19.48Z" transform="translate(0.12 0.12)"/><polygon class="cls-1" points="414.08 179.76 406.2 186.06 408.34 195.92 416.22 189.62 414.08 179.76"/><polygon class="cls-1" points="394 87.38 391.7 76.77 381.59 72.82 383.89 83.43 394 87.38"/><polygon class="cls-1" points="414.08 179.76 416.22 189.62 424.1 183.32 421.96 173.46 414.08 179.76"/><polygon class="cls-1" points="401.81 80.73 391.7 76.77 394 87.38 404.12 91.33 401.81 80.73"/><polygon class="cls-1" points="421.96 173.46 424.1 183.32 431.98 177.01 429.84 167.15 421.96 173.46"/><polygon class="cls-1" points="414.23 95.29 411.92 84.68 401.81 80.73 404.12 91.33 414.23 95.29"/><polygon class="cls-1" points="437.72 160.85 429.84 167.15 431.98 177.01 439.87 170.71 437.72 160.85"/><polygon class="cls-1" points="424.33 99.24 422.03 88.63 411.92 84.68 414.23 95.29 424.33 99.24"/><polygon class="cls-1" points="445.6 154.55 437.72 160.85 439.87 170.71 447.75 164.41 445.6 154.55"/><polygon class="cls-1" points="434.44 103.19 432.14 92.59 422.03 88.63 424.33 99.24 434.44 103.19"/><polygon class="cls-1" points="444.55 107.15 442.25 96.54 432.14 92.59 434.44 103.19 444.55 107.15"/><polygon class="cls-1" points="453.49 148.25 445.6 154.55 447.75 164.41 455.63 158.11 453.49 148.25"/><polygon class="cls-1" points="461.37 141.95 453.49 148.25 455.63 158.11 463.51 151.81 461.37 141.95"/><polygon class="cls-1" points="452.36 100.49 442.25 96.54 444.55 107.15 454.66 111.1 452.36 100.49"/><polygon class="cls-1" points="471.39 145.51 469.25 135.65 461.37 141.95 463.51 151.81 471.39 145.51"/><polygon class="cls-1" points="462.47 104.45 452.36 100.49 454.66 111.1 464.77 115.05 462.47 104.45"/><polygon class="cls-1" points="472.58 108.4 462.47 104.45 464.77 115.05 474.88 119.01 472.58 108.4"/><polygon class="cls-1" points="479.27 139.21 477.13 129.34 469.25 135.65 471.39 145.51 479.27 139.21"/><polygon class="cls-1" points="487.15 132.9 485.01 123.04 477.13 129.34 479.27 139.21 487.15 132.9"/><polygon class="cls-1" points="482.69 112.35 472.58 108.4 474.88 119.01 484.99 122.96 482.69 112.35"/><polygon class="cls-1" points="482.69 112.35 484.99 122.96 485.07 122.99 485.01 123.04 487.15 132.9 502.95 120.28 482.69 112.35"/><polygon class="cls-1" points="283.84 272.32 248.55 40.21 386.2 94.04 383.89 83.43 237.26 26.09 277.25 289.16 406.2 186.06 404.05 176.2 283.84 272.32"/><polygon class="cls-1" points="396.31 97.99 394 87.38 383.89 83.43 386.2 94.04 396.31 97.99"/><polygon class="cls-1" points="411.94 169.9 404.05 176.2 406.2 186.06 414.08 179.76 411.94 169.9"/><polygon class="cls-1" points="419.82 163.59 411.94 169.9 414.08 179.76 421.96 173.46 419.82 163.59"/><polygon class="cls-1" points="406.42 101.94 404.12 91.33 394 87.38 396.31 97.99 406.42 101.94"/><polygon class="cls-1" points="419.82 163.59 421.96 173.46 429.84 167.15 427.7 157.29 419.82 163.59"/><polygon class="cls-1" points="414.23 95.29 404.12 91.33 406.42 101.94 416.53 105.9 414.23 95.29"/><polygon class="cls-1" points="426.64 109.85 424.33 99.24 414.23 95.29 416.53 105.9 426.64 109.85"/><polygon class="cls-1" points="427.7 157.29 429.84 167.15 437.72 160.85 435.58 150.99 427.7 157.29"/><polygon class="cls-1" points="443.46 144.69 435.58 150.99 437.72 160.85 445.6 154.55 443.46 144.69"/><polygon class="cls-1" points="436.75 113.8 434.44 103.19 424.33 99.24 426.64 109.85 436.75 113.8"/><polygon class="cls-1" points="451.34 138.39 443.46 144.69 445.6 154.55 453.49 148.25 451.34 138.39"/><polygon class="cls-1" points="446.86 117.76 444.55 107.15 434.44 103.19 436.75 113.8 446.86 117.76"/><polygon class="cls-1" points="456.97 121.71 454.66 111.1 444.55 107.15 446.86 117.76 456.97 121.71"/><polygon class="cls-1" points="461.37 141.95 459.22 132.09 451.34 138.39 453.49 148.25 461.37 141.95"/><polygon class="cls-1" points="464.77 115.05 454.66 111.1 456.97 121.71 467.08 125.66 464.77 115.05"/><polygon class="cls-1" points="469.25 135.65 467.11 125.78 459.22 132.09 461.37 141.95 469.25 135.65"/><polygon class="cls-1" points="477.13 129.34 474.88 119.01 464.77 115.05 467.08 125.66 467.2 125.71 467.11 125.78 469.25 135.65 477.13 129.34"/><polygon class="cls-1" points="484.99 122.96 474.88 119.01 477.13 129.34 485.01 123.04 484.99 122.96"/><polygon class="cls-1" points="484.99 122.96 485.01 123.04 485.07 122.99 484.99 122.96"/><polygon class="cls-1" points="290.42 255.48 259.84 54.33 388.5 104.64 386.2 94.04 248.55 40.21 283.84 272.32 404.05 176.2 401.91 166.34 290.42 255.48"/><polygon class="cls-1" points="398.62 108.6 396.31 97.99 386.2 94.04 388.5 104.64 398.62 108.6"/><polygon class="cls-1" points="401.91 166.34 404.05 176.2 411.94 169.9 409.79 160.03 401.91 166.34"/><polygon class="cls-1" points="408.73 112.55 406.42 101.94 396.31 97.99 398.62 108.6 408.73 112.55"/><polygon class="cls-1" points="417.67 153.73 409.79 160.03 411.94 169.9 419.82 163.59 417.67 153.73"/><polygon class="cls-1" points="425.56 147.43 417.67 153.73 419.82 163.59 427.7 157.29 425.56 147.43"/><polygon class="cls-1" points="418.83 116.5 416.53 105.9 406.42 101.94 408.73 112.55 418.83 116.5"/><polygon class="cls-1" points="426.64 109.85 416.53 105.9 418.83 116.5 428.94 120.46 426.64 109.85"/><polygon class="cls-1" points="425.56 147.43 427.7 157.29 435.58 150.99 433.44 141.13 425.56 147.43"/><polygon class="cls-1" points="433.44 141.13 435.58 150.99 443.46 144.69 441.32 134.83 433.44 141.13"/><polygon class="cls-1" points="439.05 124.41 436.75 113.8 426.64 109.85 428.94 120.46 439.05 124.41"/><polygon class="cls-1" points="449.16 128.36 446.86 117.76 436.75 113.8 439.05 124.41 449.16 128.36"/><polygon class="cls-1" points="449.2 128.53 441.32 134.83 443.46 144.69 451.34 138.39 449.2 128.53"/><polygon class="cls-1" points="449.33 128.43 449.2 128.53 451.34 138.39 459.22 132.09 456.97 121.71 446.86 117.76 449.16 128.36 449.33 128.43"/><polygon class="cls-1" points="467.11 125.78 467.08 125.66 456.97 121.71 459.22 132.09 467.11 125.78"/><polygon class="cls-1" points="467.08 125.66 467.11 125.78 467.2 125.71 467.08 125.66"/><polygon class="cls-1" points="297 238.64 271.13 68.45 390.81 115.25 388.5 104.64 259.84 54.33 290.42 255.48 401.91 166.34 399.77 156.48 297 238.64"/><polygon class="cls-1" points="400.92 119.2 398.62 108.6 388.5 104.64 390.81 115.25 400.92 119.2"/><polygon class="cls-1" points="399.77 156.48 401.91 166.34 409.79 160.03 407.65 150.17 399.77 156.48"/><polygon class="cls-1" points="407.65 150.17 409.79 160.03 417.67 153.73 415.53 143.87 407.65 150.17"/><polygon class="cls-1" points="411.03 123.16 408.73 112.55 398.62 108.6 400.92 119.2 411.03 123.16"/><polygon class="cls-1" points="421.14 127.11 418.83 116.5 408.73 112.55 411.03 123.16 421.14 127.11"/><polygon class="cls-1" points="423.41 137.57 415.53 143.87 417.67 153.73 425.56 147.43 423.41 137.57"/><polygon class="cls-1" points="431.29 131.27 423.41 137.57 425.56 147.43 433.44 141.13 431.29 131.27"/><polygon class="cls-1" points="431.25 131.06 428.94 120.46 418.83 116.5 421.14 127.11 431.25 131.06"/><polygon class="cls-1" points="431.29 131.27 433.44 141.13 441.32 134.83 439.05 124.41 428.94 120.46 431.25 131.06 431.45 131.14 431.29 131.27"/><polygon class="cls-1" points="449.2 128.53 449.16 128.36 439.05 124.41 441.32 134.83 449.2 128.53"/><polygon class="cls-1" points="449.33 128.43 449.16 128.36 449.2 128.53 449.33 128.43"/><polygon class="cls-1" points="303.59 221.8 282.42 82.58 393.12 125.86 390.81 115.25 271.13 68.45 297 238.64 399.77 156.48 397.63 146.62 303.59 221.8"/><polygon class="cls-1" points="397.63 146.62 399.77 156.48 407.65 150.17 405.51 140.31 397.63 146.62"/><polygon class="cls-1" points="403.23 129.81 400.92 119.2 390.81 115.25 393.12 125.86 403.23 129.81"/><polygon class="cls-1" points="405.51 140.31 407.65 150.17 415.53 143.87 413.39 134.01 405.51 140.31"/><polygon class="cls-1" points="413.33 133.77 411.03 123.16 400.92 119.2 403.23 129.81 413.33 133.77"/><polygon class="cls-1" points="411.03 123.16 413.33 133.77 413.58 133.86 413.39 134.01 415.53 143.87 423.41 137.57 421.14 127.11 411.03 123.16"/><polygon class="cls-1" points="431.25 131.06 421.14 127.11 423.41 137.57 431.29 131.27 431.25 131.06"/><polygon class="cls-1" points="431.45 131.14 431.25 131.06 431.29 131.27 431.45 131.14"/><polygon class="cls-1" points="310.17 204.97 293.71 96.7 395.42 136.47 393.12 125.86 282.42 82.58 303.59 221.8 397.63 146.62 395.48 136.75 310.17 204.97"/><polygon class="cls-1" points="393.12 125.86 395.42 136.47 395.7 136.58 395.48 136.75 397.63 146.62 405.51 140.31 403.23 129.81 393.12 125.86"/><polygon class="cls-1" points="405.51 140.31 413.39 134.01 413.33 133.77 403.23 129.81 405.51 140.31"/><polygon class="cls-1" points="413.58 133.86 413.33 133.77 413.39 134.01 413.58 133.86"/><path class="cls-1" d="M310.05,204.84l85.31-68.21-.06-.29L293.59,96.58ZM316.63,188,304.88,110.7l72.83,28.47Z" transform="translate(0.12 0.12)"/><polygon class="cls-1" points="395.7 136.58 395.42 136.47 395.48 136.75 395.7 136.58"/><path class="cls-1" d="M316.63,188l61.08-48.84L304.88,110.7Zm6.58-16.84-7-46.35,43.66,17.07Z" transform="translate(0.12 0.12)"/><polygon class="cls-1" points="323.34 171.29 359.96 142.01 316.29 124.94 323.34 171.29"/><path class="cls-1" d="M0,354.71c30.33,56.38,96.45,86.92,161,69.86a141.76,141.76,0,0,0,34-13.88l-.19-10.41a132.34,132.34,0,0,1-36.08,15.55C91.75,433.52,23,396.54,0,332.57" transform="translate(0.12 0.12)"/><path class="cls-1" d="M0,242.73a132.49,132.49,0,0,1,166.33-81.09l-1.51-9.95A141.48,141.48,0,0,0,0,220.61" transform="translate(0.12 0.12)"/><path class="cls-1" d="M194.76,400.28l.19,10.41q4.59-2.62,8.94-5.55l-.19-10.93Q199.37,397.41,194.76,400.28Z" transform="translate(0.12 0.12)"/><path class="cls-1" d="M176,165.28l-1.58-10.36q-4.75-1.78-9.63-3.23l1.51,9.95Q171.25,163.27,176,165.28Z" transform="translate(0.12 0.12)"/><path class="cls-1" d="M185.87,169.89,184.22,159q-4.8-2.22-9.77-4.1L176,165.28C179.37,166.69,182.66,168.22,185.87,169.89Z" transform="translate(0.12 0.12)"/><path class="cls-1" d="M203.7,394.21l.19,10.93q4.61-3.11,8.92-6.55v-.26l6.19-4.95c.25-.22.5-.44.74-.67l-1.65-10.88A132.14,132.14,0,0,1,203.7,394.21Z" transform="translate(0.12 0.12)"/><path class="cls-1" d="M218.09,381.83l1.65,10.88q4.14-3.75,8-7.8l-1.76-11.59C223.45,376.26,220.83,379.11,218.09,381.83Z" transform="translate(0.12 0.12)"/><path class="cls-1" d="M212.81,398.59c2.12-1.68,4.19-3.42,6.19-5.21l-6.19,4.95Z" transform="translate(0.12 0.12)"/><path class="cls-1" d="M195.89,175.67l-1.76-11.57q-4.86-2.73-9.91-5.08l1.65,10.87Q191,172.56,195.89,175.67Z" transform="translate(0.12 0.12)"/><path class="cls-1" d="M206.13,182.87l-1.91-12.54q-4.91-3.33-10.09-6.23l1.76,11.57Q201.17,179,206.13,182.87Z" transform="translate(0.12 0.12)"/><path class="cls-1" d="M225.94,373.32l1.76,11.59q4.08-4.34,7.78-9l-1.91-12.56Q230,368.51,225.94,373.32Z" transform="translate(0.12 0.12)"/><path class="cls-1" d="M216.65,191.93,214.53,178q-5-4.08-10.31-7.68l1.91,12.54A132.92,132.92,0,0,1,216.65,191.93Z" transform="translate(0.12 0.12)"/><path class="cls-1" d="M233.57,363.38l1.91,12.56c2.68-3.36,5.2-6.85,7.56-10.43l-2.12-13.95A134.57,134.57,0,0,1,233.57,363.38Z" transform="translate(0.12 0.12)"/><path class="cls-1" d="M227.59,203.75l-2.46-16.16a139.23,139.23,0,0,0-10.6-9.58l2.12,13.92A133.25,133.25,0,0,1,227.59,203.75Z" transform="translate(0.12 0.12)"/><path class="cls-1" d="M240.92,351.56,243,365.51q3.93-6,7.26-12.34L247.84,337A134,134,0,0,1,240.92,351.56Z" transform="translate(0.12 0.12)"/><path class="cls-1" d="M247.84,337l2.46,16.19A141.49,141.49,0,0,0,257.14,338L254,317.42A132.24,132.24,0,0,1,247.84,337Z" transform="translate(0.12 0.12)"/><path class="cls-1" d="M239.29,220.59,236.16,200a140,140,0,0,0-11-12.41l2.46,16.16A131.54,131.54,0,0,1,239.29,220.59Z" transform="translate(0.12 0.12)"/><path class="cls-1" d="M254,317.42,257.14,338a142,142,0,0,0,6.07-20.23L257,277.22A131.52,131.52,0,0,1,254,317.42Z" transform="translate(0.12 0.12)"/><path class="cls-1" d="M253,253.68c.41,1.58.79,3.16,1.15,4.75L248,217.55A139.83,139.83,0,0,0,236.16,200l3.13,20.59A132.74,132.74,0,0,1,253,253.68Z" transform="translate(0.12 0.12)"/><path class="cls-1" d="M257,277.22l6.17,40.55A140.68,140.68,0,0,0,266,276.24l-3-19.48c-.4-1.8-.83-3.59-1.3-5.39A141.31,141.31,0,0,0,248,217.55l6.22,40.88A133.18,133.18,0,0,1,257,277.22Z" transform="translate(0.12 0.12)"/><path class="cls-1" d="M263.08,256.76l3,19.48A141.61,141.61,0,0,0,263.08,256.76Z" transform="translate(0.12 0.12)"/><path class="cls-1" d="M0,332.57c23,64,91.75,100.95,158.68,83.26a132.34,132.34,0,0,0,36.08-15.55l-.18-10.52,1.52-1.22a123.62,123.62,0,1,1-28.23-216.78l-1.54-10.12A132.49,132.49,0,0,0,0,242.73" transform="translate(0.12 0.12)"/><path class="cls-1" d="M177.64,175.9,176,165.28q-4.77-2-9.7-3.64l1.54,10.12C171.19,173,174.44,174.39,177.64,175.9Z" transform="translate(0.12 0.12)"/><path class="cls-1" d="M210,389l-1.59-10.44a120.53,120.53,0,0,1-12.34,10l-1.52,1.22.18,10.52q4.61-2.86,8.94-6.07v-.16Z" transform="translate(0.12 0.12)"/><path class="cls-1" d="M208.44,378.54,210,389l-6.34,5.07v.16a132.14,132.14,0,0,0,14.39-12.38l-1.72-11.3Q212.61,374.72,208.44,378.54Z" transform="translate(0.12 0.12)"/><path class="cls-1" d="M187.59,181.18l-1.72-11.29c-3.21-1.67-6.5-3.2-9.84-4.61l1.61,10.62Q182.73,178.32,187.59,181.18Z" transform="translate(0.12 0.12)"/><path class="cls-1" d="M216.37,370.53l1.72,11.3c2.74-2.72,5.36-5.57,7.85-8.51l-1.86-12.22A120,120,0,0,1,216.37,370.53Z" transform="translate(0.12 0.12)"/><path class="cls-1" d="M197.74,187.86l-1.85-12.19q-4.89-3.1-10-5.78l1.72,11.29Q192.83,184.27,197.74,187.86Z" transform="translate(0.12 0.12)"/><path class="cls-1" d="M208.18,196.38l-2.05-13.51q-4.95-3.84-10.24-7.2l1.85,12.19A123.52,123.52,0,0,1,208.18,196.38Z" transform="translate(0.12 0.12)"/><path class="cls-1" d="M224.08,361.1l1.86,12.22q4-4.8,7.63-9.94l-2.06-13.55A123.82,123.82,0,0,1,224.08,361.1Z" transform="translate(0.12 0.12)"/><path class="cls-1" d="M231.51,349.83l2.06,13.55a134.57,134.57,0,0,0,7.35-11.82l-2.39-15.72A125.2,125.2,0,0,1,231.51,349.83Z" transform="translate(0.12 0.12)"/><path class="cls-1" d="M219,207.61l-2.38-15.68a132.92,132.92,0,0,0-10.52-9.06l2.05,13.51A122.47,122.47,0,0,1,219,207.61Z" transform="translate(0.12 0.12)"/><path class="cls-1" d="M238.53,335.84l2.39,15.72A134,134,0,0,0,247.84,337l-3-19.93A124.07,124.07,0,0,1,238.53,335.84Z" transform="translate(0.12 0.12)"/><path class="cls-1" d="M230.62,223.7l-3-19.95a133.25,133.25,0,0,0-10.94-11.82L219,207.61A122.44,122.44,0,0,1,230.62,223.7Z" transform="translate(0.12 0.12)"/><path class="cls-1" d="M244.3,256c.36,1.37.69,2.74,1,4.1l-6-39.5a131.54,131.54,0,0,0-11.7-16.84l3,19.95A123.22,123.22,0,0,1,244.3,256Z" transform="translate(0.12 0.12)"/><path class="cls-1" d="M244.81,317.05l3,19.93A132.24,132.24,0,0,0,254,317.42l-6-39.22A122.87,122.87,0,0,1,244.81,317.05Z" transform="translate(0.12 0.12)"/><path class="cls-1" d="M248.05,278.2l6,39.22a131.52,131.52,0,0,0,3-40.2l-2.85-18.79c-.36-1.59-.74-3.17-1.15-4.75a132.74,132.74,0,0,0-13.75-33.09l6,39.5A123.94,123.94,0,0,1,248.05,278.2Z" transform="translate(0.12 0.12)"/><path class="cls-1" d="M254.19,258.43,257,277.22A133.18,133.18,0,0,0,254.19,258.43Z" transform="translate(0.12 0.12)"/><path class="cls-1" d="M198.77,375.05a114.59,114.59,0,1,1-29.33-192.93l-1.57-10.36A123.6,123.6,0,1,0,196.1,388.54l4.21-3.36Z" transform="translate(0.12 0.12)"/><path class="cls-1" d="M206.78,367.56q-3.83,3.93-8,7.49l1.54,10.13-4.21,3.36a120.53,120.53,0,0,0,12.34-10Z" transform="translate(0.12 0.12)"/><path class="cls-1" d="M179.31,186.87l-1.67-11c-3.2-1.51-6.45-2.9-9.77-4.14l1.57,10.36Q174.5,184.27,179.31,186.87Z" transform="translate(0.12 0.12)"/><path class="cls-1" d="M206.78,367.56l1.66,11q4.16-3.82,7.93-8l-1.8-11.85A115.06,115.06,0,0,1,206.78,367.56Z" transform="translate(0.12 0.12)"/><path class="cls-1" d="M189.38,193l-1.79-11.83q-4.86-2.87-10-5.28l1.67,11A116.11,116.11,0,0,1,189.38,193Z" transform="translate(0.12 0.12)"/><path class="cls-1" d="M214.57,358.68l1.8,11.85a120,120,0,0,0,7.71-9.43l-2-13.13A116.32,116.32,0,0,1,214.57,358.68Z" transform="translate(0.12 0.12)"/><path class="cls-1" d="M199.74,201l-2-13.12q-4.91-3.59-10.15-6.68L189.38,193A113.59,113.59,0,0,1,199.74,201Z" transform="translate(0.12 0.12)"/><path class="cls-1" d="M222.08,348l2,13.13a123.82,123.82,0,0,0,7.43-11.27l-2.31-15.21A116.15,116.15,0,0,1,222.08,348Z" transform="translate(0.12 0.12)"/><path class="cls-1" d="M210.49,211.56l-2.31-15.18a123.52,123.52,0,0,0-10.44-8.52l2,13.12A114.16,114.16,0,0,1,210.49,211.56Z" transform="translate(0.12 0.12)"/><path class="cls-1" d="M222,226.86,219,207.61a122.47,122.47,0,0,0-10.85-11.23l2.31,15.18A114.54,114.54,0,0,1,222,226.86Z" transform="translate(0.12 0.12)"/><path class="cls-1" d="M229.2,334.62l2.31,15.21a125.2,125.2,0,0,0,7-14l-2.93-19.26A115,115,0,0,1,229.2,334.62Z" transform="translate(0.12 0.12)"/><path class="cls-1" d="M235.6,316.58l2.93,19.26a124.07,124.07,0,0,0,6.28-18.79l-5.75-37.87A113.94,113.94,0,0,1,235.6,316.58Z" transform="translate(0.12 0.12)"/><path class="cls-1" d="M235.56,258.3c.3,1.15.58,2.31.85,3.46l-5.79-38.06A122.44,122.44,0,0,0,219,207.61L222,226.86A114.22,114.22,0,0,1,235.56,258.3Z" transform="translate(0.12 0.12)"/><path class="cls-1" d="M239.06,279.18l5.75,37.87a122.87,122.87,0,0,0,3.24-38.85l-2.75-18.11c-.31-1.36-.64-2.73-1-4.1a123.22,123.22,0,0,0-13.68-32.29l5.79,38.06A114.52,114.52,0,0,1,239.06,279.18Z" transform="translate(0.12 0.12)"/><path class="cls-1" d="M245.3,260.09l2.75,18.11A123.94,123.94,0,0,0,245.3,260.09Z" transform="translate(0.12 0.12)"/><path class="cls-1" d="M151.75,389.61a105.53,105.53,0,1,1,19.31-196.83l-1.62-10.66a114.55,114.55,0,1,0,29.33,192.93l-1.62-10.68A105,105,0,0,1,151.75,389.61Z" transform="translate(0.12 0.12)"/><path class="cls-1" d="M181.05,198.36l-1.74-11.49q-4.81-2.6-9.87-4.75l1.62,10.66A107.06,107.06,0,0,1,181.05,198.36Z" transform="translate(0.12 0.12)"/><path class="cls-1" d="M197.15,364.37l1.62,10.68q4.18-3.57,8-7.49L205,356.06A106.51,106.51,0,0,1,197.15,364.37Z" transform="translate(0.12 0.12)"/><path class="cls-1" d="M191.31,205.71,189.38,193a116.11,116.11,0,0,0-10.07-6.14l1.74,11.49A105.83,105.83,0,0,1,191.31,205.71Z" transform="translate(0.12 0.12)"/><path class="cls-1" d="M212.63,346a107.9,107.9,0,0,1-7.6,10.1l1.75,11.5a115.06,115.06,0,0,0,7.79-8.88Z" transform="translate(0.12 0.12)"/><path class="cls-1" d="M212.63,346l1.94,12.72A116.32,116.32,0,0,0,222.08,348l-2.23-14.69A105.11,105.11,0,0,1,212.63,346Z" transform="translate(0.12 0.12)"/><path class="cls-1" d="M202,215.63,199.74,201a113.59,113.59,0,0,0-10.36-8l1.93,12.7A105.13,105.13,0,0,1,202,215.63Z" transform="translate(0.12 0.12)"/><path class="cls-1" d="M213.31,230.12l-2.82-18.56A114.16,114.16,0,0,0,199.74,201L202,215.63A104.7,104.7,0,0,1,213.31,230.12Z" transform="translate(0.12 0.12)"/><path class="cls-1" d="M219.85,333.28,222.08,348a116.15,116.15,0,0,0,7.12-13.35l-2.83-18.57A105.83,105.83,0,0,1,219.85,333.28Z" transform="translate(0.12 0.12)"/><path class="cls-1" d="M226.82,260.61c.24.94.48,1.88.7,2.81L222,226.86a114.54,114.54,0,0,0-11.47-15.3l2.82,18.56A105.19,105.19,0,0,1,226.82,260.61Z" transform="translate(0.12 0.12)"/><path class="cls-1" d="M226.37,316.05l2.83,18.57a115,115,0,0,0,6.4-18l-5.54-36.41A104.71,104.71,0,0,1,226.37,316.05Z" transform="translate(0.12 0.12)"/><path class="cls-1" d="M230.06,280.17l5.54,36.41a113.94,113.94,0,0,0,3.46-37.4l-2.65-17.42c-.27-1.15-.55-2.31-.85-3.46A114.22,114.22,0,0,0,222,226.86l5.56,36.56A105.87,105.87,0,0,1,230.06,280.17Z" transform="translate(0.12 0.12)"/><path class="cls-1" d="M236.41,261.76l2.65,17.42A114.52,114.52,0,0,0,236.41,261.76Z" transform="translate(0.12 0.12)"/><path class="cls-1" d="M149.44,380.87a96.5,96.5,0,1,1,23.31-177l-1.69-11.13a105.52,105.52,0,1,0,26.09,171.59l-1.7-11.13A95.88,95.88,0,0,1,149.44,380.87Z" transform="translate(0.12 0.12)"/><path class="cls-1" d="M182.92,210.6l-1.87-12.24a107.06,107.06,0,0,0-10-5.58l1.69,11.13A99,99,0,0,1,182.92,210.6Z" transform="translate(0.12 0.12)"/><path class="cls-1" d="M195.45,353.24l1.7,11.13a106.51,106.51,0,0,0,7.88-8.31l-1.87-12.27A96.62,96.62,0,0,1,195.45,353.24Z" transform="translate(0.12 0.12)"/><path class="cls-1" d="M203.16,343.79,205,356.06a107.9,107.9,0,0,0,7.6-10.1l-2.14-14.14A97.07,97.07,0,0,1,203.16,343.79Z" transform="translate(0.12 0.12)"/><path class="cls-1" d="M193.46,219.81l-2.15-14.1a105.83,105.83,0,0,0-10.26-7.35l1.87,12.24A99,99,0,0,1,193.46,219.81Z" transform="translate(0.12 0.12)"/><path class="cls-1" d="M204.68,233.46,202,215.63a105.13,105.13,0,0,0-10.66-9.92l2.15,14.1A96.67,96.67,0,0,1,204.68,233.46Z" transform="translate(0.12 0.12)"/><path class="cls-1" d="M217.14,315.44a97.24,97.24,0,0,1-6.65,16.38L212.63,346a105.11,105.11,0,0,0,7.22-12.68Z" transform="translate(0.12 0.12)"/><path class="cls-1" d="M217.14,315.44l2.71,17.84a105.83,105.83,0,0,0,6.52-17.23l-5.3-34.9A96,96,0,0,1,217.14,315.44Z" transform="translate(0.12 0.12)"/><path class="cls-1" d="M218.08,262.92c.19.74.38,1.49.56,2.23l-5.33-35A104.7,104.7,0,0,0,202,215.63l2.71,17.83A96.26,96.26,0,0,1,218.08,262.92Z" transform="translate(0.12 0.12)"/><path class="cls-1" d="M221.07,281.15l5.3,34.9a104.71,104.71,0,0,0,3.69-35.88l-2.54-16.75c-.22-.93-.46-1.87-.7-2.81a105.19,105.19,0,0,0-13.51-30.49l5.33,35A97.69,97.69,0,0,1,221.07,281.15Z" transform="translate(0.12 0.12)"/><path class="cls-1" d="M227.52,263.42l2.54,16.75A105.87,105.87,0,0,0,227.52,263.42Z" transform="translate(0.12 0.12)"/><path class="cls-1" d="M147.13,372.13a87.46,87.46,0,1,1,27.42-156.42l-1.8-11.8a96.49,96.49,0,1,0,22.7,149.33l-1.79-11.83A87,87,0,0,1,147.13,372.13Z" transform="translate(0.12 0.12)"/><path class="cls-1" d="M185,224.17l-2.06-13.57a99,99,0,0,0-10.17-6.69l1.8,11.8A88.84,88.84,0,0,1,185,224.17Z" transform="translate(0.12 0.12)"/><path class="cls-1" d="M193.66,341.41l1.79,11.83a96.62,96.62,0,0,0,7.71-9.45L201.1,330.2A88.21,88.21,0,0,1,193.66,341.41Z" transform="translate(0.12 0.12)"/><path class="cls-1" d="M196.05,236.89l-2.59-17.08a99,99,0,0,0-10.54-9.21L185,224.17A86.85,86.85,0,0,1,196.05,236.89Z" transform="translate(0.12 0.12)"/><path class="cls-1" d="M201.1,330.2l2.06,13.59a97.07,97.07,0,0,0,7.33-12l-2.6-17.09A88.86,88.86,0,0,1,201.1,330.2Z" transform="translate(0.12 0.12)"/><path class="cls-1" d="M207.89,314.73l2.6,17.09a97.24,97.24,0,0,0,6.65-16.38l-5.06-33.3A87.08,87.08,0,0,1,207.89,314.73Z" transform="translate(0.12 0.12)"/><path class="cls-1" d="M209.34,265.23c.15.57.29,1.13.42,1.7l-5.08-33.47a96.67,96.67,0,0,0-11.22-13.65l2.59,17.08A87,87,0,0,1,209.34,265.23Z" transform="translate(0.12 0.12)"/><path class="cls-1" d="M221.07,281.15l-2.43-16c-.18-.74-.37-1.49-.56-2.23a96.26,96.26,0,0,0-13.4-29.46l5.08,33.47a87.36,87.36,0,0,1,2.32,15.21l5.06,33.3A96,96,0,0,0,221.07,281.15Z" transform="translate(0.12 0.12)"/><path class="cls-1" d="M218.64,265.15l2.43,16A97.69,97.69,0,0,0,218.64,265.15Z" transform="translate(0.12 0.12)"/><path class="cls-1" d="M144.82,363.39a78.42,78.42,0,1,1,31.7-134.71l-2-13a87.46,87.46,0,1,0,19.11,125.7l-2-13A78.17,78.17,0,0,1,144.82,363.39Z" transform="translate(0.12 0.12)"/><path class="cls-1" d="M187.46,240.47,185,224.17a88.84,88.84,0,0,0-10.43-8.46l2,13A78.51,78.51,0,0,1,187.46,240.47Z" transform="translate(0.12 0.12)"/><path class="cls-1" d="M191.68,328.39l2,13a88.21,88.21,0,0,0,7.44-11.21l-2.48-16.31A79.8,79.8,0,0,1,191.68,328.39Z" transform="translate(0.12 0.12)"/><path class="cls-1" d="M198.62,313.89l2.48,16.31a88.86,88.86,0,0,0,6.79-15.47l-4.81-31.63A78.1,78.1,0,0,1,198.62,313.89Z" transform="translate(0.12 0.12)"/><path class="cls-1" d="M200.6,267.54c.12.45.21.9.32,1.35l-4.87-32A86.85,86.85,0,0,0,185,224.17l2.48,16.3A78.15,78.15,0,0,1,200.6,267.54Z" transform="translate(0.12 0.12)"/><path class="cls-1" d="M196.05,236.89l4.87,32a79,79,0,0,1,2.16,14.21l4.81,31.63a87.08,87.08,0,0,0,4.19-32.59l-2.32-15.21c-.13-.57-.27-1.13-.42-1.7A87,87,0,0,0,196.05,236.89Z" transform="translate(0.12 0.12)"/><path class="cls-1" d="M209.76,266.93l2.32,15.21A87.36,87.36,0,0,0,209.76,266.93Z" transform="translate(0.12 0.12)"/><path class="cls-1" d="M142.51,354.65a69.38,69.38,0,1,1,36.36-110.48l-2.35-15.49a78.45,78.45,0,1,0,15.16,99.71l-2.35-15.47A69.34,69.34,0,0,1,142.51,354.65Z" transform="translate(0.12 0.12)"/><path class="cls-1" d="M191.86,269.85c.06.25.11.49.17.74l-4.57-30.12a78.51,78.51,0,0,0-10.94-11.79l2.35,15.49A68.91,68.91,0,0,1,191.86,269.85Z" transform="translate(0.12 0.12)"/><path class="cls-1" d="M189.33,312.92l2.35,15.47a79.8,79.8,0,0,0,6.94-14.5L194.07,284A69.23,69.23,0,0,1,189.33,312.92Z" transform="translate(0.12 0.12)"/><path class="cls-1" d="M187.46,240.47,192,270.59a69.24,69.24,0,0,1,2,13.39l4.55,29.91a78.1,78.1,0,0,0,4.46-30.79l-2.16-14.21c-.11-.45-.2-.9-.32-1.35A78.15,78.15,0,0,0,187.46,240.47Z" transform="translate(0.12 0.12)"/><path class="cls-1" d="M200.92,268.89l2.16,14.21A79,79,0,0,0,200.92,268.89Z" transform="translate(0.12 0.12)"/><path class="cls-1" d="M140.2,345.91a60.34,60.34,0,1,1,42.92-73.75l0,.12-4.28-28.11a69.39,69.39,0,1,0,10.46,68.75l-4.28-28.1A60.42,60.42,0,0,1,140.2,345.91Z" transform="translate(0.12 0.12)"/><path class="cls-1" d="M178.87,244.17l4.28,28.11a60.72,60.72,0,0,1,1.9,12.54l4.28,28.1A69.23,69.23,0,0,0,194.07,284l-2-13.39c-.06-.25-.11-.49-.17-.74A68.91,68.91,0,0,0,178.87,244.17Z" transform="translate(0.12 0.12)"/><path class="cls-1" d="M192,270.59l2,13.39A69.24,69.24,0,0,0,192,270.59Z" transform="translate(0.12 0.12)"/><path class="cls-1" d="M109.37,229.24a60.34,60.34,0,1,0,75.68,55.58l-1.9-12.54,0-.12A60.41,60.41,0,0,0,109.37,229.24Zm28.52,107.93a51.3,51.3,0,1,1,36.49-62.7A51.35,51.35,0,0,1,137.89,337.17Z" transform="translate(0.12 0.12)"/><path class="cls-1" d="M183.15,272.28l1.9,12.54A60.72,60.72,0,0,0,183.15,272.28Z" transform="translate(0.12 0.12)"/><path class="cls-1" d="M111.68,238a51.3,51.3,0,1,0,62.7,36.49A51.36,51.36,0,0,0,111.68,238Zm23.9,90.45a42.26,42.26,0,1,1,30.06-51.65A42.31,42.31,0,0,1,135.58,328.43Z" transform="translate(0.12 0.12)"/><path class="cls-1" d="M114,246.72a42.26,42.26,0,1,0,51.65,30.06A42.31,42.31,0,0,0,114,246.72Zm19.28,73a33.22,33.22,0,1,1,23.63-40.6A33.26,33.26,0,0,1,133.27,319.69Z" transform="translate(0.12 0.12)"/><path class="cls-1" d="M116.3,255.46a33.22,33.22,0,1,0,40.6,23.63A33.26,33.26,0,0,0,116.3,255.46ZM131,311a24.18,24.18,0,1,1,17.2-29.55A24.21,24.21,0,0,1,131,311Z" transform="translate(0.12 0.12)"/><path class="cls-1" d="M118.61,264.2a24.18,24.18,0,1,0,29.55,17.2A24.21,24.21,0,0,0,118.61,264.2Zm10,38a15.14,15.14,0,1,1,10.77-18.5A15.13,15.13,0,0,1,128.65,302.21Z" transform="translate(0.12 0.12)"/><circle class="cls-1" cx="124.79" cy="287.58" r="15.14" transform="translate(-105.56 75.2) rotate(-23.87)"/></svg>