<svg id="Layer_1" data-name="Layer 1" xmlns="http://www.w3.org/2000/svg" xmlns:xlink="http://www.w3.org/1999/xlink" viewBox="0 0 1601.98 1185.76"><defs><style>.cls-1,.cls-3{fill:none;}.cls-2{clip-path:url(#clip-path);}.cls-3{stroke:#231f20;stroke-miterlimit:10;stroke-width:0.5px;}</style><clipPath id="clip-path" transform="translate(453.26 195.76)"><rect class="cls-1" width="960" height="612"/></clipPath></defs><g class="cls-2"><path class="cls-3" d="M310.55,550l-2.15.55a129,129,0,0,1-156.16-93.89,111.18,111.18,0,0,1,79.42-134.25l1.5-.38A96.19,96.19,0,0,1,304.77,332a100.41,100.41,0,0,0-8.9-6,98.17,98.17,0,0,0-74.8-11.2L192,322l-19.34-77.63,29.11-7.25A178.81,178.81,0,0,1,418.48,367.41,151.07,151.07,0,0,1,310.55,550Z" transform="translate(453.26 195.76)"/><path class="cls-3" d="M308,540.3c-.66.18-1.33.35-2,.51a119,119,0,0,1-144-86.59,101.16,101.16,0,0,1,72.27-122.17l1.36-.35A86.88,86.88,0,0,1,340.88,395,75.88,75.88,0,0,1,311,475a81.15,81.15,0,0,0,39.57-90.65A108.83,108.83,0,0,0,218.65,305l-19.41,4.84-14.5-58.22,19.4-4.84a168.82,168.82,0,0,1,204.64,123A141.08,141.08,0,0,1,308,540.3Z" transform="translate(453.26 195.76)"/><path class="cls-3" d="M305.44,530.63l-1.85.48A109,109,0,0,1,171.65,451.8a91.17,91.17,0,0,1,65.12-110.08l1.23-.32a76.89,76.89,0,0,1,93.18,56,65.76,65.76,0,0,1-46.81,79.15l-.91.24a56.46,56.46,0,0,1-68.35-41.09,49.16,49.16,0,0,1,9.39-42.55,51.28,51.28,0,0,0-14,49,68.93,68.93,0,0,0,83.46,50.16l1.31-.34a91.06,91.06,0,0,0,65-110,118.83,118.83,0,0,0-144-86.57l-9.7,2.42-9.67-38.82,9.7-2.42A158.83,158.83,0,0,1,399.08,372.24a131.08,131.08,0,0,1-93.64,158.39ZM260.43,415a9.15,9.15,0,0,0-6.51,11,16.35,16.35,0,0,0,6.19,9.23l-4.26-17.1,8.08-2a3.2,3.2,0,0,0-.88-.77,3.23,3.23,0,0,0-2.49-.38Z" transform="translate(453.26 195.76)"/><path class="cls-3" d="M302.88,521l-1.71.44a99,99,0,0,1-119.82-72,81.18,81.18,0,0,1,59.08-98.28,66.87,66.87,0,0,1,81,48.72,55.56,55.56,0,0,1-39.65,67.06l-.78.2a46.44,46.44,0,0,1-56.23-33.8,39.14,39.14,0,0,1,28.5-47.41,33.32,33.32,0,0,1,40.35,24.26,28.67,28.67,0,0,1-20.46,34.6l-.4.1L268,425.42l.12,0A8.64,8.64,0,0,0,274.25,415a13.3,13.3,0,0,0-16.11-9.68l-.27.07a19.13,19.13,0,0,0-13.65,23.1,26.41,26.41,0,0,0,32,19.22l.49-.12a35.53,35.53,0,0,0,25.37-42.89,46.87,46.87,0,0,0-56.81-34.15l-.85.22a61.15,61.15,0,0,0-43.65,73.82A78.94,78.94,0,0,0,296.33,502,101.07,101.07,0,0,0,370,379.5a128.83,128.83,0,0,0-156.16-93.87L209,266.23A148.82,148.82,0,0,1,389.37,374.66,121.06,121.06,0,0,1,302.88,521Z" transform="translate(453.26 195.76)"/><path class="cls-3" d="M211.4,275.93A138.82,138.82,0,0,1,379.67,377.08,111.06,111.06,0,0,1,298.75,511.7,88.85,88.85,0,0,1,191.06,447a71.06,71.06,0,0,1,51.78-86.15,56.85,56.85,0,0,1,68.93,41.43,45.5,45.5,0,0,1-33.15,55.14,36.39,36.39,0,0,1-44.11-26.52,29.12,29.12,0,0,1,21.21-35.29,23.3,23.3,0,0,1,28.24,17,18.64,18.64,0,0,1-13.58,22.59" transform="translate(453.26 195.76)"/><path class="cls-3" d="M286.61,648.82l-16.22-74.6A149.19,149.19,0,0,1,132.84,461.47a131.47,131.47,0,0,1,40.79-130.3L148.37,229.8l48.52-12.09a198.94,198.94,0,0,1,230.59,114l73.28-15.93,59.46,273.62Z" transform="translate(453.26 195.76)"/><path class="cls-3" d="M421.37,343.23A188.89,188.89,0,0,0,199.31,227.41l-38.82,9.67,24.18,97,1.59-.4a121.46,121.46,0,0,0-43.72,125.33,139.13,139.13,0,0,0,136,105.32l15.76,72.55,254.07-55.21L493.11,327.64Z" transform="translate(453.26 195.76)"/><rect class="cls-3" x="273.68" y="362.28" width="240" height="240" transform="translate(1234.63 190.92) rotate(77.74)"/><rect class="cls-3" x="283.68" y="372.28" width="220" height="220" transform="translate(1234.63 190.92) rotate(77.74)"/><rect class="cls-3" x="293.68" y="382.28" width="200" height="200" transform="translate(1234.63 190.92) rotate(77.74)"/><rect class="cls-3" x="303.68" y="392.28" width="180" height="180" transform="translate(1234.63 190.92) rotate(77.74)"/><rect class="cls-3" x="313.68" y="402.28" width="160" height="160" transform="translate(1234.63 190.92) rotate(77.74)"/><rect class="cls-3" x="323.68" y="412.28" width="140" height="140" transform="translate(1234.63 190.92) rotate(77.74)"/><rect class="cls-3" x="333.68" y="422.28" width="120" height="120" transform="translate(1234.63 190.92) rotate(77.74)"/><rect class="cls-3" x="343.68" y="432.28" width="100" height="100" transform="translate(359.83 290.35) rotate(-12.26)"/><rect class="cls-3" x="353.68" y="442.28" width="80" height="80" transform="translate(359.82 290.36) rotate(-12.26)"/><path class="cls-3" d="M622.57,657.68,225.42,744l-22.18-102a234.19,234.19,0,0,1-43.84-20.36A227.3,227.3,0,0,1,55.21,480.81,209.76,209.76,0,0,1,78.45,322.23c2.36-4,4.9-8,7.56-11.85L65.56,228.31-279.58,119.43l5.74-52.14L750.87-21.31,754.45,181l-6.35,5.07,84.16,553.58Z" transform="translate(453.26 195.76)"/><path class="cls-3" d="M623.4,647.27,233.07,732.08,211.8,634.24A224.43,224.43,0,0,1,164.55,613,217.38,217.38,0,0,1,64.91,478.39,199.81,199.81,0,0,1,87.05,327.33c3-5.09,6.29-10.1,9.76-14.94L73.9,220.45-268.74,112.37l3.94-35.82,1005.87-87,3.29,186.72-7,5.6,82.42,542.16Z" transform="translate(453.26 195.76)"/><path class="cls-3" d="M624.23,636.85,240.71,720.19l-20.38-93.82a213.66,213.66,0,0,1-50.63-21.93A207.5,207.5,0,0,1,74.61,476a190,190,0,0,1,21-143.55,192.63,192.63,0,0,1,12-17.9L82.25,212.6-257.9,105.3l2.15-19.5L731.26.46l3,171.09-7.69,6.14,80.69,530.74Z" transform="translate(453.26 195.76)"/><path class="cls-3" d="M721.45,11.34-254.89,95.76l342.34,108,2.74-.68,28.34,113.75a182.37,182.37,0,0,0-14.27,20.7,180,180,0,0,0-19.94,136,197.53,197.53,0,0,0,90.53,122.31,203.35,203.35,0,0,0,54,22.44l19.55,90L619.7,627.6l-.77-3.56,175.86,68.77L715.84,173.48l8.35-6.67Z" transform="translate(453.26 195.76)"/><path class="cls-3" d="M458.1,263.62l88.55-19.25,7.18,33L704,157.33,701.83,33.11-152.77,107,88.09,183l94.29-23.49A257.14,257.14,0,0,1,378.3,188.81,260.89,260.89,0,0,1,458.1,263.62Z" transform="translate(453.26 195.76)"/><path class="cls-3" d="M547.48,295.29l-8.48-39-85.32,18.54-3.81-5.51a251.2,251.2,0,0,0-76.72-71.92A247.2,247.2,0,0,0,184.8,169.19l-97,24.18-291.6-92L711.64,22.23l2.47,139.84Z" transform="translate(453.26 195.76)"/><path class="cls-3" d="M462.42,252.44l91.88-20,5.88,27.06L693.94,152.59,692,44-101.7,112.63l190.11,60L180,149.79a267,267,0,0,1,203.49,30.45A271.73,271.73,0,0,1,462.42,252.44Z" transform="translate(453.26 195.76)"/><path class="cls-3" d="M466.58,241.31,562,220.58l4.58,21.07,117.32-93.8-1.64-93L-50.64,118.25l139.36,44,88.83-22.13a277,277,0,0,1,211.06,31.58A282.71,282.71,0,0,1,466.58,241.31Z" transform="translate(453.26 195.76)"/><path class="cls-3" d="M470.57,230.2l99-21.52,3.28,15.09,100.89-80.66L672.4,65.77l-672,58.1,88.61,28,86.09-21.45a287,287,0,0,1,218.63,32.71A293.69,293.69,0,0,1,470.57,230.2Z" transform="translate(453.26 195.76)"/><path class="cls-3" d="M474.42,219.13l102.83-22.34,2,9.1,84.45-67.52-1.09-61.71-407.14,35.2a297.28,297.28,0,0,1,143.46,42.66A304.49,304.49,0,0,1,474.42,219.13Z" transform="translate(453.26 195.76)"/><path class="cls-3" d="M478.13,208.1,584.9,184.89l.67,3.13,68-54.39-.82-46.09L334.64,115.05A310.8,310.8,0,0,1,404.06,146,315.08,315.08,0,0,1,478.13,208.1Z" transform="translate(453.26 195.76)"/><path class="cls-3" d="M481.71,197.08l105.07-22.83,56.73-45.36L643,98.43,378.83,121.27a322.07,322.07,0,0,1,30.39,16.11A326.26,326.26,0,0,1,481.71,197.08Z" transform="translate(453.26 195.76)"/><path class="cls-3" d="M485.17,186.1,582.36,165l51.07-40.83-.27-14.84-219.64,19,.85.51A336.42,336.42,0,0,1,485.17,186.1Z" transform="translate(453.26 195.76)"/><path class="cls-3" d="M488.52,175.14,578,155.7l44.28-35.41L443,135.79A350.36,350.36,0,0,1,488.52,175.14Z" transform="translate(453.26 195.76)"/><path class="cls-3" d="M89.36,141.44l83.35-20.76q5.85-1.46,11.71-2.68L51.49,129.5Z" transform="translate(453.26 195.76)"/><path class="cls-3" d="M605.19,607.94l2.61,12L256,696.4,237.24,610A192.35,192.35,0,0,1,180,587.3,187.6,187.6,0,0,1,94,471.14a170,170,0,0,1,18.84-128.52,173.61,173.61,0,0,1,16.58-23.35L99.89,200.66l87.33-21.76A239.18,239.18,0,0,1,448.86,286.09l82.49-17.93,9.79,45L706.82,180.69l75.48,496.5Z" transform="translate(453.26 195.76)"/><path class="cls-3" d="M591.46,591.83l4.45,20.48L263.66,684.5l-18-83a181.32,181.32,0,0,1-60.47-22.79,177.66,177.66,0,0,1-81.44-110,160.15,160.15,0,0,1,17.74-121A162.91,162.91,0,0,1,140.4,321.9L112,207.94l77.63-19.34A229.12,229.12,0,0,1,443.91,297.4l79.8-17.34,11.08,51L699.54,199.32l70.27,462.25Z" transform="translate(453.26 195.76)"/><path class="cls-3" d="M577.72,575.72,584,604.66l-312.7,68L254,592.75a170.54,170.54,0,0,1-63.64-22.59A167.69,167.69,0,0,1,113.43,466.3a150.14,150.14,0,0,1,16.64-113.49,152.32,152.32,0,0,1,21.35-28.07L124.13,215.23l67.92-16.93A219.07,219.07,0,0,1,438.72,308.76L516.06,292l12.38,57L692.26,218l65.06,428Z" transform="translate(453.26 195.76)"/><path class="cls-3" d="M685,236.57,522.09,366.81l-13.68-63-75.16,16.33A209,209,0,0,0,194.47,208l-58.22,14.5,26.24,105.31a141.72,141.72,0,0,0-23.82,30.09,140.21,140.21,0,0,0-15.54,106,157.84,157.84,0,0,0,72.33,97.7,159.64,159.64,0,0,0,66.75,22.07L279,660.71,572.12,597,564,559.61l180.84,70.72Z" transform="translate(453.26 195.76)"/><polygon class="cls-3" points="846.94 678.04 1130.95 450.96 1185.6 810.46 846.94 678.04"/><polygon class="cls-3" points="866.72 675.03 1123.67 469.58 1173.11 794.84 866.72 675.03"/><polygon class="cls-3" points="886.49 672.02 1116.38 488.21 1160.62 779.22 886.49 672.02"/><polygon class="cls-3" points="906.26 669.02 1109.1 506.84 1148.13 763.6 906.26 669.02"/><polygon class="cls-3" points="926.03 666.01 1101.82 525.46 1135.64 747.98 926.03 666.01"/><polygon class="cls-3" points="945.81 663.01 1094.54 544.09 1123.16 732.36 945.81 663.01"/><polygon class="cls-3" points="965.58 660 1087.25 562.72 1110.67 716.73 965.58 660"/><polygon class="cls-3" points="985.35 657 1079.97 581.34 1098.18 701.11 985.35 657"/><polygon class="cls-3" points="1005.12 653.99 1072.69 599.97 1085.69 685.49 1005.12 653.99"/><polygon class="cls-3" points="1073.2 669.87 1024.9 650.99 1065.4 618.6 1073.2 669.87"/><path class="cls-3" d="M609.31,824.3,103,934.3,63,749.9A387.07,387.07,0,0,1-100,519.49c-14-56.26-14.23-118.34-.73-175.88L-453,232.51-418.5-80.8,907.83-195.48l3.23,183.13c36.61,9.69,72.63,26.19,102.2,46.89a316.92,316.92,0,0,1-43.57,544.62l62.39,410.45Z" transform="translate(453.26 195.76)"/><path class="cls-3" d="M610.14,813.88,110.69,922.41,71.87,743.76A376.7,376.7,0,0,1-90.34,517.07c-14.45-58-13.86-121.57,1.53-180.17L-442.15,225.44l32.69-297L898-184.6,901.2-4.52c38.06,9.08,75.55,25.7,106.33,47.25a306.93,306.93,0,0,1-48.85,530.56L1019.59,974Z" transform="translate(453.26 195.76)"/><path class="cls-3" d="M611,803.47l-492.63,107L80.76,737.57A366.5,366.5,0,0,1-80.64,514.65c-14.88-59.71-13.4-124.78,4-184.38l-354.72-111.9,30.89-280.66L888.21-173.71,891.34,3.52c39.51,8.32,78.46,25,110.45,47.4a296.93,296.93,0,0,1-54.14,516.3l59.45,391.15Z" transform="translate(453.26 195.76)"/><path class="cls-3" d="M611.8,793.06,126,898.62,89.63,731.31A356.4,356.4,0,0,1-70.94,512.24c-15.31-61.47-12.84-128,6.84-188.52L-420.47,211.31-391.38-53,878.4-162.83l3.08,174.6c41,7.43,81.36,24.09,114.58,47.34a286.92,286.92,0,0,1-59.48,501.83l58,381.81Z" transform="translate(453.26 195.76)"/><path class="cls-3" d="M612.63,782.64l-479,104.08L98.49,725l-.91-.55A346.49,346.49,0,0,1-61.23,509.82a333.92,333.92,0,0,1,9.91-192.55l-358.32-113,27.3-248L868.59-151.94l3,172.21c42.4,6.38,84.24,22.92,118.69,47a276.89,276.89,0,0,1-64.85,487.13l56.66,372.69Z" transform="translate(453.26 195.76)"/><path class="cls-3" d="M613.46,772.23,141.28,874.83,107.33,718.57c-1.57-.9-3.11-1.81-4.6-2.71A336.6,336.6,0,0,1-51.53,507.4,322.63,322.63,0,0,1-38.22,310.91L-398.8,197.17l25.5-231.69L858.78-141l3,170.09C905.6,34.18,948.9,50.51,984.59,75.5a266.88,266.88,0,0,1-70.26,472.18l55.31,363.83Z" transform="translate(453.26 195.76)"/><path class="cls-3" d="M614.28,761.82,148.93,862.93,116.15,712.08c-2.85-1.59-5.62-3.19-8.27-4.79A326.69,326.69,0,0,1-41.83,505,311.42,311.42,0,0,1-24.77,304.67L-388,190.1l23.71-215.37L849-130.17l3,168.28A260.71,260.71,0,0,1,978.86,83.69a257.13,257.13,0,0,1,101,144.77c35.65,134.89-43.41,273.59-176.72,312.2l54,355.23Z" transform="translate(453.26 195.76)"/><path class="cls-3" d="M615.11,751.4,156.58,851,125,705.51c-4.15-2.24-8.15-4.52-11.93-6.79A316.71,316.71,0,0,1-32.12,502.57a300.7,300.7,0,0,1,21.2-204L-377.12,183l21.91-199L839.16-119.28,842.1,47.51A246.74,246.74,0,0,1,1070.2,231c34.77,131.54-44,266.84-175.5,301.6l-2.78.72,52.74,346.93Z" transform="translate(453.26 195.76)"/><path class="cls-3" d="M615.94,741,164.23,839.14,133.74,698.85c-5.42-2.83-10.73-5.8-15.56-8.7a306.77,306.77,0,0,1-140.6-190A290.39,290.39,0,0,1,.49,298.06l-1.73-6.94L-366.28,176-346.17-6.75,829.35-108.4l2.93,165.68a236.75,236.75,0,0,1,228.25,176.29c33.36,126.21-42.18,256-168.39,289.38q-5.68,1.51-11.5,2.74l51.53,339Z" transform="translate(453.26 195.76)"/><path class="cls-3" d="M616.77,730.58,171.88,827.24,142.51,692.11c-6.68-3.37-13.24-7-19.18-10.53a296.88,296.88,0,0,1-136-183.85A280.14,280.14,0,0,1,11.1,299.3l-4-16L-355.44,168.9-337.13,2.5l1156.67-100,2.91,165a226.78,226.78,0,0,1,228.42,168.66c31.94,120.88-40.41,245.21-161.28,277.16-6.67,1.76-13.46,3.23-20.28,4.38L919.68,849Z" transform="translate(453.26 195.76)"/><path class="cls-3" d="M617.6,720.16,179.53,815.35,151.26,685.27c-7.95-3.84-15.74-8-22.78-12.26A287,287,0,0,1-3,495.32,269.81,269.81,0,0,1,21.74,300.61l-6.28-25.19L-344.61,161.84l16.52-150.08L809.73-86.63l2.91,164.76c104.43-9.33,201.46,58,228.56,160.56,30.54,115.54-38.62,234.39-154.17,264.93a219.1,219.1,0,0,1-29.12,5.62L907.19,833.4Z" transform="translate(453.26 195.76)"/><path class="cls-3" d="M618.43,709.75l-431.25,93.7L160,678.34a281.26,281.26,0,0,1-26.35-13.9A277,277,0,0,1,6.69,492.9,259.56,259.56,0,0,1,32.39,302l-8.58-34.44-357.58-112.8L-319,21l1119-96.75,2.92,165.07c102.82-14.58,201.82,50.25,228.69,151.91,29.13,110.21-36.84,223.58-147,252.71a208.62,208.62,0,0,1-38,6.37L894.7,817.78Z" transform="translate(453.26 195.76)"/><path class="cls-3" d="M619.26,699.34,194.82,791.56,168.69,671.3a272.43,272.43,0,0,1-29.9-15.43A267.08,267.08,0,0,1,16.39,490.48a249.54,249.54,0,0,1,26.68-187L32.16,259.72l-355.09-112L-310,30.27,790.11-64.86l2.93,166c101.1-20.31,202.13,41.65,228.82,142.65,27.72,104.88-35.05,212.76-139.94,240.48a196.7,196.7,0,0,1-47,6.54l47.33,311.34Z" transform="translate(453.26 195.76)"/><path class="cls-3" d="M620.08,688.92,202.47,779.66l-25.1-115.51a263.12,263.12,0,0,1-33.43-16.86A257.07,257.07,0,0,1,26.1,488.06,239.61,239.61,0,0,1,52.63,306.94l1.13-1.88-13.25-53.2-352.6-111.22L-301,39.52,780.3-54l3,167.67.67-.18c99.55-26.31,202,33.28,228.26,132.83s-33.27,202-132.82,228.26a185.36,185.36,0,0,1-56.15,6l46.5,305.89Z" transform="translate(453.26 195.76)"/><path class="cls-3" d="M620.91,678.51,210.12,767.77,186,656.88a254.36,254.36,0,0,1-36.93-18.16A247.18,247.18,0,0,1,35.8,485.65,229.68,229.68,0,0,1,61.24,312c1-1.77,2.13-3.54,3.24-5.31L48.86,244-301.25,133.57l9.33-84.79L770.49-43.08l3,170.25c4.28-1.5,8.62-2.82,13-4,94.22-24.9,191.13,31.49,216,125.72S971,440,876.81,465a174.74,174.74,0,0,1-65.37,4.71l45.79,301.26Z" transform="translate(453.26 195.76)"/><path class="cls-3" d="M789,132.86a166.64,166.64,0,0,0-25.29,8.91l-3.07-174L-282.88,58l-7.54,68.47L57.21,236.16l18,72.34c-1.87,2.85-3.68,5.74-5.39,8.64A219.77,219.77,0,0,0,45.5,483.23,237.26,237.26,0,0,0,154.24,630.15a244.24,244.24,0,0,0,40.41,19.33l23.12,106.39,404-87.78,223,87.21L799.5,457.66a165.75,165.75,0,0,0,74.76-2.38c88.89-23.5,142.09-114.93,118.6-203.82S877.93,109.37,789,132.86Z" transform="translate(453.26 195.76)"/><circle class="cls-3" cx="831.65" cy="294.07" r="156.74" transform="translate(488.91 869.95) rotate(-45)"/><circle class="cls-3" cx="831.65" cy="294.07" r="146.74" transform="translate(488.91 869.95) rotate(-45)"/><circle class="cls-3" cx="831.65" cy="294.07" r="136.74" transform="translate(488.91 869.95) rotate(-45)"/><circle class="cls-3" cx="831.65" cy="294.07" r="126.74" transform="translate(488.91 869.95) rotate(-45)"/><circle class="cls-3" cx="831.65" cy="294.07" r="116.74" transform="translate(488.91 869.95) rotate(-45)"/><circle class="cls-3" cx="831.65" cy="294.07" r="106.74" transform="translate(488.91 869.95) rotate(-45)"/><circle class="cls-3" cx="831.65" cy="294.07" r="96.74" transform="translate(405.73 418.02) rotate(-14.8)"/><circle class="cls-3" cx="1284.91" cy="489.82" r="86.74"/><circle class="cls-3" cx="1284.91" cy="489.82" r="76.74"/><circle class="cls-3" cx="1284.91" cy="489.82" r="66.74"/><circle class="cls-3" cx="1284.91" cy="489.82" r="56.74"/><circle class="cls-3" cx="1284.91" cy="489.82" r="46.74"/><circle class="cls-3" cx="1284.91" cy="489.82" r="36.74"/><circle class="cls-3" cx="1284.91" cy="489.82" r="26.74"/><circle class="cls-3" cx="1284.91" cy="489.82" r="16.74"/><line class="cls-3" x1="453.26" y1="195.76" x2="453.26" y2="807.76"/><line class="cls-3" x1="463.26" y1="195.76" x2="463.26" y2="807.76"/><line class="cls-3" x1="473.26" y1="195.76" x2="473.26" y2="807.76"/><line class="cls-3" x1="483.26" y1="195.76" x2="483.26" y2="807.76"/><line class="cls-3" x1="493.26" y1="195.76" x2="493.26" y2="807.76"/><line class="cls-3" x1="503.26" y1="195.76" x2="503.26" y2="807.76"/><line class="cls-3" x1="513.26" y1="195.76" x2="513.26" y2="807.76"/><line class="cls-3" x1="523.26" y1="195.76" x2="523.26" y2="807.76"/><line class="cls-3" x1="533.26" y1="195.76" x2="533.26" y2="807.76"/><line class="cls-3" x1="543.26" y1="195.76" x2="543.26" y2="807.76"/><line class="cls-3" x1="553.26" y1="195.76" x2="553.26" y2="807.76"/><line class="cls-3" x1="563.26" y1="195.76" x2="563.26" y2="807.76"/><line class="cls-3" x1="573.26" y1="195.76" x2="573.26" y2="807.76"/><line class="cls-3" x1="583.26" y1="195.76" x2="583.26" y2="807.76"/><line class="cls-3" x1="593.26" y1="195.76" x2="593.26" y2="807.76"/><line class="cls-3" x1="603.26" y1="195.76" x2="603.26" y2="807.76"/><line class="cls-3" x1="613.26" y1="195.76" x2="613.26" y2="807.76"/><line class="cls-3" x1="623.26" y1="195.76" x2="623.26" y2="807.76"/><line class="cls-3" x1="633.26" y1="195.76" x2="633.26" y2="807.76"/><line class="cls-3" x1="643.26" y1="195.76" x2="643.26" y2="807.76"/><line class="cls-3" x1="653.26" y1="195.76" x2="653.26" y2="807.76"/><line class="cls-3" x1="663.26" y1="195.76" x2="663.26" y2="807.76"/><line class="cls-3" x1="673.26" y1="195.76" x2="673.26" y2="807.76"/><line class="cls-3" x1="683.26" y1="195.76" x2="683.26" y2="807.76"/><line class="cls-3" x1="693.26" y1="195.76" x2="693.26" y2="807.76"/><line class="cls-3" x1="703.26" y1="195.76" x2="703.26" y2="807.76"/><line class="cls-3" x1="713.26" y1="195.76" x2="713.26" y2="807.76"/><line class="cls-3" x1="723.26" y1="195.76" x2="723.26" y2="807.76"/><line class="cls-3" x1="733.26" y1="195.76" x2="733.26" y2="807.76"/><line class="cls-3" x1="743.26" y1="195.76" x2="743.26" y2="807.76"/><line class="cls-3" x1="753.26" y1="195.76" x2="753.26" y2="807.76"/><line class="cls-3" x1="763.26" y1="195.76" x2="763.26" y2="807.76"/><line class="cls-3" x1="773.26" y1="195.76" x2="773.26" y2="807.76"/><line class="cls-3" x1="783.26" y1="195.76" x2="783.26" y2="807.76"/><line class="cls-3" x1="793.26" y1="195.76" x2="793.26" y2="807.76"/><line class="cls-3" x1="803.26" y1="195.76" x2="803.26" y2="807.76"/><line class="cls-3" x1="813.26" y1="195.76" x2="813.26" y2="807.76"/><line class="cls-3" x1="823.26" y1="195.76" x2="823.26" y2="807.76"/><line class="cls-3" x1="833.26" y1="195.76" x2="833.26" y2="807.76"/><line class="cls-3" x1="843.26" y1="195.76" x2="843.26" y2="807.76"/><line class="cls-3" x1="853.26" y1="195.76" x2="853.26" y2="807.76"/><line class="cls-3" x1="863.26" y1="195.76" x2="863.26" y2="807.76"/><line class="cls-3" x1="873.26" y1="195.76" x2="873.26" y2="807.76"/><line class="cls-3" x1="883.26" y1="195.76" x2="883.26" y2="807.76"/><line class="cls-3" x1="893.26" y1="195.76" x2="893.26" y2="807.76"/><line class="cls-3" x1="903.26" y1="195.76" x2="903.26" y2="807.76"/><line class="cls-3" x1="913.26" y1="195.76" x2="913.26" y2="807.76"/><line class="cls-3" x1="923.26" y1="195.76" x2="923.26" y2="807.76"/><line class="cls-3" x1="933.26" y1="195.76" x2="933.26" y2="807.76"/><line class="cls-3" x1="943.26" y1="195.76" x2="943.26" y2="807.76"/><line class="cls-3" x1="953.26" y1="195.76" x2="953.26" y2="807.76"/><line class="cls-3" x1="963.26" y1="195.76" x2="963.26" y2="807.76"/><line class="cls-3" x1="973.26" y1="195.76" x2="973.26" y2="807.76"/><line class="cls-3" x1="983.26" y1="195.76" x2="983.26" y2="807.76"/><line class="cls-3" x1="993.26" y1="195.76" x2="993.26" y2="807.76"/><line class="cls-3" x1="1003.26" y1="195.76" x2="1003.26" y2="807.76"/><line class="cls-3" x1="1013.26" y1="195.76" x2="1013.26" y2="807.76"/><line class="cls-3" x1="1023.26" y1="195.76" x2="1023.26" y2="807.76"/><line class="cls-3" x1="1033.26" y1="195.76" x2="1033.26" y2="807.76"/><line class="cls-3" x1="1043.26" y1="195.76" x2="1043.26" y2="807.76"/><line class="cls-3" x1="1053.26" y1="195.76" x2="1053.26" y2="807.76"/><line class="cls-3" x1="1063.26" y1="195.76" x2="1063.26" y2="807.76"/><line class="cls-3" x1="1073.26" y1="195.76" x2="1073.26" y2="807.76"/><line class="cls-3" x1="1083.26" y1="195.76" x2="1083.26" y2="807.76"/><line class="cls-3" x1="1093.26" y1="195.76" x2="1093.26" y2="807.76"/><line class="cls-3" x1="1103.26" y1="195.76" x2="1103.26" y2="807.76"/><line class="cls-3" x1="1113.26" y1="195.76" x2="1113.26" y2="807.76"/><line class="cls-3" x1="1123.26" y1="195.76" x2="1123.26" y2="807.76"/><line class="cls-3" x1="1133.26" y1="195.76" x2="1133.26" y2="807.76"/><line class="cls-3" x1="1143.26" y1="195.76" x2="1143.26" y2="807.76"/><line class="cls-3" x1="1153.26" y1="195.76" x2="1153.26" y2="807.76"/><line class="cls-3" x1="1163.26" y1="195.76" x2="1163.26" y2="807.76"/><line class="cls-3" x1="1173.26" y1="195.76" x2="1173.26" y2="807.76"/><line class="cls-3" x1="1183.26" y1="195.76" x2="1183.26" y2="807.76"/><line class="cls-3" x1="1193.26" y1="195.76" x2="1193.26" y2="807.76"/><line class="cls-3" x1="1203.26" y1="195.76" x2="1203.26" y2="807.76"/><line class="cls-3" x1="1213.26" y1="195.76" x2="1213.26" y2="807.76"/><line class="cls-3" x1="1223.26" y1="195.76" x2="1223.26" y2="807.76"/><line class="cls-3" x1="1233.26" y1="195.76" x2="1233.26" y2="807.76"/><line class="cls-3" x1="1243.26" y1="195.76" x2="1243.26" y2="807.76"/><line class="cls-3" x1="1253.26" y1="195.76" x2="1253.26" y2="807.76"/><line class="cls-3" x1="1263.26" y1="195.76" x2="1263.26" y2="807.76"/><line class="cls-3" x1="1273.26" y1="195.76" x2="1273.26" y2="807.76"/><line class="cls-3" x1="1283.26" y1="195.76" x2="1283.26" y2="807.76"/><line class="cls-3" x1="1293.26" y1="195.76" x2="1293.26" y2="807.76"/><line class="cls-3" x1="1303.26" y1="195.76" x2="1303.26" y2="807.76"/><line class="cls-3" x1="1313.26" y1="195.76" x2="1313.26" y2="807.76"/><line class="cls-3" x1="1323.26" y1="195.76" x2="1323.26" y2="807.76"/><line class="cls-3" x1="1333.26" y1="195.76" x2="1333.26" y2="807.76"/><line class="cls-3" x1="1343.26" y1="195.76" x2="1343.26" y2="807.76"/><line class="cls-3" x1="1353.26" y1="195.76" x2="1353.26" y2="807.76"/><line class="cls-3" x1="1363.26" y1="195.76" x2="1363.26" y2="807.76"/><line class="cls-3" x1="1373.26" y1="195.76" x2="1373.26" y2="807.76"/><line class="cls-3" x1="1383.26" y1="195.76" x2="1383.26" y2="807.76"/><line class="cls-3" x1="1393.26" y1="195.76" x2="1393.26" y2="807.76"/><line class="cls-3" x1="1403.26" y1="195.76" x2="1403.26" y2="807.76"/></g></svg>