<svg id="Layer_1" data-name="Layer 1" xmlns="http://www.w3.org/2000/svg" xmlns:xlink="http://www.w3.org/1999/xlink" viewBox="0 0 1341.36 992.67"><defs><style>.cls-1,.cls-3{fill:none;}.cls-2{clip-path:url(#clip-path);}.cls-3{stroke:#4d4d4f;stroke-miterlimit:10;stroke-width:0.1px;}</style><clipPath id="clip-path" transform="translate(308.88 382.05)"><rect class="cls-1" x="0.04" y="-0.05" width="960.43" height="206.09"/></clipPath></defs><g class="cls-2"><path class="cls-3" d="M330.65,242.33l-1.8.46a108,108,0,0,1-130.78-78.63A93.11,93.11,0,0,1,264.58,51.72l1.25-.32a80.61,80.61,0,0,1,60,8.34,83.8,83.8,0,0,0-7.45-5,82.2,82.2,0,0,0-62.65-9.37L231.33,51.4l-16.2-65,24.38-6.08A149.79,149.79,0,0,1,421.05,89.43a126.52,126.52,0,0,1-90.4,152.9Z" transform="translate(308.88 382.05)"/><path class="cls-3" d="M328.51,234.23l-1.67.43a99.65,99.65,0,0,1-120.65-72.52A84.74,84.74,0,0,1,266.72,59.82l1.15-.29a72.75,72.75,0,0,1,88.18,53,63.54,63.54,0,0,1-25,67,68,68,0,0,0,33.14-75.92A91.13,91.13,0,0,0,253.68,37.2l-16.25,4L225.28-7.51l16.25-4.05a141.39,141.39,0,0,1,171.39,103,118.13,118.13,0,0,1-84.41,142.77Z" transform="translate(308.88 382.05)"/><path class="cls-3" d="M326.37,226.14l-1.55.39a91.26,91.26,0,0,1-110.5-66.42,76.36,76.36,0,0,1,54.54-92.19l1-.27a64.38,64.38,0,0,1,78,46.9,55.09,55.09,0,0,1-39.2,66.29l-.77.2a47.28,47.28,0,0,1-57.24-34.41A41.14,41.14,0,0,1,258.59,111a42.94,42.94,0,0,0-11.76,41,57.73,57.73,0,0,0,69.89,42l1.11-.29a76.27,76.27,0,0,0,54.46-92.16A99.52,99.52,0,0,0,251.66,29.07l-8.13,2-8.1-32.51,8.13-2A133,133,0,0,1,404.79,93.48a109.78,109.78,0,0,1-78.42,132.66ZM288.68,129.3a7.67,7.67,0,0,0-5.46,9.23,13.72,13.72,0,0,0,5.19,7.73l-3.57-14.32,6.77-1.7a2.89,2.89,0,0,0-.74-.65,2.76,2.76,0,0,0-2.09-.31Z" transform="translate(308.88 382.05)"/><path class="cls-3" d="M324.23,218l-1.43.37a82.89,82.89,0,0,1-100.35-60.32,68,68,0,0,1,49.47-82.31,56,56,0,0,1,67.88,40.8,46.54,46.54,0,0,1-33.21,56.17l-.65.16a38.9,38.9,0,0,1-47.1-28.31,32.78,32.78,0,0,1,23.87-39.7,27.91,27.91,0,0,1,33.8,20.31,24,24,0,0,1-17.14,29l-.34.09L295,138l.11,0a7.24,7.24,0,0,0,5.16-8.74,11.13,11.13,0,0,0-13.49-8.11l-.22.06a16,16,0,0,0-11.44,19.34,22.13,22.13,0,0,0,26.79,16.11l.41-.11a29.77,29.77,0,0,0,21.25-35.92A39.27,39.27,0,0,0,276,92l-.71.19A51.21,51.21,0,0,0,238.7,154a66.11,66.11,0,0,0,80.05,48.11A84.62,84.62,0,0,0,380.41,99.56,107.88,107.88,0,0,0,249.63,21l-4-16.26A124.66,124.66,0,0,1,396.67,95.51,101.41,101.41,0,0,1,324.23,218Z" transform="translate(308.88 382.05)"/><path class="cls-3" d="M247.61,12.82A116.27,116.27,0,0,1,388.54,97.53a93,93,0,0,1-67.77,112.75,74.42,74.42,0,0,1-90.2-54.22A59.53,59.53,0,0,1,274,83.91a47.62,47.62,0,0,1,57.72,34.69,38.09,38.09,0,0,1-27.76,46.18A30.48,30.48,0,0,1,267,142.58,24.39,24.39,0,0,1,284.74,113a19.51,19.51,0,0,1,23.64,14.21A15.61,15.61,0,0,1,297,146.15" transform="translate(308.88 382.05)"/><path class="cls-3" d="M310.6,325.12,297,262.64a125,125,0,0,1-115.21-94.43A110.18,110.18,0,0,1,216,59.08l-21.15-84.9,40.63-10.12A166.6,166.6,0,0,1,428.58,59.5L490,46.17l49.79,229.15Z" transform="translate(308.88 382.05)"/><path class="cls-3" d="M423.46,69.19a158.18,158.18,0,0,0-186-97L205-19.71l20.25,81.26,1.33-.33a101.72,101.72,0,0,0-36.62,105,116.52,116.52,0,0,0,113.86,88.2L317,315.16l212.79-46.24L483.55,56.13Z" transform="translate(308.88 382.05)"/><rect class="cls-3" x="299.78" y="85.14" width="201" height="201" transform="translate(805.57 137.12) rotate(77.74)"/><rect class="cls-3" x="308.15" y="93.52" width="184.25" height="184.25" transform="translate(805.57 137.12) rotate(77.74)"/><rect class="cls-3" x="316.53" y="101.89" width="167.5" height="167.5" transform="translate(805.57 137.12) rotate(77.74)"/><rect class="cls-3" x="324.9" y="110.27" width="150.75" height="150.75" transform="translate(805.57 137.12) rotate(77.74)"/><rect class="cls-3" x="333.28" y="118.64" width="134" height="134" transform="matrix(0.21, 0.98, -0.98, 0.21, 805.57, 137.12)"/><rect class="cls-3" x="341.65" y="127.02" width="117.25" height="117.25" transform="translate(805.57 137.12) rotate(77.74)"/><rect class="cls-3" x="350.03" y="135.39" width="100.5" height="100.5" transform="translate(805.57 137.12) rotate(77.74)"/><rect class="cls-3" x="358.4" y="143.77" width="83.75" height="83.75" transform="translate(278.59 471.29) rotate(-12.26)"/><rect class="cls-3" x="366.78" y="152.14" width="67" height="67" transform="translate(278.59 471.29) rotate(-12.26)"/><path class="cls-3" d="M592,332.54,259.35,404.82l-18.57-85.46a196.88,196.88,0,0,1-36.72-17.05,190.41,190.41,0,0,1-87.26-117.9A175.7,175.7,0,0,1,136.26,51.6c2-3.35,4.11-6.68,6.33-9.93L125.47-27.07l-289.06-91.18,4.81-43.67,858.21-74.21,3,169.47-5.31,4.24,70.48,463.63Z" transform="translate(308.88 382.05)"/><path class="cls-3" d="M592.67,323.82l-326.91,71L248,312.91a188.28,188.28,0,0,1-39.58-17.78,182.07,182.07,0,0,1-83.44-112.74A167.35,167.35,0,0,1,143.47,55.87c2.52-4.27,5.26-8.46,8.17-12.52l-19.18-77-287-90.53,3.3-30L691.21-227,694-70.63l-5.87,4.69,69,454.07Z" transform="translate(308.88 382.05)"/><path class="cls-3" d="M593.36,315.1l-321.2,69.79-17.07-78.57A178.93,178.93,0,0,1,212.69,288a173.74,173.74,0,0,1-79.64-107.59A159.08,159.08,0,0,1,150.67,60.14a163.23,163.23,0,0,1,10.05-15L139.45-40.22l-284.88-89.86,1.79-16.34L683-217.89,685.53-74.6l-6.43,5.14,67.57,444.51Z" transform="translate(308.88 382.05)"/><path class="cls-3" d="M674.78-208.78l-817.69,70.71L143.8-47.63l2.29-.57,23.74,95.26a153.34,153.34,0,0,0-12,17.34,150.71,150.71,0,0,0-16.7,113.94A165.4,165.4,0,0,0,217,280.77a170.31,170.31,0,0,0,45.19,18.8l16.38,75.36,311-67.58-.65-3L736.21,362,670.09-73l7-5.59Z" transform="translate(308.88 382.05)"/><path class="cls-3" d="M454.22,2.51l74.17-16.12,6,27.67L660.19-86.51l-1.84-104L-57.38-128.65,144.34-65l79-19.68A215.36,215.36,0,0,1,387.4-60.15,218.44,218.44,0,0,1,454.22,2.51Z" transform="translate(308.88 382.05)"/><path class="cls-3" d="M529.09,29,522-3.65,450.52,11.88l-3.19-4.61A210.29,210.29,0,0,0,383.08-53a207,207,0,0,0-157.74-23.6L144.07-56.33l-244.22-77,766.72-66.3,2.07,117.12Z" transform="translate(308.88 382.05)"/><path class="cls-3" d="M457.85-6.85,534.8-23.57,539.72-.91l112-89.57-1.6-90.95L-14.62-123.95,144.6-73.72l76.69-19.11a223.67,223.67,0,0,1,170.42,25.5A227.57,227.57,0,0,1,457.85-6.85Z" transform="translate(308.88 382.05)"/><path class="cls-3" d="M461.33-16.18,541.2-33.54,545-15.89,643.3-94.45l-1.38-77.86L28.15-119.24,144.87-82.42l74.39-18.53A232,232,0,0,1,396-74.5,236.84,236.84,0,0,1,461.33-16.18Z" transform="translate(308.88 382.05)"/><path class="cls-3" d="M464.67-25.48l82.94-18,2.74,12.64,84.5-67.56-1.14-64.77L70.92-114.53l74.22,23.41,72.1-18a240.3,240.3,0,0,1,183.1,27.4A245.69,245.69,0,0,1,464.67-25.48Z" transform="translate(308.88 382.05)"/><path class="cls-3" d="M467.89-34.75,554-53.46l1.65,7.62,70.73-56.55-.91-51.69-341,29.49A248.91,248.91,0,0,1,404.66-88.86,254.82,254.82,0,0,1,467.89-34.75Z" transform="translate(308.88 382.05)"/><path class="cls-3" d="M471-44l89.42-19.44.57,2.62,57-45.55-.68-38.6-266.45,23A260.47,260.47,0,0,1,409-96,263.9,263.9,0,0,1,471-44Z" transform="translate(308.88 382.05)"/><path class="cls-3" d="M474-53.22l88-19.12,47.51-38-.45-25.51L387.84-116.71a270.23,270.23,0,0,1,25.45,13.49A273.29,273.29,0,0,1,474-53.22Z" transform="translate(308.88 382.05)"/><path class="cls-3" d="M476.9-62.42l81.4-17.69,42.76-34.19-.22-12.43-184,15.91c.24.14.48.28.71.43A281.7,281.7,0,0,1,476.9-62.42Z" transform="translate(308.88 382.05)"/><path class="cls-3" d="M479.71-71.6,554.6-87.87l37.09-29.66-150.1,13A294.87,294.87,0,0,1,479.71-71.6Z" transform="translate(308.88 382.05)"/><path class="cls-3" d="M145.4-99.81l69.81-17.4q4.89-1.22,9.81-2.24l-111.34,9.63Z" transform="translate(308.88 382.05)"/><path class="cls-3" d="M577.42,290.88,579.61,301,285,365l-15.72-72.33a161.16,161.16,0,0,1-47.94-19,157.07,157.07,0,0,1-72-97.29A142.39,142.39,0,0,1,165.08,68.67,147,147,0,0,1,179,49.11L154.22-50.22l73.14-18.23A198.73,198.73,0,0,1,378.77-45.79a200.3,200.3,0,0,1,67.72,67.12l69.09-15L523.77,44,662.54-66.94l63.21,415.82Z" transform="translate(308.88 382.05)"/><path class="cls-3" d="M565.92,277.39l3.72,17.15L291.38,355l-15.1-69.5a152,152,0,0,1-50.65-19.09,148.85,148.85,0,0,1-68.2-92.13A134.09,134.09,0,0,1,172.29,72.94a136.24,136.24,0,0,1,15.86-21.62L164.37-44.12l65-16.2a191.92,191.92,0,0,1,213,91.12l66.82-14.52L518.45,59l138-110.32L715.29,335.8Z" transform="translate(308.88 382.05)"/><path class="cls-3" d="M554.41,263.9l5.27,24.23L297.79,345l-14.54-66.88A143,143,0,0,1,230,259.24a140.43,140.43,0,0,1-64.39-87,125.77,125.77,0,0,1,13.93-95A127.53,127.53,0,0,1,197.38,53.7L174.52-38l56.89-14.17A183.43,183.43,0,0,1,438,40.32l64.78-14.08L513.14,74l137.2-109.7,54.49,358.46Z" transform="translate(308.88 382.05)"/><path class="cls-3" d="M644.24-20.14,507.82,88.93,496.36,36.2,433.42,49.88a175.05,175.05,0,0,0-200-93.95L184.67-31.92l22,88.2a118.53,118.53,0,0,0-33,114,132.13,132.13,0,0,0,60.57,81.82,133.79,133.79,0,0,0,55.91,18.49l14,64.53,245.53-53.35-6.81-31.32,151.46,59.22Z" transform="translate(308.88 382.05)"/><polygon class="cls-3" points="709.16 567.69 947.02 377.51 992.79 678.6 709.16 567.69"/><polygon class="cls-3" points="725.72 565.18 940.92 393.11 982.33 665.52 725.72 565.18"/><polygon class="cls-3" points="742.28 562.66 934.82 408.71 971.87 652.44 742.28 562.66"/><polygon class="cls-3" points="758.84 560.14 928.72 424.31 961.41 639.35 758.84 560.14"/><polygon class="cls-3" points="775.4 557.63 922.62 439.91 950.95 626.27 775.4 557.63"/><polygon class="cls-3" points="791.96 555.11 916.52 455.51 940.49 613.19 791.96 555.11"/><polygon class="cls-3" points="808.52 552.59 910.42 471.11 930.03 600.1 808.52 552.59"/><polygon class="cls-3" points="825.08 550.07 904.32 486.71 919.57 587.02 825.08 550.07"/><polygon class="cls-3" points="841.64 547.56 898.22 502.31 909.11 573.94 841.64 547.56"/><polygon class="cls-3" points="898.65 560.86 858.2 545.04 892.12 517.91 898.65 560.86"/><path class="cls-3" d="M580.87,472.08l-424,92.14L123.3,409.78a324.16,324.16,0,0,1-136.53-193C-25,169.68-25.15,117.69-13.84,69.5l-295-93,28.88-262.4L830.88-382l2.71,153.38c30.66,8.11,60.83,21.93,85.59,39.27a265.12,265.12,0,0,1,78.56,348.18,267.74,267.74,0,0,1-115,107.95L935,610.54Z" transform="translate(308.88 382.05)"/><path class="cls-3" d="M581.57,463.36l-418.3,90.89L130.75,404.64A315.54,315.54,0,0,1-5.1,214.78C-17.2,166.22-16.71,113-3.82,63.88L-299.75-29.47l27.38-248.73,1095-94.68,2.66,150.82c31.88,7.6,63.27,21.52,89,39.57A256.76,256.76,0,0,1,990.45,154.7a258.44,258.44,0,0,1-117,107.16l51,335.6Z" transform="translate(308.88 382.05)"/><path class="cls-3" d="M582.26,454.64,169.67,544.29,138.2,399.45A307,307,0,0,1,3,212.75c-12.45-50-11.21-104.5,3.4-154.42L-290.67-35.39l25.87-235L814.45-363.76l2.62,148.43c33.1,7,65.71,20.94,92.51,39.7a248.38,248.38,0,0,1,73.59,326.2A249.3,249.3,0,0,1,864.23,256.78L914,584.37Z" transform="translate(308.88 382.05)"/><path class="cls-3" d="M583,445.92,176.08,534.33,145.63,394.2A298.47,298.47,0,0,1,11.15,210.73,289.35,289.35,0,0,1,16.87,52.85L-281.59-41.3l24.37-221.39,1063.46-92,2.57,146.23c34.31,6.23,68.14,20.17,96,39.65A240.3,240.3,0,0,1,855,251.52l48.61,319.77Z" transform="translate(308.88 382.05)"/><path class="cls-3" d="M583.65,437.2,182.48,524.37,153.05,388.9l-.77-.45a290.23,290.23,0,0,1-133-179.74,279.66,279.66,0,0,1,8.3-161.27L-272.51-47.22l22.86-207.72L798-345.53l2.54,144.23c35.51,5.34,70.56,19.19,99.41,39.39A231.63,231.63,0,0,1,968.6,142.3,231.05,231.05,0,0,1,845.66,246.07l47.45,312.14Z" transform="translate(308.88 382.05)"/><path class="cls-3" d="M584.34,428.48,188.89,514.4,160.45,383.54c-1.31-.76-2.6-1.52-3.85-2.27A281.87,281.87,0,0,1,27.41,206.68,270.24,270.24,0,0,1,38.55,42.12l-302-95.26,21.36-194L789.8-336.41l2.52,142.46A227.85,227.85,0,0,1,895.17-155a223.24,223.24,0,0,1,66.14,293.22,222.06,222.06,0,0,1-125,102.24l46.32,304.72Z" transform="translate(308.88 382.05)"/><path class="cls-3" d="M585,419.76,195.3,504.44,167.84,378.1c-2.38-1.33-4.7-2.67-6.93-4A273.59,273.59,0,0,1,35.53,204.66,260.86,260.86,0,0,1,49.82,36.89L-254.36-59.06l19.85-180.38,1016.1-87.85,2.48,140.93a218.3,218.3,0,0,1,106.3,38.18A215.31,215.31,0,0,1,975-26.93c29.86,113-36.36,229.13-148,261.46L872.19,532Z" transform="translate(308.88 382.05)"/><path class="cls-3" d="M585.73,411l-384,83.44L175.21,372.6c-3.47-1.88-6.82-3.79-10-5.69A265.2,265.2,0,0,1,43.66,202.63,251.9,251.9,0,0,1,61.41,31.77L-245.28-65l18.35-166.7,1000.3-86.5,2.47,139.7a208.71,208.71,0,0,1,109.72,37.16A207,207,0,0,1,966.87-24.79C996,85.37,930.05,198.69,819.88,227.8c-.77.21-1.54.41-2.32.6L861.73,519Z" transform="translate(308.88 382.05)"/><path class="cls-3" d="M586.42,402.31,208.11,484.52,182.57,367c-4.54-2.37-9-4.85-13-7.29A256.94,256.94,0,0,1,51.79,200.61,243.26,243.26,0,0,1,71,31.35l-1.45-5.81L-236.21-70.9l16.85-153,984.52-85.13L767.6-170.3a199.26,199.26,0,0,1,113.16,35.84,198.55,198.55,0,0,1,78,111.81c27.94,105.7-35.33,214.42-141,242.36-3.17.83-6.39,1.6-9.63,2.29l43.16,283.88Z" transform="translate(308.88 382.05)"/><path class="cls-3" d="M587.12,393.59l-372.61,81L189.92,361.37c-5.6-2.81-11.09-5.83-16.07-8.81a248.64,248.64,0,0,1-113.94-154,234.61,234.61,0,0,1,20-166.19L76.52,19-227.13-76.82l15.34-139.36,968.73-83.76,2.44,138.17A189.92,189.92,0,0,1,950.68-20.51C977.43,80.72,916.84,184.85,815.6,211.61c-5.58,1.47-11.26,2.7-17,3.67l42.19,277.51Z" transform="translate(308.88 382.05)"/><path class="cls-3" d="M587.81,384.87,220.92,464.59,197.24,355.65c-6.65-3.22-13.18-6.73-19.07-10.27A240.31,240.31,0,0,1,68,196.56,226,226,0,0,1,88.77,33.49l-5.26-21.1L-218-82.74l13.83-125.69,953-82.4,2.43,138A181.52,181.52,0,0,1,942.58-18.37c25.58,96.77-32.35,196.3-129.12,221.88a182.75,182.75,0,0,1-24.38,4.71l41.27,271.49Z" transform="translate(308.88 382.05)"/><path class="cls-3" d="M588.5,376.15,227.32,454.63,204.55,349.84a234.86,234.86,0,0,1-22.07-11.64A232,232,0,0,1,76.17,194.53,217.31,217.31,0,0,1,97.69,34.66L90.5,5.82-209-88.65l12.33-112,937.15-81L743-143.46c86.12-12.21,169,42.09,191.53,127.23,24.4,92.3-30.85,187.25-123.16,211.64a174.14,174.14,0,0,1-31.85,5.34l40.42,265.88Z" transform="translate(308.88 382.05)"/><path class="cls-3" d="M589.2,367.43,233.73,444.67,211.84,344a228.12,228.12,0,0,1-25-12.93A223.68,223.68,0,0,1,84.29,192.51,209,209,0,0,1,106.63,35.9L97.49-.76-199.9-94.57l10.83-98.36,921.36-79.66,2.46,139c84.67-17,169.28,34.89,191.64,119.48C949.6,73.75,897,164.1,809.18,187.32a165.08,165.08,0,0,1-39.39,5.48l39.64,260.75Z" transform="translate(308.88 382.05)"/><path class="cls-3" d="M589.89,358.71l-349.75,76-21-96.74a219.4,219.4,0,0,1-28-14.12A215.35,215.35,0,0,1,92.42,190.48,200.71,200.71,0,0,1,114.64,38.79l1-1.58L104.49-7.34l-295.31-93.15,9.32-84.68,905.58-78.31L726.56-123l.56-.15c83.37-22,169.13,27.87,191.17,111.25S890.42,157.18,807,179.22a155.28,155.28,0,0,1-47,5.06l39,256.18Z" transform="translate(308.88 382.05)"/><path class="cls-3" d="M590.58,350l-344,74.76-20.18-92.87a212.57,212.57,0,0,1-30.93-15.21,207,207,0,0,1-94.88-128.2,192.32,192.32,0,0,1,21.3-145.4c.88-1.48,1.78-3,2.72-4.45L111.48-13.91l-293.22-92.5,7.81-71,889.79-76.94,2.52,142.59q5.39-1.87,10.88-3.33C808.17-136,889.33-88.73,910.19-9.81S883.82,150.27,804.9,171.12a146.26,146.26,0,0,1-54.75,3.95l38.36,252.31Z" transform="translate(308.88 382.05)"/><path class="cls-3" d="M731.4-107a138.16,138.16,0,0,0-21.18,7.46l-2.57-145.7-874,75.57-6.32,57.34L118.47-20.49l15.1,60.58c-1.57,2.4-3.08,4.82-4.51,7.24a184,184,0,0,0-20.39,139.1,198.75,198.75,0,0,0,91.07,123.06,205.64,205.64,0,0,0,33.84,16.18L253,414.78l338.33-73.52,186.77,73L740.15,165a138.68,138.68,0,0,0,62.61-2c74.45-19.68,119-96.26,99.33-170.7S805.84-126.68,731.4-107Z" transform="translate(308.88 382.05)"/><circle class="cls-3" cx="767.08" cy="28.01" r="131.28" transform="translate(513.75 932.66) rotate(-45)"/><circle class="cls-3" cx="767.08" cy="28.01" r="122.9" transform="translate(513.75 932.66) rotate(-45)"/><circle class="cls-3" cx="767.08" cy="28.01" r="114.53" transform="translate(513.75 932.66) rotate(-45)"/><circle class="cls-3" cx="767.08" cy="28.01" r="106.15" transform="translate(513.75 932.66) rotate(-45)"/><circle class="cls-3" cx="767.08" cy="28.01" r="97.77" transform="translate(513.75 932.66) rotate(-45)"/><circle class="cls-3" cx="767.08" cy="28.01" r="89.4" transform="matrix(0.97, -0.26, 0.26, 0.97, 327.19, 578.99)"/><circle class="cls-3" cx="767.08" cy="28.01" r="81.02" transform="translate(327.19 578.99) rotate(-14.8)"/><circle class="cls-3" cx="1075.96" cy="410.06" r="72.65"/><circle class="cls-3" cx="1075.96" cy="410.06" r="64.27"/><circle class="cls-3" cx="1075.96" cy="410.06" r="55.9"/><circle class="cls-3" cx="1075.96" cy="410.06" r="47.52"/><circle class="cls-3" cx="1075.96" cy="410.06" r="39.15"/><circle class="cls-3" cx="1075.96" cy="410.06" r="30.77"/><circle class="cls-3" cx="1075.96" cy="410.06" r="22.4"/><circle class="cls-3" cx="1075.96" cy="410.06" r="14.02"/><line class="cls-3" x1="379.44" y1="163.78" x2="379.44" y2="676.34"/><line class="cls-3" x1="387.82" y1="163.78" x2="387.82" y2="676.34"/><line class="cls-3" x1="396.19" y1="163.78" x2="396.19" y2="676.34"/><line class="cls-3" x1="404.57" y1="163.78" x2="404.57" y2="676.34"/><line class="cls-3" x1="412.94" y1="163.78" x2="412.94" y2="676.34"/><line class="cls-3" x1="421.32" y1="163.78" x2="421.32" y2="676.34"/><line class="cls-3" x1="429.69" y1="163.78" x2="429.69" y2="676.34"/><line class="cls-3" x1="438.07" y1="163.78" x2="438.07" y2="676.34"/><line class="cls-3" x1="446.44" y1="163.78" x2="446.44" y2="676.34"/><line class="cls-3" x1="454.82" y1="163.78" x2="454.82" y2="676.34"/><line class="cls-3" x1="463.19" y1="163.78" x2="463.19" y2="676.34"/><line class="cls-3" x1="471.57" y1="163.78" x2="471.57" y2="676.34"/><line class="cls-3" x1="479.94" y1="163.78" x2="479.94" y2="676.34"/><line class="cls-3" x1="488.32" y1="163.78" x2="488.32" y2="676.34"/><line class="cls-3" x1="496.69" y1="163.78" x2="496.69" y2="676.34"/><line class="cls-3" x1="505.07" y1="163.78" x2="505.07" y2="676.34"/><line class="cls-3" x1="513.44" y1="163.78" x2="513.44" y2="676.34"/><line class="cls-3" x1="521.82" y1="163.78" x2="521.82" y2="676.34"/><line class="cls-3" x1="530.19" y1="163.78" x2="530.19" y2="676.34"/><line class="cls-3" x1="538.57" y1="163.78" x2="538.57" y2="676.34"/><line class="cls-3" x1="546.94" y1="163.78" x2="546.94" y2="676.34"/><line class="cls-3" x1="555.32" y1="163.78" x2="555.32" y2="676.34"/><line class="cls-3" x1="563.7" y1="163.78" x2="563.7" y2="676.34"/><line class="cls-3" x1="572.07" y1="163.78" x2="572.07" y2="676.34"/><line class="cls-3" x1="580.45" y1="163.78" x2="580.45" y2="676.34"/><line class="cls-3" x1="588.82" y1="163.78" x2="588.82" y2="676.34"/><line class="cls-3" x1="597.2" y1="163.78" x2="597.2" y2="676.34"/><line class="cls-3" x1="605.57" y1="163.78" x2="605.57" y2="676.34"/><line class="cls-3" x1="613.95" y1="163.78" x2="613.95" y2="676.34"/><line class="cls-3" x1="622.32" y1="163.78" x2="622.32" y2="676.34"/><line class="cls-3" x1="630.7" y1="163.78" x2="630.7" y2="676.34"/><line class="cls-3" x1="639.07" y1="163.78" x2="639.07" y2="676.34"/><line class="cls-3" x1="647.45" y1="163.78" x2="647.45" y2="676.34"/><line class="cls-3" x1="655.82" y1="163.78" x2="655.82" y2="676.34"/><line class="cls-3" x1="664.2" y1="163.78" x2="664.2" y2="676.34"/><line class="cls-3" x1="672.57" y1="163.78" x2="672.57" y2="676.34"/><line class="cls-3" x1="680.95" y1="163.78" x2="680.95" y2="676.34"/><line class="cls-3" x1="689.32" y1="163.78" x2="689.32" y2="676.34"/><line class="cls-3" x1="697.7" y1="163.78" x2="697.7" y2="676.34"/><line class="cls-3" x1="706.07" y1="163.78" x2="706.07" y2="676.34"/><line class="cls-3" x1="714.45" y1="163.78" x2="714.45" y2="676.34"/><line class="cls-3" x1="722.82" y1="163.78" x2="722.82" y2="676.34"/><line class="cls-3" x1="731.2" y1="163.78" x2="731.2" y2="676.34"/><line class="cls-3" x1="739.57" y1="163.78" x2="739.57" y2="676.34"/><line class="cls-3" x1="747.95" y1="163.78" x2="747.95" y2="676.34"/><line class="cls-3" x1="756.32" y1="163.78" x2="756.32" y2="676.34"/><line class="cls-3" x1="764.7" y1="163.78" x2="764.7" y2="676.34"/><line class="cls-3" x1="773.07" y1="163.78" x2="773.07" y2="676.34"/><line class="cls-3" x1="781.45" y1="163.78" x2="781.45" y2="676.34"/><line class="cls-3" x1="789.82" y1="163.78" x2="789.82" y2="676.34"/><line class="cls-3" x1="798.2" y1="163.78" x2="798.2" y2="676.34"/><line class="cls-3" x1="806.57" y1="163.78" x2="806.57" y2="676.34"/><line class="cls-3" x1="814.95" y1="163.78" x2="814.95" y2="676.34"/><line class="cls-3" x1="823.32" y1="163.78" x2="823.32" y2="676.34"/><line class="cls-3" x1="831.7" y1="163.78" x2="831.7" y2="676.34"/><line class="cls-3" x1="840.07" y1="163.78" x2="840.07" y2="676.34"/><line class="cls-3" x1="848.45" y1="163.78" x2="848.45" y2="676.34"/><line class="cls-3" x1="856.83" y1="163.78" x2="856.83" y2="676.34"/><line class="cls-3" x1="865.2" y1="163.78" x2="865.2" y2="676.34"/><line class="cls-3" x1="873.58" y1="163.78" x2="873.58" y2="676.34"/><line class="cls-3" x1="881.95" y1="163.78" x2="881.95" y2="676.34"/><line class="cls-3" x1="890.33" y1="163.78" x2="890.33" y2="676.34"/><line class="cls-3" x1="898.7" y1="163.78" x2="898.7" y2="676.34"/><line class="cls-3" x1="907.08" y1="163.78" x2="907.08" y2="676.34"/><line class="cls-3" x1="915.45" y1="163.78" x2="915.45" y2="676.34"/><line class="cls-3" x1="923.83" y1="163.78" x2="923.83" y2="676.34"/><line class="cls-3" x1="932.2" y1="163.78" x2="932.2" y2="676.34"/><line class="cls-3" x1="940.58" y1="163.78" x2="940.58" y2="676.34"/><line class="cls-3" x1="948.95" y1="163.78" x2="948.95" y2="676.34"/><line class="cls-3" x1="957.33" y1="163.78" x2="957.33" y2="676.34"/><line class="cls-3" x1="965.7" y1="163.78" x2="965.7" y2="676.34"/><line class="cls-3" x1="974.08" y1="163.78" x2="974.08" y2="676.34"/><line class="cls-3" x1="982.45" y1="163.78" x2="982.45" y2="676.34"/><line class="cls-3" x1="990.83" y1="163.78" x2="990.83" y2="676.34"/><line class="cls-3" x1="999.2" y1="163.78" x2="999.2" y2="676.34"/><line class="cls-3" x1="1007.58" y1="163.78" x2="1007.58" y2="676.34"/><line class="cls-3" x1="1015.95" y1="163.78" x2="1015.95" y2="676.34"/><line class="cls-3" x1="1024.33" y1="163.78" x2="1024.33" y2="676.34"/><line class="cls-3" x1="1032.7" y1="163.78" x2="1032.7" y2="676.34"/><line class="cls-3" x1="1041.08" y1="163.78" x2="1041.08" y2="676.34"/><line class="cls-3" x1="1049.45" y1="163.78" x2="1049.45" y2="676.34"/><line class="cls-3" x1="1057.83" y1="163.78" x2="1057.83" y2="676.34"/><line class="cls-3" x1="1066.2" y1="163.78" x2="1066.2" y2="676.34"/><line class="cls-3" x1="1074.58" y1="163.78" x2="1074.58" y2="676.34"/><line class="cls-3" x1="1082.95" y1="163.78" x2="1082.95" y2="676.34"/><line class="cls-3" x1="1091.33" y1="163.78" x2="1091.33" y2="676.34"/><line class="cls-3" x1="1099.7" y1="163.78" x2="1099.7" y2="676.34"/><line class="cls-3" x1="1108.08" y1="163.78" x2="1108.08" y2="676.34"/><line class="cls-3" x1="1116.45" y1="163.78" x2="1116.45" y2="676.34"/><line class="cls-3" x1="1124.83" y1="163.78" x2="1124.83" y2="676.34"/><line class="cls-3" x1="1133.2" y1="163.78" x2="1133.2" y2="676.34"/><line class="cls-3" x1="1141.58" y1="163.78" x2="1141.58" y2="676.34"/><line class="cls-3" x1="1149.96" y1="163.78" x2="1149.96" y2="676.34"/><line class="cls-3" x1="1158.33" y1="163.78" x2="1158.33" y2="676.34"/><line class="cls-3" x1="1166.71" y1="163.78" x2="1166.71" y2="676.34"/><line class="cls-3" x1="1175.08" y1="163.78" x2="1175.08" y2="676.34"/></g></svg>