<svg xmlns="http://www.w3.org/2000/svg" xmlns:xlink="http://www.w3.org/1999/xlink" viewBox="0 0 1444.39 1068.92"><defs><style>.cls-1,.cls-3{fill:none;}.cls-2{clip-path:url(#clip-path);}.cls-3{stroke:#4d4d4f;stroke-miterlimit:10;stroke-width:0.11px;}</style><clipPath id="clip-path" transform="translate(-88.1 -64.82)"><rect class="cls-1" x="495.68" y="420.6" width="960" height="206"/></clipPath></defs><g id="Layer_2" data-name="Layer 2"><g class="cls-2"><path class="cls-3" d="M776.75,737.16l-1.94.5A116.33,116.33,0,0,1,634,653a100.26,100.26,0,0,1,71.63-121.07l1.34-.35a86.74,86.74,0,0,1,64.59,9,90.9,90.9,0,0,0-8-5.43A88.56,88.56,0,0,0,696.05,525l-26.25,6.54-17.44-70L678.61,455a161.28,161.28,0,0,1,195.48,117.5,136.23,136.23,0,0,1-97.34,164.64Z" transform="translate(-88.1 -64.82)"/><path class="cls-3" d="M774.44,728.44l-1.8.47a107.31,107.31,0,0,1-129.91-78.1,91.24,91.24,0,0,1,65.18-110.17l1.23-.32a78.33,78.33,0,0,1,95,57.07,68.43,68.43,0,0,1-27,72.15,73.21,73.21,0,0,0,35.68-81.75,98.13,98.13,0,0,0-119-71.51l-17.5,4.36-13.08-52.51,17.5-4.36A152.27,152.27,0,0,1,865.34,574.7a127.22,127.22,0,0,1-90.9,153.74Z" transform="translate(-88.1 -64.82)"/><path class="cls-3" d="M772.14,719.72l-1.67.43a98.28,98.28,0,0,1-119-71.52,82.24,82.24,0,0,1,58.74-99.28l1.11-.28a69.32,69.32,0,0,1,84,50.5A59.3,59.3,0,0,1,753.14,671c-.27.08-.54.14-.82.21a50.92,50.92,0,0,1-61.65-37,44.35,44.35,0,0,1,8.48-38.37,46.19,46.19,0,0,0-12.66,44.17,62.16,62.16,0,0,0,75.26,45.24l1.19-.31a82.12,82.12,0,0,0,58.64-99.23,107.14,107.14,0,0,0-129.89-78.08l-8.75,2.18-8.72-35,8.75-2.18A143.26,143.26,0,0,1,856.59,576.88a118.21,118.21,0,0,1-84.45,142.84ZM731.55,615.45a8.26,8.26,0,0,0-5.87,9.94,14.69,14.69,0,0,0,5.58,8.32l-3.84-15.42,7.29-1.83a3.08,3.08,0,0,0-.8-.69,3,3,0,0,0-2.24-.35Z" transform="translate(-88.1 -64.82)"/><path class="cls-3" d="M769.84,711l-1.55.39a89.25,89.25,0,0,1-108.06-64.95,73.21,73.21,0,0,1,53.28-88.63,60.3,60.3,0,0,1,73.09,43.93,50.11,50.11,0,0,1-35.76,60.48l-.7.18a41.88,41.88,0,0,1-50.71-30.48,35.3,35.3,0,0,1,25.7-42.76,30.06,30.06,0,0,1,36.39,21.88,25.85,25.85,0,0,1-18.45,31.2l-.37.1-4.36-17.51.11,0a7.8,7.8,0,0,0,5.57-9.41,12,12,0,0,0-14.53-8.74l-.24.07a17.26,17.26,0,0,0-12.32,20.83,23.83,23.83,0,0,0,28.85,17.34l.45-.11a32.05,32.05,0,0,0,22.87-38.69,42.28,42.28,0,0,0-51.23-30.79l-.77.2a55.14,55.14,0,0,0-39.36,66.57,71.19,71.19,0,0,0,86.19,51.81,91.15,91.15,0,0,0,66.41-110.47,116.18,116.18,0,0,0-140.83-84.65l-4.36-17.51a134.24,134.24,0,0,1,162.69,97.79,109.2,109.2,0,0,1-78,132Z" transform="translate(-88.1 -64.82)"/><path class="cls-3" d="M687.33,490a125.22,125.22,0,0,1,151.76,91.22,100.17,100.17,0,0,1-73,121.41A80.12,80.12,0,0,1,669,644.27a64.1,64.1,0,0,1,46.7-77.7,51.28,51.28,0,0,1,62.16,37.36A41,41,0,0,1,748,653.66a32.82,32.82,0,0,1-39.78-23.91,26.26,26.26,0,0,1,19.13-31.83,21,21,0,0,1,25.46,15.31,16.81,16.81,0,0,1-12.25,20.37" transform="translate(-88.1 -64.82)"/><path class="cls-3" d="M755.16,826.31,740.54,759A134.55,134.55,0,0,1,616.48,657.35a118.57,118.57,0,0,1,36.79-117.51l-22.78-91.42,43.76-10.9a179.4,179.4,0,0,1,208,102.77l66.09-14.36,53.62,246.76Z" transform="translate(-88.1 -64.82)"/><path class="cls-3" d="M876.69,550.72A170.34,170.34,0,0,0,676.43,446.27l-35,8.72,21.81,87.51,1.43-.36a109.55,109.55,0,0,0-39.43,113,125.51,125.51,0,0,0,122.6,95l14.22,65.43,229.14-49.79-49.8-229.13Z" transform="translate(-88.1 -64.82)"/><rect class="cls-3" x="743.5" y="567.9" width="216.44" height="216.44" transform="translate(1243.46 -364.58) rotate(77.74)"/><rect class="cls-3" x="752.52" y="576.92" width="198.41" height="198.41" transform="translate(1243.46 -364.58) rotate(77.74)"/><rect class="cls-3" x="761.54" y="585.94" width="180.37" height="180.37" transform="translate(1243.46 -364.58) rotate(77.74)"/><rect class="cls-3" x="770.56" y="594.95" width="162.33" height="162.33" transform="translate(1243.46 -364.58) rotate(77.74)"/><rect class="cls-3" x="779.58" y="603.97" width="144.3" height="144.3" transform="translate(1243.46 -364.58) rotate(77.74)"/><rect class="cls-3" x="788.6" y="612.99" width="126.26" height="126.26" transform="translate(1243.46 -364.58) rotate(77.74)"/><rect class="cls-3" x="797.61" y="622.01" width="108.22" height="108.22" transform="translate(1243.46 -364.58) rotate(77.74)"/><rect class="cls-3" x="806.63" y="631.03" width="90.18" height="90.18" transform="translate(-212.25 131.46) rotate(-12.26)"/><rect class="cls-3" x="815.65" y="640.05" width="72.15" height="72.15" transform="translate(-212.25 131.47) rotate(-12.26)"/><path class="cls-3" d="M1058.14,834.3,700,912.13l-20-92a211.78,211.78,0,0,1-39.55-18.36,205.06,205.06,0,0,1-94-127,189.2,189.2,0,0,1,21-143c2.14-3.61,4.42-7.19,6.82-10.69l-18.45-74L244.55,348.89l5.18-47L1173.86,222l3.22,182.48-5.73,4.57,75.9,499.24Z" transform="translate(-88.1 -64.82)"/><path class="cls-3" d="M1058.89,824.91l-352,76.49L687.7,813.16A201.92,201.92,0,0,1,645.08,794a196.08,196.08,0,0,1-89.86-121.41,180.26,180.26,0,0,1,20-136.23c2.72-4.59,5.67-9.11,8.8-13.48L563.33,440l-309-97.47,3.56-32.31L1165,231.77l3,168.39-6.32,5.06L1236,894.16Z" transform="translate(-88.1 -64.82)"/><path class="cls-3" d="M1059.64,815.52,713.77,890.68l-18.39-84.62a192.57,192.57,0,0,1-45.65-19.77A187.13,187.13,0,0,1,564,670.43,171.25,171.25,0,0,1,583,541a176.72,176.72,0,0,1,10.82-16.14l-22.91-91.92L264.1,336.14,266,318.56l890.13-77,2.73,154.3-6.93,5.53,72.76,478.65Z" transform="translate(-88.1 -64.82)"/><path class="cls-3" d="M1147.31,251.41l-880.5,76.13,308.74,97.39,2.47-.61L603.57,526.9a165.77,165.77,0,0,0-12.86,18.67,162.25,162.25,0,0,0-18,122.68,178.08,178.08,0,0,0,81.64,110.31A183.21,183.21,0,0,0,703,798.79L720.67,880l334.88-72.77-.69-3.21,158.6,62-71.2-468.36,7.53-6Z" transform="translate(-88.1 -64.82)"/><path class="cls-3" d="M909.81,478.92l79.87-17.36,6.47,29.8,135.45-108.3-2-112L358.91,337.68,576.12,406.2l85-21.19a231.89,231.89,0,0,1,176.68,26.44A235,235,0,0,1,909.81,478.92Z" transform="translate(-88.1 -64.82)"/><path class="cls-3" d="M990.43,507.49l-7.65-35.2L905.83,489l-3.43-5a226.7,226.7,0,0,0-69.19-64.87,222.94,222.94,0,0,0-169.86-25.42l-87.51,21.81-263-83,825.61-71.38,2.22,126.11Z" transform="translate(-88.1 -64.82)"/><path class="cls-3" d="M913.72,468.84l82.86-18,5.3,24.41,120.62-96.45-1.73-97.93L405,342.75l171.45,54.09L659,376.26A240.88,240.88,0,0,1,842.5,403.72,245.17,245.17,0,0,1,913.72,468.84Z" transform="translate(-88.1 -64.82)"/><path class="cls-3" d="M917.46,458.8l86-18.69,4.13,19,105.81-84.6-1.48-83.83L451,347.82,576.7,387.47l80.1-20A249.84,249.84,0,0,1,847.15,396,254.75,254.75,0,0,1,917.46,458.8Z" transform="translate(-88.1 -64.82)"/><path class="cls-3" d="M921.06,448.79l89.31-19.41,3,13.61,91-72.75-1.23-69.75-606,52.4L577,378.1l77.63-19.34a258.8,258.8,0,0,1,197.17,29.5A264.62,264.62,0,0,1,921.06,448.79Z" transform="translate(-88.1 -64.82)"/><path class="cls-3" d="M924.53,438.8l92.74-20.15,1.78,8.21,76.17-60.9-1-55.65L727.06,342.06a268.11,268.11,0,0,1,129.38,38.47A274.54,274.54,0,0,1,924.53,438.8Z" transform="translate(-88.1 -64.82)"/><path class="cls-3" d="M927.88,428.85l96.29-20.93.61,2.82,61.34-49.05-.73-41.56L798.48,344.94a280.71,280.71,0,0,1,62.61,27.86A284.31,284.31,0,0,1,927.88,428.85Z" transform="translate(-88.1 -64.82)"/><path class="cls-3" d="M931.11,418.92l94.76-20.6,51.16-40.9-.49-27.48-238.21,20.6a290.44,290.44,0,0,1,27.4,14.53A294.22,294.22,0,0,1,931.11,418.92Z" transform="translate(-88.1 -64.82)"/><path class="cls-3" d="M934.23,409,1021.88,390l46.05-36.82-.23-13.38L869.62,356.89l.76.46A303.36,303.36,0,0,1,934.23,409Z" transform="translate(-88.1 -64.82)"/><path class="cls-3" d="M937.25,399.12l80.65-17.52,39.94-31.93-161.63,14A316.85,316.85,0,0,1,937.25,399.12Z" transform="translate(-88.1 -64.82)"/><path class="cls-3" d="M577.27,368.74,652.44,350q5.28-1.32,10.56-2.41L543.12,358Z" transform="translate(-88.1 -64.82)"/><path class="cls-3" d="M1042.47,789.44l2.36,10.84L727.57,869.22l-16.93-77.89A173.37,173.37,0,0,1,659,770.83a169.13,169.13,0,0,1-77.54-104.76,153.26,153.26,0,0,1,17-115.9,155.15,155.15,0,0,1,14.95-21.06l-26.65-107,78.76-19.63a215.69,215.69,0,0,1,236,96.68L975.88,483l8.82,40.59,149.43-119.47,68.06,447.76Z" transform="translate(-88.1 -64.82)"/><path class="cls-3" d="M1030.09,774.91l4,18.47L734.46,858.49,718.2,783.66a163.73,163.73,0,0,1-54.53-20.56,160.15,160.15,0,0,1-73.44-99.21,144.39,144.39,0,0,1,16-109.13,147.35,147.35,0,0,1,17.09-23.28L597.7,428.71l70-17.44A206.61,206.61,0,0,1,897,509.38l72-15.63,10,46,148.58-118.8,63.37,416.88Z" transform="translate(-88.1 -64.82)"/><path class="cls-3" d="M1017.7,760.39l5.67,26.09-282,61.28-15.65-72a153.75,153.75,0,0,1-57.4-20.37A151.22,151.22,0,0,1,599,661.71a135.44,135.44,0,0,1,15-102.35A137.65,137.65,0,0,1,633.24,534l-24.61-98.76L669.89,420a197.56,197.56,0,0,1,222.45,99.61l69.75-15.16,11.16,51.39L1121,437.73l58.68,386Z" transform="translate(-88.1 -64.82)"/><path class="cls-3" d="M1114.42,454.53,967.53,572,955.19,515.2l-67.78,14.73A188.5,188.5,0,0,0,672.07,428.77l-52.51,13.08,23.66,95A127.77,127.77,0,0,0,621.74,564a126.45,126.45,0,0,0-14,95.57A142.31,142.31,0,0,0,673,747.64a144,144,0,0,0,60.2,19.91L748.26,837l264.38-57.45-7.33-33.73,163.09,63.77Z" transform="translate(-88.1 -64.82)"/><polygon class="cls-3" points="763.63 611.3 1019.76 406.51 1069.04 730.73 763.63 611.3"/><polygon class="cls-3" points="781.46 608.59 1013.19 423.31 1057.78 716.64 781.46 608.59"/><polygon class="cls-3" points="799.29 605.88 1006.62 440.11 1046.52 702.55 799.29 605.88"/><polygon class="cls-3" points="817.12 603.17 1000.05 456.9 1035.25 688.46 817.12 603.17"/><polygon class="cls-3" points="834.95 600.46 993.49 473.7 1023.99 674.37 834.95 600.46"/><polygon class="cls-3" points="852.79 597.75 986.92 490.5 1012.73 660.29 852.79 597.75"/><polygon class="cls-3" points="870.62 595.03 980.35 507.3 1001.46 646.2 870.62 595.03"/><polygon class="cls-3" points="888.45 592.32 973.78 524.1 990.2 632.11 888.45 592.32"/><polygon class="cls-3" points="906.28 589.61 967.21 540.9 978.94 618.02 906.28 589.61"/><polygon class="cls-3" points="967.67 603.93 924.11 586.9 960.65 557.69 967.67 603.93"/><path class="cls-3" d="M1046.19,984.56l-456.58,99.21-36.14-166.3a349,349,0,0,1-147-207.79c-12.64-50.74-12.84-106.73-.66-158.62L88.16,450.86l31.1-282.55L1315.4,64.88,1318.32,230c33,8.74,65.5,23.62,92.17,42.28a285.82,285.82,0,0,1-39.3,491.17l56.27,370.17Z" transform="translate(-88.1 -64.82)"/><path class="cls-3" d="M1046.94,975.17l-450.43,97.88-35-161.11A339.76,339.76,0,0,1,415.21,707.5c-13-52.29-12.5-109.64,1.38-162.49L97.93,444.49l29.48-267.83,1179.15-102,2.86,162.4c34.33,8.19,68.14,23.18,95.9,42.61a276.81,276.81,0,0,1-44,478.48l54.93,361.38Z" transform="translate(-88.1 -64.82)"/><path class="cls-3" d="M1047.68,965.78l-444.27,96.54-33.9-156A330.56,330.56,0,0,1,424,705.32c-13.42-53.86-12.08-112.54,3.65-166.29L107.71,438.12,135.57,185,1297.71,84.52l2.82,159.83c35.64,7.51,70.76,22.55,99.62,42.75a267.78,267.78,0,0,1-48.84,465.62l53.62,352.76Z" transform="translate(-88.1 -64.82)"/><path class="cls-3" d="M1048.43,956.39l-438.13,95.2L577.52,900.7A321.41,321.41,0,0,1,432.71,703.14a311.63,311.63,0,0,1,6.16-170L117.48,431.74l26.24-238.39,1145.14-99,2.78,157.47c36.94,6.7,73.37,21.71,103.33,42.69a258.75,258.75,0,0,1-53.64,452.57l52.34,344.33Z" transform="translate(-88.1 -64.82)"/><path class="cls-3" d="M1049.18,947l-432,93.86L585.5,895l-.82-.5A312.5,312.5,0,0,1,441.46,701,301.2,301.2,0,0,1,450.4,527.3L127.26,425.37,151.88,201.7,1280,104.15l2.74,155.31c38.23,5.75,76,20.66,107,42.42a249.71,249.71,0,0,1-58.49,439.31l51.1,336.11Z" transform="translate(-88.1 -64.82)"/><path class="cls-3" d="M1049.92,937.61,624.1,1030.13,593.48,889.22q-2.13-1.23-4.15-2.45a303.55,303.55,0,0,1-139.12-188,291.06,291.06,0,0,1,12-177.21L137,419l23-208.95L1271.17,114l2.71,153.4a245.32,245.32,0,0,1,110.75,41.89,240.69,240.69,0,0,1-63.36,425.84l49.87,328.12Z" transform="translate(-88.1 -64.82)"/><path class="cls-3" d="M1050.67,928.22,631,1019.41l-29.57-136c-2.56-1.43-5.06-2.88-7.46-4.32A294.59,294.59,0,0,1,459,696.6,280.79,280.79,0,0,1,474.35,516L146.81,412.62l21.37-194.23,1094.14-94.6L1265,275.55a235.14,235.14,0,0,1,114.46,41.1,231.94,231.94,0,0,1,91.1,130.57c32.15,121.65-39.15,246.73-159.38,281.55l48.7,320.36Z" transform="translate(-88.1 -64.82)"/><path class="cls-3" d="M1051.42,918.83,637.9,1008.68,609.37,877.43c-3.74-2-7.34-4.07-10.75-6.12A285.64,285.64,0,0,1,467.71,694.42a271.28,271.28,0,0,1,19.12-184L156.58,406.25l19.76-179.51L1253.48,133.6,1256.13,284a222.51,222.51,0,0,1,205.71,165.49c31.35,118.63-39.65,240.65-158.28,272l-2.5.65L1348.62,1035Z" transform="translate(-88.1 -64.82)"/><path class="cls-3" d="M1052.17,909.44,644.79,998,617.3,871.43c-4.89-2.55-9.68-5.23-14-7.85a276.68,276.68,0,0,1-126.8-171.34A262,262,0,0,1,497.12,510l-1.55-6.25L166.35,399.88l18.14-164.79,1060.14-91.67,2.64,149.42a213.53,213.53,0,0,1,205.85,159c30.08,113.81-38,230.89-151.86,261-3.42.9-6.89,1.73-10.37,2.47L1337.35,1021Z" transform="translate(-88.1 -64.82)"/><path class="cls-3" d="M1052.91,900,651.69,987.22,625.21,865.35c-6-3-11.94-6.28-17.3-9.5A267.68,267.68,0,0,1,485.22,690.06a252.57,252.57,0,0,1,21.48-179l-3.6-14.46-327-103.14,16.52-150.07,1043.13-90.19L1238.41,302a204.5,204.5,0,0,1,206,152.1c28.81,109-36.44,221.14-145.45,250-6,1.59-12.13,2.91-18.28,4l45.42,298.82Z" transform="translate(-88.1 -64.82)"/><path class="cls-3" d="M1053.66,890.65,658.59,976.5,633.1,859.19c-7.17-3.47-14.2-7.25-20.54-11.07A258.73,258.73,0,0,1,494,687.88a243.34,243.34,0,0,1,22.32-175.6l-5.66-22.72L185.9,387.13l14.9-135.35,1026.14-88.73,2.62,148.59a195.46,195.46,0,0,1,206.12,144.79c27.54,104.21-34.83,211.39-139,238.93a197.87,197.87,0,0,1-26.26,5.07l44.44,292.35Z" transform="translate(-88.1 -64.82)"/><path class="cls-3" d="M1054.41,881.26,665.49,965.77,641,852.93A254.06,254.06,0,0,1,617.2,840.4,249.84,249.84,0,0,1,502.72,685.7a234.07,234.07,0,0,1,23.17-172.16l-7.73-31.06L195.68,380.76,209,260.13l1009.14-87.26,2.63,148.87c92.73-13.15,182,45.32,206.24,137,26.27,99.4-33.22,201.63-132.62,227.9a186.89,186.89,0,0,1-34.3,5.74l43.52,286.31Z" transform="translate(-88.1 -64.82)"/><path class="cls-3" d="M1055.15,871.87,672.38,955,648.82,846.59a245.57,245.57,0,0,1-27-13.92A240.8,240.8,0,0,1,511.47,683.52a225.05,225.05,0,0,1,24-168.64l-9.83-39.48-320.24-101,11.66-105.91,992.13-85.78,2.64,149.71C1303.06,314.09,1394.17,370,1418.24,461c25,94.59-31.61,191.88-126.2,216.88a177.14,177.14,0,0,1-42.42,5.9L1292.3,964.6Z" transform="translate(-88.1 -64.82)"/><path class="cls-3" d="M1055.9,862.48,679.28,944.31,656.64,840.14a237.17,237.17,0,0,1-30.14-15.2A231.88,231.88,0,0,1,520.22,681.33,216.06,216.06,0,0,1,544.15,518c.33-.56.67-1.13,1-1.7l-12-48L215.23,368l10-91.19,975.14-84.31,2.66,151.21.61-.16c89.78-23.73,182.12,30,205.85,119.79s-30,182.13-119.79,205.86a167.22,167.22,0,0,1-50.63,5.44L1281,950.51Z" transform="translate(-88.1 -64.82)"/><path class="cls-3" d="M1056.65,853.09l-370.47,80.5-21.73-100a229.49,229.49,0,0,1-33.31-16.37A222.94,222.94,0,0,1,529,679.15a207.11,207.11,0,0,1,22.94-156.56c.94-1.59,1.92-3.2,2.93-4.79l-14.1-56.56L225,361.64l8.42-76.47,958.13-82.85,2.71,153.54c3.86-1.34,7.78-2.54,11.71-3.58,85-22.46,172.38,28.4,194.83,113.37S1372.4,638,1287.43,660.49a157.77,157.77,0,0,1-59,4.25l41.3,271.69Z" transform="translate(-88.1 -64.82)"/><path class="cls-3" d="M1208.28,361a150.43,150.43,0,0,0-22.81,8l-2.77-156.89L241.57,293.52l-6.8,61.74,313.5,98.9,16.26,65.23c-1.69,2.58-3.32,5.19-4.86,7.8A198.16,198.16,0,0,0,537.72,677a214,214,0,0,0,98.07,132.51,221.24,221.24,0,0,0,36.44,17.43l20.85,96,364.32-79.17,201.11,78.65-40.8-268.42a149.43,149.43,0,0,0,67.42-2.15c80.16-21.19,128.14-103.65,107-183.81S1288.44,339.81,1208.28,361Z" transform="translate(-88.1 -64.82)"/><circle class="cls-3" cx="1246.7" cy="506.38" r="141.36" transform="translate(-81.01 965.04) rotate(-45)"/><circle class="cls-3" cx="1246.7" cy="506.38" r="132.34" transform="translate(-81.01 965.04) rotate(-45)"/><circle class="cls-3" cx="1246.7" cy="506.38" r="123.32" transform="translate(-81.01 965.04) rotate(-45)"/><circle class="cls-3" cx="1246.7" cy="506.38" r="114.3" transform="translate(-81.01 965.04) rotate(-45)"/><circle class="cls-3" cx="1246.7" cy="506.38" r="105.29" transform="translate(-81.01 965.04) rotate(-45)"/><circle class="cls-3" cx="1246.7" cy="506.38" r="96.27" transform="translate(-81.01 965.04) rotate(-45)"/><circle class="cls-3" cx="1246.7" cy="506.38" r="87.25" transform="translate(-176.1 270.55) rotate(-14.8)"/><circle class="cls-3" cx="1158.6" cy="441.56" r="78.23"/><circle class="cls-3" cx="1158.6" cy="441.56" r="69.21"/><circle class="cls-3" cx="1158.6" cy="441.56" r="60.19"/><circle class="cls-3" cx="1158.6" cy="441.56" r="51.17"/><circle class="cls-3" cx="1158.6" cy="441.56" r="42.16"/><circle class="cls-3" cx="1158.6" cy="441.56" r="33.14"/><circle class="cls-3" cx="1158.6" cy="441.56" r="24.12"/><circle class="cls-3" cx="1158.6" cy="441.56" r="15.1"/><line class="cls-3" x1="408.59" y1="176.36" x2="408.59" y2="728.28"/><line class="cls-3" x1="417.61" y1="176.36" x2="417.61" y2="728.28"/><line class="cls-3" x1="426.62" y1="176.36" x2="426.62" y2="728.28"/><line class="cls-3" x1="435.64" y1="176.36" x2="435.64" y2="728.28"/><line class="cls-3" x1="444.66" y1="176.36" x2="444.66" y2="728.28"/><line class="cls-3" x1="453.68" y1="176.36" x2="453.68" y2="728.28"/><line class="cls-3" x1="462.7" y1="176.36" x2="462.7" y2="728.28"/><line class="cls-3" x1="471.72" y1="176.36" x2="471.72" y2="728.28"/><line class="cls-3" x1="480.73" y1="176.36" x2="480.73" y2="728.28"/><line class="cls-3" x1="489.75" y1="176.36" x2="489.75" y2="728.28"/><line class="cls-3" x1="498.77" y1="176.36" x2="498.77" y2="728.28"/><line class="cls-3" x1="507.79" y1="176.36" x2="507.79" y2="728.28"/><line class="cls-3" x1="516.81" y1="176.36" x2="516.81" y2="728.28"/><line class="cls-3" x1="525.83" y1="176.36" x2="525.83" y2="728.28"/><line class="cls-3" x1="534.84" y1="176.36" x2="534.84" y2="728.28"/><line class="cls-3" x1="543.86" y1="176.36" x2="543.86" y2="728.28"/><line class="cls-3" x1="552.88" y1="176.36" x2="552.88" y2="728.28"/><line class="cls-3" x1="561.9" y1="176.36" x2="561.9" y2="728.28"/><line class="cls-3" x1="570.92" y1="176.36" x2="570.92" y2="728.28"/><line class="cls-3" x1="579.94" y1="176.36" x2="579.94" y2="728.28"/><line class="cls-3" x1="588.96" y1="176.36" x2="588.96" y2="728.28"/><line class="cls-3" x1="597.97" y1="176.36" x2="597.97" y2="728.28"/><line class="cls-3" x1="606.99" y1="176.36" x2="606.99" y2="728.28"/><line class="cls-3" x1="616.01" y1="176.36" x2="616.01" y2="728.28"/><line class="cls-3" x1="625.03" y1="176.36" x2="625.03" y2="728.28"/><line class="cls-3" x1="634.05" y1="176.36" x2="634.05" y2="728.28"/><line class="cls-3" x1="643.07" y1="176.36" x2="643.07" y2="728.28"/><line class="cls-3" x1="652.08" y1="176.36" x2="652.08" y2="728.28"/><line class="cls-3" x1="661.1" y1="176.36" x2="661.1" y2="728.28"/><line class="cls-3" x1="670.12" y1="176.36" x2="670.12" y2="728.28"/><line class="cls-3" x1="679.14" y1="176.36" x2="679.14" y2="728.28"/><line class="cls-3" x1="688.16" y1="176.36" x2="688.16" y2="728.28"/><line class="cls-3" x1="697.18" y1="176.36" x2="697.18" y2="728.28"/><line class="cls-3" x1="706.2" y1="176.36" x2="706.2" y2="728.28"/><line class="cls-3" x1="715.21" y1="176.36" x2="715.21" y2="728.28"/><line class="cls-3" x1="724.23" y1="176.36" x2="724.23" y2="728.28"/><line class="cls-3" x1="733.25" y1="176.36" x2="733.25" y2="728.28"/><line class="cls-3" x1="742.27" y1="176.36" x2="742.27" y2="728.28"/><line class="cls-3" x1="751.29" y1="176.36" x2="751.29" y2="728.28"/><line class="cls-3" x1="760.31" y1="176.36" x2="760.31" y2="728.28"/><line class="cls-3" x1="769.32" y1="176.36" x2="769.32" y2="728.28"/><line class="cls-3" x1="778.34" y1="176.36" x2="778.34" y2="728.28"/><line class="cls-3" x1="787.36" y1="176.36" x2="787.36" y2="728.28"/><line class="cls-3" x1="796.38" y1="176.36" x2="796.38" y2="728.28"/><line class="cls-3" x1="805.4" y1="176.36" x2="805.4" y2="728.28"/><line class="cls-3" x1="814.42" y1="176.36" x2="814.42" y2="728.28"/><line class="cls-3" x1="823.43" y1="176.36" x2="823.43" y2="728.28"/><line class="cls-3" x1="832.45" y1="176.36" x2="832.45" y2="728.28"/><line class="cls-3" x1="841.47" y1="176.36" x2="841.47" y2="728.28"/><line class="cls-3" x1="850.49" y1="176.36" x2="850.49" y2="728.28"/><line class="cls-3" x1="859.51" y1="176.36" x2="859.51" y2="728.28"/><line class="cls-3" x1="868.53" y1="176.36" x2="868.53" y2="728.28"/><line class="cls-3" x1="877.55" y1="176.36" x2="877.55" y2="728.28"/><line class="cls-3" x1="886.56" y1="176.36" x2="886.56" y2="728.28"/><line class="cls-3" x1="895.58" y1="176.36" x2="895.58" y2="728.28"/><line class="cls-3" x1="904.6" y1="176.36" x2="904.6" y2="728.28"/><line class="cls-3" x1="913.62" y1="176.36" x2="913.62" y2="728.28"/><line class="cls-3" x1="922.64" y1="176.36" x2="922.64" y2="728.28"/><line class="cls-3" x1="931.66" y1="176.36" x2="931.66" y2="728.28"/><line class="cls-3" x1="940.67" y1="176.36" x2="940.67" y2="728.28"/><line class="cls-3" x1="949.69" y1="176.36" x2="949.69" y2="728.28"/><line class="cls-3" x1="958.71" y1="176.36" x2="958.71" y2="728.28"/><line class="cls-3" x1="967.73" y1="176.36" x2="967.73" y2="728.28"/><line class="cls-3" x1="976.75" y1="176.36" x2="976.75" y2="728.28"/><line class="cls-3" x1="985.77" y1="176.36" x2="985.77" y2="728.28"/><line class="cls-3" x1="994.79" y1="176.36" x2="994.79" y2="728.28"/><line class="cls-3" x1="1003.8" y1="176.36" x2="1003.8" y2="728.28"/><line class="cls-3" x1="1012.82" y1="176.36" x2="1012.82" y2="728.28"/><line class="cls-3" x1="1021.84" y1="176.36" x2="1021.84" y2="728.28"/><line class="cls-3" x1="1030.86" y1="176.36" x2="1030.86" y2="728.28"/><line class="cls-3" x1="1039.88" y1="176.36" x2="1039.88" y2="728.28"/><line class="cls-3" x1="1048.9" y1="176.36" x2="1048.9" y2="728.28"/><line class="cls-3" x1="1057.91" y1="176.36" x2="1057.91" y2="728.28"/><line class="cls-3" x1="1066.93" y1="176.36" x2="1066.93" y2="728.28"/><line class="cls-3" x1="1075.95" y1="176.36" x2="1075.95" y2="728.28"/><line class="cls-3" x1="1084.97" y1="176.36" x2="1084.97" y2="728.28"/><line class="cls-3" x1="1093.99" y1="176.36" x2="1093.99" y2="728.28"/><line class="cls-3" x1="1103.01" y1="176.36" x2="1103.01" y2="728.28"/><line class="cls-3" x1="1112.02" y1="176.36" x2="1112.02" y2="728.28"/><line class="cls-3" x1="1121.04" y1="176.36" x2="1121.04" y2="728.28"/><line class="cls-3" x1="1130.06" y1="176.36" x2="1130.06" y2="728.28"/><line class="cls-3" x1="1139.08" y1="176.36" x2="1139.08" y2="728.28"/><line class="cls-3" x1="1148.1" y1="176.36" x2="1148.1" y2="728.28"/><line class="cls-3" x1="1157.12" y1="176.36" x2="1157.12" y2="728.28"/><line class="cls-3" x1="1166.14" y1="176.36" x2="1166.14" y2="728.28"/><line class="cls-3" x1="1175.15" y1="176.36" x2="1175.15" y2="728.28"/><line class="cls-3" x1="1184.17" y1="176.36" x2="1184.17" y2="728.28"/><line class="cls-3" x1="1193.19" y1="176.36" x2="1193.19" y2="728.28"/><line class="cls-3" x1="1202.21" y1="176.36" x2="1202.21" y2="728.28"/><line class="cls-3" x1="1211.23" y1="176.36" x2="1211.23" y2="728.28"/><line class="cls-3" x1="1220.25" y1="176.36" x2="1220.25" y2="728.28"/><line class="cls-3" x1="1229.26" y1="176.36" x2="1229.26" y2="728.28"/><line class="cls-3" x1="1238.28" y1="176.36" x2="1238.28" y2="728.28"/><line class="cls-3" x1="1247.3" y1="176.36" x2="1247.3" y2="728.28"/><line class="cls-3" x1="1256.32" y1="176.36" x2="1256.32" y2="728.28"/><line class="cls-3" x1="1266.32" y1="176.36" x2="1266.32" y2="728.28"/><line class="cls-3" x1="1276.32" y1="176.36" x2="1276.32" y2="728.28"/><line class="cls-3" x1="1286.32" y1="176.36" x2="1286.32" y2="728.28"/><line class="cls-3" x1="1296.32" y1="176.36" x2="1296.32" y2="728.28"/><line class="cls-3" x1="1306.32" y1="176.36" x2="1306.32" y2="728.28"/><line class="cls-3" x1="1316.32" y1="176.36" x2="1316.32" y2="728.28"/><line class="cls-3" x1="1326.32" y1="176.36" x2="1326.32" y2="728.28"/><line class="cls-3" x1="1336.32" y1="176.36" x2="1336.32" y2="728.28"/><line class="cls-3" x1="1346.32" y1="176.36" x2="1346.32" y2="728.28"/><line class="cls-3" x1="1356.32" y1="176.36" x2="1356.32" y2="728.28"/><line class="cls-3" x1="1366.32" y1="176.36" x2="1366.32" y2="728.28"/></g></g></svg>