<svg id="Layer_1" data-name="Layer 1" xmlns="http://www.w3.org/2000/svg" xmlns:xlink="http://www.w3.org/1999/xlink" viewBox="0 0 3203.19 2370.53"><defs><style>.cls-1,.cls-3{fill:none;}.cls-2{clip-path:url(#clip-path);}.cls-3{stroke:#636466;stroke-miterlimit:10;stroke-width:0.25px;}</style><clipPath id="clip-path" transform="translate(909.46 393.17)"><rect class="cls-1" x="-3.35" y="-2.07" width="1920" height="1224"/></clipPath></defs><g class="cls-2"><path class="cls-3" d="M617.75,1097.86c-1.43.38-2.87.75-4.3,1.11A258,258,0,0,1,301.13,911.2,222.36,222.36,0,0,1,460,642.69l3-.77A192.43,192.43,0,0,1,606.2,661.84a201.06,201.06,0,0,0-17.8-12,196.35,196.35,0,0,0-149.62-22.38l-58.22,14.5L341.88,486.67l58.22-14.51A357.66,357.66,0,0,1,833.62,732.75a302.13,302.13,0,0,1-215.87,365.11Z" transform="translate(909.46 393.17)"/><path class="cls-3" d="M612.63,1078.53q-2,.53-4,1a238,238,0,0,1-288.1-173.19A202.34,202.34,0,0,1,465.09,662l2.72-.7A173.72,173.72,0,0,1,678.41,787.9c15.41,61.84-10.34,125-59.78,160a162.33,162.33,0,0,0,79.14-181.31A217.66,217.66,0,0,0,434,608l-38.82,9.67-29-116.44,38.82-9.67a337.66,337.66,0,0,1,409.27,246,282.12,282.12,0,0,1-201.58,340.95Z" transform="translate(909.46 393.17)"/><path class="cls-3" d="M607.52,1059.19c-1.22.33-2.46.64-3.69,1C487.34,1089.16,369,1018,340,901.53A182.37,182.37,0,0,1,470.2,681.36l2.46-.63A153.73,153.73,0,0,1,659,792.73c17.21,69.09-24.78,140.1-93.6,158.3l-1.84.47a112.92,112.92,0,0,1-136.7-82.18,98.3,98.3,0,0,1,18.8-85.1,102.53,102.53,0,0,0-28.09,98c18.36,73.67,93.24,118.68,166.91,100.32l2.64-.67A182.14,182.14,0,0,0,717.18,761.76,237.66,237.66,0,0,0,429.11,588.6l-19.4,4.84-19.34-77.63,19.4-4.83a317.64,317.64,0,0,1,385,231.44,262.11,262.11,0,0,1-187.28,316.77ZM517.51,828a18.31,18.31,0,0,0-13,22,32.63,32.63,0,0,0,12.37,18.45l-8.51-34.19,16.16-4.07a6.9,6.9,0,0,0-1.76-1.54,6.6,6.6,0,0,0-5-.75Z" transform="translate(909.46 393.17)"/><path class="cls-3" d="M602.41,1039.86q-1.71.45-3.42.87c-105.78,26.36-213.28-38.26-239.64-144C337.74,809.93,390.7,721.81,477.5,700.14a133.71,133.71,0,0,1,162.09,97.43,111.11,111.11,0,0,1-79.3,134.12l-1.56.4a92.89,92.89,0,0,1-112.46-67.6,78.3,78.3,0,0,1,57-94.82A66.65,66.65,0,0,1,584,818.18a57.34,57.34,0,0,1-40.92,69.21l-.8.2-9.67-38.81.24-.06a17.3,17.3,0,0,0,12.34-20.87,26.62,26.62,0,0,0-32.22-19.37l-.54.14a38.27,38.27,0,0,0-27.32,46.2,52.86,52.86,0,0,0,64,38.46l1-.26a71.06,71.06,0,0,0,50.72-85.78A93.74,93.74,0,0,0,487.17,739l-1.7.44A122.3,122.3,0,0,0,398.17,887c21,84.38,106.77,135.92,191.15,114.9a202.13,202.13,0,0,0,147.26-245A257.65,257.65,0,0,0,424.28,569.2l-9.67-38.82A297.67,297.67,0,0,1,775.4,747.25a242.13,242.13,0,0,1-173,292.61Z" transform="translate(909.46 393.17)"/><path class="cls-3" d="M419.44,549.79c148.8-37.07,299.48,53.5,336.55,202.3,29.66,119-42.8,239.58-161.84,269.24A177.71,177.71,0,0,1,378.76,891.86,142.16,142.16,0,0,1,482.34,719.54,113.74,113.74,0,0,1,620.19,802.4,91,91,0,0,1,553.9,912.68a72.77,72.77,0,0,1-88.22-53,58.22,58.22,0,0,1,42.42-70.58A46.59,46.59,0,0,1,564.56,823a37.26,37.26,0,0,1-27.15,45.17" transform="translate(909.46 393.17)"/><path class="cls-3" d="M569.86,1295.56l-32.42-149.2A298.4,298.4,0,0,1,262.32,920.87a263,263,0,0,1,81.59-260.61L293.4,457.53l97-24.18a395.08,395.08,0,0,1,301,45c72.24,43.42,127.33,106.42,160.17,182.88l146.56-31.85,118.92,547.23Z" transform="translate(909.46 393.17)"/><path class="cls-3" d="M839.39,684.39c-29.91-78.74-84.94-144.79-158.26-188.86a375.16,375.16,0,0,0-285.86-42.77L317.64,472.1,366,666.16l3.18-.79A243,243,0,0,0,281.73,916a278.29,278.29,0,0,0,271.89,210.63l31.54,145.11,508.14-110.42L982.88,653.21Z" transform="translate(909.46 393.17)"/><rect class="cls-3" x="544.02" y="722.49" width="480" height="480" transform="translate(2467.53 385.14) rotate(77.74)"/><rect class="cls-3" x="564.02" y="742.49" width="440" height="440" transform="translate(2467.53 385.14) rotate(77.74)"/><rect class="cls-3" x="584.02" y="762.49" width="400" height="400" transform="translate(2467.53 385.14) rotate(77.74)"/><rect class="cls-3" x="604.02" y="782.49" width="360" height="360" transform="translate(2467.53 385.14) rotate(77.74)"/><rect class="cls-3" x="624.02" y="802.49" width="320" height="320" transform="translate(2467.53 385.14) rotate(77.74)"/><rect class="cls-3" x="644.02" y="822.49" width="280" height="280" transform="translate(2467.53 385.14) rotate(77.74)"/><rect class="cls-3" x="664.02" y="842.49" width="240" height="240" transform="translate(2467.53 385.14) rotate(77.74)"/><rect class="cls-3" x="684.02" y="862.49" width="200" height="200" transform="translate(722.96 581.61) rotate(-12.26)"/><rect class="cls-3" x="704.02" y="882.49" width="160" height="160" transform="translate(722.95 581.62) rotate(-12.26)"/><path class="cls-3" d="M1241.79,1313.29l-794.3,172.6L403.14,1281.8a469.45,469.45,0,0,1-87.7-40.71c-104.84-63-178.84-163-208.37-281.54-27-108.36-10.5-221,46.47-317.16,4.74-8,9.81-15.94,15.12-23.7l-40.9-164.15L-562.5,236.8-551,132.51,1498.4-44.7,1505.54,360l-12.69,10.15,168.31,1107.15Z" transform="translate(909.46 393.17)"/><path class="cls-3" d="M1243.45,1292.46,462.78,1462.1l-42.52-195.69A448.71,448.71,0,0,1,325.75,1224c-100.27-60.27-171-155.88-199.28-269.24a399.71,399.71,0,0,1,44.28-302.12c6-10.18,12.57-20.2,19.52-29.89L144.46,438.84-540.83,222.66l7.89-71.64,2011.72-174,6.59,373.43-14,11.22L1636.18,1446Z" transform="translate(909.46 393.17)"/><path class="cls-3" d="M1245.1,1271.64l-767,166.67L437.3,1250.67a428,428,0,0,1-101.25-43.86c-95.68-57.51-163.22-148.76-190.17-256.93A379.81,379.81,0,0,1,188,662.78,390,390,0,0,1,212,627L161.16,423.13l-680.31-214.6,4.29-39,1974-170.69,6,342.18-15.36,12.29L1611.2,1414.8Z" transform="translate(909.46 393.17)"/><path class="cls-3" d="M1439.54,20.62-513.13,189.46l684.68,216,5.47-1.36L233.7,631.56A367.59,367.59,0,0,0,205.16,673,359.91,359.91,0,0,0,165.29,945c25.65,103,90,189.87,181.07,244.63a405.81,405.81,0,0,0,107.91,44.87l39.11,180,742.67-161.37-1.55-7.12,351.73,137.53L1428.33,344.89l16.7-13.35Z" transform="translate(909.46 393.17)"/><path class="cls-3" d="M912.84,525.16,1090,486.67l14.36,66.08,300.38-240.17L1400.3,64.16-308.88,212l481.7,152,188.6-47c134.18-33.43,273.33-12.61,391.84,58.63A521.59,521.59,0,0,1,912.84,525.16Z" transform="translate(909.46 393.17)"/><path class="cls-3" d="M1091.62,588.51l-17-78.05L904,547.55l-7.61-11A502.75,502.75,0,0,0,743,392.68C629,324.2,495.25,304.18,366.25,336.32L172.19,384.67-411,200.7,1419.92,42.39l4.94,279.67Z" transform="translate(909.46 393.17)"/><path class="cls-3" d="M921.5,502.81l183.75-39.93L1117,517l267.51-213.9-3.84-217.17L-206.75,223.19,173.46,343.13,356.58,297.5c139.36-34.72,283.9-13.09,407,60.9A543.44,543.44,0,0,1,921.5,502.81Z" transform="translate(909.46 393.17)"/><path class="cls-3" d="M929.8,480.54l190.75-41.45,9.16,42.15,234.64-187.62-3.28-185.92L-104.63,234.43,174.1,322.36,351.75,278.1c144.54-36,294.45-13.58,422.12,63.16A565.16,565.16,0,0,1,929.8,480.54Z" transform="translate(909.46 393.17)"/><path class="cls-3" d="M937.79,458.34l198.06-43,6.55,30.18,201.78-161.33-2.73-154.68L-2.5,245.68l177.24,55.91,172.17-42.9c149.73-37.3,305-14.07,437.26,65.43A587,587,0,0,1,937.79,458.34Z" transform="translate(909.46 393.17)"/><path class="cls-3" d="M945.48,436.2l205.67-44.7,3.95,18.22,168.91-135-2.18-123.43L507.55,221.65C607.82,225,706.12,253.86,794.47,307A608.57,608.57,0,0,1,945.48,436.2Z" transform="translate(909.46 393.17)"/><path class="cls-3" d="M952.9,414.12l213.54-46.41,1.36,6.25,136-108.77L1302.21,173,665.93,228a622.53,622.53,0,0,1,138.85,61.8A630.25,630.25,0,0,1,952.9,414.12Z" transform="translate(909.46 393.17)"/><path class="cls-3" d="M960.07,392.1l210.14-45.67,113.46-90.72-1.08-60.93L754.31,240.46a645.15,645.15,0,0,1,60.77,32.23A651.62,651.62,0,0,1,960.07,392.1Z" transform="translate(909.46 393.17)"/><path class="cls-3" d="M967,370.12l194.39-42.24,102.12-81.65-.52-29.68-439.29,38,1.7,1A673.37,673.37,0,0,1,967,370.12Z" transform="translate(909.46 393.17)"/><path class="cls-3" d="M973.7,348.2l178.85-38.87,88.56-70.81-358.43,31A704.18,704.18,0,0,1,973.7,348.2Z" transform="translate(909.46 393.17)"/><path class="cls-3" d="M175.37,280.82l166.71-41.54q11.69-2.91,23.41-5.35l-265.86,23Z" transform="translate(909.46 393.17)"/><path class="cls-3" d="M1207,1213.8l5.23,24L508.67,1390.72,471.14,1218a384.77,384.77,0,0,1-114.48-45.47c-86.53-52-147.6-134.52-172-232.32a340.1,340.1,0,0,1,37.68-257,346.42,346.42,0,0,1,33.16-46.71l-59.1-237.22,174.66-43.52c123.81-30.84,252.21-11.63,361.56,54.1A478.11,478.11,0,0,1,894.37,570.11l165-35.86,19.56,90L1410.3,359.32l151,993Z" transform="translate(909.46 393.17)"/><path class="cls-3" d="M1179.56,1181.58l8.91,41L524,1366.93l-36.06-166a362.93,362.93,0,0,1-121-45.59C285,1106.13,227.18,1028,204.1,935.37a320.14,320.14,0,0,1,35.48-242,325.58,325.58,0,0,1,37.88-51.63L220.67,413.81l155.25-38.68C494.55,345.58,617.58,364,722.35,427A456.54,456.54,0,0,1,884.48,592.73L1044.06,558l22.16,102,329.51-263.46,140.54,924.5Z" transform="translate(909.46 393.17)"/><path class="cls-3" d="M1152.1,1149.37l12.57,57.87-625.4,135.9-34.71-159.72a340.89,340.89,0,0,1-127.29-45.18c-77.37-46.5-132-120.26-153.76-207.7a300.3,300.3,0,0,1,33.27-227,304.64,304.64,0,0,1,42.71-56.15l-54.58-219,135.85-33.84C494.2,366.27,611.85,383.88,712,444.11A435,435,0,0,1,874.09,615.45l154.68-33.61,24.76,113.95,327.63-262,130.13,856Z" transform="translate(909.46 393.17)"/><path class="cls-3" d="M1366.6,471.08,1040.83,731.55l-27.36-125.92L863.15,638.29c-35.07-73.49-90.6-134.48-161.41-177C606.13,403.77,493.85,387,385.6,413.94L269.15,443l52.48,210.62A283.43,283.43,0,0,0,274,713.75a280.43,280.43,0,0,0-31.08,212,315.57,315.57,0,0,0,144.66,195.4,319.24,319.24,0,0,0,133.51,44.15l33.48,154.1L1140.88,1192l-16.25-74.79,361.68,141.42Z" transform="translate(909.46 393.17)"/><polygon class="cls-3" points="1693.48 1355.66 2261.5 901.5 2370.8 1620.51 1693.48 1355.66"/><polygon class="cls-3" points="1733.03 1349.65 2246.93 938.76 2345.82 1589.27 1733.03 1349.65"/><polygon class="cls-3" points="1772.57 1343.64 2232.36 976.01 2320.84 1558.03 1772.57 1343.64"/><polygon class="cls-3" points="1812.12 1337.63 2217.8 1013.26 2295.86 1526.79 1812.12 1337.63"/><polygon class="cls-3" points="1851.66 1331.62 2203.23 1050.52 2270.88 1495.54 1851.66 1331.62"/><polygon class="cls-3" points="1891.21 1325.61 2188.67 1087.77 2245.91 1464.3 1891.21 1325.61"/><polygon class="cls-3" points="1930.75 1319.6 2174.1 1125.03 2220.93 1433.06 1930.75 1319.6"/><polygon class="cls-3" points="1970.3 1313.59 2159.53 1162.28 2195.95 1401.82 1970.3 1313.59"/><polygon class="cls-3" points="2009.84 1307.57 2144.97 1199.53 2170.97 1370.58 2009.84 1307.57"/><polygon class="cls-3" points="2145.99 1339.34 2049.39 1301.56 2130.4 1236.79 2145.99 1339.34"/><path class="cls-3" d="M1215.28,1646.52l-1012.55,220-80.14-368.8c-163.07-107.52-278.71-270.85-326-460.82-28-112.53-28.47-236.68-1.47-351.76L-909.33,462.94l69-626.61L1812.31-393l6.46,366.27C1892-7.4,1964,25.6,2023.18,67A634.43,634.43,0,0,1,2272.4,424.19C2314.91,585,2293,753.46,2210.77,898.47A639.43,639.43,0,0,1,1936,1156.24l124.79,820.92Z" transform="translate(909.46 393.17)"/><path class="cls-3" d="M1216.94,1625.69,218,1842.74l-77.64-357.28C-22.14,1380.74-137.21,1220.05-184,1032.07c-28.89-116-27.71-243.14,3.08-360.34L-887.65,448.81l65.38-594,2615-226.11L1799-11.11c76.14,18.15,151.1,51.4,212.67,94.5A614.37,614.37,0,0,1,2253.07,429.3c41.16,155.75,20,318.87-59.7,459.3-63.68,112.25-162.48,202.63-279.35,255.9l121.82,801.42Z" transform="translate(909.46 393.17)"/><path class="cls-3" d="M1218.59,1604.87,233.33,1819l-75.17-345.89c-162-101.87-276.47-259.87-322.79-445.82-29.75-119.43-26.79-249.57,8.1-368.77L-866,434.67l61.78-561.32L1773.07-349.5,1779.32,5c79,16.65,156.92,50,220.92,94.81a594.35,594.35,0,0,1,233.49,334.65C2273.55,585.08,2253,742.88,2176,878.73a595.24,595.24,0,0,1-284,253.64l118.92,782.3Z" transform="translate(909.46 393.17)"/><path class="cls-3" d="M1220.25,1584,248.63,1795.16l-72.72-334.62c-161.41-99-275.34-254.32-321.13-438.14-30.63-122.92-25.69-256,13.66-377L-844.3,420.54l58.19-528.68L1753.45-327.72l6.16,349.19c81.92,14.86,162.71,48.17,229.16,94.68A574.4,574.4,0,0,1,2214.4,439.53c38.48,145.58,18.65,298.05-55.82,429.33a573.46,573.46,0,0,1-288.78,250.95l116.08,763.62Z" transform="translate(909.46 393.17)"/><path class="cls-3" d="M1221.91,1563.22l-958,208.15-70.29-323.48-1.83-1.1c-159.79-96-272.59-248.48-317.62-429.22C-157.32,891.1-150.21,755.21-106,632.46l-716.62-226,54.6-496L1733.83-305.95l6.08,344.43c84.8,12.74,168.48,45.82,237.39,94.06a554.33,554.33,0,0,1,217.76,312.1c37.14,140.49,18,287.65-53.88,414.36-65.64,115.7-169.45,203.17-293.59,247.8l113.31,745.39Z" transform="translate(909.46 393.17)"/><path class="cls-3" d="M1223.56,1542.39,279.22,1747.58l-67.91-312.51q-4.71-2.71-9.21-5.42c-155.21-93.29-264.77-241.36-308.51-416.91a645.33,645.33,0,0,1,26.62-393L-800.94,392.27l51-463.38L1714.21-284.18l6,340.2c87.65,10.27,174.23,42.93,245.62,92.9a534.34,534.34,0,0,1,209.9,300.83c35.78,135.41,17.34,277.25-51.94,399.38-66.27,116.8-171.8,203-298.48,244.16L1935.92,1821Z" transform="translate(909.46 393.17)"/><path class="cls-3" d="M1225.22,1521.56l-930.7,202.23L229,1422.09c-5.69-3.18-11.23-6.39-16.54-9.58C61.77,1322-44.56,1178.28-87,1007.9A622.81,622.81,0,0,1-52.89,607.27L-779.27,378.14-731.86-52.6,1694.6-262.41l5.93,336.56c90.47,7.4,179.94,39.43,253.83,91.16a514.3,514.3,0,0,1,202,289.55c71.3,269.78-86.82,547.16-353.44,624.38l108,710.46Z" transform="translate(909.46 393.17)"/><path class="cls-3" d="M1226.88,1500.74,309.81,1700l-63.25-291.06c-8.3-4.48-16.29-9-23.85-13.57-146-87.79-249.15-227.11-290.3-392.3A601.55,601.55,0,0,1-25.2,595L-757.59,364l43.82-398.09L1675-240.64,1680.86,93c93.27,4.09,185.62,35.26,262,88.74A494.24,494.24,0,0,1,2137.05,460c69.53,263.08-87.93,533.67-351,603.2-1.84.49-3.7,1-5.56,1.44L1886,1758.46Z" transform="translate(909.46 393.17)"/><path class="cls-3" d="M1228.53,1479.91l-903.42,196.3-61-280.58C253.3,1390,242.68,1384,233,1378.22c-141.47-85-241.34-220-281.2-380A580.87,580.87,0,0,1-2.37,594l-3.46-13.86L-735.91,349.87l40.22-365.45L1655.36-218.87l5.84,331.37a473.54,473.54,0,0,1,456.52,352.58c66.71,252.41-84.37,512-336.78,578.76-7.58,2-15.27,3.83-23,5.47l103,677.91Z" transform="translate(909.46 393.17)"/><path class="cls-3" d="M1230.19,1459.08,340.41,1652.42l-58.74-270.28c-13.37-6.72-26.48-13.92-38.35-21.06C106.42,1278.8,9.79,1148.22-28.78,993.4A560.23,560.23,0,0,1,18.86,596.52l-8-32L-714.24,335.74-677.61,2.93l2313.35-200,5.82,330a453.51,453.51,0,0,1,456.82,337.32c63.9,241.75-80.8,490.41-322.55,554.31-13.34,3.52-26.92,6.46-40.56,8.77L1836,1696Z" transform="translate(909.46 393.17)"/><path class="cls-3" d="M1231.85,1438.25,355.7,1628.63l-56.53-260.16c-15.89-7.68-31.48-16.07-45.55-24.53C121.31,1264.41,27.9,1138.2-9.37,988.56a539.65,539.65,0,0,1,49.49-389.4L27.57,548.77-692.56,321.6l33-300.16L1616.12-175.32l5.81,329.51C1830.78,135.52,2024.85,270.24,2079,475.3c61.08,231.09-77.23,468.79-308.33,529.86a438.37,438.37,0,0,1-58.23,11.24L1811,1664.73Z" transform="translate(909.46 393.17)"/><path class="cls-3" d="M1233.5,1417.43,371,1604.84l-54.38-250.23a561.45,561.45,0,0,1-52.7-27.81C136.19,1250,46,1128.18,10,983.73A519.16,519.16,0,0,1,61.43,602L44.27,533.06-670.89,307.47-641.44,40,1596.5-153.55l5.82,330.13C1808,147.43,2006,277.09,2059.71,480.41,2118,700.84,1986,927.57,1765.6,985.83a416.14,416.14,0,0,1-76.06,12.73l96.51,634.93Z" transform="translate(909.46 393.17)"/><path class="cls-3" d="M1235.16,1396.6,386.3,1581.05,334,1340.53a544.89,544.89,0,0,1-59.8-30.87c-123.16-74-210.09-191.5-244.79-330.77-31.81-127.67-12.86-260.33,53.34-374L61,517.36l-710.18-224,25.85-234.87L1576.88-131.78l5.86,332c202.2-40.6,404.25,83.3,457.63,285.3,55.44,209.77-70.11,425.53-279.88,481a393,393,0,0,1-94.07,13.09l94.65,622.67Z" transform="translate(909.46 393.17)"/><path class="cls-3" d="M1236.82,1375.77,401.59,1557.26l-50.2-231a528.19,528.19,0,0,1-66.86-33.71C166,1221.24,82.25,1108.14,48.85,974.06,18,850.29,36.86,721.64,101.92,611.81l2.25-3.77L77.67,501.65-627.53,279.2-605.27,77,1557.26-110l5.92,335.34,1.33-.35c199.11-52.63,403.9,66.54,456.53,265.65s-66.55,403.9-265.66,456.53a371.22,371.22,0,0,1-112.28,12.08l93,611.77Z" transform="translate(909.46 393.17)"/><path class="cls-3" d="M1238.47,1354.94,416.89,1533.47,368.7,1311.69a508.18,508.18,0,0,1-73.86-36.31c-114-68.53-194.47-177.26-226.59-306.16C38.7,850.59,56.76,727.28,119.13,622q3.14-5.31,6.49-10.63L94.36,486-605.86,265.07l18.67-169.58L1537.64-88.24l6,340.5q12.86-4.47,26-7.95c188.45-49.8,382.28,63,432.08,251.43s-63,382.27-251.43,432.08a349.45,349.45,0,0,1-130.74,9.43l91.59,602.51Z" transform="translate(909.46 393.17)"/><path class="cls-3" d="M1574.73,263.65a333.87,333.87,0,0,0-50.57,17.82L1518-66.47-569.11,114l-15.07,136.93L111.06,470.25l36.05,144.67c-3.74,5.71-7.35,11.5-10.78,17.28-59.66,100.72-77,218.69-48.67,332.19,30.82,123.72,108.06,228.07,217.48,293.84A488.37,488.37,0,0,0,386,1296.89l46.24,212.79,807.94-175.56,446,174.4-90.49-595.26a331.45,331.45,0,0,0,149.51-4.78c177.78-47,284.19-229.85,237.2-407.63S1752.51,216.66,1574.73,263.65Z" transform="translate(909.46 393.17)"/><circle class="cls-3" cx="1659.95" cy="586.07" r="313.49" transform="translate(981.24 1738.59) rotate(-45)"/><circle class="cls-3" cx="1659.95" cy="586.07" r="293.49" transform="translate(981.24 1738.59) rotate(-45)"/><circle class="cls-3" cx="1659.95" cy="586.07" r="273.49" transform="translate(981.24 1738.59) rotate(-45)"/><circle class="cls-3" cx="1659.95" cy="586.07" r="253.49" transform="translate(981.24 1738.59) rotate(-45)"/><circle class="cls-3" cx="1659.95" cy="586.07" r="233.49" transform="translate(981.24 1738.59) rotate(-45)"/><circle class="cls-3" cx="1659.95" cy="586.07" r="213.49" transform="translate(981.24 1738.59) rotate(-45)"/><circle class="cls-3" cx="1659.95" cy="586.07" r="193.49" transform="translate(981.24 1738.59) rotate(-45)"/><circle class="cls-3" cx="2569.41" cy="979.24" r="173.49"/><circle class="cls-3" cx="2569.41" cy="979.24" r="153.49"/><circle class="cls-3" cx="2569.41" cy="979.24" r="133.49"/><circle class="cls-3" cx="2569.41" cy="979.24" r="113.49"/><circle class="cls-3" cx="2569.41" cy="979.24" r="93.49"/><circle class="cls-3" cx="2569.41" cy="979.24" r="73.49"/><circle class="cls-3" cx="2569.41" cy="979.24" r="53.49"/><circle class="cls-3" cx="2569.41" cy="979.24" r="33.49"/><line class="cls-3" x1="906.11" y1="391.1" x2="906.11" y2="1615.1"/><line class="cls-3" x1="926.11" y1="391.1" x2="926.11" y2="1615.1"/><line class="cls-3" x1="946.11" y1="391.1" x2="946.11" y2="1615.1"/><line class="cls-3" x1="966.11" y1="391.1" x2="966.11" y2="1615.1"/><line class="cls-3" x1="986.11" y1="391.1" x2="986.11" y2="1615.1"/><line class="cls-3" x1="1006.11" y1="391.1" x2="1006.11" y2="1615.1"/><line class="cls-3" x1="1026.11" y1="391.1" x2="1026.11" y2="1615.1"/><line class="cls-3" x1="1046.11" y1="391.1" x2="1046.11" y2="1615.1"/><line class="cls-3" x1="1066.11" y1="391.1" x2="1066.11" y2="1615.1"/><line class="cls-3" x1="1086.11" y1="391.1" x2="1086.11" y2="1615.1"/><line class="cls-3" x1="1106.11" y1="391.1" x2="1106.11" y2="1615.1"/><line class="cls-3" x1="1126.11" y1="391.1" x2="1126.11" y2="1615.1"/><line class="cls-3" x1="1146.11" y1="391.1" x2="1146.11" y2="1615.1"/><line class="cls-3" x1="1166.11" y1="391.1" x2="1166.11" y2="1615.1"/><line class="cls-3" x1="1186.11" y1="391.1" x2="1186.11" y2="1615.1"/><line class="cls-3" x1="1206.11" y1="391.1" x2="1206.11" y2="1615.1"/><line class="cls-3" x1="1226.11" y1="391.1" x2="1226.11" y2="1615.1"/><line class="cls-3" x1="1246.11" y1="391.1" x2="1246.11" y2="1615.1"/><line class="cls-3" x1="1266.11" y1="391.1" x2="1266.11" y2="1615.1"/><line class="cls-3" x1="1286.11" y1="391.1" x2="1286.11" y2="1615.1"/><line class="cls-3" x1="1306.11" y1="391.1" x2="1306.11" y2="1615.1"/><line class="cls-3" x1="1326.11" y1="391.1" x2="1326.11" y2="1615.1"/><line class="cls-3" x1="1346.11" y1="391.1" x2="1346.11" y2="1615.1"/><line class="cls-3" x1="1366.11" y1="391.1" x2="1366.11" y2="1615.1"/><line class="cls-3" x1="1386.11" y1="391.1" x2="1386.11" y2="1615.1"/><line class="cls-3" x1="1406.11" y1="391.1" x2="1406.11" y2="1615.1"/><line class="cls-3" x1="1426.11" y1="391.1" x2="1426.11" y2="1615.1"/><line class="cls-3" x1="1446.11" y1="391.1" x2="1446.11" y2="1615.1"/><line class="cls-3" x1="1466.11" y1="391.1" x2="1466.11" y2="1615.1"/><line class="cls-3" x1="1486.11" y1="391.1" x2="1486.11" y2="1615.1"/><line class="cls-3" x1="1506.11" y1="391.1" x2="1506.11" y2="1615.1"/><line class="cls-3" x1="1526.11" y1="391.1" x2="1526.11" y2="1615.1"/><line class="cls-3" x1="1546.11" y1="391.1" x2="1546.11" y2="1615.1"/><line class="cls-3" x1="1566.11" y1="391.1" x2="1566.11" y2="1615.1"/><line class="cls-3" x1="1586.11" y1="391.1" x2="1586.11" y2="1615.1"/><line class="cls-3" x1="1606.11" y1="391.1" x2="1606.11" y2="1615.1"/><line class="cls-3" x1="1626.11" y1="391.1" x2="1626.11" y2="1615.1"/><line class="cls-3" x1="1646.11" y1="391.1" x2="1646.11" y2="1615.1"/><line class="cls-3" x1="1666.11" y1="391.1" x2="1666.11" y2="1615.1"/><line class="cls-3" x1="1686.11" y1="391.1" x2="1686.11" y2="1615.1"/><line class="cls-3" x1="1706.11" y1="391.1" x2="1706.11" y2="1615.1"/><line class="cls-3" x1="1726.11" y1="391.1" x2="1726.11" y2="1615.1"/><line class="cls-3" x1="1746.11" y1="391.1" x2="1746.11" y2="1615.1"/><line class="cls-3" x1="1766.11" y1="391.1" x2="1766.11" y2="1615.1"/><line class="cls-3" x1="1786.11" y1="391.1" x2="1786.11" y2="1615.1"/><line class="cls-3" x1="1806.11" y1="391.1" x2="1806.11" y2="1615.1"/><line class="cls-3" x1="1826.11" y1="391.1" x2="1826.11" y2="1615.1"/><line class="cls-3" x1="1846.11" y1="391.1" x2="1846.11" y2="1615.1"/><line class="cls-3" x1="1866.11" y1="391.1" x2="1866.11" y2="1615.1"/><line class="cls-3" x1="1886.11" y1="391.1" x2="1886.11" y2="1615.1"/><line class="cls-3" x1="1906.11" y1="391.1" x2="1906.11" y2="1615.1"/><line class="cls-3" x1="1926.11" y1="391.1" x2="1926.11" y2="1615.1"/><line class="cls-3" x1="1946.11" y1="391.1" x2="1946.11" y2="1615.1"/><line class="cls-3" x1="1966.11" y1="391.1" x2="1966.11" y2="1615.1"/><line class="cls-3" x1="1986.11" y1="391.1" x2="1986.11" y2="1615.1"/><line class="cls-3" x1="2006.11" y1="391.1" x2="2006.11" y2="1615.1"/><line class="cls-3" x1="2026.11" y1="391.1" x2="2026.11" y2="1615.1"/><line class="cls-3" x1="2046.11" y1="391.1" x2="2046.11" y2="1615.1"/><line class="cls-3" x1="2066.11" y1="391.1" x2="2066.11" y2="1615.1"/><line class="cls-3" x1="2086.11" y1="391.1" x2="2086.11" y2="1615.1"/><line class="cls-3" x1="2106.11" y1="391.1" x2="2106.11" y2="1615.1"/><line class="cls-3" x1="2126.11" y1="391.1" x2="2126.11" y2="1615.1"/><line class="cls-3" x1="2146.11" y1="391.1" x2="2146.11" y2="1615.1"/><line class="cls-3" x1="2166.11" y1="391.1" x2="2166.11" y2="1615.1"/><line class="cls-3" x1="2186.11" y1="391.1" x2="2186.11" y2="1615.1"/><line class="cls-3" x1="2206.11" y1="391.1" x2="2206.11" y2="1615.1"/><line class="cls-3" x1="2226.11" y1="391.1" x2="2226.11" y2="1615.1"/><line class="cls-3" x1="2246.11" y1="391.1" x2="2246.11" y2="1615.1"/><line class="cls-3" x1="2266.11" y1="391.1" x2="2266.11" y2="1615.1"/><line class="cls-3" x1="2286.11" y1="391.1" x2="2286.11" y2="1615.1"/><line class="cls-3" x1="2306.11" y1="391.1" x2="2306.11" y2="1615.1"/><line class="cls-3" x1="2326.11" y1="391.1" x2="2326.11" y2="1615.1"/><line class="cls-3" x1="2346.11" y1="391.1" x2="2346.11" y2="1615.1"/><line class="cls-3" x1="2366.11" y1="391.1" x2="2366.11" y2="1615.1"/><line class="cls-3" x1="2386.11" y1="391.1" x2="2386.11" y2="1615.1"/><line class="cls-3" x1="2406.11" y1="391.1" x2="2406.11" y2="1615.1"/><line class="cls-3" x1="2426.11" y1="391.1" x2="2426.11" y2="1615.1"/><line class="cls-3" x1="2446.11" y1="391.1" x2="2446.11" y2="1615.1"/><line class="cls-3" x1="2466.11" y1="391.1" x2="2466.11" y2="1615.1"/><line class="cls-3" x1="2486.11" y1="391.1" x2="2486.11" y2="1615.1"/><line class="cls-3" x1="2506.11" y1="391.1" x2="2506.11" y2="1615.1"/><line class="cls-3" x1="2526.11" y1="391.1" x2="2526.11" y2="1615.1"/><line class="cls-3" x1="2546.11" y1="391.1" x2="2546.11" y2="1615.1"/><line class="cls-3" x1="2566.11" y1="391.1" x2="2566.11" y2="1615.1"/><line class="cls-3" x1="2586.11" y1="391.1" x2="2586.11" y2="1615.1"/><line class="cls-3" x1="2606.11" y1="391.1" x2="2606.11" y2="1615.1"/><line class="cls-3" x1="2626.11" y1="391.1" x2="2626.11" y2="1615.1"/><line class="cls-3" x1="2646.11" y1="391.1" x2="2646.11" y2="1615.1"/><line class="cls-3" x1="2666.11" y1="391.1" x2="2666.11" y2="1615.1"/><line class="cls-3" x1="2686.11" y1="391.1" x2="2686.11" y2="1615.1"/><line class="cls-3" x1="2706.11" y1="391.1" x2="2706.11" y2="1615.1"/><line class="cls-3" x1="2726.11" y1="391.1" x2="2726.11" y2="1615.1"/><line class="cls-3" x1="2746.11" y1="391.1" x2="2746.11" y2="1615.1"/><line class="cls-3" x1="2766.11" y1="391.1" x2="2766.11" y2="1615.1"/><line class="cls-3" x1="2786.11" y1="391.1" x2="2786.11" y2="1615.1"/><line class="cls-3" x1="2806.11" y1="391.1" x2="2806.11" y2="1615.1"/></g></svg>