<svg id="Layer_1" data-name="Layer 1" xmlns="http://www.w3.org/2000/svg" viewBox="0 0 960.11 554.38"><defs><style>.cls-1{fill:none;stroke:#4d4d4f;stroke-miterlimit:10;stroke-width:0.11px;}</style></defs><line class="cls-1" x1="0.06" y1="0.22" x2="0.06" y2="553.45"/><line class="cls-1" x1="9.1" y1="0.22" x2="9.1" y2="553.45"/><line class="cls-1" x1="18.14" y1="0.22" x2="18.14" y2="553.45"/><line class="cls-1" x1="27.18" y1="0.22" x2="27.18" y2="553.45"/><line class="cls-1" x1="36.22" y1="0.22" x2="36.22" y2="553.45"/><line class="cls-1" x1="45.26" y1="0.22" x2="45.26" y2="553.45"/><line class="cls-1" x1="54.3" y1="0.22" x2="54.3" y2="553.45"/><line class="cls-1" x1="63.33" y1="0.22" x2="63.33" y2="553.45"/><line class="cls-1" x1="72.37" y1="0.22" x2="72.37" y2="553.45"/><line class="cls-1" x1="81.41" y1="0.22" x2="81.41" y2="553.45"/><line class="cls-1" x1="90.45" y1="0.22" x2="90.45" y2="553.45"/><line class="cls-1" x1="99.49" y1="0.22" x2="99.49" y2="553.45"/><line class="cls-1" x1="108.53" y1="0.22" x2="108.53" y2="553.45"/><line class="cls-1" x1="117.57" y1="0.22" x2="117.57" y2="553.45"/><line class="cls-1" x1="126.61" y1="0.22" x2="126.61" y2="553.45"/><line class="cls-1" x1="135.65" y1="0.22" x2="135.65" y2="553.45"/><line class="cls-1" x1="144.69" y1="0.22" x2="144.69" y2="553.45"/><line class="cls-1" x1="153.73" y1="0.22" x2="153.73" y2="553.45"/><line class="cls-1" x1="162.77" y1="0.22" x2="162.77" y2="553.45"/><line class="cls-1" x1="171.81" y1="0.22" x2="171.81" y2="553.45"/><line class="cls-1" x1="180.85" y1="0.22" x2="180.85" y2="553.45"/><line class="cls-1" x1="189.89" y1="0.22" x2="189.89" y2="553.45"/><line class="cls-1" x1="198.93" y1="0.22" x2="198.93" y2="553.45"/><line class="cls-1" x1="207.97" y1="0.22" x2="207.97" y2="553.45"/><line class="cls-1" x1="217.01" y1="0.22" x2="217.01" y2="553.45"/><line class="cls-1" x1="226.05" y1="0.22" x2="226.05" y2="553.45"/><line class="cls-1" x1="235.09" y1="0.22" x2="235.09" y2="553.45"/><line class="cls-1" x1="244.13" y1="0.22" x2="244.13" y2="553.45"/><line class="cls-1" x1="253.17" y1="0.22" x2="253.17" y2="553.45"/><line class="cls-1" x1="262.21" y1="0.22" x2="262.21" y2="553.45"/><line class="cls-1" x1="271.25" y1="0.22" x2="271.25" y2="553.45"/><line class="cls-1" x1="280.29" y1="0.22" x2="280.29" y2="553.45"/><line class="cls-1" x1="289.33" y1="0.22" x2="289.33" y2="553.45"/><line class="cls-1" x1="298.37" y1="0.22" x2="298.37" y2="553.45"/><line class="cls-1" x1="307.41" y1="0.22" x2="307.41" y2="553.45"/><line class="cls-1" x1="316.45" y1="0.22" x2="316.45" y2="553.45"/><line class="cls-1" x1="325.49" y1="0.22" x2="325.49" y2="553.45"/><line class="cls-1" x1="334.53" y1="0.22" x2="334.53" y2="553.45"/><line class="cls-1" x1="343.57" y1="0.22" x2="343.57" y2="553.45"/><line class="cls-1" x1="352.61" y1="0.22" x2="352.61" y2="553.45"/><line class="cls-1" x1="361.65" y1="0.22" x2="361.65" y2="553.45"/><line class="cls-1" x1="370.69" y1="0.22" x2="370.69" y2="553.45"/><line class="cls-1" x1="379.73" y1="0.22" x2="379.73" y2="553.45"/><line class="cls-1" x1="388.77" y1="0.22" x2="388.77" y2="553.45"/><line class="cls-1" x1="397.81" y1="0.22" x2="397.81" y2="553.45"/><line class="cls-1" x1="406.85" y1="0.22" x2="406.85" y2="553.45"/><line class="cls-1" x1="415.89" y1="0.22" x2="415.89" y2="553.45"/><line class="cls-1" x1="424.93" y1="0.22" x2="424.93" y2="553.45"/><line class="cls-1" x1="433.97" y1="0.22" x2="433.97" y2="553.45"/><line class="cls-1" x1="443.01" y1="0.22" x2="443.01" y2="553.45"/><line class="cls-1" x1="452.05" y1="0.22" x2="452.05" y2="553.45"/><line class="cls-1" x1="461.09" y1="0.22" x2="461.09" y2="553.45"/><line class="cls-1" x1="470.13" y1="0.22" x2="470.13" y2="553.45"/><line class="cls-1" x1="479.17" y1="0.22" x2="479.17" y2="553.45"/><line class="cls-1" x1="488.2" y1="0.22" x2="488.2" y2="553.45"/><line class="cls-1" x1="497.24" y1="0.22" x2="497.24" y2="553.45"/><line class="cls-1" x1="506.28" y1="0.22" x2="506.28" y2="553.45"/><line class="cls-1" x1="515.32" y1="0.22" x2="515.32" y2="553.45"/><line class="cls-1" x1="524.36" y1="0.22" x2="524.36" y2="553.45"/><line class="cls-1" x1="533.4" y1="0.22" x2="533.4" y2="553.45"/><line class="cls-1" x1="542.44" y1="0.22" x2="542.44" y2="553.45"/><line class="cls-1" x1="551.48" y1="0.22" x2="551.48" y2="553.45"/><line class="cls-1" x1="560.52" y1="0.22" x2="560.52" y2="553.45"/><line class="cls-1" x1="569.56" y1="0.22" x2="569.56" y2="553.45"/><line class="cls-1" x1="578.6" y1="0.22" x2="578.6" y2="553.45"/><line class="cls-1" x1="587.64" y1="0.22" x2="587.64" y2="553.45"/><line class="cls-1" x1="596.68" y1="0.22" x2="596.68" y2="553.45"/><line class="cls-1" x1="605.72" y1="0.22" x2="605.72" y2="553.45"/><line class="cls-1" x1="614.76" y1="0.22" x2="614.76" y2="553.45"/><line class="cls-1" x1="623.8" y1="0.22" x2="623.8" y2="553.45"/><line class="cls-1" x1="632.84" y1="0.22" x2="632.84" y2="553.45"/><line class="cls-1" x1="641.88" y1="0.22" x2="641.88" y2="553.45"/><line class="cls-1" x1="650.92" y1="0.22" x2="650.92" y2="553.45"/><line class="cls-1" x1="659.96" y1="0.22" x2="659.96" y2="553.45"/><line class="cls-1" x1="669" y1="0.22" x2="669" y2="553.45"/><line class="cls-1" x1="678.04" y1="0.22" x2="678.04" y2="553.45"/><line class="cls-1" x1="687.08" y1="0.22" x2="687.08" y2="553.45"/><line class="cls-1" x1="696.12" y1="0.22" x2="696.12" y2="553.45"/><line class="cls-1" x1="705.16" y1="0.22" x2="705.16" y2="553.45"/><line class="cls-1" x1="714.2" y1="0.22" x2="714.2" y2="553.45"/><line class="cls-1" x1="723.24" y1="0.22" x2="723.24" y2="553.45"/><line class="cls-1" x1="732.28" y1="0.22" x2="732.28" y2="553.45"/><line class="cls-1" x1="741.32" y1="0.22" x2="741.32" y2="553.45"/><line class="cls-1" x1="750.36" y1="0.22" x2="750.36" y2="553.45"/><line class="cls-1" x1="759.4" y1="0.22" x2="759.4" y2="553.45"/><line class="cls-1" x1="768.44" y1="0.22" x2="768.44" y2="553.45"/><line class="cls-1" x1="777.48" y1="0.22" x2="777.48" y2="553.45"/><line class="cls-1" x1="786.52" y1="0.22" x2="786.52" y2="553.45"/><line class="cls-1" x1="795.56" y1="0.22" x2="795.56" y2="553.45"/><line class="cls-1" x1="804.6" y1="0.22" x2="804.6" y2="553.45"/><line class="cls-1" x1="813.64" y1="0.22" x2="813.64" y2="553.45"/><line class="cls-1" x1="822.68" y1="0.22" x2="822.68" y2="553.45"/><line class="cls-1" x1="831.72" y1="0.22" x2="831.72" y2="553.45"/><line class="cls-1" x1="840.76" y1="0.22" x2="840.76" y2="553.45"/><line class="cls-1" x1="849.8" y1="0.22" x2="849.8" y2="553.45"/><line class="cls-1" x1="859.82" y1="0.22" x2="859.82" y2="553.45"/><line class="cls-1" x1="869.84" y1="0.22" x2="869.84" y2="553.45"/><line class="cls-1" x1="879.87" y1="0.22" x2="879.87" y2="553.45"/><line class="cls-1" x1="889.89" y1="0.22" x2="889.89" y2="553.45"/><line class="cls-1" x1="899.91" y1="0.22" x2="899.91" y2="553.45"/><line class="cls-1" x1="909.94" y1="0.22" x2="909.94" y2="553.45"/><line class="cls-1" x1="919.96" y1="0.22" x2="919.96" y2="553.45"/><line class="cls-1" x1="929.99" y1="0.22" x2="929.99" y2="553.45"/><line class="cls-1" x1="940.01" y1="0.22" x2="940.01" y2="553.45"/><line class="cls-1" x1="950.03" y1="0.22" x2="950.03" y2="553.45"/><line class="cls-1" x1="960.06" y1="0.22" x2="960.06" y2="553.45"/><path class="cls-1" d="M0,303.56v14.1c1-4.39,2-8.77,3.14-13.11Z" transform="translate(0.06 0.06)"/><path class="cls-1" d="M0,459.94V494a351.41,351.41,0,0,0,25.65,59.4H36a343.91,343.91,0,0,1-34.23-86C1.13,464.94.56,462.44,0,459.94Z" transform="translate(0.06 0.06)"/><path class="cls-1" d="M960,8.38Q950.58,3.88,940.79,0H913.25A294.68,294.68,0,0,1,960,18.41Z" transform="translate(0.06 0.06)"/><path class="cls-1" d="M960,513.46q-4.92,2.49-10,4.78l5.35,35.17H960V513.46Z" transform="translate(0.06 0.06)"/><path class="cls-1" d="M960,513.46V503.29q-9.75,5.13-19.93,9.47l6.18,40.65h9.15l-5.35-35.17Q955.08,515.95,960,513.46Z" transform="translate(0.06 0.06)"/><path class="cls-1" d="M960,28.51V18.41A294.68,294.68,0,0,0,913.25,0H889.11l.06,3.18A281.16,281.16,0,0,1,960,28.51Z" transform="translate(0.06 0.06)"/><path class="cls-1" d="M14.19,298.56,0,294.08v9.48l3.14,1C2,308.89,1,313.27,0,317.66V459.94c.56,2.5,1.13,5,1.75,7.48a343.91,343.91,0,0,0,34.23,86H46.37a334.33,334.33,0,0,1-35.85-88.17C-2.92,411.26-1.58,352.43,14.19,298.56Z" transform="translate(0.06 0.06)"/><path class="cls-1" d="M960,503.29V493a257.51,257.51,0,0,1-29.93,14l7,46.33h9.14l-6.18-40.65Q950.26,508.43,960,503.29Z" transform="translate(0.06 0.06)"/><path class="cls-1" d="M960,38.72V28.51A281.16,281.16,0,0,0,889.17,3.18L889.11,0h-9l.19,10.64A270,270,0,0,1,960,38.72Z" transform="translate(0.06 0.06)"/><path class="cls-1" d="M25.47,292.64,0,284.6v9.48l14.19,4.48c-15.77,53.87-17.11,112.7-3.67,166.68a334.33,334.33,0,0,0,35.85,88.17H56.9a325,325,0,0,1-37.6-90.36A312.18,312.18,0,0,1,25.47,292.64Z" transform="translate(0.06 0.06)"/><path class="cls-1" d="M37,286.8,0,275.12v9.48l25.47,8A312.18,312.18,0,0,0,19.3,463.05a325,325,0,0,0,37.6,90.36H67.51a315.67,315.67,0,0,1-39.44-92.54A301.91,301.91,0,0,1,37,286.8Z" transform="translate(0.06 0.06)"/><path class="cls-1" d="M960,493V482.69a249.79,249.79,0,0,1-40,18.51L928,553.41h9.15l-7-46.33A257.51,257.51,0,0,0,960,493Z" transform="translate(0.06 0.06)"/><path class="cls-1" d="M960,49.06V38.72a270,270,0,0,0-79.74-28.08L880.07,0h-9l.33,18.33A258.23,258.23,0,0,1,960,49.06Z" transform="translate(0.06 0.06)"/><path class="cls-1" d="M960,482.69V472.23a240.8,240.8,0,0,1-50,22.86l8.86,58.32H928L920,501.2A249.79,249.79,0,0,0,960,482.69Z" transform="translate(0.06 0.06)"/><path class="cls-1" d="M960,59.52V49.06a258.23,258.23,0,0,0-88.64-30.73L871,0h-9l.46,26.26A247,247,0,0,1,960,59.52Z" transform="translate(0.06 0.06)"/><path class="cls-1" d="M48.87,281.06,0,265.64v9.48L37,286.8a301.91,301.91,0,0,0-9,174.07,315.67,315.67,0,0,0,39.44,92.54H78.29a306.23,306.23,0,0,1-41.45-94.73A291.7,291.7,0,0,1,48.87,281.06Z" transform="translate(0.06 0.06)"/><path class="cls-1" d="M960,70.14V59.52a247,247,0,0,0-97.55-33.26L862,0h-9l.61,34.45A236.24,236.24,0,0,1,960,70.14Z" transform="translate(0.06 0.06)"/><path class="cls-1" d="M960,472.23V461.52a230.86,230.86,0,0,1-60.15,27.22l9.83,64.67h9.14L910,495.09A240.8,240.8,0,0,0,960,472.23Z" transform="translate(0.06 0.06)"/><path class="cls-1" d="M61,275.42,0,256.17v9.47l48.87,15.42a291.7,291.7,0,0,0-12,177.62,306.23,306.23,0,0,0,41.45,94.73H89.21a297,297,0,0,1-43.6-96.91A281.56,281.56,0,0,1,61,275.42Z" transform="translate(0.06 0.06)"/><path class="cls-1" d="M73.55,269.89,0,246.69v9.48l61,19.25A281.56,281.56,0,0,0,45.61,456.5a297,297,0,0,0,43.6,96.91h11.07a287.8,287.8,0,0,1-45.9-99.1A271.92,271.92,0,0,1,73.55,269.89Z" transform="translate(0.06 0.06)"/><path class="cls-1" d="M960,461.52V450.71a222.06,222.06,0,0,1-67.79,30.77l-2.51.65,10.83,71.28h9.15l-9.83-64.67A230.86,230.86,0,0,0,960,461.52Z" transform="translate(0.06 0.06)"/><path class="cls-1" d="M960,80.93V70.14A236.24,236.24,0,0,0,853.56,34.45L853,0h-9l.76,43A225.48,225.48,0,0,1,960,80.93Z" transform="translate(0.06 0.06)"/><path class="cls-1" d="M957.92,90.47c.7.49,1.39,1,2.08,1.49v-11A225.48,225.48,0,0,0,844.67,43L843.91,0h-9l.91,51.78A215.16,215.16,0,0,1,957.92,90.47Z" transform="translate(0.06 0.06)"/><path class="cls-1" d="M892.21,481.48A222.06,222.06,0,0,0,960,450.71v-11a213.1,213.1,0,0,1-70.1,33.05q-5.14,1.35-10.4,2.47l11.89,78.2h9.14L889.7,482.13Z" transform="translate(0.06 0.06)"/><path class="cls-1" d="M83.86,269.44l-1.56-6.27L0,237.21v9.48l73.55,23.2A271.92,271.92,0,0,0,54.38,454.31a287.8,287.8,0,0,0,45.9,99.1h11.25A278.19,278.19,0,0,1,63.16,452.13,262.54,262.54,0,0,1,83.86,269.44Z" transform="translate(0.06 0.06)"/><path class="cls-1" d="M952.73,97.87q3.71,2.59,7.27,5.33V92c-.69-.5-1.38-1-2.08-1.49A215.16,215.16,0,0,0,835.78,51.78L834.87,0h-9l1.07,61A205,205,0,0,1,952.73,97.87Z" transform="translate(0.06 0.06)"/><path class="cls-1" d="M889.9,472.74A213.1,213.1,0,0,0,960,439.69V428.43A203.8,203.8,0,0,1,887.59,464c-6,1.59-12.16,2.92-18.33,4l13,85.45h9.14l-11.89-78.2Q884.75,474.1,889.9,472.74Z" transform="translate(0.06 0.06)"/><path class="cls-1" d="M93.46,270.56l-3.61-14.49L0,227.73v9.48l82.3,26,1.56,6.27a262.54,262.54,0,0,0-20.7,182.69,278.19,278.19,0,0,0,48.37,101.28H123A269,269,0,0,1,71.93,449.94,253.18,253.18,0,0,1,93.46,270.56Z" transform="translate(0.06 0.06)"/><path class="cls-1" d="M103.07,271.75,97.4,249,0,218.25v9.48l89.85,28.34,3.61,14.49A253.18,253.18,0,0,0,71.93,449.94,269,269,0,0,0,123,553.41h11.72a259.74,259.74,0,0,1-54-105.65A243.92,243.92,0,0,1,103.07,271.75Z" transform="translate(0.06 0.06)"/><path class="cls-1" d="M887.59,464A203.8,203.8,0,0,0,960,428.43V416.86a194.77,194.77,0,0,1-74.72,38.4A197.17,197.17,0,0,1,859,460.34l14.14,93.07h9.15l-13-85.45C875.43,466.92,881.56,465.59,887.59,464Z" transform="translate(0.06 0.06)"/><path class="cls-1" d="M960,114.76V103.2q-3.57-2.74-7.27-5.33A205,205,0,0,0,826.9,61L825.83,0h-9.05L818,70.63A195.46,195.46,0,0,1,960,114.76Z" transform="translate(0.06 0.06)"/><polygon class="cls-1" points="0.06 0.06 0.06 1.33 14.74 0.06 0.06 0.06"/><path class="cls-1" d="M960,126.78v-12A195.46,195.46,0,0,0,818,70.63L816.78,0h-9l1.43,80.75A186.82,186.82,0,0,1,960,126.78Z" transform="translate(0.06 0.06)"/><path class="cls-1" d="M885.28,455.26A194.77,194.77,0,0,0,960,416.86V404.93a185.78,185.78,0,0,1-77,41.59,187.9,187.9,0,0,1-34.38,5.75L864,553.41h9.14L859,460.34A197.17,197.17,0,0,0,885.28,455.26Z" transform="translate(0.06 0.06)"/><path class="cls-1" d="M112.7,273l-7.76-31.13L0,208.77v9.48L97.4,249l5.67,22.78a243.92,243.92,0,0,0-22.37,176,259.74,259.74,0,0,0,54,105.65h12A250.54,250.54,0,0,1,89.47,445.57,234.63,234.63,0,0,1,112.7,273Z" transform="translate(0.06 0.06)"/><polygon class="cls-1" points="14.74 0.06 0.06 1.33 0.06 10.4 119.68 0.06 14.74 0.06"/><path class="cls-1" d="M122.35,274.35l-9.86-39.57L0,199.29v9.48l104.94,33.11L112.7,273A234.63,234.63,0,0,0,89.47,445.57a250.54,250.54,0,0,0,57.25,107.84h12.4a241.52,241.52,0,0,1-60.88-110A225.54,225.54,0,0,1,122.35,274.35Z" transform="translate(0.06 0.06)"/><path class="cls-1" d="M883,446.52a185.78,185.78,0,0,0,77-41.59V392.51a178,178,0,0,1-121.86,51.18l16.68,109.72H864L848.59,452.27A187.9,187.9,0,0,0,883,446.52Z" transform="translate(0.06 0.06)"/><path class="cls-1" d="M960,139.17V126.78a186.82,186.82,0,0,0-150.83-46L807.74,0h-9l1.62,91.43A178,178,0,0,1,960,139.17Z" transform="translate(0.06 0.06)"/><polygon class="cls-1" points="119.68 0.06 0.06 10.4 0.06 19.47 224.62 0.06 119.68 0.06"/><path class="cls-1" d="M792.08,102.62A169,169,0,0,1,960,152.19v-13A178,178,0,0,0,800.32,91.43L798.7,0h-9l1.81,102.78Z" transform="translate(0.06 0.06)"/><path class="cls-1" d="M880.66,437.78A176.72,176.72,0,0,0,960,392.51V379.44A168.78,168.78,0,0,1,827.6,434.5l18.07,118.91h9.15L838.14,443.69A177.47,177.47,0,0,0,880.66,437.78Z" transform="translate(0.06 0.06)"/><path class="cls-1" d="M107,441.2a216.63,216.63,0,0,1,24-163.73l1-1.7-12-48.09L0,189.81v9.48l112.49,35.49,9.86,39.57a225.54,225.54,0,0,0-24.11,169,241.52,241.52,0,0,0,60.88,110h12.81A232.31,232.31,0,0,1,107,441.2Z" transform="translate(0.06 0.06)"/><polygon class="cls-1" points="224.62 0.06 0.06 19.47 0.06 28.55 329.56 0.06 224.62 0.06"/><path class="cls-1" d="M878.35,429A167.74,167.74,0,0,0,960,379.44V365.51a159.59,159.59,0,0,1-143.06,59.05l19.59,128.85h9.14L827.6,434.5A167.7,167.7,0,0,0,878.35,429Z" transform="translate(0.06 0.06)"/><path class="cls-1" d="M794.39,111.36c63-16.64,127.27,6.9,165.61,54.72V152.19a169,169,0,0,0-167.92-49.57l-.61.16L789.66,0h-9l2,115Q788.46,112.94,794.39,111.36Z" transform="translate(0.06 0.06)"/><path class="cls-1" d="M115.79,439a207.58,207.58,0,0,1,23-156.93c.94-1.6,1.93-3.21,2.93-4.81l-14.12-56.69L0,180.33v9.48l120,37.87,12,48.09-1,1.7A216.63,216.63,0,0,0,107,441.2a232.31,232.31,0,0,0,64.92,112.21h13.41A223.13,223.13,0,0,1,115.79,439Z" transform="translate(0.06 0.06)"/><polygon class="cls-1" points="329.56 0.06 0.06 28.55 0.06 37.62 434.49 0.06 329.56 0.06"/><path class="cls-1" d="M124.56,436.83a198.64,198.64,0,0,1,22-150.15c1.54-2.61,3.18-5.23,4.87-7.81l-16.3-65.39L0,170.85v9.48l127.59,40.25,14.12,56.69c-1,1.6-2,3.21-2.93,4.81a207.58,207.58,0,0,0-23,156.93,223.13,223.13,0,0,0,69.55,114.4h14.1A214.14,214.14,0,0,1,124.56,436.83Z" transform="translate(0.06 0.06)"/><path class="cls-1" d="M876,420.3a158.9,158.9,0,0,0,84-54.79V350.25a150.49,150.49,0,0,1-153.85,63.47l21.24,139.69h9.14L816.94,424.56A157.89,157.89,0,0,0,876,420.3Z" transform="translate(0.06 0.06)"/><path class="cls-1" d="M796.7,120.1c63.47-16.77,128.36,9.72,163.3,61.18v-15.2c-38.34-47.82-102.64-71.36-165.61-54.72q-5.92,1.58-11.74,3.6l-2-115h-9l2.26,128.16A150,150,0,0,1,796.7,120.1Z" transform="translate(0.06 0.06)"/><polygon class="cls-1" points="434.49 0.06 0.06 37.62 0.06 46.69 539.43 0.06 434.49 0.06"/><path class="cls-1" d="M133.33,434.64a189.7,189.7,0,0,1,21-143.35c2.15-3.61,4.44-7.2,6.84-10.71l-18.49-74.2L0,161.38v9.47l135.13,42.63,16.3,65.39c-1.69,2.58-3.33,5.2-4.87,7.81a198.64,198.64,0,0,0-22,150.15,214.14,214.14,0,0,0,74.88,116.58H214.5A205.27,205.27,0,0,1,133.33,434.64Z" transform="translate(0.06 0.06)"/><path class="cls-1" d="M799,128.84c64.54-17.06,130.66,13.48,161,69.85V181.28c-34.94-51.46-99.83-77.95-163.3-61.18a150,150,0,0,0-22.86,8.06L771.58,0h-9l2.51,142.72A141.35,141.35,0,0,1,799,128.84Z" transform="translate(0.06 0.06)"/><path class="cls-1" d="M873.73,411.56A150.08,150.08,0,0,0,960,350.25V332.79a141.47,141.47,0,0,1-164.82,68.93l23.06,151.69h9.15L806.15,413.72A149.85,149.85,0,0,0,873.73,411.56Z" transform="translate(0.06 0.06)"/><polygon class="cls-1" points="539.43 0.06 0.06 46.69 0.06 55.77 644.37 0.06 539.43 0.06"/><path class="cls-1" d="M785.55,398.48,809.1,553.41h9.14L795.18,401.72Q790.31,400.27,785.55,398.48Z" transform="translate(0.06 0.06)"/><path class="cls-1" d="M142.1,432.46a180.67,180.67,0,0,1,20-136.56c2.73-4.6,5.69-9.13,8.83-13.51l-20.71-83.1L0,151.9v9.48l142.68,45,18.49,74.2c-2.4,3.51-4.69,7.1-6.84,10.71a189.7,189.7,0,0,0-21,143.35A205.27,205.27,0,0,0,214.5,553.41H231A196.49,196.49,0,0,1,142.1,432.46Z" transform="translate(0.06 0.06)"/><path class="cls-1" d="M765.05,142.72,762.54,0h-9l2.62,148.27Q760.46,145.34,765.05,142.72Z" transform="translate(0.06 0.06)"/><path class="cls-1" d="M150.87,430.27a171.68,171.68,0,0,1,19-129.76,176.83,176.83,0,0,1,10.84-16.18l-22.95-92.14L0,142.42v9.48l150.23,47.39,20.71,83.1c-3.14,4.38-6.1,8.91-8.83,13.51a180.67,180.67,0,0,0-20,136.56,196.49,196.49,0,0,0,88.87,121h18.7c-4.4-2.19-8.7-4.52-12.84-7A187.52,187.52,0,0,1,150.87,430.27Z" transform="translate(0.06 0.06)"/><path class="cls-1" d="M775.78,394.39l24.18,159h9.14L785.55,398.48Q780.59,396.62,775.78,394.39Z" transform="translate(0.06 0.06)"/><path class="cls-1" d="M747.19,154.82q4.3-3.44,8.92-6.55L753.49,0H644.31L0,55.71v9.08L744.46.41Z" transform="translate(0.06 0.06)"/><path class="cls-1" d="M740.25,160.63v.06L741,160Z" transform="translate(0.06 0.06)"/><path class="cls-1" d="M159.64,428.09a162.74,162.74,0,0,1,18-123,166.29,166.29,0,0,1,12.9-18.72L165,183.57l-2.48.62L0,132.94v9.48l157.78,49.77,22.95,92.14a176.83,176.83,0,0,0-10.84,16.18,171.68,171.68,0,0,0-19,129.76,187.52,187.52,0,0,0,86,116.13c4.14,2.49,8.44,4.82,12.84,7h22.79a182.09,182.09,0,0,1-31-14.76A178.6,178.6,0,0,1,159.64,428.09Z" transform="translate(0.06 0.06)"/><path class="cls-1" d="M765.87,389.31l24.94,164.1H800l-24.18-159Q770.72,392,765.87,389.31Z" transform="translate(0.06 0.06)"/><path class="cls-1" d="M738.07,150.79l-7.54,6,1.77,11.67q3.83-4,8-7.81v-.06l.75-.6c2-1.8,4.07-3.53,6.19-5.21L744.46.41,0,64.79v9.07L735.59,10.25Z" transform="translate(0.06 0.06)"/><polygon class="cls-1" points="631.39 553.46 640.4 553.46 630.56 549.62 631.39 553.46"/><path class="cls-1" d="M755.78,383.08l25.89,170.33h9.14l-24.94-164.1Q760.7,386.4,755.78,383.08Z" transform="translate(0.06 0.06)"/><path class="cls-1" d="M246.14,530.91a169.55,169.55,0,0,1-77.72-105,153.69,153.69,0,0,1,17-116.18,156.81,156.81,0,0,1,15-21.11L173.72,181.39l78.94-19.67a216.18,216.18,0,0,1,236.52,96.9l74.57-16.21,8.85,40.69L722.37,163.34l2.15,14.13q3.69-4.64,7.78-9l-1.77-11.67,7.54-6L735.59,10.25,0,73.86v9.07L726.73,20.09,729,146.51,578.33,266.94l-7.66-35.28-77.13,16.76-3.45-5a227.16,227.16,0,0,0-69.35-65A223.45,223.45,0,0,0,250.48,153L162.76,174.8,0,123.46v9.48l162.47,51.25,2.48-.62,25.62,102.82a166.29,166.29,0,0,0-12.9,18.72,162.74,162.74,0,0,0-18,123,178.6,178.6,0,0,0,81.84,110.56,182.09,182.09,0,0,0,31,14.76h25.85l-.43-1.95A174,174,0,0,1,246.14,530.91Z" transform="translate(0.06 0.06)"/><path class="cls-1" d="M250.48,153a223.45,223.45,0,0,1,170.26,25.47,227.16,227.16,0,0,1,69.35,65l3.45,5,77.13-16.76,7.66,35.28L729,146.51,726.73,20.09,0,82.93V92L717.86,29.94l2,112.28L584.07,250.78l-6.49-29.87L497.53,238.3a235.69,235.69,0,0,0-72.13-67.62,232.43,232.43,0,0,0-177.11-26.5l-85.24,21.23L0,114v9.48L162.76,174.8Z" transform="translate(0.06 0.06)"/><path class="cls-1" d="M248.29,144.18a232.43,232.43,0,0,1,177.11,26.5,235.69,235.69,0,0,1,72.13,67.62l80.05-17.39,6.49,29.87L719.84,142.22l-2-112.28L0,92v9.07l709-61.3,1.73,98.16L589.81,234.61l-5.31-24.46-83.06,18a245.6,245.6,0,0,0-71.38-65.27A241.45,241.45,0,0,0,246.11,135.4L163.34,156,0,104.5V114l163.05,51.43Z" transform="translate(0.06 0.06)"/><path class="cls-1" d="M246.11,135.4a241.45,241.45,0,0,1,184,27.53,245.6,245.6,0,0,1,71.38,65.27l83.06-18,5.31,24.46,120.91-96.67L709,39.78,0,101.08v3.42L163.34,156Zm454-85.78,1.49,84-106.06,84.8-4.14-19L505.2,218.14a255.4,255.4,0,0,0-70.49-63,250.4,250.4,0,0,0-190.79-28.55l-80.29,20-126-39.74Z" transform="translate(0.06 0.06)"/><path class="cls-1" d="M243.92,126.63a250.4,250.4,0,0,1,190.79,28.55,255.4,255.4,0,0,1,70.49,63l86.21-18.74,4.14,19,106.06-84.8-1.49-84L37.65,106.9l126,39.74ZM691.26,59.46l1.23,69.91-91.2,72.92-3-13.64L508.81,208.1a265.33,265.33,0,0,0-69.44-60.67,259.38,259.38,0,0,0-197.63-29.57l-77.83,19.39L83.81,112Z" transform="translate(0.06 0.06)"/><path class="cls-1" d="M241.74,117.86a259.38,259.38,0,0,1,197.63,29.57,265.33,265.33,0,0,1,69.44,60.67l89.52-19.45,3,13.64,91.2-72.92-1.23-69.91L83.81,112l80.1,25.27ZM682.39,69.3l1,55.78-76.34,61-1.79-8.23-93,20.2A275,275,0,0,0,444,139.69a268.67,268.67,0,0,0-129.69-38.57ZM250.13,106.67q-5.3,1.11-10.58,2.42L164.2,127.86,130,117.06Z" transform="translate(0.06 0.06)"/><path class="cls-1" d="M512.28,198.09l93-20.2,1.79,8.23,76.34-61-1-55.78-368,31.82A268.67,268.67,0,0,1,444,139.69,275,275,0,0,1,512.28,198.09ZM673.52,79.14l.74,41.66L612.77,170l-.61-2.82-96.52,21a284.72,284.72,0,0,0-66.95-56.17A281,281,0,0,0,385.93,104Z" transform="translate(0.06 0.06)"/><path class="cls-1" d="M515.64,188.11l96.52-21,.61,2.82,61.49-49.16-.74-41.66L385.93,104a281,281,0,0,1,62.76,27.94A284.72,284.72,0,0,1,515.64,188.11ZM664.65,89l.49,27.53-51.28,41-95,20.64a294.82,294.82,0,0,0-65.54-54,291.78,291.78,0,0,0-27.46-14.57Z" transform="translate(0.06 0.06)"/><path class="cls-1" d="M518.88,178.16l95-20.64,51.28-41L664.65,89,425.88,109.62a291.78,291.78,0,0,1,27.46,14.57A294.82,294.82,0,0,1,518.88,178.16ZM655.79,98.82l.23,13.41-46.15,36.9L522,168.23a304.31,304.31,0,0,0-64-51.79l-.76-.46Z" transform="translate(0.06 0.06)"/><path class="cls-1" d="M522,168.23l87.86-19.1L656,112.23l-.23-13.41L457.24,116l.76.46A304.31,304.31,0,0,1,522,168.23Zm123.9-59.49-40,32L525,158.32a318.32,318.32,0,0,0-41.14-35.57Z" transform="translate(0.06 0.06)"/><path class="cls-1" d="M525,158.32l80.84-17.57,40-32-162,14A318.32,318.32,0,0,1,525,158.32Z" transform="translate(0.06 0.06)"/><path class="cls-1" d="M239.55,109.09q5.28-1.32,10.58-2.42L130,117.06l34.23,10.8Z" transform="translate(0.06 0.06)"/><path class="cls-1" d="M745.47,375.4l27.06,178h9.14L755.78,383.08Q750.46,379.48,745.47,375.4Z" transform="translate(0.06 0.06)"/><path class="cls-1" d="M250.8,523.16a160.6,160.6,0,0,1-73.61-99.45,144.7,144.7,0,0,1,16-109.38A147.56,147.56,0,0,1,210.34,291L184.68,188l70.17-17.48a207.13,207.13,0,0,1,229.86,98.35l72.13-15.67,10,46.09L715.79,180.18,717,187.9c2.36-3.58,4.88-7.07,7.56-10.43l-2.15-14.13L572.6,283.1l-8.85-40.69-74.57,16.21a216.18,216.18,0,0,0-236.52-96.9l-78.94,19.67,26.71,107.22a156.81,156.81,0,0,0-15,21.11,153.69,153.69,0,0,0-17,116.18,169.55,169.55,0,0,0,77.72,105,174,174,0,0,0,51.74,20.55l.43,1.95h9.25l-2.1-9.64A164.29,164.29,0,0,1,250.8,523.16Z" transform="translate(0.06 0.06)"/><polygon class="cls-1" points="622.14 553.46 631.39 553.46 630.56 549.62 640.4 553.46 665.22 553.46 618.14 535.06 622.14 553.46"/><polygon class="cls-1" points="611.41 546.65 580.07 553.46 622.14 553.46 618.14 535.06 665.22 553.46 690.04 553.46 605.73 520.5 611.41 546.65"/><path class="cls-1" d="M255.46,515.41A151.59,151.59,0,0,1,186,421.53a137,137,0,0,1,34.34-128l-24.67-99L257,179.26a198,198,0,0,1,223,99.85l69.92-15.19,11.19,51.5L709.21,197l.49,3.22Q713,193.9,717,187.9l-1.17-7.72L566.86,299.26l-10-46.09-72.13,15.67a207.13,207.13,0,0,0-229.86-98.35L184.68,188l25.66,103a147.56,147.56,0,0,0-17.12,23.34,144.7,144.7,0,0,0-16,109.38,160.6,160.6,0,0,0,73.61,99.45,164.29,164.29,0,0,0,54.66,20.61l2.1,9.64h9.25L313,535.83A154.2,154.2,0,0,1,255.46,515.41Z" transform="translate(0.06 0.06)"/><path class="cls-1" d="M734.87,365.82l28.51,187.59h9.15l-27.06-178A139.23,139.23,0,0,1,734.87,365.82Z" transform="translate(0.06 0.06)"/><path class="cls-1" d="M260.11,507.66a142.6,142.6,0,0,1-65.38-88.32,128,128,0,0,1,35.58-123l-23.72-95.19L259.22,188A189,189,0,0,1,475.07,289.44L543,274.67l12.37,56.92L702.62,213.86l.24,1.54a141.33,141.33,0,0,1,6.84-15.16l-.49-3.22L561.12,315.42l-11.19-51.5L480,279.11a198,198,0,0,0-223-99.85l-61.41,15.3,24.67,99a137,137,0,0,0-34.34,128,151.59,151.59,0,0,0,69.5,93.88A154.2,154.2,0,0,0,313,535.83l3.82,17.58h9.25l-5.6-25.8A144.15,144.15,0,0,1,260.11,507.66Z" transform="translate(0.06 0.06)"/><path class="cls-1" d="M723.84,353.4l30.4,200h9.14L734.87,365.82A138.74,138.74,0,0,1,723.84,353.4Z" transform="translate(0.06 0.06)"/><polygon class="cls-1" points="600.66 539.74 537.5 553.46 580.07 553.46 611.41 546.65 605.73 520.5 690.04 553.46 714.86 553.46 593.31 505.94 600.66 539.74"/><path class="cls-1" d="M712,335.86,745.1,553.41h9.14l-30.4-200A139,139,0,0,1,712,335.86Z" transform="translate(0.06 0.06)"/><polygon class="cls-1" points="589.9 532.83 494.93 553.46 537.5 553.46 600.66 539.74 593.31 505.94 714.86 553.46 739.69 553.46 580.9 491.37 589.9 532.83"/><path class="cls-1" d="M264.77,499.92a133.7,133.7,0,0,1-61.27-82.76,118.85,118.85,0,0,1,36.88-117.79l-22.83-91.64,43.86-10.92a179.8,179.8,0,0,1,208.44,103l66.25-14.39,13.54,62.32L696,230.7l.75,4.94a142.49,142.49,0,0,1,6.07-20.24l-.24-1.54L555.38,331.59,543,274.67l-67.94,14.77A189,189,0,0,0,259.22,188l-52.63,13.12,23.72,95.19a128,128,0,0,0-35.58,123,142.6,142.6,0,0,0,65.38,88.32,144.15,144.15,0,0,0,60.35,19.95l5.6,25.8h9.25l-7.46-34.33A134.49,134.49,0,0,1,264.77,499.92Z" transform="translate(0.06 0.06)"/><polygon class="cls-1" points="580.9 491.37 570.79 487.42 579.15 525.91 452.36 553.46 494.93 553.46 589.9 532.83 580.9 491.37"/><path class="cls-1" d="M269.43,492.17A124.7,124.7,0,0,1,212.27,415,109.78,109.78,0,0,1,251.8,301.68l-1.44.36L228.5,214.32l35.09-8.74A170.74,170.74,0,0,1,464.33,310.27l64.85-14.09,12.58,57.87,7.88-6.3L536.1,285.43l-66.25,14.39a179.8,179.8,0,0,0-208.44-103l-43.86,10.92,22.83,91.64A118.85,118.85,0,0,0,203.5,417.16,134.86,134.86,0,0,0,327.85,519.08l7.46,34.33h9.25l-9.39-43.24A124.81,124.81,0,0,1,269.43,492.17Z" transform="translate(0.06 0.06)"/><path class="cls-1" d="M274.09,484.42a115.64,115.64,0,0,1-53-71.63,100.5,100.5,0,0,1,71.79-121.36l1.35-.35a87,87,0,0,1,64.74,9,91.32,91.32,0,0,0-8-5.44,88.78,88.78,0,0,0-67.63-10.12L257,291.08l-17.49-70.17,26.32-6.56A161.67,161.67,0,0,1,458.46,320.8l63.81-13.87,11.61,53.42,7.88-6.3-12.58-57.87-64.85,14.09A170.74,170.74,0,0,0,263.59,205.58l-35.09,8.74L250.36,302l1.44-.36A109.78,109.78,0,0,0,212.27,415a125.77,125.77,0,0,0,122.9,95.2l9.39,43.24h9.25l-11.42-52.58A115.63,115.63,0,0,1,274.09,484.42Z" transform="translate(0.06 0.06)"/><polygon class="cls-1" points="570.79 487.42 560.68 483.47 568.4 519 409.79 553.46 452.36 553.46 579.15 525.91 570.79 487.42"/><path class="cls-1" d="M278.74,476.67a106.67,106.67,0,0,1-48.92-66.07,91.45,91.45,0,0,1,65.33-110.43l1.23-.32a78.54,78.54,0,0,1,87.18,37.23l12.51-2.72a98.36,98.36,0,0,0-115-58.61l-17.55,4.37-13.11-52.63L268,223.12a152.64,152.64,0,0,1,181.62,99.61l8.88-1.93A161.67,161.67,0,0,0,265.78,214.35l-26.32,6.56L257,291.08l26.31-6.56a88.78,88.78,0,0,1,67.63,10.12,91.32,91.32,0,0,1,8,5.44,87,87,0,0,0-64.74-9l-1.35.35a100.5,100.5,0,0,0-71.79,121.36,116.68,116.68,0,0,0,121.34,88l-1.94-8.94A106.77,106.77,0,0,1,278.74,476.67Z" transform="translate(0.06 0.06)"/><path class="cls-1" d="M360.2,279.14A106.71,106.71,0,0,0,278.89,267l-8.77,2.18-8.74-35.08,8.77-2.19a143.57,143.57,0,0,1,170.53,92.77l8.9-1.93A152.64,152.64,0,0,0,268,223.12l-17.54,4.37,13.11,52.63,17.55-4.37a98.36,98.36,0,0,1,115,58.61l9-1.95A106.64,106.64,0,0,0,360.2,279.14Z" transform="translate(0.06 0.06)"/><path class="cls-1" d="M238.59,408.42a82.4,82.4,0,0,1,58.87-99.51l1.11-.29a69.54,69.54,0,0,1,75.67,30.48l9.32-2a78.54,78.54,0,0,0-87.18-37.23l-1.23.32A91.45,91.45,0,0,0,229.82,410.6a107.62,107.62,0,0,0,110.63,81.29l-1.95-9A98.56,98.56,0,0,1,238.59,408.42Z" transform="translate(0.06 0.06)"/><path class="cls-1" d="M313,385.12a14.77,14.77,0,0,0,5.59,8.34L314.7,378l.95-.24-.17-.78A8.27,8.27,0,0,0,313,385.12Z" transform="translate(0.06 0.06)"/><path class="cls-1" d="M277.87,393.86a44.42,44.42,0,0,1,8.5-38.46,46.32,46.32,0,0,0-12.7,44.27,62.37,62.37,0,0,0,57,47.11l-3.1-14.27A51.07,51.07,0,0,1,277.87,393.86Z" transform="translate(0.06 0.06)"/><path class="cls-1" d="M273.67,399.67a46.32,46.32,0,0,1,12.7-44.27,44.42,44.42,0,0,0-8.5,38.46,51.07,51.07,0,0,0,49.67,38.65l-2-9.08a42,42,0,0,1-38.93-31.75,35.4,35.4,0,0,1,25.77-42.86,29.85,29.85,0,0,1,15.66.31l16.68-3.62a43,43,0,0,0-7.55-5.78,42.12,42.12,0,0,0-32.07-4.8l-.77.2a55.29,55.29,0,0,0-39.46,66.73,71.4,71.4,0,0,0,67.72,54l-2-9.1A62.37,62.37,0,0,1,273.67,399.67Z" transform="translate(0.06 0.06)"/><path class="cls-1" d="M314.7,378l3.85,15.45a14.77,14.77,0,0,1-5.59-8.34,8.27,8.27,0,0,1,2.52-8.13l-2.05-9.41a17.3,17.3,0,0,0-9.24,19.73,23.87,23.87,0,0,0,17.3,17.35l-5.84-26.89Z" transform="translate(0.06 0.06)"/><path class="cls-1" d="M247.36,406.23a73.38,73.38,0,0,1,53.4-88.84,60.55,60.55,0,0,1,64,23.77l9.48-2.06a69.54,69.54,0,0,0-75.67-30.48l-1.11.29a82.4,82.4,0,0,0-58.87,99.51,98.56,98.56,0,0,0,99.91,74.51l-1.95-9A89.52,89.52,0,0,1,247.36,406.23Z" transform="translate(0.06 0.06)"/><path class="cls-1" d="M364.86,271.4a115.69,115.69,0,0,0-88.16-13.19l-2.18-8.77h0l-2.19-8.78A134.55,134.55,0,0,1,431.79,326.6l8.89-1.94a143.57,143.57,0,0,0-170.53-92.77l-8.77,2.19,8.74,35.08,8.77-2.18A107.43,107.43,0,0,1,405,332.41l8.93-1.94A115.57,115.57,0,0,0,364.86,271.4Z" transform="translate(0.06 0.06)"/><path class="cls-1" d="M264.9,401.86a55.29,55.29,0,0,1,39.46-66.73l.77-.2a42.12,42.12,0,0,1,32.07,4.8,43,43,0,0,1,7.55,5.78L355,343.28A51.41,51.41,0,0,0,303,326.16a64.26,64.26,0,0,0-46.82,77.89,80.33,80.33,0,0,0,78.46,60.89l-2-9.06A71.4,71.4,0,0,1,264.9,401.86Z" transform="translate(0.06 0.06)"/><path class="cls-1" d="M256.13,404.05A64.26,64.26,0,0,1,303,326.16,51.41,51.41,0,0,1,355,343.28l9.76-2.12a60.55,60.55,0,0,0-64-23.77,73.38,73.38,0,0,0-53.4,88.84A89.52,89.52,0,0,0,336.55,474l-2-9A80.33,80.33,0,0,1,256.13,404.05Z" transform="translate(0.06 0.06)"/><path class="cls-1" d="M295.42,389.49a26.32,26.32,0,0,1,16.06-30.91L310.26,353l17.81-3.87a29.85,29.85,0,0,0-15.66-.31,35.4,35.4,0,0,0-25.77,42.86,42,42,0,0,0,38.93,31.75l-2-9.21A32.89,32.89,0,0,1,295.42,389.49Z" transform="translate(0.06 0.06)"/><path class="cls-1" d="M304.19,387.31a17.3,17.3,0,0,1,9.24-19.73l-1.95-9a26.32,26.32,0,0,0-16.06,30.91,32.89,32.89,0,0,0,28.15,24.73l-2.08-9.56A23.87,23.87,0,0,1,304.19,387.31Z" transform="translate(0.06 0.06)"/><path class="cls-1" d="M274.52,249.44l2.18,8.77A116.48,116.48,0,0,1,414,330.47l8.92-1.94A125.51,125.51,0,0,0,274.52,249.44Z" transform="translate(0.06 0.06)"/><path class="cls-1" d="M422.89,328.53l8.9-1.93a134.55,134.55,0,0,0-159.46-85.94l2.19,8.78A125.51,125.51,0,0,1,422.89,328.53Z" transform="translate(0.06 0.06)"/><path class="cls-1" d="M515.36,317.69l10.64,49,7.88-6.3-11.61-53.42L458.46,320.8c.94,2.86,1.79,5.76,2.57,8.69Z" transform="translate(0.06 0.06)"/><path class="cls-1" d="M342.39,500.83l11.42,52.58h9.25l-11.64-53.6Q346.91,500.5,342.39,500.83Z" transform="translate(0.06 0.06)"/><polygon class="cls-1" points="560.68 483.47 550.57 479.51 557.64 512.08 367.22 553.46 409.79 553.46 568.4 519 560.68 483.47"/><path class="cls-1" d="M340.45,491.89l1.94,8.94q4.51-.33,9-1L349.49,491C346.48,491.4,343.46,491.71,340.45,491.89Z" transform="translate(0.06 0.06)"/><path class="cls-1" d="M452.19,331.41l8.84-1.92c-.78-2.93-1.63-5.83-2.57-8.69l-8.88,1.93Q451,327,452.19,331.41Z" transform="translate(0.06 0.06)"/><path class="cls-1" d="M399.09,343c-.88-2.92-1.89-5.79-3-8.59l-12.51,2.72a76.19,76.19,0,0,1,4.13,8.35Z" transform="translate(0.06 0.06)"/><path class="cls-1" d="M327.54,432.51l3.1,14.27a61.72,61.72,0,0,0,9.21-.18l-3.24-14.94A51,51,0,0,1,327.54,432.51Z" transform="translate(0.06 0.06)"/><path class="cls-1" d="M322,376.17a3.15,3.15,0,0,0-.8-.7,3,3,0,0,0-2.25-.34l-.12,0a8.1,8.1,0,0,0-3.36,1.83l.17.78Z" transform="translate(0.06 0.06)"/><path class="cls-1" d="M338.5,482.93l1.95,9c3-.18,6-.49,9-.93l-1.92-8.86C344.54,482.52,341.51,482.8,338.5,482.93Z" transform="translate(0.06 0.06)"/><path class="cls-1" d="M443.35,333.33l8.84-1.92q-1.19-4.4-2.61-8.68l-8.9,1.93Q442.15,328.93,443.35,333.33Z" transform="translate(0.06 0.06)"/><path class="cls-1" d="M407.94,341c-.85-2.93-1.81-5.81-2.9-8.62l-9,1.95c1.13,2.8,2.14,5.67,3,8.59Z" transform="translate(0.06 0.06)"/><path class="cls-1" d="M378.68,347.39l9-2a76.19,76.19,0,0,0-4.13-8.35l-9.32,2A70.06,70.06,0,0,1,378.68,347.39Z" transform="translate(0.06 0.06)"/><path class="cls-1" d="M336.55,474l1.95,9c3-.13,6-.41,9.07-.83l-1.93-8.87A90.23,90.23,0,0,1,336.55,474Z" transform="translate(0.06 0.06)"/><path class="cls-1" d="M330,402.12l-4.38-17.55.11,0c.2-.05.38-.12.57-.18l-3.92-18a11.91,11.91,0,0,0-5.63,0l-.25.06a17.18,17.18,0,0,0-3.1,1.16l2.05,9.41a8.1,8.1,0,0,1,3.36-1.83l.12,0a3,3,0,0,1,2.25.34,3.15,3.15,0,0,1,.8.7l-6.36,1.6,5.84,26.89a23.82,23.82,0,0,0,9.35.48l-.66-3.06Z" transform="translate(0.06 0.06)"/><path class="cls-1" d="M334.69,422.82a42.07,42.07,0,0,1-9.12.61l2,9.08a51,51,0,0,0,9.07-.85Z" transform="translate(0.06 0.06)"/><path class="cls-1" d="M340,355.8l11.21-2.43a41.72,41.72,0,0,0-6.42-7.86l-16.68,3.62A30.39,30.39,0,0,1,340,355.8Z" transform="translate(0.06 0.06)"/><path class="cls-1" d="M330.64,446.78l2,9.1a68.8,68.8,0,0,0,9.16-.41l-1.93-8.87A61.72,61.72,0,0,1,330.64,446.78Z" transform="translate(0.06 0.06)"/><path class="cls-1" d="M369.62,349.36l9.06-2a70.06,70.06,0,0,0-4.44-8.29l-9.48,2.06A60.18,60.18,0,0,1,369.62,349.36Z" transform="translate(0.06 0.06)"/><path class="cls-1" d="M414,330.47,405,332.41c1.09,2.81,2,5.69,2.9,8.62l8.86-1.93Q415.54,334.72,414,330.47Z" transform="translate(0.06 0.06)"/><path class="cls-1" d="M434.5,335.26l8.85-1.93q-1.2-4.4-2.67-8.67l-8.89,1.94C432.78,329.44,433.69,332.33,434.5,335.26Z" transform="translate(0.06 0.06)"/><path class="cls-1" d="M422.89,328.53,414,330.47q1.57,4.25,2.83,8.63l8.85-1.92Q424.42,332.77,422.89,328.53Z" transform="translate(0.06 0.06)"/><path class="cls-1" d="M332.62,455.88l2,9.06a80.22,80.22,0,0,0,9.12-.59l-1.93-8.88A68.8,68.8,0,0,1,332.62,455.88Z" transform="translate(0.06 0.06)"/><path class="cls-1" d="M321.49,404.66l2.08,9.56a32.65,32.65,0,0,0,9.19-.24l-1.92-8.84A23.82,23.82,0,0,1,321.49,404.66Z" transform="translate(0.06 0.06)"/><path class="cls-1" d="M325.65,384.57,330,402.12l.15,0-1.93-8.86-.41.13.41-.13-1.92-8.85c-.19.06-.37.13-.57.18Z" transform="translate(0.06 0.06)"/><path class="cls-1" d="M311.48,358.58a26.21,26.21,0,0,1,3.11-1,20.92,20.92,0,0,1,12.94.91L340,355.8a30.39,30.39,0,0,0-11.89-6.67L310.26,353Z" transform="translate(0.06 0.06)"/><path class="cls-1" d="M425.65,337.18l8.85-1.92c-.81-2.93-1.72-5.82-2.71-8.66l-8.9,1.93Q424.42,332.78,425.65,337.18Z" transform="translate(0.06 0.06)"/><path class="cls-1" d="M316.53,366.42l.25-.06a11.91,11.91,0,0,1,5.63,0L321,359.92l6.51-1.42a20.92,20.92,0,0,0-12.94-.91,26.21,26.21,0,0,0-3.11,1l1.95,9A17.18,17.18,0,0,1,316.53,366.42Z" transform="translate(0.06 0.06)"/><path class="cls-1" d="M334.69,422.82,332.76,414a32.65,32.65,0,0,1-9.19.24l2,9.21A42.07,42.07,0,0,0,334.69,422.82Z" transform="translate(0.06 0.06)"/><path class="cls-1" d="M360.47,351.35l9.15-2a60.18,60.18,0,0,0-4.86-8.2L355,343.28A51.07,51.07,0,0,1,360.47,351.35Z" transform="translate(0.06 0.06)"/><path class="cls-1" d="M334.59,464.94l2,9a90.23,90.23,0,0,0,9.09-.73l-1.93-8.88A80.22,80.22,0,0,1,334.59,464.94Z" transform="translate(0.06 0.06)"/><path class="cls-1" d="M351.17,353.37l9.3-2a51.07,51.07,0,0,0-5.47-8.07l-10.25,2.23A41.72,41.72,0,0,1,351.17,353.37Z" transform="translate(0.06 0.06)"/><path class="cls-1" d="M463.11,338.29l45.33-9.85L518.12,373l7.88-6.31-10.64-49L461,329.49c.23.88.47,1.76.69,2.64Q462.49,335.21,463.11,338.29Z" transform="translate(0.06 0.06)"/><path class="cls-1" d="M550.51,479.46l-10.11-4,6.44,29.61L370.16,543.5l-9.86-45.39c-2.95.68-5.92,1.25-8.88,1.7l11.64,53.6h4.1L557.59,512Z" transform="translate(0.06 0.06)"/><path class="cls-1" d="M454.27,340.21l8.84-1.92q-.63-3.09-1.39-6.16c-.22-.88-.46-1.76-.69-2.64l-8.84,1.92c.26,1,.52,1.93.76,2.91Q453.69,337.26,454.27,340.21Z" transform="translate(0.06 0.06)"/><path class="cls-1" d="M349.49,491l1.93,8.85c3-.45,5.93-1,8.88-1.7l-1.92-8.84C355.43,490,352.46,490.53,349.49,491Z" transform="translate(0.06 0.06)"/><path class="cls-1" d="M401.25,351.73c-.27-1.43-.57-2.87-.93-4.3s-.79-3-1.23-4.48l-11.4,2.48a78,78,0,0,1,3,8.59Z" transform="translate(0.06 0.06)"/><path class="cls-1" d="M340.49,430.79l-.83.21c-1,.26-2,.47-3.05.66l3.24,14.94a63.31,63.31,0,0,0,8.93-1.5l-3.44-15.83C343.75,429.84,342.14,430.35,340.49,430.79Z" transform="translate(0.06 0.06)"/><path class="cls-1" d="M444.18,336.5c.47,1.87.88,3.75,1.26,5.63l8.83-1.92q-.58-3-1.32-5.89c-.24-1-.5-1.94-.76-2.91l-8.84,1.92C443.64,334.39,443.91,335.44,444.18,336.5Z" transform="translate(0.06 0.06)"/><path class="cls-1" d="M347.57,482.1l1.92,8.86c3-.43,5.94-1,8.89-1.69l-1.92-8.83C353.49,481.13,350.53,481.69,347.57,482.1Z" transform="translate(0.06 0.06)"/><path class="cls-1" d="M401.25,351.73l8.83-1.92c-.29-1.52-.61-3.05-1-4.57s-.74-2.82-1.15-4.21L399.09,343c.44,1.48.85,3,1.23,4.48S401,350.3,401.25,351.73Z" transform="translate(0.06 0.06)"/><path class="cls-1" d="M390.73,354a78,78,0,0,0-3-8.59l-9,2a71.19,71.19,0,0,1,3.21,8.55Z" transform="translate(0.06 0.06)"/><path class="cls-1" d="M331.34,375.11a12,12,0,0,0-8.93-8.78l3.92,18A7.82,7.82,0,0,0,331.34,375.11Z" transform="translate(0.06 0.06)"/><path class="cls-1" d="M410.08,349.81l8.84-1.92c-.31-1.61-.66-3.22-1.06-4.83-.33-1.33-.69-2.65-1.06-4L407.94,341c.41,1.39.8,2.8,1.15,4.21S409.79,348.29,410.08,349.81Z" transform="translate(0.06 0.06)"/><path class="cls-1" d="M435.41,338.69q.66,2.67,1.19,5.36l8.84-1.92c-.38-1.88-.79-3.76-1.26-5.63-.27-1.06-.54-2.11-.83-3.17l-8.85,1.93C434.82,336.39,435.12,337.54,435.41,338.69Z" transform="translate(0.06 0.06)"/><path class="cls-1" d="M330.18,402.08l.66,3.06c.76-.12,1.51-.26,2.27-.45l.45-.12a32.58,32.58,0,0,0,5.93-2.21l-.9-4.14a25.55,25.55,0,0,1-8.2,3.8Z" transform="translate(0.06 0.06)"/><path class="cls-1" d="M338.18,422.05l-.7.18c-.93.23-1.86.42-2.79.59l1.92,8.84c1-.19,2-.4,3.05-.66l.83-.21c1.65-.44,3.26-1,4.85-1.52l-1.94-8.92A49.74,49.74,0,0,1,338.18,422.05Z" transform="translate(0.06 0.06)"/><path class="cls-1" d="M346.16,363.71l9.09-2a41.77,41.77,0,0,0-4.08-8.36L340,355.8A30.05,30.05,0,0,1,346.16,363.71Z" transform="translate(0.06 0.06)"/><path class="cls-1" d="M345.64,473.23l1.93,8.87c3-.41,5.92-1,8.89-1.66l-1.92-8.84A90.08,90.08,0,0,1,345.64,473.23Z" transform="translate(0.06 0.06)"/><path class="cls-1" d="M339.85,446.6l1.93,8.87a71.45,71.45,0,0,0,8.92-1.54l-1.92-8.83A63.31,63.31,0,0,1,339.85,446.6Z" transform="translate(0.06 0.06)"/><path class="cls-1" d="M373,357.87l8.88-1.93a71.19,71.19,0,0,0-3.21-8.55l-9.06,2A61.08,61.08,0,0,1,373,357.87Z" transform="translate(0.06 0.06)"/><path class="cls-1" d="M426.64,340.87q.63,2.55,1.13,5.1l8.83-1.92q-.53-2.69-1.19-5.36c-.29-1.15-.59-2.3-.91-3.43l-8.85,1.92C426,338.4,426.33,339.63,426.64,340.87Z" transform="translate(0.06 0.06)"/><path class="cls-1" d="M322.41,366.33a12,12,0,0,1,8.93,8.78,7.82,7.82,0,0,1-5,9.26l1.92,8.85a16.77,16.77,0,0,0,8.15-5.08l-4.63-21.31,5-1.09a21.09,21.09,0,0,0-9.24-7.24L321,359.92Z" transform="translate(0.06 0.06)"/><path class="cls-1" d="M328.25,393.22l1.93,8.86.21-.06a25.55,25.55,0,0,0,8.2-3.8l-2.19-10.08A16.77,16.77,0,0,1,328.25,393.22Z" transform="translate(0.06 0.06)"/><path class="cls-1" d="M341.78,455.47l1.93,8.88a82.5,82.5,0,0,0,8.91-1.59l-1.92-8.83A71.45,71.45,0,0,1,341.78,455.47Z" transform="translate(0.06 0.06)"/><path class="cls-1" d="M336.77,365.74l9.39-2a30.05,30.05,0,0,0-6.2-7.91l-12.43,2.7A21.09,21.09,0,0,1,336.77,365.74Z" transform="translate(0.06 0.06)"/><path class="cls-1" d="M364.13,359.8l8.88-1.93a61.08,61.08,0,0,0-3.39-8.51l-9.15,2A51.08,51.08,0,0,1,364.13,359.8Z" transform="translate(0.06 0.06)"/><path class="cls-1" d="M341.45,411.4l-2-9a32.58,32.58,0,0,1-5.93,2.21l-.45.12c-.76.19-1.51.33-2.27.45l1.92,8.84c.85-.15,1.69-.31,2.53-.52A41.23,41.23,0,0,0,341.45,411.4Z" transform="translate(0.06 0.06)"/><path class="cls-1" d="M338.18,422.05a49.74,49.74,0,0,0,5.22-1.7l-1.95-9a41.23,41.23,0,0,1-6.16,2.06c-.84.21-1.68.37-2.53.52l1.93,8.84c.93-.17,1.86-.36,2.79-.59Z" transform="translate(0.06 0.06)"/><path class="cls-1" d="M343.71,464.35l1.93,8.88a90.08,90.08,0,0,0,8.9-1.63l-1.92-8.84A82.5,82.5,0,0,1,343.71,464.35Z" transform="translate(0.06 0.06)"/><path class="cls-1" d="M355.25,361.73l8.88-1.93a51.08,51.08,0,0,0-3.66-8.45l-9.3,2A41.77,41.77,0,0,1,355.25,361.73Z" transform="translate(0.06 0.06)"/><path class="cls-1" d="M426.64,340.87c-.31-1.24-.65-2.47-1-3.69l-8.85,1.92c.37,1.31.73,2.63,1.06,4,.4,1.61.75,3.22,1.06,4.83l8.85-1.92Q427.28,343.42,426.64,340.87Z" transform="translate(0.06 0.06)"/><path class="cls-1" d="M501.53,339.19l8.7,40.07,7.89-6.3-9.68-44.52-45.33,9.85q.88,4.45,1.49,8.93Z" transform="translate(0.06 0.06)"/><path class="cls-1" d="M536.08,498.2l-159,34.55-8-37q-2.43.74-4.89,1.4l-1.94.5-1.91.45,9.86,45.39,176.68-38.39L540.4,475.5l-10.11-3.95Z" transform="translate(0.06 0.06)"/><path class="cls-1" d="M392.74,362.83l9.62-2.09a72.91,72.91,0,0,0-1.11-9L390.73,354c.3,1,.58,2,.84,3C392.05,359,392.43,360.91,392.74,362.83Z" transform="translate(0.06 0.06)"/><path class="cls-1" d="M464.6,347.22q-.6-4.47-1.49-8.93l-8.84,1.92c.6,3,1.08,6,1.47,8.93Z" transform="translate(0.06 0.06)"/><path class="cls-1" d="M364.15,497.16q2.46-.66,4.89-1.4l-1.93-8.86q-2.61.81-5.27,1.52l-1.81.46-1.65.39,1.92,8.84,1.91-.45Z" transform="translate(0.06 0.06)"/><path class="cls-1" d="M359.53,479.68l-1.67.43-1.4.33,1.92,8.83,1.65-.39,1.81-.46q2.66-.71,5.27-1.52L365.19,478Q362.39,478.93,359.53,479.68Z" transform="translate(0.06 0.06)"/><path class="cls-1" d="M455.74,349.14c-.39-3-.87-6-1.47-8.93l-8.83,1.92q.88,4.47,1.43,8.94Z" transform="translate(0.06 0.06)"/><path class="cls-1" d="M411.29,358.8a81.14,81.14,0,0,0-1.21-9l-8.83,1.92a72.91,72.91,0,0,1,1.11,9Z" transform="translate(0.06 0.06)"/><path class="cls-1" d="M383.89,364.76l8.85-1.93c-.31-1.92-.69-3.85-1.17-5.77-.26-1-.54-2-.84-3l-8.84,1.92c.33,1.09.63,2.19.91,3.3Q383.48,362,383.89,364.76Z" transform="translate(0.06 0.06)"/><path class="cls-1" d="M345.34,429.27l3.44,15.83.34-.08,1.19-.3q3.65-1,7.15-2.25l-3.7-17A58.77,58.77,0,0,1,345.34,429.27Z" transform="translate(0.06 0.06)"/><path class="cls-1" d="M343.4,420.35l1.94,8.92a58.77,58.77,0,0,0,8.42-3.8l-2-9.26A49.18,49.18,0,0,1,343.4,420.35Z" transform="translate(0.06 0.06)"/><path class="cls-1" d="M338.59,398.22l.9,4.14a31.7,31.7,0,0,0,8-5.63l-1.44-6.63A26,26,0,0,1,338.59,398.22Z" transform="translate(0.06 0.06)"/><path class="cls-1" d="M348.88,370.74c.13.52.24,1,.34,1.55l8.07-1.75a31.32,31.32,0,0,0-.81-4.74,39.84,39.84,0,0,0-1.23-4.07l-9.09,2A30.08,30.08,0,0,1,348.88,370.74Z" transform="translate(0.06 0.06)"/><path class="cls-1" d="M350.31,444.72l-1.19.3-.34.08,1.92,8.83.6-.14c2.75-.68,5.45-1.5,8.09-2.42l-1.93-8.9Q354,443.75,350.31,444.72Z" transform="translate(0.06 0.06)"/><path class="cls-1" d="M375,366.68l8.85-1.92q-.42-2.76-1.09-5.52c-.28-1.11-.58-2.21-.91-3.3L373,357.87c.37,1.17.72,2.36,1,3.56C374.46,363.18,374.79,364.93,375,366.68Z" transform="translate(0.06 0.06)"/><path class="cls-1" d="M420.21,356.86q-.42-4.49-1.29-9l-8.84,1.92a81.14,81.14,0,0,1,1.21,9Z" transform="translate(0.06 0.06)"/><path class="cls-1" d="M357.22,470.94l-1.55.4-1.13.26,1.92,8.84,1.4-.33,1.67-.43q2.85-.75,5.66-1.65l-1.93-8.88Q360.28,470.13,357.22,470.94Z" transform="translate(0.06 0.06)"/><path class="cls-1" d="M438,353l8.88-1.93q-.54-4.47-1.43-8.94l-8.84,1.92Q437.49,348.52,438,353Z" transform="translate(0.06 0.06)"/><path class="cls-1" d="M341.45,411.4a40.88,40.88,0,0,0,8.24-4.69l-2.17-10a31.7,31.7,0,0,1-8,5.63Z" transform="translate(0.06 0.06)"/><path class="cls-1" d="M356.48,365.8a31.32,31.32,0,0,1,.81,4.74l8.88-1.93a42.12,42.12,0,0,0-.92-5c-.32-1.29-.7-2.56-1.12-3.81l-8.88,1.93A39.84,39.84,0,0,1,356.48,365.8Z" transform="translate(0.06 0.06)"/><path class="cls-1" d="M351.75,416.21l-2.06-9.5a40.88,40.88,0,0,1-8.24,4.69l1.95,9A49.18,49.18,0,0,0,351.75,416.21Z" transform="translate(0.06 0.06)"/><path class="cls-1" d="M353.49,462.56c-.29.08-.58.13-.87.2l1.92,8.84,1.13-.26,1.55-.4q3.06-.81,6-1.79l-1.93-8.88C358.77,461.13,356.15,461.9,353.49,462.56Z" transform="translate(0.06 0.06)"/><path class="cls-1" d="M365.25,363.61a42.12,42.12,0,0,1,.92,5l8.87-1.93c-.25-1.75-.58-3.5-1-5.25-.3-1.2-.65-2.39-1-3.56l-8.88,1.93C364.55,361.05,364.93,362.32,365.25,363.61Z" transform="translate(0.06 0.06)"/><path class="cls-1" d="M340.11,372.93a16.83,16.83,0,0,1-3.71,15.21l2.19,10.08a26,26,0,0,0,7.49-8.12l-3.56-16.35,6.7-1.46c-.1-.51-.21-1-.34-1.55a30.08,30.08,0,0,0-2.72-7l-9.39,2A20.81,20.81,0,0,1,340.11,372.93Z" transform="translate(0.06 0.06)"/><path class="cls-1" d="M351.3,453.79l-.6.14,1.92,8.83c.29-.07.58-.12.87-.2,2.66-.66,5.28-1.43,7.84-2.29l-1.94-8.9C356.75,452.29,354.05,453.11,351.3,453.79Z" transform="translate(0.06 0.06)"/><path class="cls-1" d="M336.4,388.14a16.83,16.83,0,0,0,3.71-15.21,20.81,20.81,0,0,0-3.34-7.19l-5,1.09Z" transform="translate(0.06 0.06)"/><path class="cls-1" d="M429.1,354.93,438,353q-.51-4.49-1.39-8.95L427.77,346Q428.64,350.45,429.1,354.93Z" transform="translate(0.06 0.06)"/><path class="cls-1" d="M429.1,354.93q-.47-4.47-1.33-9l-8.85,1.92q.87,4.49,1.29,9Z" transform="translate(0.06 0.06)"/><path class="cls-1" d="M525.33,491.28,384,522l-6.34-29.17c-2.82,1.07-5.7,2.05-8.61,2.93l8,37,159-34.55-5.79-26.65-10.11-3.95Z" transform="translate(0.06 0.06)"/><path class="cls-1" d="M494.61,350l7.74,35.61,7.88-6.3-8.7-40.07-36.93,8c.4,3,.71,6,.91,9Z" transform="translate(0.06 0.06)"/><path class="cls-1" d="M375.71,483.89c-2.82,1.1-5.69,2.11-8.6,3l1.93,8.86c2.91-.88,5.79-1.86,8.61-2.93Z" transform="translate(0.06 0.06)"/><path class="cls-1" d="M465.51,356.27c-.2-3-.51-6-.91-9l-8.86,1.92q.57,4.55.83,9.07Z" transform="translate(0.06 0.06)"/><path class="cls-1" d="M402.35,370a71.53,71.53,0,0,0,0-9.26l-9.62,2.09a66.72,66.72,0,0,1,.81,9.08Z" transform="translate(0.06 0.06)"/><path class="cls-1" d="M402.35,370l9.15-2a83.4,83.4,0,0,0-.21-9.21l-8.93,1.94A71.53,71.53,0,0,1,402.35,370Z" transform="translate(0.06 0.06)"/><path class="cls-1" d="M353.76,425.47l3.7,17a83.45,83.45,0,0,0,8.46-3.63l-4.07-18.74A57.63,57.63,0,0,1,353.76,425.47Z" transform="translate(0.06 0.06)"/><path class="cls-1" d="M373.77,474.94q-4.22,1.71-8.58,3.09l1.92,8.87c2.91-.9,5.78-1.91,8.6-3Z" transform="translate(0.06 0.06)"/><path class="cls-1" d="M456.57,358.21q-.26-4.53-.83-9.07l-8.87,1.93q.56,4.55.75,9.09Z" transform="translate(0.06 0.06)"/><path class="cls-1" d="M393.55,371.91a66.72,66.72,0,0,0-.81-9.08l-8.85,1.93a59.67,59.67,0,0,1,.65,9.11Z" transform="translate(0.06 0.06)"/><path class="cls-1" d="M447.62,360.16q-.19-4.55-.75-9.09L438,353q.51,4.56.65,9.11Z" transform="translate(0.06 0.06)"/><path class="cls-1" d="M363.26,469.15l1.93,8.88q4.37-1.38,8.58-3.09l-1.95-9Q367.62,467.74,363.26,469.15Z" transform="translate(0.06 0.06)"/><path class="cls-1" d="M375.46,375.84l9.08-2a59.67,59.67,0,0,0-.65-9.11L375,366.68A50.45,50.45,0,0,1,375.46,375.84Z" transform="translate(0.06 0.06)"/><path class="cls-1" d="M357.46,442.47l1.93,8.9a90.06,90.06,0,0,0,8.51-3.44l-2-9.09A83.45,83.45,0,0,1,357.46,442.47Z" transform="translate(0.06 0.06)"/><path class="cls-1" d="M346.08,390.1l1.44,6.63a32.28,32.28,0,0,0,7.07-10l-1.31-6,3.52-.77a31.69,31.69,0,0,0,.49-9.35l-8.07,1.75A25.83,25.83,0,0,1,346.08,390.1Z" transform="translate(0.06 0.06)"/><path class="cls-1" d="M411.5,368l9.09-2a90.83,90.83,0,0,0-.38-9.17l-8.92,1.94A83.4,83.4,0,0,1,411.5,368Z" transform="translate(0.06 0.06)"/><path class="cls-1" d="M353.76,425.47a57.63,57.63,0,0,0,8.09-5.37l-2.17-10a49.74,49.74,0,0,1-7.93,6.1Z" transform="translate(0.06 0.06)"/><path class="cls-1" d="M361.33,460.27l1.93,8.88q4.37-1.41,8.56-3.18l-2-9C367.09,458.18,364.24,459.29,361.33,460.27Z" transform="translate(0.06 0.06)"/><path class="cls-1" d="M359.39,451.37l1.94,8.9c2.91-1,5.76-2.09,8.53-3.31l-2-9A90.06,90.06,0,0,1,359.39,451.37Z" transform="translate(0.06 0.06)"/><path class="cls-1" d="M346.08,390.1a25.83,25.83,0,0,0,3.14-17.81l-6.7,1.46Z" transform="translate(0.06 0.06)"/><path class="cls-1" d="M429.63,364.07l9-2q-.13-4.55-.65-9.11l-8.89,1.93Q429.57,359.52,429.63,364.07Z" transform="translate(0.06 0.06)"/><path class="cls-1" d="M366.26,377.84l9.2-2a50.45,50.45,0,0,0-.42-9.16l-8.87,1.93A40.75,40.75,0,0,1,366.26,377.84Z" transform="translate(0.06 0.06)"/><path class="cls-1" d="M429.63,364.07q-.06-4.54-.53-9.14l-8.89,1.93a90.83,90.83,0,0,1,.38,9.17Z" transform="translate(0.06 0.06)"/><path class="cls-1" d="M356.8,379.89l9.46-2.05a40.75,40.75,0,0,0-.09-9.23l-8.88,1.93A31.69,31.69,0,0,1,356.8,379.89Z" transform="translate(0.06 0.06)"/><path class="cls-1" d="M357.35,399.39l-2.76-12.68a32.28,32.28,0,0,1-7.07,10l2.17,10A41.24,41.24,0,0,0,357.35,399.39Z" transform="translate(0.06 0.06)"/><path class="cls-1" d="M349.69,406.71l2.06,9.5a49.74,49.74,0,0,0,7.93-6.1l-2.33-10.72A41.24,41.24,0,0,1,349.69,406.71Z" transform="translate(0.06 0.06)"/><path class="cls-1" d="M514.58,484.37,390.9,511.24l-4.76-21.93c-2.78,1.26-5.61,2.44-8.49,3.52L384,522l141.34-30.72-5.15-23.68-10.11-4Z" transform="translate(0.06 0.06)"/><path class="cls-1" d="M487.7,360.7l6.77,31.16,7.88-6.3L494.61,350l-29.1,6.32c.21,3.06.32,6.13.32,9.18Z" transform="translate(0.06 0.06)"/><path class="cls-1" d="M384.17,480.24q-4.16,2-8.46,3.65l1.94,8.94c2.88-1.08,5.71-2.26,8.49-3.52Z" transform="translate(0.06 0.06)"/><path class="cls-1" d="M364.55,429.38a73.54,73.54,0,0,0,7.53-4.77l-.26-1.19A68.38,68.38,0,0,1,364.55,429.38Z" transform="translate(0.06 0.06)"/><path class="cls-1" d="M393.11,381.25l8-1.73a72.5,72.5,0,0,0,1.24-9.52l-8.8,1.91A67.49,67.49,0,0,1,393.11,381.25Z" transform="translate(0.06 0.06)"/><path class="cls-1" d="M465.83,365.45c0-3.05-.11-6.12-.32-9.18l-8.94,1.94q.27,4.62.19,9.21Z" transform="translate(0.06 0.06)"/><path class="cls-1" d="M410.65,377.44a82.58,82.58,0,0,0,.85-9.43l-9.15,2a72.5,72.5,0,0,1-1.24,9.52Z" transform="translate(0.06 0.06)"/><path class="cls-1" d="M447.66,369.4l9.1-2q.08-4.59-.19-9.21l-8.95,2C447.76,363.24,447.77,366.33,447.66,369.4Z" transform="translate(0.06 0.06)"/><path class="cls-1" d="M393.11,381.25a67.49,67.49,0,0,0,.44-9.34l-9,2a58,58,0,0,1-.85,9.43Z" transform="translate(0.06 0.06)"/><path class="cls-1" d="M382.19,471.15q-4.12,2.06-8.42,3.79l1.94,8.95q4.31-1.67,8.46-3.65Z" transform="translate(0.06 0.06)"/><path class="cls-1" d="M364.55,429.38a68.38,68.38,0,0,0,7.27-6l-2.3-10.57a58.52,58.52,0,0,1-7.67,7.25l4.07,18.74a82.46,82.46,0,0,0,8.23-4.7l-2.07-9.53A73.54,73.54,0,0,1,364.55,429.38Z" transform="translate(0.06 0.06)"/><path class="cls-1" d="M420,375.41a88.94,88.94,0,0,0,.57-9.38l-9.09,2a82.58,82.58,0,0,1-.85,9.43Z" transform="translate(0.06 0.06)"/><path class="cls-1" d="M354.59,386.71a32.17,32.17,0,0,0,2.21-6.82l-3.52.77Z" transform="translate(0.06 0.06)"/><path class="cls-1" d="M438.52,371.39l9.14-2c.11-3.07.1-6.16,0-9.24l-9,1.95C438.74,365.21,438.69,368.3,438.52,371.39Z" transform="translate(0.06 0.06)"/><path class="cls-1" d="M380.21,462q-4.09,2.14-8.39,4l1.95,9q4.29-1.72,8.42-3.79Z" transform="translate(0.06 0.06)"/><path class="cls-1" d="M365.92,438.84l2,9.09a91.15,91.15,0,0,0,8.3-4.38l-2.05-9.41A82.46,82.46,0,0,1,365.92,438.84Z" transform="translate(0.06 0.06)"/><path class="cls-1" d="M369.52,412.85,367,401.4a50.54,50.54,0,0,1-7.36,8.71l2.17,10A58.52,58.52,0,0,0,369.52,412.85Z" transform="translate(0.06 0.06)"/><path class="cls-1" d="M383.69,383.3a58,58,0,0,0,.85-9.43l-9.08,2a49.87,49.87,0,0,1-1.38,9.55Z" transform="translate(0.06 0.06)"/><path class="cls-1" d="M357.35,399.39a41.23,41.23,0,0,0,8.91-21.55l-9.46,2.05a32.17,32.17,0,0,1-2.21,6.82Z" transform="translate(0.06 0.06)"/><path class="cls-1" d="M369.86,457l2,9q4.29-1.8,8.39-4l-2-9.22C375.51,454.31,372.72,455.7,369.86,457Z" transform="translate(0.06 0.06)"/><path class="cls-1" d="M420,375.41l9.28-2c.26-3.08.36-6.19.33-9.32l-9,2A88.94,88.94,0,0,1,420,375.41Z" transform="translate(0.06 0.06)"/><path class="cls-1" d="M359.68,410.11A50.54,50.54,0,0,0,367,401.4l-3-13.83,10.05-2.18a49.87,49.87,0,0,0,1.38-9.55l-9.2,2a41.23,41.23,0,0,1-8.91,21.55Z" transform="translate(0.06 0.06)"/><path class="cls-1" d="M438.52,371.39c.17-3.09.22-6.18.12-9.28l-9,2c0,3.13-.07,6.24-.33,9.32Z" transform="translate(0.06 0.06)"/><path class="cls-1" d="M367.9,447.93l2,9c2.86-1.26,5.65-2.65,8.34-4.16l-2-9.25A91.15,91.15,0,0,1,367.9,447.93Z" transform="translate(0.06 0.06)"/><path class="cls-1" d="M480.79,371.45l5.8,26.71,7.88-6.3L487.7,360.7l-21.87,4.75c0,3.12-.12,6.23-.34,9.33Z" transform="translate(0.06 0.06)"/><path class="cls-1" d="M503.82,477.46l-106,23-3.34-15.35c-2.72,1.48-5.51,2.87-8.34,4.17l4.76,21.93,123.68-26.87-4.51-20.73L500,459.69Z" transform="translate(0.06 0.06)"/><path class="cls-1" d="M371.82,423.42l.26,1.19a70.66,70.66,0,0,0,7.83-6.52l-.63-2.89A68.26,68.26,0,0,1,371.82,423.42Z" transform="translate(0.06 0.06)"/><path class="cls-1" d="M398.39,389.36a72.52,72.52,0,0,0,2.72-9.84l-8,1.73a68,68,0,0,1-1.84,9.66Z" transform="translate(0.06 0.06)"/><path class="cls-1" d="M465.49,374.78c.22-3.1.34-6.21.34-9.33l-9.07,2q-.08,4.69-.5,9.36Z" transform="translate(0.06 0.06)"/><path class="cls-1" d="M392.48,475.91q-4.07,2.31-8.31,4.33l2,9.07c2.83-1.3,5.62-2.69,8.34-4.17Z" transform="translate(0.06 0.06)"/><path class="cls-1" d="M379.28,415.2l-2.66-12.26a59.1,59.1,0,0,1-7.1,9.91l2.3,10.57A68.26,68.26,0,0,0,379.28,415.2Z" transform="translate(0.06 0.06)"/><path class="cls-1" d="M391.27,390.91a68,68,0,0,0,1.84-9.66l-9.42,2.05a58.67,58.67,0,0,1-2.55,9.81Z" transform="translate(0.06 0.06)"/><path class="cls-1" d="M390.46,466.62c-2.69,1.61-5.45,3.13-8.27,4.53l2,9.09q4.24-2,8.31-4.33Z" transform="translate(0.06 0.06)"/><path class="cls-1" d="M372.08,424.61l2.07,9.53a81.92,81.92,0,0,0,8-5.89l-2.21-10.16A70.66,70.66,0,0,1,372.08,424.61Z" transform="translate(0.06 0.06)"/><path class="cls-1" d="M456.26,376.78q.42-4.66.5-9.36l-9.1,2q-.17,4.73-.7,9.4Z" transform="translate(0.06 0.06)"/><path class="cls-1" d="M408.55,387.15a80.73,80.73,0,0,0,2.1-9.71l-9.54,2.08a72.52,72.52,0,0,1-2.72,9.84Z" transform="translate(0.06 0.06)"/><path class="cls-1" d="M447,378.8q.54-4.68.7-9.4l-9.14,2c-.17,3.16-.49,6.32-.94,9.45Z" transform="translate(0.06 0.06)"/><path class="cls-1" d="M388.42,457.25c-2.66,1.71-5.4,3.29-8.21,4.77l2,9.13c2.82-1.4,5.58-2.92,8.27-4.53Z" transform="translate(0.06 0.06)"/><path class="cls-1" d="M408.55,387.15l9.86-2.14a89.43,89.43,0,0,0,1.61-9.6l-9.37,2A80.73,80.73,0,0,1,408.55,387.15Z" transform="translate(0.06 0.06)"/><path class="cls-1" d="M376.62,402.94l-1.84-8.45,6.36-1.38a58.67,58.67,0,0,0,2.55-9.81l-9.61,2.09a50.5,50.5,0,0,1-7,16l2.48,11.45A59.1,59.1,0,0,0,376.62,402.94Z" transform="translate(0.06 0.06)"/><path class="cls-1" d="M374.15,434.14l2.05,9.41a87.59,87.59,0,0,0,8.06-5.45l-2.14-9.85A81.92,81.92,0,0,1,374.15,434.14Z" transform="translate(0.06 0.06)"/><path class="cls-1" d="M376.2,443.55l2,9.25q4.23-2.35,8.15-5.08l-2.09-9.62A87.59,87.59,0,0,1,376.2,443.55Z" transform="translate(0.06 0.06)"/><path class="cls-1" d="M428.05,382.91q.85-4.71,1.25-9.52l-9.28,2a89.43,89.43,0,0,1-1.61,9.6Z" transform="translate(0.06 0.06)"/><path class="cls-1" d="M364,387.57l3,13.83a50.5,50.5,0,0,0,7-16Z" transform="translate(0.06 0.06)"/><path class="cls-1" d="M386.35,447.72q-3.93,2.73-8.15,5.08l2,9.22c2.81-1.48,5.55-3.06,8.21-4.77Z" transform="translate(0.06 0.06)"/><path class="cls-1" d="M437.58,380.84c.45-3.13.77-6.29.94-9.45l-9.22,2q-.39,4.82-1.25,9.52Z" transform="translate(0.06 0.06)"/><path class="cls-1" d="M493.07,470.54l-88.34,19.2-2.05-9.43q-4,2.56-8.2,4.83l3.34,15.35,106-23L500,459.69l-10.11-3.95Z" transform="translate(0.06 0.06)"/><path class="cls-1" d="M473.87,382.21l4.84,22.25,7.88-6.3-5.8-26.71-15.3,3.33c-.22,3.16-.55,6.32-1,9.46Z" transform="translate(0.06 0.06)"/><path class="cls-1" d="M379.28,415.2l.63,2.89a73,73,0,0,0,7.44-8.34l-1.19-5.48A69.26,69.26,0,0,1,379.28,415.2Z" transform="translate(0.06 0.06)"/><path class="cls-1" d="M464.5,384.24c.44-3.14.77-6.3,1-9.46l-9.23,2c-.29,3.19-.7,6.37-1.23,9.52Z" transform="translate(0.06 0.06)"/><path class="cls-1" d="M400.63,470.85q-4,2.68-8.15,5.06l2,9.23q4.2-2.26,8.2-4.83Z" transform="translate(0.06 0.06)"/><path class="cls-1" d="M391.27,390.91a68.7,68.7,0,0,1-3.53,10l6.15-1.33a72.91,72.91,0,0,0,4.5-10.23Z" transform="translate(0.06 0.06)"/><path class="cls-1" d="M379.91,418.09l2.21,10.16a81.6,81.6,0,0,0,7.66-7.34l-2.43-11.16A73,73,0,0,1,379.91,418.09Z" transform="translate(0.06 0.06)"/><path class="cls-1" d="M398.55,461.28q-3.93,2.84-8.09,5.34l2,9.29q4.17-2.37,8.15-5.06Z" transform="translate(0.06 0.06)"/><path class="cls-1" d="M393.89,399.59l11.17-2.43a82.42,82.42,0,0,0,3.49-10l-10.16,2.21A72.91,72.91,0,0,1,393.89,399.59Z" transform="translate(0.06 0.06)"/><path class="cls-1" d="M455,386.3c.53-3.15.94-6.33,1.23-9.52l-9.3,2q-.56,4.83-1.5,9.58Z" transform="translate(0.06 0.06)"/><path class="cls-1" d="M386.16,404.27l-.62-2.87,2.2-.48a68.7,68.7,0,0,0,3.53-10l-10.13,2.2a59.88,59.88,0,0,1-4.52,9.83l2.66,12.26A69.26,69.26,0,0,0,386.16,404.27Z" transform="translate(0.06 0.06)"/><path class="cls-1" d="M382.12,428.25l2.14,9.85a88,88,0,0,0,7.81-6.63l-2.29-10.56A81.6,81.6,0,0,1,382.12,428.25Z" transform="translate(0.06 0.06)"/><path class="cls-1" d="M396.44,451.57q-3.88,3-8,5.68l2,9.37q4.16-2.5,8.09-5.34Z" transform="translate(0.06 0.06)"/><path class="cls-1" d="M415.61,394.87a89.84,89.84,0,0,0,2.8-9.86l-9.86,2.14a82.42,82.42,0,0,1-3.49,10Z" transform="translate(0.06 0.06)"/><path class="cls-1" d="M374.78,394.49l1.84,8.45a59.88,59.88,0,0,0,4.52-9.83Z" transform="translate(0.06 0.06)"/><path class="cls-1" d="M445.46,388.38q.94-4.75,1.5-9.58l-9.38,2c-.47,3.25-1.09,6.46-1.86,9.66Z" transform="translate(0.06 0.06)"/><path class="cls-1" d="M394.28,441.63a98.55,98.55,0,0,1-7.93,6.09l2.07,9.53q4.14-2.65,8-5.68Z" transform="translate(0.06 0.06)"/><path class="cls-1" d="M425.79,392.66a99.94,99.94,0,0,0,2.26-9.75l-9.64,2.1a89.84,89.84,0,0,1-2.8,9.86Z" transform="translate(0.06 0.06)"/><path class="cls-1" d="M392.07,431.47a88,88,0,0,1-7.81,6.63l2.09,9.62a98.55,98.55,0,0,0,7.93-6.09Z" transform="translate(0.06 0.06)"/><path class="cls-1" d="M435.72,390.5c.77-3.2,1.39-6.41,1.86-9.66l-9.53,2.07a99.94,99.94,0,0,1-2.26,9.75Z" transform="translate(0.06 0.06)"/><path class="cls-1" d="M464.5,384.24q-.69,4.85-1.72,9.63L467,393l3.87,17.81,7.88-6.31-4.84-22.25Z" transform="translate(0.06 0.06)"/><path class="cls-1" d="M482.32,463.63,411.65,479l-.92-4.22q-3.92,2.91-8.05,5.54l2.05,9.43,88.34-19.2-3.22-14.8-10.11-4Z" transform="translate(0.06 0.06)"/><path class="cls-1" d="M386.16,404.27l1.19,5.48A72.42,72.42,0,0,0,392,402.9c.66-1.09,1.28-2.2,1.87-3.31l-6.15,1.33C387.24,402.05,386.72,403.17,386.16,404.27Z" transform="translate(0.06 0.06)"/><path class="cls-1" d="M455,386.3c-.55,3.25-1.22,6.49-2,9.69l9.77-2.12q1-4.78,1.72-9.63Z" transform="translate(0.06 0.06)"/><path class="cls-1" d="M408.61,465c-2.58,2.05-5.25,4-8,5.85l2.05,9.46q4.13-2.62,8.05-5.54Z" transform="translate(0.06 0.06)"/><path class="cls-1" d="M399.76,407.56h0a83.9,83.9,0,0,0,5.29-10.39l-11.17,2.43c-.59,1.11-1.21,2.22-1.87,3.31a72.42,72.42,0,0,1-4.67,6.85l2.43,11.16a83.93,83.93,0,0,0,7.26-9.14l-.75-3.45Z" transform="translate(0.06 0.06)"/><path class="cls-1" d="M445.46,388.38q-1,4.94-2.42,9.78L453,396c.8-3.2,1.47-6.44,2-9.69Z" transform="translate(0.06 0.06)"/><path class="cls-1" d="M406.45,455.05q-3.82,3.29-7.9,6.23l2.08,9.57c2.73-1.84,5.4-3.8,8-5.85Z" transform="translate(0.06 0.06)"/><path class="cls-1" d="M386.16,404.27c.56-1.1,1.08-2.22,1.58-3.35l-2.2.48Z" transform="translate(0.06 0.06)"/><path class="cls-1" d="M435.72,390.5c-.79,3.32-1.75,6.62-2.86,9.87L443,398.16q1.43-4.85,2.42-9.78Z" transform="translate(0.06 0.06)"/><path class="cls-1" d="M405.06,397.16a83.9,83.9,0,0,1-5.29,10.39h0L411.39,405a90.34,90.34,0,0,0,4.22-10.16Z" transform="translate(0.06 0.06)"/><path class="cls-1" d="M404.24,444.88q-3.75,3.54-7.8,6.69l2.11,9.71q4.08-2.94,7.9-6.23Z" transform="translate(0.06 0.06)"/><path class="cls-1" d="M399.58,423.44,397,411.77a83.93,83.93,0,0,1-7.26,9.14l2.29,10.56A92.14,92.14,0,0,0,399.58,423.44Z" transform="translate(0.06 0.06)"/><path class="cls-1" d="M402,434.36a99.49,99.49,0,0,1-7.67,7.27l2.16,9.94q4.05-3.15,7.8-6.69Z" transform="translate(0.06 0.06)"/><path class="cls-1" d="M425.79,392.66a99.82,99.82,0,0,1-3.45,10l10.52-2.28c1.11-3.25,2.07-6.55,2.86-9.87Z" transform="translate(0.06 0.06)"/><path class="cls-1" d="M415.61,394.87A90.34,90.34,0,0,1,411.39,405l10.95-2.38a99.82,99.82,0,0,0,3.45-10Z" transform="translate(0.06 0.06)"/><path class="cls-1" d="M399.58,423.44a92.14,92.14,0,0,1-7.51,8l2.21,10.16a99.49,99.49,0,0,0,7.67-7.27Z" transform="translate(0.06 0.06)"/><path class="cls-1" d="M462.78,393.87a136.25,136.25,0,0,1-11.51,32.53l19.56-15.63L467,393Z" transform="translate(0.06 0.06)"/><path class="cls-1" d="M410.73,474.77l.92,4.22,70.67-15.36-2.58-11.85-35.07-13.71A136.32,136.32,0,0,1,410.73,474.77Z" transform="translate(0.06 0.06)"/><path class="cls-1" d="M444.67,438.07,439.3,436l12-9.57a136.25,136.25,0,0,0,11.51-32.53L453,396a128.6,128.6,0,0,1-44.4,69l2.12,9.77A136.32,136.32,0,0,0,444.67,438.07Z" transform="translate(0.06 0.06)"/><path class="cls-1" d="M396.29,408.32l.75,3.45c.94-1.38,1.86-2.77,2.72-4.21Z" transform="translate(0.06 0.06)"/><path class="cls-1" d="M438.51,430.84A128.41,128.41,0,0,0,453,396l-10,2.17a119.55,119.55,0,0,1-36.59,56.89l2.16,9.95A127.55,127.55,0,0,0,438.51,430.84Z" transform="translate(0.06 0.06)"/><path class="cls-1" d="M411.39,405l-11.63,2.53c-.86,1.44-1.78,2.83-2.72,4.21l2.54,11.67a93.7,93.7,0,0,0,7.94-11.23C408.93,409.86,410.21,407.47,411.39,405Z" transform="translate(0.06 0.06)"/><path class="cls-1" d="M430.76,426.18a119,119,0,0,0,12.28-28l-10.18,2.21a110.67,110.67,0,0,1-28.62,44.51l2.21,10.17A118.76,118.76,0,0,0,430.76,426.18Z" transform="translate(0.06 0.06)"/><path class="cls-1" d="M411.39,405c-1.18,2.44-2.46,4.83-3.87,7.18a93.7,93.7,0,0,1-7.94,11.23L402,434.36a100.59,100.59,0,0,0,20.39-31.71Z" transform="translate(0.06 0.06)"/><path class="cls-1" d="M423,421.53a110.56,110.56,0,0,0,9.85-21.16l-10.52,2.28A100.59,100.59,0,0,1,402,434.36l2.29,10.52A110.07,110.07,0,0,0,423,421.53Z" transform="translate(0.06 0.06)"/><path class="cls-1" d="M689.46,247.53l4.5,29.64a140.68,140.68,0,0,1,2.83-41.53L696,230.7,549.64,347.75l2.14,9.86Z" transform="translate(0.06 0.06)"/><path class="cls-1" d="M698.22,302q-.71-2.7-1.3-5.39l37.23,244.91L578.54,480.71l2.3,10.61,158.79,62.09h5.47L712,335.86A141.31,141.31,0,0,1,698.22,302Z" transform="translate(0.06 0.06)"/><polygon class="cls-1" points="551.84 357.67 549.7 347.81 541.82 354.11 543.96 363.97 551.84 357.67"/><polygon class="cls-1" points="570.79 487.42 580.9 491.37 578.59 480.77 568.48 476.81 570.79 487.42"/><polygon class="cls-1" points="558.37 472.86 560.68 483.47 570.79 487.42 568.48 476.81 558.37 472.86"/><polygon class="cls-1" points="543.96 363.97 541.82 354.11 533.94 360.41 536.08 370.27 543.96 363.97"/><polygon class="cls-1" points="548.26 468.91 550.57 479.51 560.68 483.47 558.37 472.86 548.26 468.91"/><polygon class="cls-1" points="528.2 376.57 536.08 370.27 533.94 360.41 526.05 366.71 528.2 376.57"/><polygon class="cls-1" points="520.32 382.87 528.2 376.57 526.05 366.71 518.17 373.01 520.32 382.87"/><polygon class="cls-1" points="538.15 464.95 540.46 475.56 550.57 479.51 548.26 468.91 538.15 464.95"/><polygon class="cls-1" points="512.43 389.18 520.32 382.87 518.17 373.01 510.29 379.31 512.43 389.18"/><polygon class="cls-1" points="528.04 461 530.35 471.61 540.46 475.56 538.15 464.95 528.04 461"/><polygon class="cls-1" points="520.24 467.65 530.35 471.61 528.04 461 517.93 457.05 520.24 467.65"/><polygon class="cls-1" points="504.55 395.48 512.43 389.18 510.29 379.31 502.41 385.62 504.55 395.48"/><polygon class="cls-1" points="510.13 463.7 520.24 467.65 517.93 457.05 507.82 453.09 510.13 463.7"/><polygon class="cls-1" points="496.67 401.78 504.55 395.48 502.41 385.62 494.53 391.92 496.67 401.78"/><polygon class="cls-1" points="488.79 408.08 496.67 401.78 494.53 391.92 486.65 398.22 488.79 408.08"/><polygon class="cls-1" points="500.02 459.75 510.13 463.7 507.82 453.09 497.71 449.14 500.02 459.75"/><polygon class="cls-1" points="478.77 404.52 480.91 414.38 488.79 408.08 486.65 398.22 478.77 404.52"/><polygon class="cls-1" points="489.91 455.79 500.02 459.75 497.71 449.14 487.6 445.19 489.91 455.79"/><polygon class="cls-1" points="479.8 451.84 489.91 455.79 487.6 445.19 477.49 441.23 479.8 451.84"/><polygon class="cls-1" points="470.88 410.82 473.03 420.68 480.91 414.38 478.77 404.52 470.88 410.82"/><path class="cls-1" d="M451.27,426.4q-2.32,4.62-5,9.1c-.52.86-1.06,1.72-1.59,2.57l35.07,13.71-2.3-10.6-20.26-7.93L473,420.63l-2.14-9.86Z" transform="translate(0.06 0.06)"/><path class="cls-1" d="M444.67,438.07c.53-.85,1.07-1.71,1.59-2.57q2.69-4.49,5-9.1l-12,9.57Z" transform="translate(0.06 0.06)"/><path class="cls-1" d="M689.46,247.53,551.78,357.61l2.15,9.86,128.94-103.1,40,263.07L576.23,470.1l2.31,10.61,155.61,60.85L696.92,296.65a141.61,141.61,0,0,1-3-19.48Z" transform="translate(0.06 0.06)"/><polygon class="cls-1" points="546.1 373.83 553.98 367.53 551.84 357.67 543.96 363.97 546.1 373.83"/><polygon class="cls-1" points="566.18 466.2 568.48 476.81 578.59 480.77 576.29 470.16 566.18 466.2"/><polygon class="cls-1" points="546.1 373.83 543.96 363.97 536.08 370.27 538.22 380.13 546.1 373.83"/><polygon class="cls-1" points="558.37 472.86 568.48 476.81 566.18 466.2 556.07 462.25 558.37 472.86"/><polygon class="cls-1" points="538.22 380.13 536.08 370.27 528.2 376.57 530.34 386.43 538.22 380.13"/><polygon class="cls-1" points="545.96 458.3 548.26 468.91 558.37 472.86 556.07 462.25 545.96 458.3"/><polygon class="cls-1" points="522.46 392.73 530.34 386.43 528.2 376.57 520.32 382.87 522.46 392.73"/><polygon class="cls-1" points="535.85 454.35 538.15 464.95 548.26 468.91 545.96 458.3 535.85 454.35"/><polygon class="cls-1" points="514.58 399.04 522.46 392.73 520.32 382.87 512.43 389.18 514.58 399.04"/><polygon class="cls-1" points="525.74 450.39 528.04 461 538.15 464.95 535.85 454.35 525.74 450.39"/><polygon class="cls-1" points="515.63 446.44 517.93 457.05 528.04 461 525.74 450.39 515.63 446.44"/><polygon class="cls-1" points="506.7 405.34 514.58 399.04 512.43 389.18 504.55 395.48 506.7 405.34"/><polygon class="cls-1" points="498.81 411.64 506.7 405.34 504.55 395.48 496.67 401.78 498.81 411.64"/><polygon class="cls-1" points="507.82 453.09 517.93 457.05 515.63 446.44 505.52 442.49 507.82 453.09"/><polygon class="cls-1" points="488.79 408.08 490.93 417.94 498.81 411.64 496.67 401.78 488.79 408.08"/><polygon class="cls-1" points="497.71 449.14 507.82 453.09 505.52 442.49 495.41 438.53 497.71 449.14"/><polygon class="cls-1" points="487.6 445.19 497.71 449.14 495.41 438.53 485.3 434.58 487.6 445.19"/><polygon class="cls-1" points="480.91 414.38 483.05 424.24 490.93 417.94 488.79 408.08 480.91 414.38"/><polygon class="cls-1" points="473.03 420.68 475.17 430.54 483.05 424.24 480.91 414.38 473.03 420.68"/><polygon class="cls-1" points="477.49 441.23 487.6 445.19 485.3 434.58 475.19 430.63 477.49 441.23"/><polygon class="cls-1" points="477.49 441.23 475.19 430.63 475.11 430.59 475.17 430.54 473.03 420.68 457.23 433.31 477.49 441.23"/><polygon class="cls-1" points="676.35 281.27 711.63 513.37 573.98 459.55 576.29 470.16 722.92 527.5 682.93 264.43 553.98 367.53 556.13 377.39 676.35 281.27"/><polygon class="cls-1" points="563.87 455.6 566.18 466.2 576.29 470.16 573.98 459.55 563.87 455.6"/><polygon class="cls-1" points="548.25 383.69 556.13 377.39 553.98 367.53 546.1 373.83 548.25 383.69"/><polygon class="cls-1" points="540.36 389.99 548.25 383.69 546.1 373.83 538.22 380.13 540.36 389.99"/><polygon class="cls-1" points="553.76 451.64 556.07 462.25 566.18 466.2 563.87 455.6 553.76 451.64"/><polygon class="cls-1" points="540.36 389.99 538.22 380.13 530.34 386.43 532.48 396.29 540.36 389.99"/><polygon class="cls-1" points="545.96 458.3 556.07 462.25 553.76 451.64 543.65 447.69 545.96 458.3"/><polygon class="cls-1" points="533.54 443.74 535.85 454.35 545.96 458.3 543.65 447.69 533.54 443.74"/><polygon class="cls-1" points="532.48 396.29 530.34 386.43 522.46 392.73 524.6 402.6 532.48 396.29"/><polygon class="cls-1" points="516.72 408.9 524.6 402.6 522.46 392.73 514.58 399.04 516.72 408.9"/><polygon class="cls-1" points="523.43 439.78 525.74 450.39 535.85 454.35 533.54 443.74 523.43 439.78"/><polygon class="cls-1" points="508.84 415.2 516.72 408.9 514.58 399.04 506.7 405.34 508.84 415.2"/><polygon class="cls-1" points="513.32 435.83 515.63 446.44 525.74 450.39 523.43 439.78 513.32 435.83"/><polygon class="cls-1" points="503.21 431.88 505.52 442.49 515.63 446.44 513.32 435.83 503.21 431.88"/><polygon class="cls-1" points="498.81 411.64 500.96 421.5 508.84 415.2 506.7 405.34 498.81 411.64"/><polygon class="cls-1" points="495.41 438.53 505.52 442.49 503.21 431.88 493.1 427.93 495.41 438.53"/><polygon class="cls-1" points="490.93 417.94 493.08 427.8 500.96 421.5 498.81 411.64 490.93 417.94"/><polygon class="cls-1" points="483.05 424.24 485.3 434.58 495.41 438.53 493.1 427.93 492.98 427.88 493.08 427.8 490.93 417.94 483.05 424.24"/><polygon class="cls-1" points="475.19 430.63 485.3 434.58 483.05 424.24 475.17 430.54 475.19 430.63"/><polygon class="cls-1" points="475.19 430.63 475.17 430.54 475.11 430.59 475.19 430.63"/><polygon class="cls-1" points="669.76 298.11 700.34 499.25 571.68 448.94 573.98 459.55 711.63 513.37 676.35 281.27 556.13 377.39 558.27 387.25 669.76 298.11"/><polygon class="cls-1" points="561.57 444.99 563.87 455.6 573.98 459.55 571.68 448.94 561.57 444.99"/><polygon class="cls-1" points="558.27 387.25 556.13 377.39 548.25 383.69 550.39 393.55 558.27 387.25"/><polygon class="cls-1" points="551.46 441.04 553.76 451.64 563.87 455.6 561.57 444.99 551.46 441.04"/><polygon class="cls-1" points="542.51 399.85 550.39 393.55 548.25 383.69 540.36 389.99 542.51 399.85"/><polygon class="cls-1" points="534.63 406.15 542.51 399.85 540.36 389.99 532.48 396.29 534.63 406.15"/><polygon class="cls-1" points="541.35 437.08 543.65 447.69 553.76 451.64 551.46 441.04 541.35 437.08"/><polygon class="cls-1" points="533.54 443.74 543.65 447.69 541.35 437.08 531.24 433.13 533.54 443.74"/><polygon class="cls-1" points="534.63 406.15 532.48 396.29 524.6 402.6 526.74 412.46 534.63 406.15"/><polygon class="cls-1" points="526.74 412.46 524.6 402.6 516.72 408.9 518.86 418.76 526.74 412.46"/><polygon class="cls-1" points="521.13 429.18 523.43 439.78 533.54 443.74 531.24 433.13 521.13 429.18"/><polygon class="cls-1" points="511.02 425.22 513.32 435.83 523.43 439.78 521.13 429.18 511.02 425.22"/><polygon class="cls-1" points="510.98 425.06 518.86 418.76 516.72 408.9 508.84 415.2 510.98 425.06"/><polygon class="cls-1" points="510.86 425.16 510.98 425.06 508.84 415.2 500.96 421.5 503.21 431.88 513.32 435.83 511.02 425.22 510.86 425.16"/><polygon class="cls-1" points="493.08 427.8 493.1 427.93 503.21 431.88 500.96 421.5 493.08 427.8"/><polygon class="cls-1" points="493.1 427.93 493.08 427.8 492.98 427.88 493.1 427.93"/><polygon class="cls-1" points="663.18 314.94 689.05 485.13 569.37 438.33 571.68 448.94 700.34 499.25 669.76 298.11 558.27 387.25 560.41 397.11 663.18 314.94"/><polygon class="cls-1" points="559.26 434.38 561.57 444.99 571.68 448.94 569.37 438.33 559.26 434.38"/><polygon class="cls-1" points="560.41 397.11 558.27 387.25 550.39 393.55 552.53 403.41 560.41 397.11"/><polygon class="cls-1" points="552.53 403.41 550.39 393.55 542.51 399.85 544.65 409.71 552.53 403.41"/><polygon class="cls-1" points="549.15 430.43 551.46 441.04 561.57 444.99 559.26 434.38 549.15 430.43"/><polygon class="cls-1" points="539.04 426.48 541.35 437.08 551.46 441.04 549.15 430.43 539.04 426.48"/><polygon class="cls-1" points="536.77 416.01 544.65 409.71 542.51 399.85 534.63 406.15 536.77 416.01"/><polygon class="cls-1" points="528.89 422.32 536.77 416.01 534.63 406.15 526.74 412.46 528.89 422.32"/><polygon class="cls-1" points="528.93 422.52 531.24 433.13 541.35 437.08 539.04 426.48 528.93 422.52"/><polygon class="cls-1" points="528.89 422.32 526.74 412.46 518.86 418.76 521.13 429.18 531.24 433.13 528.93 422.52 528.73 422.44 528.89 422.32"/><polygon class="cls-1" points="510.98 425.06 511.02 425.22 521.13 429.18 518.86 418.76 510.98 425.06"/><polygon class="cls-1" points="510.86 425.16 511.02 425.22 510.98 425.06 510.86 425.16"/><polygon class="cls-1" points="656.6 331.78 677.76 471.01 567.07 427.73 569.37 438.33 689.05 485.13 663.18 314.94 560.41 397.11 562.56 406.97 656.6 331.78"/><polygon class="cls-1" points="562.56 406.97 560.41 397.11 552.53 403.41 554.67 413.27 562.56 406.97"/><polygon class="cls-1" points="556.96 423.77 559.26 434.38 569.37 438.33 567.07 427.73 556.96 423.77"/><polygon class="cls-1" points="554.67 413.27 552.53 403.41 544.65 409.71 546.79 419.57 554.67 413.27"/><polygon class="cls-1" points="546.85 419.82 549.15 430.43 559.26 434.38 556.96 423.77 546.85 419.82"/><polygon class="cls-1" points="549.15 430.43 546.85 419.82 546.6 419.73 546.79 419.57 544.65 409.71 536.77 416.01 539.04 426.48 549.15 430.43"/><polygon class="cls-1" points="528.93 422.52 539.04 426.48 536.77 416.01 528.89 422.32 528.93 422.52"/><polygon class="cls-1" points="528.73 422.44 528.93 422.52 528.89 422.32 528.73 422.44"/><polygon class="cls-1" points="650.01 348.62 666.47 456.89 564.76 417.12 567.07 427.73 677.76 471.01 656.6 331.78 562.56 406.97 564.7 416.83 650.01 348.62"/><polygon class="cls-1" points="567.07 427.73 564.76 417.12 564.48 417.01 564.7 416.83 562.56 406.97 554.67 413.27 556.96 423.77 567.07 427.73"/><polygon class="cls-1" points="554.67 413.27 546.79 419.57 546.85 419.82 556.96 423.77 554.67 413.27"/><polygon class="cls-1" points="546.6 419.73 546.85 419.82 546.79 419.57 546.6 419.73"/><path class="cls-1" d="M650,348.56l-85.31,68.22.06.28,101.71,39.77Zm-6.58,16.84,11.75,77.31-72.83-28.47Z" transform="translate(0.06 0.06)"/><polygon class="cls-1" points="564.48 417.01 564.76 417.12 564.7 416.83 564.48 417.01"/><path class="cls-1" d="M643.37,365.4l-61.08,48.84,72.83,28.47Zm-6.58,16.84,7,46.35-43.66-17.07Z" transform="translate(0.06 0.06)"/><polygon class="cls-1" points="636.84 382.3 600.23 411.57 643.89 428.65 636.84 382.3"/><path class="cls-1" d="M801.32,137.58C868.25,119.89,937,156.87,960,220.84V198.69c-30.33-56.37-96.45-86.91-161-69.85a141.35,141.35,0,0,0-34,13.88l.19,10.41A132,132,0,0,1,801.32,137.58Z" transform="translate(0.06 0.06)"/><path class="cls-1" d="M869.11,394.08a131.81,131.81,0,0,1-75.44-2.32l1.51,10A141.47,141.47,0,0,0,960,332.79V310.68A132.59,132.59,0,0,1,869.11,394.08Z" transform="translate(0.06 0.06)"/><path class="cls-1" d="M765.24,153.13l-.19-10.41q-4.59,2.63-8.94,5.55l.19,10.93Q760.64,156,765.24,153.13Z" transform="translate(0.06 0.06)"/><path class="cls-1" d="M784,388.12l1.58,10.36q4.76,1.78,9.63,3.24l-1.51-10Q788.75,390.14,784,388.12Z" transform="translate(0.06 0.06)"/><path class="cls-1" d="M774.13,383.52l1.65,10.87q4.8,2.22,9.77,4.09L784,388.12C780.63,386.72,777.34,385.19,774.13,383.52Z" transform="translate(0.06 0.06)"/><path class="cls-1" d="M756.3,159.2l-.19-10.93q-4.61,3.1-8.92,6.55v.25L741,160l-.74.66,1.65,10.88A132.05,132.05,0,0,1,756.3,159.2Z" transform="translate(0.06 0.06)"/><path class="cls-1" d="M741.91,171.57l-1.65-10.88q-4.14,3.75-8,7.81l1.76,11.59C736.55,177.15,739.17,174.3,741.91,171.57Z" transform="translate(0.06 0.06)"/><path class="cls-1" d="M747.19,154.82c-2.12,1.68-4.19,3.41-6.19,5.21l6.19-5Z" transform="translate(0.06 0.06)"/><path class="cls-1" d="M764.11,377.74l1.76,11.57q4.86,2.73,9.91,5.08l-1.65-10.87C770.71,381.74,767.37,379.8,764.11,377.74Z" transform="translate(0.06 0.06)"/><path class="cls-1" d="M753.87,370.54l1.91,12.54q4.9,3.33,10.09,6.23l-1.76-11.57Q758.83,374.38,753.87,370.54Z" transform="translate(0.06 0.06)"/><path class="cls-1" d="M734.06,180.09,732.3,168.5q-4.08,4.33-7.78,9L726.43,190Q730,184.89,734.06,180.09Z" transform="translate(0.06 0.06)"/><path class="cls-1" d="M743.35,361.48l2.12,13.92q5,4.08,10.31,7.68l-1.91-12.54A132.92,132.92,0,0,1,743.35,361.48Z" transform="translate(0.06 0.06)"/><path class="cls-1" d="M726.43,190l-1.91-12.56c-2.68,3.36-5.2,6.85-7.56,10.43l2.12,13.95A133.11,133.11,0,0,1,726.43,190Z" transform="translate(0.06 0.06)"/><path class="cls-1" d="M732.41,349.65l2.46,16.17a139.23,139.23,0,0,0,10.6,9.58l-2.12-13.92A132,132,0,0,1,732.41,349.65Z" transform="translate(0.06 0.06)"/><path class="cls-1" d="M719.08,201.85,717,187.9q-3.93,6-7.26,12.34l2.46,16.19A134,134,0,0,1,719.08,201.85Z" transform="translate(0.06 0.06)"/><path class="cls-1" d="M712.16,216.43l-2.46-16.19a141.33,141.33,0,0,0-6.84,15.16L706,236A132.24,132.24,0,0,1,712.16,216.43Z" transform="translate(0.06 0.06)"/><path class="cls-1" d="M720.71,332.82l3.13,20.58a138.74,138.74,0,0,0,11,12.42l-2.46-16.17A131.43,131.43,0,0,1,720.71,332.82Z" transform="translate(0.06 0.06)"/><path class="cls-1" d="M706,236l-3.13-20.59a142.49,142.49,0,0,0-6.07,20.24L703,276.19A131.52,131.52,0,0,1,706,236Z" transform="translate(0.06 0.06)"/><path class="cls-1" d="M707,299.73c-.41-1.58-.79-3.17-1.15-4.75L712,335.86a139,139,0,0,0,11.81,17.54l-3.13-20.58A132.74,132.74,0,0,1,707,299.73Z" transform="translate(0.06 0.06)"/><path class="cls-1" d="M703,276.19l-6.17-40.55A140.68,140.68,0,0,0,694,277.17l3,19.48q.6,2.69,1.3,5.39A141.31,141.31,0,0,0,712,335.86L705.81,295A133.18,133.18,0,0,1,703,276.19Z" transform="translate(0.06 0.06)"/><path class="cls-1" d="M696.92,296.65l-3-19.48A141.61,141.61,0,0,0,696.92,296.65Z" transform="translate(0.06 0.06)"/><path class="cls-1" d="M801.32,137.58a132,132,0,0,0-36.08,15.55l.18,10.51-1.52,1.22a123.63,123.63,0,1,1,28.23,216.79l1.54,10.11A132.47,132.47,0,0,0,960,310.68V220.84C937,156.87,868.25,119.89,801.32,137.58Z" transform="translate(0.06 0.06)"/><path class="cls-1" d="M782.36,377.51,784,388.12q4.77,2,9.7,3.64l-1.54-10.11C788.81,380.41,785.56,379,782.36,377.51Z" transform="translate(0.06 0.06)"/><path class="cls-1" d="M750,164.43l1.59,10.43a123.27,123.27,0,0,1,12.34-10l1.52-1.22-.18-10.51q-4.61,2.87-8.94,6.07v.16Z" transform="translate(0.06 0.06)"/><path class="cls-1" d="M751.56,174.86,750,164.43l6.34-5.07v-.16a132.05,132.05,0,0,0-14.39,12.37l1.72,11.3Q747.4,178.7,751.56,174.86Z" transform="translate(0.06 0.06)"/><path class="cls-1" d="M772.41,372.23l1.72,11.29c3.21,1.67,6.5,3.2,9.84,4.6l-1.61-10.61Q777.28,375.1,772.41,372.23Z" transform="translate(0.06 0.06)"/><path class="cls-1" d="M743.63,182.87l-1.72-11.3c-2.74,2.73-5.36,5.58-7.85,8.52l1.86,12.21Q739.54,187.41,743.63,182.87Z" transform="translate(0.06 0.06)"/><path class="cls-1" d="M762.26,365.54l1.85,12.2c3.26,2.06,6.6,4,10,5.78l-1.72-11.29Q767.18,369.14,762.26,365.54Z" transform="translate(0.06 0.06)"/><path class="cls-1" d="M751.82,357l2,13.52q4.95,3.84,10.24,7.2l-1.85-12.2A119.74,119.74,0,0,1,751.82,357Z" transform="translate(0.06 0.06)"/><path class="cls-1" d="M735.92,192.3l-1.86-12.21q-4,4.8-7.63,9.94l2.06,13.55A125.37,125.37,0,0,1,735.92,192.3Z" transform="translate(0.06 0.06)"/><path class="cls-1" d="M728.49,203.58,726.43,190a133.11,133.11,0,0,0-7.35,11.82l2.39,15.71A125.05,125.05,0,0,1,728.49,203.58Z" transform="translate(0.06 0.06)"/><path class="cls-1" d="M741,345.8l2.38,15.68a132.92,132.92,0,0,0,10.52,9.06l-2-13.52A121.09,121.09,0,0,1,741,345.8Z" transform="translate(0.06 0.06)"/><path class="cls-1" d="M721.47,217.56l-2.39-15.71a134,134,0,0,0-6.92,14.58l3,19.93A124.19,124.19,0,0,1,721.47,217.56Z" transform="translate(0.06 0.06)"/><path class="cls-1" d="M729.38,329.71l3,19.94a132,132,0,0,0,10.94,11.83L741,345.8A123.11,123.11,0,0,1,729.38,329.71Z" transform="translate(0.06 0.06)"/><path class="cls-1" d="M715.7,297.42c-.36-1.37-.69-2.74-1-4.11l6,39.51a131.43,131.43,0,0,0,11.7,16.83l-3-19.94A123.22,123.22,0,0,1,715.7,297.42Z" transform="translate(0.06 0.06)"/><path class="cls-1" d="M715.19,236.36l-3-19.93A132.24,132.24,0,0,0,706,236l6,39.22A122.87,122.87,0,0,1,715.19,236.36Z" transform="translate(0.06 0.06)"/><path class="cls-1" d="M712,275.21,706,236a131.52,131.52,0,0,0-3,40.2L705.81,295c.36,1.58.74,3.17,1.15,4.75a132.74,132.74,0,0,0,13.75,33.09l-6-39.51A123.61,123.61,0,0,1,712,275.21Z" transform="translate(0.06 0.06)"/><path class="cls-1" d="M705.81,295,703,276.19A133.18,133.18,0,0,0,705.81,295Z" transform="translate(0.06 0.06)"/><path class="cls-1" d="M761.23,178.36a114.59,114.59,0,1,1,29.33,192.93l1.57,10.36A123.59,123.59,0,1,0,763.9,164.86l-4.21,3.37Z" transform="translate(0.06 0.06)"/><path class="cls-1" d="M753.22,185.85q3.82-3.93,8-7.49l-1.54-10.13,4.21-3.37a123.27,123.27,0,0,0-12.34,10Z" transform="translate(0.06 0.06)"/><path class="cls-1" d="M780.69,366.53l1.67,11c3.2,1.51,6.45,2.9,9.77,4.14l-1.57-10.36Q785.51,369.15,780.69,366.53Z" transform="translate(0.06 0.06)"/><path class="cls-1" d="M753.22,185.85l-1.66-11q-4.15,3.84-7.93,8l1.8,11.86A115.06,115.06,0,0,1,753.22,185.85Z" transform="translate(0.06 0.06)"/><path class="cls-1" d="M770.62,360.4l1.79,11.83q4.86,2.86,10,5.28l-1.67-11A116,116,0,0,1,770.62,360.4Z" transform="translate(0.06 0.06)"/><path class="cls-1" d="M745.43,194.73l-1.8-11.86q-4.1,4.53-7.71,9.43l2,13.14A113.67,113.67,0,0,1,745.43,194.73Z" transform="translate(0.06 0.06)"/><path class="cls-1" d="M760.26,352.43l2,13.11q4.9,3.6,10.15,6.69l-1.79-11.83A117.29,117.29,0,0,1,760.26,352.43Z" transform="translate(0.06 0.06)"/><path class="cls-1" d="M737.92,205.44l-2-13.14a125.37,125.37,0,0,0-7.43,11.28l2.31,15.21A116.15,116.15,0,0,1,737.92,205.44Z" transform="translate(0.06 0.06)"/><path class="cls-1" d="M749.51,341.84,751.82,357a119.74,119.74,0,0,0,10.44,8.52l-2-13.11A114.27,114.27,0,0,1,749.51,341.84Z" transform="translate(0.06 0.06)"/><path class="cls-1" d="M738,326.55,741,345.8A121.09,121.09,0,0,0,751.82,357l-2.31-15.18A113.8,113.8,0,0,1,738,326.55Z" transform="translate(0.06 0.06)"/><path class="cls-1" d="M730.8,218.79l-2.31-15.21a125.05,125.05,0,0,0-7,14l2.93,19.26A115.3,115.3,0,0,1,730.8,218.79Z" transform="translate(0.06 0.06)"/><path class="cls-1" d="M724.4,236.82l-2.93-19.26a124.19,124.19,0,0,0-6.28,18.8l5.75,37.86A114,114,0,0,1,724.4,236.82Z" transform="translate(0.06 0.06)"/><path class="cls-1" d="M724.44,295.11c-.3-1.15-.58-2.31-.85-3.46l5.79,38.06A123.11,123.11,0,0,0,741,345.8L738,326.55A114.48,114.48,0,0,1,724.44,295.11Z" transform="translate(0.06 0.06)"/><path class="cls-1" d="M720.94,274.22l-5.75-37.86A122.87,122.87,0,0,0,712,275.21l2.75,18.1c.31,1.37.64,2.74,1,4.11a123.22,123.22,0,0,0,13.68,32.29l-5.79-38.06A114.64,114.64,0,0,1,720.94,274.22Z" transform="translate(0.06 0.06)"/><path class="cls-1" d="M714.7,293.31,712,275.21A123.61,123.61,0,0,0,714.7,293.31Z" transform="translate(0.06 0.06)"/><path class="cls-1" d="M808.25,163.8a105.53,105.53,0,1,1-19.31,196.83l1.62,10.66a114.55,114.55,0,1,0-29.33-192.93L762.85,189A105,105,0,0,1,808.25,163.8Z" transform="translate(0.06 0.06)"/><path class="cls-1" d="M779,355.05l1.74,11.48q4.81,2.61,9.87,4.76l-1.62-10.66A107.06,107.06,0,0,1,779,355.05Z" transform="translate(0.06 0.06)"/><path class="cls-1" d="M762.85,189l-1.62-10.67q-4.18,3.55-8,7.49l1.75,11.5A106.65,106.65,0,0,1,762.85,189Z" transform="translate(0.06 0.06)"/><path class="cls-1" d="M768.69,347.7l1.93,12.7a116,116,0,0,0,10.07,6.13L779,355.05A105.83,105.83,0,0,1,768.69,347.7Z" transform="translate(0.06 0.06)"/><path class="cls-1" d="M747.37,207.45a106.61,106.61,0,0,1,7.6-10.1l-1.75-11.5a115.06,115.06,0,0,0-7.79,8.88Z" transform="translate(0.06 0.06)"/><path class="cls-1" d="M747.37,207.45l-1.94-12.72a113.67,113.67,0,0,0-7.51,10.71l2.23,14.68A105,105,0,0,1,747.37,207.45Z" transform="translate(0.06 0.06)"/><path class="cls-1" d="M758,337.78l2.23,14.65a117.29,117.29,0,0,0,10.36,8l-1.93-12.7A105.13,105.13,0,0,1,758,337.78Z" transform="translate(0.06 0.06)"/><path class="cls-1" d="M746.69,323.29l2.82,18.55a114.27,114.27,0,0,0,10.75,10.59L758,337.78A104.7,104.7,0,0,1,746.69,323.29Z" transform="translate(0.06 0.06)"/><path class="cls-1" d="M740.15,220.12l-2.23-14.68a116.15,116.15,0,0,0-7.12,13.35l2.83,18.57A105.93,105.93,0,0,1,740.15,220.12Z" transform="translate(0.06 0.06)"/><path class="cls-1" d="M733.18,292.8c-.24-.94-.48-1.88-.7-2.82L738,326.55a113.8,113.8,0,0,0,11.47,15.29l-2.82-18.55A105.19,105.19,0,0,1,733.18,292.8Z" transform="translate(0.06 0.06)"/><path class="cls-1" d="M733.63,237.36l-2.83-18.57a115.3,115.3,0,0,0-6.4,18l5.54,36.42A104.71,104.71,0,0,1,733.63,237.36Z" transform="translate(0.06 0.06)"/><path class="cls-1" d="M729.94,273.24l-5.54-36.42a114,114,0,0,0-3.46,37.4l2.65,17.43c.27,1.15.55,2.31.85,3.46A114.48,114.48,0,0,0,738,326.55L732.48,290A105.57,105.57,0,0,1,729.94,273.24Z" transform="translate(0.06 0.06)"/><path class="cls-1" d="M723.59,291.65l-2.65-17.43A114.64,114.64,0,0,0,723.59,291.65Z" transform="translate(0.06 0.06)"/><path class="cls-1" d="M810.56,172.54a96.49,96.49,0,1,1-23.31,177l1.69,11.13A105.52,105.52,0,1,0,762.85,189l1.7,11.14A95.88,95.88,0,0,1,810.56,172.54Z" transform="translate(0.06 0.06)"/><path class="cls-1" d="M777.08,342.8,779,355.05a107.06,107.06,0,0,0,10,5.58l-1.69-11.13A97.49,97.49,0,0,1,777.08,342.8Z" transform="translate(0.06 0.06)"/><path class="cls-1" d="M764.55,200.17,762.85,189a106.65,106.65,0,0,0-7.88,8.32l1.87,12.27A95.45,95.45,0,0,1,764.55,200.17Z" transform="translate(0.06 0.06)"/><path class="cls-1" d="M756.84,209.62,755,197.35a106.61,106.61,0,0,0-7.6,10.1l2.14,14.13A97,97,0,0,1,756.84,209.62Z" transform="translate(0.06 0.06)"/><path class="cls-1" d="M766.54,333.59l2.15,14.11A105.83,105.83,0,0,0,779,355.05l-1.87-12.25A96.81,96.81,0,0,1,766.54,333.59Z" transform="translate(0.06 0.06)"/><path class="cls-1" d="M755.32,320,758,337.78a105.13,105.13,0,0,0,10.66,9.92l-2.15-14.11A96.58,96.58,0,0,1,755.32,320Z" transform="translate(0.06 0.06)"/><path class="cls-1" d="M742.86,238a97.92,97.92,0,0,1,6.65-16.38l-2.14-14.13a105,105,0,0,0-7.22,12.67Z" transform="translate(0.06 0.06)"/><path class="cls-1" d="M742.86,238l-2.71-17.84a105.93,105.93,0,0,0-6.52,17.24l5.3,34.9A96.05,96.05,0,0,1,742.86,238Z" transform="translate(0.06 0.06)"/><path class="cls-1" d="M741.92,290.49c-.19-.75-.38-1.49-.56-2.24l5.33,35A104.7,104.7,0,0,0,758,337.78L755.32,320A96.26,96.26,0,0,1,741.92,290.49Z" transform="translate(0.06 0.06)"/><path class="cls-1" d="M738.93,272.26l-5.3-34.9a104.71,104.71,0,0,0-3.69,35.88L732.48,290c.22.94.46,1.88.7,2.82a105.19,105.19,0,0,0,13.51,30.49l-5.33-35A97.41,97.41,0,0,1,738.93,272.26Z" transform="translate(0.06 0.06)"/><path class="cls-1" d="M732.48,290l-2.54-16.74A105.57,105.57,0,0,0,732.48,290Z" transform="translate(0.06 0.06)"/><path class="cls-1" d="M812.87,181.28A87.45,87.45,0,1,1,785.45,337.7l1.8,11.8a96.49,96.49,0,1,0-22.7-149.33L766.34,212A87,87,0,0,1,812.87,181.28Z" transform="translate(0.06 0.06)"/><path class="cls-1" d="M775,329.24l2.06,13.56a97.49,97.49,0,0,0,10.17,6.7l-1.8-11.8A88.84,88.84,0,0,1,775,329.24Z" transform="translate(0.06 0.06)"/><path class="cls-1" d="M766.34,212l-1.79-11.83a95.45,95.45,0,0,0-7.71,9.45l2.06,13.58A88.81,88.81,0,0,1,766.34,212Z" transform="translate(0.06 0.06)"/><path class="cls-1" d="M764,316.51l2.59,17.08a96.81,96.81,0,0,0,10.54,9.21L775,329.24A86.93,86.93,0,0,1,764,316.51Z" transform="translate(0.06 0.06)"/><path class="cls-1" d="M758.9,223.2l-2.06-13.58a97,97,0,0,0-7.33,12l2.6,17.1A89,89,0,0,1,758.9,223.2Z" transform="translate(0.06 0.06)"/><path class="cls-1" d="M752.11,238.68l-2.6-17.1A97.92,97.92,0,0,0,742.86,238l5.06,33.31A87.08,87.08,0,0,1,752.11,238.68Z" transform="translate(0.06 0.06)"/><path class="cls-1" d="M750.66,288.18c-.15-.57-.29-1.14-.42-1.7L755.32,320a96.58,96.58,0,0,0,11.22,13.64L764,316.51A87,87,0,0,1,750.66,288.18Z" transform="translate(0.06 0.06)"/><path class="cls-1" d="M738.93,272.26l2.43,16c.18.75.37,1.49.56,2.24A96.26,96.26,0,0,0,755.32,320l-5.08-33.47a87.36,87.36,0,0,1-2.32-15.21L742.86,238A96.05,96.05,0,0,0,738.93,272.26Z" transform="translate(0.06 0.06)"/><path class="cls-1" d="M741.36,288.25l-2.43-16A97.41,97.41,0,0,0,741.36,288.25Z" transform="translate(0.06 0.06)"/><path class="cls-1" d="M815.18,190a78.41,78.41,0,1,1-31.7,134.7l2,13A87.46,87.46,0,1,0,766.34,212l2,13A78.13,78.13,0,0,1,815.18,190Z" transform="translate(0.06 0.06)"/><path class="cls-1" d="M772.54,312.93,775,329.24a88.84,88.84,0,0,0,10.43,8.46l-2-13A78.51,78.51,0,0,1,772.54,312.93Z" transform="translate(0.06 0.06)"/><path class="cls-1" d="M768.32,225l-2-13a88.81,88.81,0,0,0-7.44,11.2l2.48,16.32A79.8,79.8,0,0,1,768.32,225Z" transform="translate(0.06 0.06)"/><path class="cls-1" d="M761.38,239.52,758.9,223.2a89,89,0,0,0-6.79,15.48l4.81,31.62A78.05,78.05,0,0,1,761.38,239.52Z" transform="translate(0.06 0.06)"/><path class="cls-1" d="M759.4,285.87c-.12-.45-.21-.9-.32-1.36l4.87,32A86.93,86.93,0,0,0,775,329.24l-2.48-16.31A78.1,78.1,0,0,1,759.4,285.87Z" transform="translate(0.06 0.06)"/><path class="cls-1" d="M764,316.51l-4.87-32a78.69,78.69,0,0,1-2.16-14.21l-4.81-31.62a87.08,87.08,0,0,0-4.19,32.59l2.32,15.21c.13.56.27,1.13.42,1.7A87,87,0,0,0,764,316.51Z" transform="translate(0.06 0.06)"/><path class="cls-1" d="M750.24,286.48l-2.32-15.21A87.36,87.36,0,0,0,750.24,286.48Z" transform="translate(0.06 0.06)"/><path class="cls-1" d="M817.49,198.76a69.37,69.37,0,1,1-36.36,110.48l2.35,15.48A78.44,78.44,0,1,0,768.32,225l2.35,15.47A69.32,69.32,0,0,1,817.49,198.76Z" transform="translate(0.06 0.06)"/><path class="cls-1" d="M768.14,283.56c-.06-.25-.11-.49-.17-.74l4.57,30.11a78.51,78.51,0,0,0,10.94,11.79l-2.35-15.48A68.91,68.91,0,0,1,768.14,283.56Z" transform="translate(0.06 0.06)"/><path class="cls-1" d="M770.67,240.49,768.32,225a79.8,79.8,0,0,0-6.94,14.5l4.55,29.91A69.23,69.23,0,0,1,770.67,240.49Z" transform="translate(0.06 0.06)"/><path class="cls-1" d="M772.54,312.93,768,282.82a69.24,69.24,0,0,1-2-13.39l-4.55-29.91a78.05,78.05,0,0,0-4.46,30.78l2.16,14.21c.11.46.2.91.32,1.36A78.1,78.1,0,0,0,772.54,312.93Z" transform="translate(0.06 0.06)"/><path class="cls-1" d="M759.08,284.51l-2.16-14.21A78.69,78.69,0,0,0,759.08,284.51Z" transform="translate(0.06 0.06)"/><path class="cls-1" d="M819.8,207.5a60.33,60.33,0,1,1-42.92,73.75l0-.13,4.28,28.12a69.39,69.39,0,1,0-10.46-68.75l4.28,28.1A60.41,60.41,0,0,1,819.8,207.5Z" transform="translate(0.06 0.06)"/><path class="cls-1" d="M781.13,309.24l-4.28-28.12a60.53,60.53,0,0,1-1.9-12.53l-4.28-28.1a69.23,69.23,0,0,0-4.74,28.94l2,13.39c.06.25.11.49.17.74A68.91,68.91,0,0,0,781.13,309.24Z" transform="translate(0.06 0.06)"/><path class="cls-1" d="M768,282.82l-2-13.39A69.24,69.24,0,0,0,768,282.82Z" transform="translate(0.06 0.06)"/><path class="cls-1" d="M850.63,324.16A60.33,60.33,0,1,0,775,268.59l1.9,12.53,0,.13A60.41,60.41,0,0,0,850.63,324.16ZM822.11,216.24a51.29,51.29,0,1,1-36.49,62.7A51.36,51.36,0,0,1,822.11,216.24Z" transform="translate(0.06 0.06)"/><path class="cls-1" d="M776.85,281.12,775,268.59A60.53,60.53,0,0,0,776.85,281.12Z" transform="translate(0.06 0.06)"/><path class="cls-1" d="M848.32,315.42a51.29,51.29,0,1,0-62.7-36.48A51.35,51.35,0,0,0,848.32,315.42ZM824.42,225a42.25,42.25,0,1,1-30.06,51.65A42.31,42.31,0,0,1,824.42,225Z" transform="translate(0.06 0.06)"/><path class="cls-1" d="M846,306.68a42.25,42.25,0,1,0-51.65-30.05A42.3,42.3,0,0,0,846,306.68Zm-19.28-73a33.21,33.21,0,1,1-23.63,40.6A33.26,33.26,0,0,1,826.73,233.72Z" transform="translate(0.06 0.06)"/><path class="cls-1" d="M843.7,297.94a33.21,33.21,0,1,0-40.6-23.62A33.25,33.25,0,0,0,843.7,297.94ZM829,242.46A24.18,24.18,0,1,1,811.84,272,24.21,24.21,0,0,1,829,242.46Z" transform="translate(0.06 0.06)"/><path class="cls-1" d="M841.39,289.21A24.18,24.18,0,1,0,811.84,272,24.22,24.22,0,0,0,841.39,289.21Zm-10-38a15.14,15.14,0,1,1-10.77,18.5A15.13,15.13,0,0,1,831.35,251.2Z" transform="translate(0.06 0.06)"/><circle class="cls-1" cx="835.21" cy="265.83" r="15.14" transform="translate(-36.08 360.7) rotate(-23.87)"/><polygon class="cls-1" points="363.31 554.31 367.22 553.46 363.12 553.46 363.31 554.31"/></svg>