<svg id="Layer_1" data-name="Layer 1" xmlns="http://www.w3.org/2000/svg" xmlns:xlink="http://www.w3.org/1999/xlink" viewBox="0 0 3203.19 2370.53"><defs><style>.cls-1,.cls-3{fill:none;stroke:#636466;stroke-miterlimit:10;}.cls-2{clip-path:url(#clip-path);}.cls-3{stroke-width:0.25px;}</style><clipPath id="clip-path" transform="translate(1216.68 565.76)"><rect class="cls-1" x="-310.57" y="-174.66" width="1920" height="1224"/></clipPath></defs><g class="cls-2"><path class="cls-3" d="M310.53,925.28l-4.3,1.1A258,258,0,0,1-6.08,738.61a222.34,222.34,0,0,1,158.84-268.5c1-.27,2-.52,3-.77A192.38,192.38,0,0,1,299,489.25a198.2,198.2,0,0,0-167.41-34.42L73.35,469.34,34.66,314.08l58.22-14.5A357.65,357.65,0,0,1,526.4,560.16,302.14,302.14,0,0,1,310.53,925.28Z" transform="translate(1216.68 565.76)"/><path class="cls-3" d="M305.42,905.94c-1.33.35-2.66.69-4,1A238,238,0,0,1,13.32,733.77,202.36,202.36,0,0,1,157.87,489.44l2.73-.7A173.72,173.72,0,0,1,371.19,615.31c15.41,61.85-10.34,125-59.78,160A162.3,162.3,0,0,0,390.55,594,217.64,217.64,0,0,0,126.73,435.42l-38.81,9.67-29-116.44L97.72,319A337.67,337.67,0,0,1,507,565a282.13,282.13,0,0,1-201.57,341Z" transform="translate(1216.68 565.76)"/><path class="cls-3" d="M300.31,886.6c-1.23.33-2.46.65-3.7.95-116.48,29-234.86-42.13-263.88-158.61A182.35,182.35,0,0,1,163,508.78l2.46-.64a153.71,153.71,0,0,1,186.34,112C369,689.23,327,760.24,258.18,778.44l-1.83.47a112.93,112.93,0,0,1-136.71-82.17,98.32,98.32,0,0,1,18.8-85.1,102.47,102.47,0,0,0-28.08,98c18.35,73.68,93.23,118.68,166.91,100.33l2.63-.68A182.14,182.14,0,0,0,410,589.17,237.64,237.64,0,0,0,121.9,416l-19.41,4.83L83.15,343.22l19.41-4.83a317.67,317.67,0,0,1,385,231.44A262.12,262.12,0,0,1,300.31,886.6Zm-90-231.23a18.31,18.31,0,0,0-13,22,32.66,32.66,0,0,0,12.38,18.46l-8.52-34.2,16.17-4.06a6.66,6.66,0,0,0-6.75-2.3Z" transform="translate(1216.68 565.76)"/><path class="cls-3" d="M295.2,867.27l-3.43.88C186,894.5,78.49,829.88,52.14,724.1,30.52,637.34,83.49,549.22,170.29,527.55A133.72,133.72,0,0,1,332.38,625a111.14,111.14,0,0,1-79.31,134.13l-1.55.39a92.89,92.89,0,0,1-112.47-67.6,78.3,78.3,0,0,1,57-94.82,66.65,66.65,0,0,1,80.7,48.51,57.34,57.34,0,0,1-40.92,69.21l-.8.2-9.67-38.81.24-.06a17.29,17.29,0,0,0,12.34-20.87,26.62,26.62,0,0,0-32.22-19.37l-.54.14a38.27,38.27,0,0,0-27.31,46.2,52.84,52.84,0,0,0,64,38.46l1-.25a71.06,71.06,0,0,0,50.72-85.79A93.73,93.73,0,0,0,180,566.36l-1.71.44A122.3,122.3,0,0,0,91,714.43c21,84.38,106.77,135.93,191.15,114.9a202.14,202.14,0,0,0,147.27-245A257.66,257.66,0,0,0,117.06,396.61l-9.67-38.81A297.65,297.65,0,0,1,468.18,574.67a242.13,242.13,0,0,1-173,292.6Z" transform="translate(1216.68 565.76)"/><path class="cls-3" d="M112.23,377.2C261,340.13,411.7,430.7,448.77,579.5c29.66,119-42.8,239.58-161.83,269.24A177.71,177.71,0,0,1,71.54,719.27,142.16,142.16,0,0,1,175.12,547,113.72,113.72,0,0,1,313,629.82,91,91,0,0,1,246.68,740.1a72.79,72.79,0,0,1-88.22-53,58.22,58.22,0,0,1,42.42-70.58,46.58,46.58,0,0,1,56.47,33.94A37.27,37.27,0,0,1,230.2,695.6" transform="translate(1216.68 565.76)"/><path class="cls-3" d="M262.64,1123l-32.42-149.2A298.45,298.45,0,0,1-44.9,748.28,263.07,263.07,0,0,1,36.69,487.67L-13.82,284.94l97-24.18a395.08,395.08,0,0,1,301,45c72.24,43.43,127.33,106.42,160.17,182.88L691,456.83l118.91,547.23Z" transform="translate(1216.68 565.76)"/><path class="cls-3" d="M532.17,511.8C502.26,433.06,447.23,367,373.92,322.94A375.18,375.18,0,0,0,88.05,280.17L10.42,299.51,58.77,493.58l3.19-.79A242.9,242.9,0,0,0-25.49,743.45a278.3,278.3,0,0,0,271.9,210.62l31.53,145.12L786.08,988.76,675.66,480.62Z" transform="translate(1216.68 565.76)"/><rect class="cls-3" x="236.8" y="549.9" width="480" height="480" transform="translate(2364.12 722) rotate(77.74)"/><rect class="cls-3" x="256.8" y="569.9" width="440" height="440" transform="translate(2364.12 722) rotate(77.74)"/><rect class="cls-3" x="276.8" y="589.9" width="400" height="400" transform="translate(2364.12 722) rotate(77.74)"/><rect class="cls-3" x="296.8" y="609.9" width="360" height="360" transform="translate(2364.12 722) rotate(77.74)"/><rect class="cls-3" x="316.8" y="629.9" width="320" height="320" transform="translate(2364.12 722) rotate(77.74)"/><rect class="cls-3" x="336.8" y="649.9" width="280" height="280" transform="translate(2364.12 722) rotate(77.74)"/><rect class="cls-3" x="356.8" y="669.9" width="240" height="240" transform="translate(2364.12 722) rotate(77.74)"/><rect class="cls-3" x="376.8" y="689.9" width="200" height="200" transform="translate(1059.82 685.03) rotate(-12.26)"/><rect class="cls-3" x="396.8" y="709.9" width="160" height="160" transform="translate(1059.81 685.03) rotate(-12.26)"/><path class="cls-3" d="M934.57,1140.7l-794.3,172.6L95.92,1109.22a469.7,469.7,0,0,1-87.69-40.71c-104.85-63-178.85-163-208.38-281.55-27-108.36-10.49-221,46.47-317.15,4.74-8,9.81-15.95,15.12-23.71L-179.46,282-869.72,64.21l11.48-104.29L1191.18-217.29l7.15,404.69-12.69,10.14,168.3,1107.15Z" transform="translate(1216.68 565.76)"/><path class="cls-3" d="M936.23,1119.88,155.57,1289.51,113,1093.82a448.2,448.2,0,0,1-94.51-42.46c-100.26-60.26-171-155.88-199.27-269.23A399.68,399.68,0,0,1-136.47,480c6-10.18,12.58-20.2,19.53-29.88l-45.82-183.87L-848,50.08l7.88-71.65L1171.56-195.51l6.59,373.43-14,11.21L1329,1273.45Z" transform="translate(1216.68 565.76)"/><path class="cls-3" d="M937.89,1099.05l-767,166.67-40.77-187.64a427.49,427.49,0,0,1-101.26-43.86c-95.68-57.51-163.22-148.76-190.17-256.93a379.86,379.86,0,0,1,42.08-287.1,386.35,386.35,0,0,1,24-35.79l-50.79-203.85L-826.37,35.94l4.3-39,1974-170.68,6,342.18-15.36,12.28L1304,1242.21Z" transform="translate(1216.68 565.76)"/><path class="cls-3" d="M1132.33-152-820.35,16.87l684.68,216,5.48-1.36L-73.52,459A367.1,367.1,0,0,0-102,500.39a359.89,359.89,0,0,0-39.88,272.07c25.66,103,90,189.86,181.07,244.62A406.3,406.3,0,0,0,147.05,1062l39.11,180,742.67-161.38-1.55-7.12L1279,1211,1121.12,172.31,1137.81,159Z" transform="translate(1216.68 565.76)"/><path class="cls-3" d="M605.62,352.57l177.12-38.49,14.36,66.09L1097.47,140l-4.38-248.43L-616.1,39.36l481.71,152,188.59-47C188.38,110.89,327.54,131.72,446,203A521.6,521.6,0,0,1,605.62,352.57Z" transform="translate(1216.68 565.76)"/><path class="cls-3" d="M784.4,415.93l-17-78.06L596.79,375l-7.62-11A502.55,502.55,0,0,0,435.74,220.09C321.81,151.61,188,131.59,59,163.73L-135,212.08l-583.19-184L1112.71-130.2l4.93,279.68Z" transform="translate(1216.68 565.76)"/><path class="cls-3" d="M614.28,330.23,798,290.29l11.75,54.12L1077.3,130.52l-3.83-217.18L-514,50.6l380.22,119.94L49.37,124.91c139.36-34.71,283.89-13.09,407,60.9A543.3,543.3,0,0,1,614.28,330.23Z" transform="translate(1216.68 565.76)"/><path class="cls-3" d="M622.59,308,813.33,266.5l9.16,42.15L1057.13,121l-3.28-185.93L-411.84,61.85l278.72,87.92L44.53,105.51C189.08,69.5,339,91.93,466.65,168.67A565.35,565.35,0,0,1,622.59,308Z" transform="translate(1216.68 565.76)"/><path class="cls-3" d="M630.57,285.75l198.06-43,6.56,30.18L1037,111.56l-2.73-154.68L-309.72,73.09-132.48,129,39.7,86.1C189.43,48.8,344.71,72,477,151.53A586.84,586.84,0,0,1,630.57,285.75Z" transform="translate(1216.68 565.76)"/><path class="cls-3" d="M638.27,263.61l205.66-44.69,4,18.21,168.9-135-2.18-123.43L200.33,49.06c100.27,3.38,198.58,32.22,286.93,85.33A608.93,608.93,0,0,1,638.27,263.61Z" transform="translate(1216.68 565.76)"/><path class="cls-3" d="M645.69,241.53l213.54-46.41,1.35,6.25,136-108.77L995,.42l-636.28,55a622,622,0,0,1,138.84,61.81A630.46,630.46,0,0,1,645.69,241.53Z" transform="translate(1216.68 565.76)"/><path class="cls-3" d="M652.85,219.51,863,173.84,976.45,83.12,975.38,22.2,447.09,67.88a641.52,641.52,0,0,1,60.77,32.22A651.89,651.89,0,0,1,652.85,219.51Z" transform="translate(1216.68 565.76)"/><path class="cls-3" d="M659.78,197.54l194.38-42.25L956.28,73.64,955.76,44,516.48,82l1.69,1A673.41,673.41,0,0,1,659.78,197.54Z" transform="translate(1216.68 565.76)"/><path class="cls-3" d="M666.48,175.61l178.85-38.87L933.9,65.93l-358.44,31A703.33,703.33,0,0,1,666.48,175.61Z" transform="translate(1216.68 565.76)"/><path class="cls-3" d="M-131.84,108.23,34.86,66.69q11.69-2.91,23.41-5.34l-265.86,23Z" transform="translate(1216.68 565.76)"/><path class="cls-3" d="M899.82,1041.21l5.22,24L201.46,1218.14l-37.54-172.73A384.88,384.88,0,0,1,49.44,999.94c-86.52-52-147.6-134.51-172-232.32a340.06,340.06,0,0,1,37.67-257,347.38,347.38,0,0,1,33.17-46.71l-59.11-237.22L63.87,183.13c123.81-30.84,252.22-11.63,361.56,54.11A478,478,0,0,1,587.15,397.52l165-35.85,19.56,90,331.38-265,151,993Z" transform="translate(1216.68 565.76)"/><path class="cls-3" d="M872.35,1009l8.9,41-664.5,144.4-36.06-166A362.88,362.88,0,0,1,59.75,982.8C-22.2,933.54-80,855.41-103.12,762.79a320.2,320.2,0,0,1,35.48-242,325.58,325.58,0,0,1,37.88-51.63L-86.55,241.22,68.71,202.54C187.33,173,310.36,191.4,415.13,254.38A456.44,456.44,0,0,1,577.26,420.14l159.59-34.68,22.16,102L1088.51,224l140.54,924.5Z" transform="translate(1216.68 565.76)"/><path class="cls-3" d="M844.88,976.78l12.58,57.88-625.41,135.9-34.71-159.73A341.11,341.11,0,0,1,70.05,965.66C-7.32,919.15-61.93,845.39-83.71,758A300.26,300.26,0,0,1-50.43,531a303.75,303.75,0,0,1,42.7-56.14l-54.57-219L73.54,222C187,193.69,304.63,211.29,404.83,271.52a435,435,0,0,1,162,171.34l154.68-33.61,24.76,114,327.64-262,130.12,856Z" transform="translate(1216.68 565.76)"/><path class="cls-3" d="M1059.38,298.49,733.62,559,706.25,433,555.93,465.71c-35.07-73.5-90.59-134.48-161.41-177-95.61-57.48-207.89-74.28-316.14-47.3l-116.44,29L14.41,481a283.43,283.43,0,0,0-47.64,60.18,280.45,280.45,0,0,0-31.07,212A315.57,315.57,0,0,0,80.35,948.52a319.41,319.41,0,0,0,133.51,44.14l33.49,154.11,586.32-127.41-16.26-74.79L1179.09,1086Z" transform="translate(1216.68 565.76)"/><polygon class="cls-3" points="1693.48 1355.66 2261.5 901.5 2370.8 1620.51 1693.48 1355.66"/><polygon class="cls-3" points="1733.03 1349.65 2246.93 938.76 2345.82 1589.27 1733.03 1349.65"/><polygon class="cls-3" points="1772.57 1343.64 2232.36 976.01 2320.84 1558.03 1772.57 1343.64"/><polygon class="cls-3" points="1812.12 1337.63 2217.8 1013.26 2295.86 1526.79 1812.12 1337.63"/><polygon class="cls-3" points="1851.66 1331.62 2203.23 1050.52 2270.88 1495.54 1851.66 1331.62"/><polygon class="cls-3" points="1891.21 1325.61 2188.67 1087.77 2245.91 1464.3 1891.21 1325.61"/><polygon class="cls-3" points="1930.75 1319.6 2174.1 1125.03 2220.93 1433.06 1930.75 1319.6"/><polygon class="cls-3" points="1970.3 1313.59 2159.53 1162.28 2195.95 1401.82 1970.3 1313.59"/><polygon class="cls-3" points="2009.84 1307.57 2144.97 1199.53 2170.97 1370.58 2009.84 1307.57"/><polygon class="cls-3" points="2145.99 1339.34 2049.39 1301.56 2130.4 1236.79 2145.99 1339.34"/><path class="cls-3" d="M908.06,1473.93-104.48,1694l-80.15-368.81c-163.07-107.52-278.7-270.85-326-460.82-28-112.52-28.46-236.68-1.46-351.76l-704.42-222.21,69-626.61L1505.09-565.62l6.46,366.26C1584.77-180,1656.82-147,1716-105.59a634.39,634.39,0,0,1,249.23,357.2c42.51,160.83,20.62,329.26-61.64,474.27a639.25,639.25,0,0,1-274.74,257.77l124.79,820.92Z" transform="translate(1216.68 565.76)"/><path class="cls-3" d="M909.72,1453.11-89.19,1670.16l-77.64-357.29c-162.53-104.72-277.59-265.41-324.42-453.39-28.89-116-27.71-243.13,3.07-360.34l-706.69-222.92,65.38-594,2615-226.1,6.36,360.16c76.13,18.14,151.1,51.39,212.66,94.49a614.32,614.32,0,0,1,241.36,345.92c41.17,155.75,20,318.86-59.7,459.3-63.68,112.25-162.48,202.62-279.35,255.9l121.82,801.41Z" transform="translate(1216.68 565.76)"/><path class="cls-3" d="M911.38,1432.28-73.89,1646.36-149,1300.48c-162-101.88-276.47-259.88-322.8-445.83-29.75-119.43-26.79-249.57,8.1-368.77l-709.44-223.79,61.78-561.32L1465.86-522.08l6.25,354.45c79,16.66,156.92,50,220.91,94.81a594.37,594.37,0,0,1,233.5,334.65c39.82,150.66,19.31,308.46-57.76,444.32a595.33,595.33,0,0,1-284,253.63l118.92,782.31Z" transform="translate(1216.68 565.76)"/><path class="cls-3" d="M913,1411.45-58.59,1622.57-131.31,1288c-161.41-99-275.34-254.32-321.13-438.13-30.63-122.93-25.69-256,13.67-377L-1151.51,248l58.19-528.67L1446.24-500.31l6.15,349.2c81.93,14.86,162.72,48.16,229.16,94.68a574.38,574.38,0,0,1,225.63,323.37c38.48,145.58,18.65,298.06-55.82,429.34a573.44,573.44,0,0,1-288.77,251l116.07,763.61Z" transform="translate(1216.68 565.76)"/><path class="cls-3" d="M914.69,1390.63l-958,208.15-70.3-323.48-1.82-1.09C-275.21,1178.16-388,1025.72-433,845c-31.51-126.47-24.4-262.36,19.82-385.1l-716.63-226.06,54.6-496L1426.62-478.54l6.07,344.43c84.8,12.74,168.48,45.82,237.39,94.06a554.29,554.29,0,0,1,217.76,312.1c37.14,140.5,18,287.65-53.87,414.36-65.65,115.7-169.45,203.18-293.59,247.8l113.31,745.39Z" transform="translate(1216.68 565.76)"/><path class="cls-3" d="M916.35,1369.8-28,1575l-67.91-312.51c-3.13-1.81-6.21-3.62-9.2-5.42-155.22-93.29-264.78-241.35-308.52-416.91a645.33,645.33,0,0,1,26.62-393l-721.15-227.49,51-463.38L1407-456.77l6,340.2c87.64,10.27,174.22,42.93,245.61,92.91a534.31,534.31,0,0,1,209.9,300.82c35.79,135.41,17.34,277.25-51.94,399.38-66.26,116.8-171.8,203-298.48,244.16l110.62,727.66Z" transform="translate(1216.68 565.76)"/><path class="cls-3" d="M918,1349-12.7,1551.2l-65.56-301.7c-5.7-3.18-11.24-6.38-16.55-9.58-150.63-90.54-257-234.23-299.41-404.61A622.77,622.77,0,0,1-360.1,434.69l-726.38-229.14,47.41-430.74L1387.38-435l5.93,336.57c90.47,7.4,180,39.43,253.83,91.15a514.25,514.25,0,0,1,202,289.55c71.3,269.78-86.82,547.16-353.44,624.38l108,710.47Z" transform="translate(1216.68 565.76)"/><path class="cls-3" d="M919.66,1328.15,2.6,1527.41l-63.25-291.06c-8.3-4.48-16.3-9-23.86-13.57-146-87.79-249.15-227.11-290.3-392.3a601.55,601.55,0,0,1,42.39-408l-732.39-231,43.82-398.1L1367.76-413.23l5.88,333.6c93.27,4.08,185.63,35.25,262,88.74a494.31,494.31,0,0,1,194.16,278.27c69.53,263.08-87.93,533.67-351,603.2q-2.76.74-5.55,1.44l105.47,693.85Z" transform="translate(1216.68 565.76)"/><path class="cls-3" d="M921.32,1307.32,17.89,1503.62l-61-280.58c-10.84-5.66-21.46-11.59-31.12-17.4-141.48-85-241.34-220-281.2-380a580.82,580.82,0,0,1,45.81-404.19L-313,407.59l-730.09-230.31,40.22-365.45L1348.14-391.45,1354-60.09A473.52,473.52,0,0,1,1810.5,292.49c66.71,252.42-84.37,512.05-336.78,578.76-7.58,2-15.27,3.83-23,5.47l103,677.91Z" transform="translate(1216.68 565.76)"/><path class="cls-3" d="M923,1286.49,33.19,1479.83l-58.73-270.27c-13.37-6.73-26.49-13.93-38.36-21.06C-200.79,1106.21-297.43,975.63-336,820.81a560.2,560.2,0,0,1,47.64-396.87l-8-32.06-725.1-228.73,36.63-332.81,2313.34-200,5.82,330A453.5,453.5,0,0,1,1791.16,297.6c63.9,241.75-80.8,490.42-322.55,554.31-13.34,3.53-26.91,6.46-40.56,8.77l100.74,662.71Z" transform="translate(1216.68 565.76)"/><path class="cls-3" d="M924.63,1265.67,48.49,1456-8,1195.88c-15.89-7.68-31.48-16.07-45.55-24.53-132.31-79.53-225.71-205.74-263-355.38a539.66,539.66,0,0,1,49.5-389.4l-12.56-50.39L-999.78,149l33-300.16L1308.9-347.91l5.81,329.51c208.86-18.67,402.92,116.05,457.12,321.11,61.08,231.09-77.24,468.79-308.33,529.87a438.48,438.48,0,0,1-58.24,11.23l98.56,648.34Z" transform="translate(1216.68 565.76)"/><path class="cls-3" d="M926.29,1244.84,63.78,1432.25,9.41,1182a560.21,560.21,0,0,1-52.7-27.81C-171,1077.43-261.2,955.6-297.18,811.14a519.07,519.07,0,0,1,51.4-381.78l-17.17-68.88L-978.1,134.88l29.44-267.52,2237.94-193.5L1295.1,4c205.66-29.16,403.66,100.5,457.39,303.82,58.26,220.43-73.67,447.16-294.1,505.42A416.11,416.11,0,0,1,1382.32,826l96.52,634.93Z" transform="translate(1216.68 565.76)"/><path class="cls-3" d="M927.94,1224,79.08,1408.46,26.81,1167.94A544.89,544.89,0,0,1-33,1137.07c-123.16-74-210.09-191.49-244.79-330.77-31.81-127.67-12.85-260.32,53.34-374l-21.81-87.55-710.18-224,25.86-234.87L1269.66-304.37l5.86,332c202.2-40.6,404.25,83.31,457.64,285.3,55.44,209.77-70.12,425.53-279.88,481A393.06,393.06,0,0,1,1359.2,807l94.66,622.67Z" transform="translate(1216.68 565.76)"/><path class="cls-3" d="M929.6,1203.18,94.38,1384.67l-50.21-231a526.07,526.07,0,0,1-66.85-33.71C-141.26,1048.65-225,935.56-258.37,801.47c-30.84-123.77-12-252.42,53.07-362.24q1.11-1.87,2.26-3.77l-26.51-106.39-705.2-222.46,22.26-202.22L1250-282.6,1256,52.75l1.33-.36C1456.4-.23,1661.2,118.94,1713.82,318s-66.55,403.9-265.65,456.53a371.32,371.32,0,0,1-112.29,12.08l93,611.77Z" transform="translate(1216.68 565.76)"/><path class="cls-3" d="M931.26,1182.36,109.68,1360.88,61.48,1139.1a508.68,508.68,0,0,1-73.86-36.31c-114-68.53-194.47-177.25-226.58-306.16C-268.52,678-250.45,554.69-188.09,449.42c2.09-3.53,4.26-7.09,6.49-10.63l-31.25-125.43L-913.07,92.48-894.41-77.1,1230.42-260.83l6,340.5c8.57-3,17.25-5.64,26-7.94,188.44-49.81,382.27,63,432.07,251.42s-63,382.28-251.42,432.08a349.52,349.52,0,0,1-130.75,9.44l91.59,602.51Z" transform="translate(1216.68 565.76)"/><path class="cls-3" d="M1267.52,91.06a334.7,334.7,0,0,0-50.58,17.82l-6.14-347.94L-876.32-58.59-891.4,78.34l695.25,219.32,36,144.68c-3.74,5.7-7.35,11.49-10.77,17.27-59.67,100.72-77,218.69-48.68,332.19,30.83,123.72,108.06,228.08,217.48,293.85a489.52,489.52,0,0,0,80.81,38.65L125,1337.09l807.94-175.56,446,174.4-90.49-595.26A331.49,331.49,0,0,0,1438,735.9c177.78-47,284.19-229.86,237.2-407.64S1445.3,44.07,1267.52,91.06Z" transform="translate(1216.68 565.76)"/><circle class="cls-3" cx="1352.73" cy="413.48" r="313.49" transform="translate(1320.51 1643.39) rotate(-45)"/><circle class="cls-3" cx="1352.73" cy="413.48" r="293.49" transform="translate(1320.51 1643.39) rotate(-45)"/><circle class="cls-3" cx="1352.73" cy="413.48" r="273.49" transform="translate(1320.51 1643.39) rotate(-45)"/><circle class="cls-3" cx="1352.73" cy="413.48" r="253.49" transform="translate(1320.51 1643.39) rotate(-45)"/><circle class="cls-3" cx="1352.73" cy="413.48" r="233.49" transform="translate(1320.51 1643.39) rotate(-45)"/><circle class="cls-3" cx="1352.73" cy="413.48" r="213.49" transform="translate(1320.51 1643.39) rotate(-45)"/><circle class="cls-3" cx="1352.73" cy="413.48" r="193.49" transform="translate(1320.51 1643.39) rotate(-45)"/><circle class="cls-3" cx="2569.41" cy="979.24" r="173.49"/><circle class="cls-3" cx="2569.41" cy="979.24" r="153.49"/><circle class="cls-3" cx="2569.41" cy="979.24" r="133.49"/><circle class="cls-3" cx="2569.41" cy="979.24" r="113.49"/><circle class="cls-3" cx="2569.41" cy="979.24" r="93.49"/><circle class="cls-3" cx="2569.41" cy="979.24" r="73.49"/><circle class="cls-3" cx="2569.41" cy="979.24" r="53.49"/><circle class="cls-3" cx="2569.41" cy="979.24" r="33.49"/><line class="cls-3" x1="906.11" y1="391.1" x2="906.11" y2="1615.1"/><line class="cls-3" x1="926.11" y1="391.1" x2="926.11" y2="1615.1"/><line class="cls-3" x1="946.11" y1="391.1" x2="946.11" y2="1615.1"/><line class="cls-3" x1="966.11" y1="391.1" x2="966.11" y2="1615.1"/><line class="cls-3" x1="986.11" y1="391.1" x2="986.11" y2="1615.1"/><line class="cls-3" x1="1006.11" y1="391.1" x2="1006.11" y2="1615.1"/><line class="cls-3" x1="1026.11" y1="391.1" x2="1026.11" y2="1615.1"/><line class="cls-3" x1="1046.11" y1="391.1" x2="1046.11" y2="1615.1"/><line class="cls-3" x1="1066.11" y1="391.1" x2="1066.11" y2="1615.1"/><line class="cls-3" x1="1086.11" y1="391.1" x2="1086.11" y2="1615.1"/><line class="cls-3" x1="1106.11" y1="391.1" x2="1106.11" y2="1615.1"/><line class="cls-3" x1="1126.11" y1="391.1" x2="1126.11" y2="1615.1"/><line class="cls-3" x1="1146.11" y1="391.1" x2="1146.11" y2="1615.1"/><line class="cls-3" x1="1166.11" y1="391.1" x2="1166.11" y2="1615.1"/><line class="cls-3" x1="1186.11" y1="391.1" x2="1186.11" y2="1615.1"/><line class="cls-3" x1="1206.11" y1="391.1" x2="1206.11" y2="1615.1"/><line class="cls-3" x1="1226.11" y1="391.1" x2="1226.11" y2="1615.1"/><line class="cls-3" x1="1246.11" y1="391.1" x2="1246.11" y2="1615.1"/><line class="cls-3" x1="1266.11" y1="391.1" x2="1266.11" y2="1615.1"/><line class="cls-3" x1="1286.11" y1="391.1" x2="1286.11" y2="1615.1"/><line class="cls-3" x1="1306.11" y1="391.1" x2="1306.11" y2="1615.1"/><line class="cls-3" x1="1326.11" y1="391.1" x2="1326.11" y2="1615.1"/><line class="cls-3" x1="1346.11" y1="391.1" x2="1346.11" y2="1615.1"/><line class="cls-3" x1="1366.11" y1="391.1" x2="1366.11" y2="1615.1"/><line class="cls-3" x1="1386.11" y1="391.1" x2="1386.11" y2="1615.1"/><line class="cls-3" x1="1406.11" y1="391.1" x2="1406.11" y2="1615.1"/><line class="cls-3" x1="1426.11" y1="391.1" x2="1426.11" y2="1615.1"/><line class="cls-3" x1="1446.11" y1="391.1" x2="1446.11" y2="1615.1"/><line class="cls-3" x1="1466.11" y1="391.1" x2="1466.11" y2="1615.1"/><line class="cls-3" x1="1486.11" y1="391.1" x2="1486.11" y2="1615.1"/><line class="cls-3" x1="1506.11" y1="391.1" x2="1506.11" y2="1615.1"/><line class="cls-3" x1="1526.11" y1="391.1" x2="1526.11" y2="1615.1"/><line class="cls-3" x1="1546.11" y1="391.1" x2="1546.11" y2="1615.1"/><line class="cls-3" x1="1566.11" y1="391.1" x2="1566.11" y2="1615.1"/><line class="cls-3" x1="1586.11" y1="391.1" x2="1586.11" y2="1615.1"/><line class="cls-3" x1="1606.11" y1="391.1" x2="1606.11" y2="1615.1"/><line class="cls-3" x1="1626.11" y1="391.1" x2="1626.11" y2="1615.1"/><line class="cls-3" x1="1646.11" y1="391.1" x2="1646.11" y2="1615.1"/><line class="cls-3" x1="1666.11" y1="391.1" x2="1666.11" y2="1615.1"/><line class="cls-3" x1="1686.11" y1="391.1" x2="1686.11" y2="1615.1"/><line class="cls-3" x1="1706.11" y1="391.1" x2="1706.11" y2="1615.1"/><line class="cls-3" x1="1726.11" y1="391.1" x2="1726.11" y2="1615.1"/><line class="cls-3" x1="1746.11" y1="391.1" x2="1746.11" y2="1615.1"/><line class="cls-3" x1="1766.11" y1="391.1" x2="1766.11" y2="1615.1"/><line class="cls-3" x1="1786.11" y1="391.1" x2="1786.11" y2="1615.1"/><line class="cls-3" x1="1806.11" y1="391.1" x2="1806.11" y2="1615.1"/><line class="cls-3" x1="1826.11" y1="391.1" x2="1826.11" y2="1615.1"/><line class="cls-3" x1="1846.11" y1="391.1" x2="1846.11" y2="1615.1"/><line class="cls-3" x1="1866.11" y1="391.1" x2="1866.11" y2="1615.1"/><line class="cls-3" x1="1886.11" y1="391.1" x2="1886.11" y2="1615.1"/><line class="cls-3" x1="1906.11" y1="391.1" x2="1906.11" y2="1615.1"/><line class="cls-3" x1="1926.11" y1="391.1" x2="1926.11" y2="1615.1"/><line class="cls-3" x1="1946.11" y1="391.1" x2="1946.11" y2="1615.1"/><line class="cls-3" x1="1966.11" y1="391.1" x2="1966.11" y2="1615.1"/><line class="cls-3" x1="1986.11" y1="391.1" x2="1986.11" y2="1615.1"/><line class="cls-3" x1="2006.11" y1="391.1" x2="2006.11" y2="1615.1"/><line class="cls-3" x1="2026.11" y1="391.1" x2="2026.11" y2="1615.1"/><line class="cls-3" x1="2046.11" y1="391.1" x2="2046.11" y2="1615.1"/><line class="cls-3" x1="2066.11" y1="391.1" x2="2066.11" y2="1615.1"/><line class="cls-3" x1="2086.11" y1="391.1" x2="2086.11" y2="1615.1"/><line class="cls-3" x1="2106.11" y1="391.1" x2="2106.11" y2="1615.1"/><line class="cls-3" x1="2126.11" y1="391.1" x2="2126.11" y2="1615.1"/><line class="cls-3" x1="2146.11" y1="391.1" x2="2146.11" y2="1615.1"/><line class="cls-3" x1="2166.11" y1="391.1" x2="2166.11" y2="1615.1"/><line class="cls-3" x1="2186.11" y1="391.1" x2="2186.11" y2="1615.1"/><line class="cls-3" x1="2206.11" y1="391.1" x2="2206.11" y2="1615.1"/><line class="cls-3" x1="2226.11" y1="391.1" x2="2226.11" y2="1615.1"/><line class="cls-3" x1="2246.11" y1="391.1" x2="2246.11" y2="1615.1"/><line class="cls-3" x1="2266.11" y1="391.1" x2="2266.11" y2="1615.1"/><line class="cls-3" x1="2286.11" y1="391.1" x2="2286.11" y2="1615.1"/><line class="cls-3" x1="2306.11" y1="391.1" x2="2306.11" y2="1615.1"/><line class="cls-3" x1="2326.11" y1="391.1" x2="2326.11" y2="1615.1"/><line class="cls-3" x1="2346.11" y1="391.1" x2="2346.11" y2="1615.1"/><line class="cls-3" x1="2366.11" y1="391.1" x2="2366.11" y2="1615.1"/><line class="cls-3" x1="2386.11" y1="391.1" x2="2386.11" y2="1615.1"/><line class="cls-3" x1="2406.11" y1="391.1" x2="2406.11" y2="1615.1"/><line class="cls-3" x1="2426.11" y1="391.1" x2="2426.11" y2="1615.1"/><line class="cls-3" x1="2446.11" y1="391.1" x2="2446.11" y2="1615.1"/><line class="cls-3" x1="2466.11" y1="391.1" x2="2466.11" y2="1615.1"/><line class="cls-3" x1="2486.11" y1="391.1" x2="2486.11" y2="1615.1"/><line class="cls-3" x1="2506.11" y1="391.1" x2="2506.11" y2="1615.1"/><line class="cls-3" x1="2526.11" y1="391.1" x2="2526.11" y2="1615.1"/><line class="cls-3" x1="2546.11" y1="391.1" x2="2546.11" y2="1615.1"/><line class="cls-3" x1="2566.11" y1="391.1" x2="2566.11" y2="1615.1"/><line class="cls-3" x1="2586.11" y1="391.1" x2="2586.11" y2="1615.1"/><line class="cls-3" x1="2606.11" y1="391.1" x2="2606.11" y2="1615.1"/><line class="cls-3" x1="2626.11" y1="391.1" x2="2626.11" y2="1615.1"/><line class="cls-3" x1="2646.11" y1="391.1" x2="2646.11" y2="1615.1"/><line class="cls-3" x1="2666.11" y1="391.1" x2="2666.11" y2="1615.1"/><line class="cls-3" x1="2686.11" y1="391.1" x2="2686.11" y2="1615.1"/><line class="cls-3" x1="2706.11" y1="391.1" x2="2706.11" y2="1615.1"/><line class="cls-3" x1="2726.11" y1="391.1" x2="2726.11" y2="1615.1"/><line class="cls-3" x1="2746.11" y1="391.1" x2="2746.11" y2="1615.1"/><line class="cls-3" x1="2766.11" y1="391.1" x2="2766.11" y2="1615.1"/><line class="cls-3" x1="2786.11" y1="391.1" x2="2786.11" y2="1615.1"/><line class="cls-3" x1="2806.11" y1="391.1" x2="2806.11" y2="1615.1"/></g><rect class="cls-1" x="906.11" y="391.1" width="1920" height="1224"/></svg>